<svg version="1.1" viewBox="0.0 0.0 1028.0 636.0" fill="none" stroke="none" stroke-linecap="square" stroke-miterlimit="10" width="1028" height="636" xmlns:xlink="http://www.w3.org/1999/xlink" xmlns="http://www.w3.org/2000/svg"><path fill="#ffffff" d="M0 0L1028.0 0L1028.0 636.0L0 636.0L0 0Z" fill-rule="nonzero"/><path stroke="#333333" stroke-width="1.0" stroke-linecap="butt" d="M121.5 74.5L121.5 552.5" fill-rule="nonzero"/><path stroke="#cccccc" stroke-width="1.0" stroke-linecap="butt" d="M256.5 74.5L256.5 552.5" fill-rule="nonzero"/><path stroke="#cccccc" stroke-width="1.0" stroke-linecap="butt" d="M390.5 74.5L390.5 552.5" fill-rule="nonzero"/><path stroke="#cccccc" stroke-width="1.0" stroke-linecap="butt" d="M525.5 74.5L525.5 552.5" fill-rule="nonzero"/><path stroke="#cccccc" stroke-width="1.0" stroke-linecap="butt" d="M659.5 74.5L659.5 552.5" fill-rule="nonzero"/><path stroke="#cccccc" stroke-width="1.0" stroke-linecap="butt" d="M794.5 74.5L794.5 552.5" fill-rule="nonzero"/><path stroke="#cccccc" stroke-width="1.0" stroke-linecap="butt" d="M928.5 74.5L928.5 552.5" fill-rule="nonzero"/><path stroke="#333333" stroke-width="1.0" stroke-linecap="butt" d="M121.5 552.5L996.5 552.5" fill-rule="nonzero"/><path stroke="#cccccc" stroke-width="1.0" stroke-linecap="butt" d="M121.5 392.5L996.5 392.5" fill-rule="nonzero"/><path stroke="#cccccc" stroke-width="1.0" stroke-linecap="butt" d="M121.5 233.5L996.5 233.5" fill-rule="nonzero"/><path stroke="#cccccc" stroke-width="1.0" stroke-linecap="butt" d="M121.5 74.5L996.5 74.5" fill-rule="nonzero"/><clipPath id="id_0"><path d="M121.8 74.0L996.2 74.0L996.2 552.2L121.8 552.2L121.8 74.0Z" clip-rule="nonzero"/></clipPath><path stroke="#4285f4" stroke-width="2.0" stroke-linecap="butt" clip-path="url(#id_0)" d="M121.8 472.5L189.06154 472.5L256.3231 472.5L323.58463 472.5L390.84616 392.8L458.1077 392.8L525.3692 313.1L592.6308 313.1L659.89233 233.4L727.1539 233.4L794.4154 233.4L861.67694 233.4L928.9385 153.7L996.2 153.7" fill-rule="nonzero"/><path stroke="#ea4335" stroke-width="2.0" stroke-linecap="butt" clip-path="url(#id_0)" d="M121.8 472.5L189.06154 472.5L256.3231 472.5L323.58463 472.5L390.84616 472.5L458.1077 392.8L525.3692 392.8L592.6308 392.8L659.89233 233.4L727.1539 153.7L794.4154 153.7L861.67694 153.7L928.9385 153.7L996.2 74.0" fill-rule="nonzero"/><path fill="#000000" fill-opacity="0.0" clip-path="url(#id_0)" d="M124.8 472.5C124.8 474.15686 123.456856 475.5 121.8 475.5C120.14314 475.5 118.8 474.15686 118.8 472.5C118.8 470.84314 120.14314 469.5 121.8 469.5C123.456856 469.5 124.8 470.84314 124.8 472.5Z" fill-rule="nonzero"/><path fill="#000000" fill-opacity="0.0" clip-path="url(#id_0)" d="M192.06154 472.5C192.06154 474.15686 190.7184 475.5 189.06154 475.5C187.40468 475.5 186.06154 474.15686 186.06154 472.5C186.06154 470.84314 187.40468 469.5 189.06154 469.5C190.7184 469.5 192.06154 470.84314 192.06154 472.5Z" fill-rule="nonzero"/><path fill="#000000" fill-opacity="0.0" clip-path="url(#id_0)" d="M259.3231 472.5C259.3231 474.15686 257.97992 475.5 256.3231 475.5C254.66623 475.5 253.32307 474.15686 253.32307 472.5C253.32307 470.84314 254.66623 469.5 256.3231 469.5C257.97992 469.5 259.3231 470.84314 259.3231 472.5Z" fill-rule="nonzero"/><path fill="#000000" fill-opacity="0.0" clip-path="url(#id_0)" d="M326.58463 472.5C326.58463 474.15686 325.24146 475.5 323.58463 475.5C321.92776 475.5 320.58463 474.15686 320.58463 472.5C320.58463 470.84314 321.92776 469.5 323.58463 469.5C325.24146 469.5 326.58463 470.84314 326.58463 472.5Z" fill-rule="nonzero"/><path fill="#000000" fill-opacity="0.0" clip-path="url(#id_0)" d="M393.84616 392.8C393.84616 394.45685 392.50302 395.8 390.84616 395.8C389.1893 395.8 387.84616 394.45685 387.84616 392.8C387.84616 391.14316 389.1893 389.8 390.84616 389.8C392.50302 389.8 393.84616 391.14316 393.84616 392.8Z" fill-rule="nonzero"/><path fill="#000000" fill-opacity="0.0" clip-path="url(#id_0)" d="M461.1077 392.8C461.1077 394.45685 459.76456 395.8 458.1077 395.8C456.45084 395.8 455.1077 394.45685 455.1077 392.8C455.1077 391.14316 456.45084 389.8 458.1077 389.8C459.76456 389.8 461.1077 391.14316 461.1077 392.8Z" fill-rule="nonzero"/><path fill="#000000" fill-opacity="0.0" clip-path="url(#id_0)" d="M528.3692 313.1C528.3692 314.75687 527.02606 316.1 525.3692 316.1C523.7124 316.1 522.3692 314.75687 522.3692 313.1C522.3692 311.44315 523.7124 310.1 525.3692 310.1C527.02606 310.1 528.3692 311.44315 528.3692 313.1Z" fill-rule="nonzero"/><path fill="#000000" fill-opacity="0.0" clip-path="url(#id_0)" d="M595.6308 313.1C595.6308 314.75687 594.2876 316.1 592.6308 316.1C590.97394 316.1 589.6308 314.75687 589.6308 313.1C589.6308 311.44315 590.97394 310.1 592.6308 310.1C594.2876 310.1 595.6308 311.44315 595.6308 313.1Z" fill-rule="nonzero"/><path fill="#000000" fill-opacity="0.0" clip-path="url(#id_0)" d="M662.89233 233.4C662.89233 235.05685 661.54913 236.4 659.89233 236.4C658.2355 236.4 656.89233 235.05685 656.89233 233.4C656.89233 231.74315 658.2355 230.4 659.89233 230.4C661.54913 230.4 662.89233 231.74315 662.89233 233.4Z" fill-rule="nonzero"/><path fill="#000000" fill-opacity="0.0" clip-path="url(#id_0)" d="M730.1539 233.4C730.1539 235.05685 728.8107 236.4 727.1539 236.4C725.497 236.4 724.1539 235.05685 724.1539 233.4C724.1539 231.74315 725.497 230.4 727.1539 230.4C728.8107 230.4 730.1539 231.74315 730.1539 233.4Z" fill-rule="nonzero"/><path fill="#000000" fill-opacity="0.0" clip-path="url(#id_0)" d="M797.4154 233.4C797.4154 235.05685 796.07227 236.4 794.4154 236.4C792.75854 236.4 791.4154 235.05685 791.4154 233.4C791.4154 231.74315 792.75854 230.4 794.4154 230.4C796.07227 230.4 797.4154 231.74315 797.4154 233.4Z" fill-rule="nonzero"/><path fill="#000000" fill-opacity="0.0" clip-path="url(#id_0)" d="M864.67694 233.4C864.67694 235.05685 863.3338 236.4 861.67694 236.4C860.0201 236.4 858.67694 235.05685 858.67694 233.4C858.67694 231.74315 860.0201 230.4 861.67694 230.4C863.3338 230.4 864.67694 231.74315 864.67694 233.4Z" fill-rule="nonzero"/><path fill="#000000" fill-opacity="0.0" clip-path="url(#id_0)" d="M931.9385 153.7C931.9385 155.35686 930.59534 156.7 928.9385 156.7C927.2816 156.7 925.9385 155.35686 925.9385 153.7C925.9385 152.04315 927.2816 150.7 928.9385 150.7C930.59534 150.7 931.9385 152.04315 931.9385 153.7Z" fill-rule="nonzero"/><path fill="#000000" fill-opacity="0.0" clip-path="url(#id_0)" d="M999.2 153.7C999.2 155.35686 997.8569 156.7 996.2 156.7C994.54315 156.7 993.2 155.35686 993.2 153.7C993.2 152.04315 994.54315 150.7 996.2 150.7C997.8569 150.7 999.2 152.04315 999.2 153.7Z" fill-rule="nonzero"/><path fill="#000000" fill-opacity="0.0" clip-path="url(#id_0)" d="M124.8 472.5C124.8 474.15686 123.456856 475.5 121.8 475.5C120.14314 475.5 118.8 474.15686 118.8 472.5C118.8 470.84314 120.14314 469.5 121.8 469.5C123.456856 469.5 124.8 470.84314 124.8 472.5Z" fill-rule="nonzero"/><path fill="#000000" fill-opacity="0.0" clip-path="url(#id_0)" d="M192.06154 472.5C192.06154 474.15686 190.7184 475.5 189.06154 475.5C187.40468 475.5 186.06154 474.15686 186.06154 472.5C186.06154 470.84314 187.40468 469.5 189.06154 469.5C190.7184 469.5 192.06154 470.84314 192.06154 472.5Z" fill-rule="nonzero"/><path fill="#000000" fill-opacity="0.0" clip-path="url(#id_0)" d="M259.3231 472.5C259.3231 474.15686 257.97992 475.5 256.3231 475.5C254.66623 475.5 253.32307 474.15686 253.32307 472.5C253.32307 470.84314 254.66623 469.5 256.3231 469.5C257.97992 469.5 259.3231 470.84314 259.3231 472.5Z" fill-rule="nonzero"/><path fill="#000000" fill-opacity="0.0" clip-path="url(#id_0)" d="M326.58463 472.5C326.58463 474.15686 325.24146 475.5 323.58463 475.5C321.92776 475.5 320.58463 474.15686 320.58463 472.5C320.58463 470.84314 321.92776 469.5 323.58463 469.5C325.24146 469.5 326.58463 470.84314 326.58463 472.5Z" fill-rule="nonzero"/><path fill="#000000" fill-opacity="0.0" clip-path="url(#id_0)" d="M393.84616 472.5C393.84616 474.15686 392.50302 475.5 390.84616 475.5C389.1893 475.5 387.84616 474.15686 387.84616 472.5C387.84616 470.84314 389.1893 469.5 390.84616 469.5C392.50302 469.5 393.84616 470.84314 393.84616 472.5Z" fill-rule="nonzero"/><path fill="#000000" fill-opacity="0.0" clip-path="url(#id_0)" d="M461.1077 392.8C461.1077 394.45685 459.76456 395.8 458.1077 395.8C456.45084 395.8 455.1077 394.45685 455.1077 392.8C455.1077 391.14316 456.45084 389.8 458.1077 389.8C459.76456 389.8 461.1077 391.14316 461.1077 392.8Z" fill-rule="nonzero"/><path fill="#000000" fill-opacity="0.0" clip-path="url(#id_0)" d="M528.3692 392.8C528.3692 394.45685 527.02606 395.8 525.3692 395.8C523.7124 395.8 522.3692 394.45685 522.3692 392.8C522.3692 391.14316 523.7124 389.8 525.3692 389.8C527.02606 389.8 528.3692 391.14316 528.3692 392.8Z" fill-rule="nonzero"/><path fill="#000000" fill-opacity="0.0" clip-path="url(#id_0)" d="M595.6308 392.8C595.6308 394.45685 594.2876 395.8 592.6308 395.8C590.97394 395.8 589.6308 394.45685 589.6308 392.8C589.6308 391.14316 590.97394 389.8 592.6308 389.8C594.2876 389.8 595.6308 391.14316 595.6308 392.8Z" fill-rule="nonzero"/><path fill="#000000" fill-opacity="0.0" clip-path="url(#id_0)" d="M662.89233 233.4C662.89233 235.05685 661.54913 236.4 659.89233 236.4C658.2355 236.4 656.89233 235.05685 656.89233 233.4C656.89233 231.74315 658.2355 230.4 659.89233 230.4C661.54913 230.4 662.89233 231.74315 662.89233 233.4Z" fill-rule="nonzero"/><path fill="#000000" fill-opacity="0.0" clip-path="url(#id_0)" d="M730.1539 153.7C730.1539 155.35686 728.8107 156.7 727.1539 156.7C725.497 156.7 724.1539 155.35686 724.1539 153.7C724.1539 152.04315 725.497 150.7 727.1539 150.7C728.8107 150.7 730.1539 152.04315 730.1539 153.7Z" fill-rule="nonzero"/><path fill="#000000" fill-opacity="0.0" clip-path="url(#id_0)" d="M797.4154 153.7C797.4154 155.35686 796.07227 156.7 794.4154 156.7C792.75854 156.7 791.4154 155.35686 791.4154 153.7C791.4154 152.04315 792.75854 150.7 794.4154 150.7C796.07227 150.7 797.4154 152.04315 797.4154 153.7Z" fill-rule="nonzero"/><path fill="#000000" fill-opacity="0.0" clip-path="url(#id_0)" d="M864.67694 153.7C864.67694 155.35686 863.3338 156.7 861.67694 156.7C860.0201 156.7 858.67694 155.35686 858.67694 153.7C858.67694 152.04315 860.0201 150.7 861.67694 150.7C863.3338 150.7 864.67694 152.04315 864.67694 153.7Z" fill-rule="nonzero"/><path fill="#000000" fill-opacity="0.0" clip-path="url(#id_0)" d="M931.9385 153.7C931.9385 155.35686 930.59534 156.7 928.9385 156.7C927.2816 156.7 925.9385 155.35686 925.9385 153.7C925.9385 152.04315 927.2816 150.7 928.9385 150.7C930.59534 150.7 931.9385 152.04315 931.9385 153.7Z" fill-rule="nonzero"/><path fill="#000000" fill-opacity="0.0" clip-path="url(#id_0)" d="M999.2 74.0C999.2 75.65685 997.8569 77.0 996.2 77.0C994.54315 77.0 993.2 75.65685 993.2 74.0C993.2 72.34315 994.54315 71.0 996.2 71.0C997.8569 71.0 999.2 72.34315 999.2 74.0Z" fill-rule="nonzero"/><path fill="#000000" d="M485.20312 592.60626L490.4375 592.60626L490.4375 600.1844L491.20312 600.1844L491.20312 603.2L490.1875 603.2L490.1875 601.2L484.51562 601.2L484.51562 603.2L483.5 603.2L483.5 600.1844L484.17188 600.1844Q485.20312 598.6219 485.20312 593.85626L485.20312 592.60626ZM489.29688 593.6219L486.29688 593.6219L486.29688 594.0594Q486.29688 595.15314 486.09375 597.0594Q485.90625 598.96564 485.32812 600.1844L489.29688 600.1844L489.29688 593.6219ZM492.8125 594.98126L497.70312 594.98126L497.70312 601.2L496.65625 601.2L496.65625 595.85626L493.85938 595.85626L493.85938 598.95Q493.85938 600.02814 493.78125 600.3875Q493.71875 600.73126 493.40625 600.9969Q493.09375 601.2469 492.48438 601.2469Q492.125 601.2469 491.64062 601.2L491.64062 600.3094L492.10938 600.3094Q492.4375 600.3094 492.57812 600.2469Q492.71875 600.1844 492.76562 600.04376Q492.8125 599.8875 492.8125 599.075L492.8125 594.98126ZM499.29688 594.98126L500.34375 594.98126L500.34375 599.71564L503.26562 594.98126L504.40625 594.98126L504.40625 601.2L503.35938 601.2L503.35938 596.48126L500.42188 601.2L499.29688 601.2L499.29688 594.98126ZM506.29688 594.98126L507.35938 594.98126L507.35938 597.5594L510.28125 597.5594L510.28125 594.98126L511.32812 594.98126L511.32812 601.2L510.28125 601.2L510.28125 598.4344L507.35938 598.4344L507.35938 601.2L506.29688 601.2L506.29688 594.98126ZM517.3594 600.4344Q516.7656 600.9344 516.21875 601.1375Q515.6875 601.34064 515.0625 601.34064Q514.03125 601.34064 513.4844 600.84064Q512.9375 600.34064 512.9375 599.5594Q512.9375 599.10626 513.1406 598.73126Q513.34375 598.34064 513.6875 598.1219Q514.03125 597.8875 514.4531 597.77814Q514.75 597.6844 515.3906 597.60626Q516.65625 597.46564 517.2656 597.2469Q517.2656 597.02814 517.2656 596.98126Q517.2656 596.325 516.96875 596.0594Q516.5625 595.71564 515.7656 595.71564Q515.03125 595.71564 514.6719 595.98126Q514.3125 596.23126 514.1406 596.8875L513.1094 596.7469Q513.25 596.09064 513.5781 595.6844Q513.90625 595.27814 514.5156 595.0594Q515.125 594.84064 515.9219 594.84064Q516.71875 594.84064 517.21875 595.02814Q517.71875 595.21564 517.9531 595.4969Q518.1875 595.77814 518.28125 596.21564Q518.3281 596.48126 518.3281 597.1844L518.3281 598.59064Q518.3281 600.0594 518.3906 600.45Q518.46875 600.84064 518.6719 601.2L517.5625 601.2Q517.40625 600.8719 517.3594 600.4344ZM517.2656 598.075Q516.6875 598.3094 515.5469 598.48126Q514.8906 598.575 514.625 598.7Q514.3594 598.8094 514.2031 599.02814Q514.0625 599.2469 514.0625 599.52814Q514.0625 599.95 514.375 600.23126Q514.7031 600.5125 515.3125 600.5125Q515.9219 600.5125 516.3906 600.2469Q516.875 599.98126 517.09375 599.5125Q517.2656 599.15314 517.2656 598.46564L517.2656 598.075ZM527.3594 598.91876L528.3906 599.0594Q528.21875 600.1219 527.5156 600.73126Q526.8125 601.34064 525.7969 601.34064Q524.5156 601.34064 523.7344 600.5125Q522.96875 599.66876 522.96875 598.10626Q522.96875 597.10626 523.2969 596.35626Q523.6406 595.59064 524.3125 595.21564Q525.0 594.84064 525.8125 594.84064Q526.8125 594.84064 527.4531 595.35626Q528.1094 595.85626 528.2969 596.8094L527.2656 596.96564Q527.125 596.34064 526.75 596.02814Q526.375 595.7 525.84375 595.7Q525.0469 595.7 524.5469 596.27814Q524.0469 596.84064 524.0469 598.075Q524.0469 599.34064 524.53125 599.90314Q525.0156 600.46564 525.78125 600.46564Q526.40625 600.46564 526.8125 600.09064Q527.2344 599.71564 527.3594 598.91876ZM528.71875 594.98126L533.78125 594.98126L533.78125 595.85626L531.78125 595.85626L531.78125 601.2L530.7344 601.2L530.7344 595.85626L528.71875 595.85626L528.71875 594.98126ZM534.2969 603.59064L534.2969 594.98126L535.25 594.98126L535.25 595.77814Q535.59375 595.3094 536.0156 595.075Q536.4531 594.84064 537.0625 594.84064Q537.8594 594.84064 538.46875 595.2469Q539.0781 595.65314 539.375 596.40314Q539.6875 597.15314 539.6875 598.04376Q539.6875 598.9969 539.34375 599.7625Q539.0156 600.52814 538.3594 600.9344Q537.7031 601.34064 536.9844 601.34064Q536.4531 601.34064 536.03125 601.1219Q535.6094 600.8875 535.34375 600.5594L535.34375 603.59064L534.2969 603.59064ZM535.25 598.1219Q535.25 599.325 535.7344 599.90314Q536.21875 600.46564 536.90625 600.46564Q537.6094 600.46564 538.1094 599.8719Q538.6094 599.27814 538.6094 598.02814Q538.6094 596.84064 538.125 596.2625Q537.6406 595.66876 536.9531 595.66876Q536.28125 595.66876 535.7656 596.29376Q535.25 596.91876 535.25 598.1219ZM540.90625 598.09064Q540.90625 596.35626 541.8594 595.52814Q542.65625 594.84064 543.8125 594.84064Q545.09375 594.84064 545.90625 595.6844Q546.7344 596.5125 546.7344 597.9969Q546.7344 599.2 546.375 599.8875Q546.0156 600.575 545.3125 600.96564Q544.625 601.34064 543.8125 601.34064Q542.5156 601.34064 541.7031 600.5125Q540.90625 599.66876 540.90625 598.09064ZM541.9844 598.09064Q541.9844 599.27814 542.5 599.8719Q543.03125 600.46564 543.8125 600.46564Q544.6094 600.46564 545.125 599.8719Q545.6406 599.27814 545.6406 598.0594Q545.6406 596.90314 545.1094 596.3094Q544.59375 595.71564 543.8125 595.71564Q543.03125 595.71564 542.5 596.3094Q541.9844 596.8875 541.9844 598.09064ZM548.28125 594.98126L549.34375 594.98126L549.34375 597.66876Q549.84375 597.66876 550.0469 597.48126Q550.25 597.27814 550.6406 596.34064Q550.9531 595.60626 551.1406 595.3719Q551.34375 595.1375 551.59375 595.0594Q551.84375 594.98126 552.40625 594.98126L552.6094 594.98126L552.6094 595.85626L552.3125 595.84064Q551.90625 595.84064 551.78125 595.96564Q551.65625 596.09064 551.40625 596.73126Q551.1719 597.34064 550.96875 597.575Q550.7656 597.8094 550.3594 598.0125Q551.03125 598.1844 551.6875 599.27814L552.84375 601.2L551.6875 601.2L550.5625 599.27814Q550.21875 598.6844 549.9531 598.5125Q549.7031 598.325 549.34375 598.325L549.34375 601.2L548.28125 601.2L548.28125 594.98126ZM554.2969 594.98126L555.34375 594.98126L555.34375 599.71564L558.2656 594.98126L559.40625 594.98126L559.40625 601.2L558.3594 601.2L558.3594 596.48126L555.4219 601.2L554.2969 601.2L554.2969 594.98126ZM566.3125 603.73126Q565.4375 602.6219 564.8281 601.15314Q564.2344 599.66876 564.2344 598.09064Q564.2344 596.7 564.6719 595.41876Q565.2031 593.9344 566.3125 592.46564L567.0625 592.46564Q566.3594 593.6844 566.125 594.2Q565.7656 595.0125 565.5625 595.8875Q565.3125 596.98126 565.3125 598.09064Q565.3125 600.91876 567.0625 603.73126L566.3125 603.73126ZM568.2969 594.98126L570.7344 594.98126Q571.625 594.98126 572.0625 595.1375Q572.5 595.27814 572.8125 595.6844Q573.125 596.075 573.125 596.6219Q573.125 597.075 572.9375 597.40314Q572.75 597.73126 572.3906 597.96564Q572.8281 598.10626 573.1094 598.5125Q573.40625 598.90314 573.40625 599.46564Q573.34375 600.34064 572.7656 600.77814Q572.2031 601.2 571.1094 601.2L568.2969 601.2L568.2969 594.98126ZM569.3594 597.59064L570.4844 597.59064Q571.15625 597.59064 571.40625 597.52814Q571.65625 597.45 571.84375 597.2469Q572.0469 597.02814 572.0469 596.73126Q572.0469 596.23126 571.7031 596.04376Q571.3594 595.85626 570.5156 595.85626L569.3594 595.85626L569.3594 597.59064ZM569.3594 600.325L570.7344 600.325Q571.6406 600.325 571.96875 600.1219Q572.3125 599.91876 572.3281 599.40314Q572.3281 599.10626 572.125 598.85626Q571.9375 598.59064 571.625 598.52814Q571.3125 598.46564 570.625 598.46564L569.3594 598.46564L569.3594 600.325ZM581.3594 598.91876L582.3906 599.0594Q582.21875 600.1219 581.5156 600.73126Q580.8125 601.34064 579.7969 601.34064Q578.5156 601.34064 577.7344 600.5125Q576.96875 599.66876 576.96875 598.10626Q576.96875 597.10626 577.2969 596.35626Q577.6406 595.59064 578.3125 595.21564Q579.0 594.84064 579.8125 594.84064Q580.8125 594.84064 581.4531 595.35626Q582.1094 595.85626 582.2969 596.8094L581.2656 596.96564Q581.125 596.34064 580.75 596.02814Q580.375 595.7 579.84375 595.7Q579.0469 595.7 578.5469 596.27814Q578.0469 596.84064 578.0469 598.075Q578.0469 599.34064 578.53125 599.90314Q579.0156 600.46564 579.78125 600.46564Q580.40625 600.46564 580.8125 600.09064Q581.2344 599.71564 581.3594 598.91876ZM583.2969 594.98126L584.34375 594.98126L584.34375 599.71564L587.2656 594.98126L588.40625 594.98126L588.40625 601.2L587.3594 601.2L587.3594 596.48126L584.4219 601.2L583.2969 601.2L583.2969 594.98126ZM590.3281 594.98126L591.96875 594.98126L593.59375 599.95L595.40625 594.98126L596.9375 594.98126L596.9375 601.2L595.875 601.2L595.875 596.1844L594.03125 601.2L593.09375 601.2L591.3594 595.95L591.3594 601.2L590.3281 601.2L590.3281 594.98126ZM599.2969 594.98126L601.7344 594.98126Q602.625 594.98126 603.0625 595.1375Q603.5 595.27814 603.8125 595.6844Q604.125 596.075 604.125 596.6219Q604.125 597.075 603.9375 597.40314Q603.75 597.73126 603.3906 597.96564Q603.8281 598.10626 604.1094 598.5125Q604.40625 598.90314 604.40625 599.46564Q604.34375 600.34064 603.7656 600.77814Q603.2031 601.2 602.1094 601.2L599.2969 601.2L599.2969 594.98126ZM600.3594 597.59064L601.4844 597.59064Q602.15625 597.59064 602.40625 597.52814Q602.65625 597.45 602.84375 597.2469Q603.0469 597.02814 603.0469 596.73126Q603.0469 596.23126 602.7031 596.04376Q602.3594 595.85626 601.5156 595.85626L600.3594 595.85626L600.3594 597.59064ZM600.3594 600.325L601.7344 600.325Q602.6406 600.325 602.96875 600.1219Q603.3125 599.91876 603.3281 599.40314Q603.3281 599.10626 603.125 598.85626Q602.9375 598.59064 602.625 598.52814Q602.3125 598.46564 601.625 598.46564L600.3594 598.46564L600.3594 600.325ZM604.90625 598.09064Q604.90625 596.35626 605.8594 595.52814Q606.65625 594.84064 607.8125 594.84064Q609.09375 594.84064 609.90625 595.6844Q610.7344 596.5125 610.7344 597.9969Q610.7344 599.2 610.375 599.8875Q610.0156 600.575 609.3125 600.96564Q608.625 601.34064 607.8125 601.34064Q606.5156 601.34064 605.7031 600.5125Q604.90625 599.66876 604.90625 598.09064ZM605.9844 598.09064Q605.9844 599.27814 606.5 599.8719Q607.03125 600.46564 607.8125 600.46564Q608.6094 600.46564 609.125 599.8719Q609.6406 599.27814 609.6406 598.0594Q609.6406 596.90314 609.1094 596.3094Q608.59375 595.71564 607.8125 595.71564Q607.03125 595.71564 606.5 596.3094Q605.9844 596.8875 605.9844 598.09064ZM612.8125 594.98126L617.7031 594.98126L617.7031 601.2L616.65625 601.2L616.65625 595.85626L613.8594 595.85626L613.8594 598.95Q613.8594 600.02814 613.78125 600.3875Q613.71875 600.73126 613.40625 600.9969Q613.09375 601.2469 612.4844 601.2469Q612.125 601.2469 611.6406 601.2L611.6406 600.3094L612.1094 600.3094Q612.4375 600.3094 612.5781 600.2469Q612.71875 600.1844 612.7656 600.04376Q612.8125 599.8875 612.8125 599.075L612.8125 594.98126ZM623.3594 600.4344Q622.7656 600.9344 622.21875 601.1375Q621.6875 601.34064 621.0625 601.34064Q620.03125 601.34064 619.4844 600.84064Q618.9375 600.34064 618.9375 599.5594Q618.9375 599.10626 619.1406 598.73126Q619.34375 598.34064 619.6875 598.1219Q620.03125 597.8875 620.4531 597.77814Q620.75 597.6844 621.3906 597.60626Q622.65625 597.46564 623.2656 597.2469Q623.2656 597.02814 623.2656 596.98126Q623.2656 596.325 622.96875 596.0594Q622.5625 595.71564 621.7656 595.71564Q621.03125 595.71564 620.6719 595.98126Q620.3125 596.23126 620.1406 596.8875L619.1094 596.7469Q619.25 596.09064 619.5781 595.6844Q619.90625 595.27814 620.5156 595.0594Q621.125 594.84064 621.9219 594.84064Q622.71875 594.84064 623.21875 595.02814Q623.71875 595.21564 623.9531 595.4969Q624.1875 595.77814 624.28125 596.21564Q624.3281 596.48126 624.3281 597.1844L624.3281 598.59064Q624.3281 600.0594 624.3906 600.45Q624.46875 600.84064 624.6719 601.2L623.5625 601.2Q623.40625 600.8719 623.3594 600.4344ZM623.2656 598.075Q622.6875 598.3094 621.5469 598.48126Q620.8906 598.575 620.625 598.7Q620.3594 598.8094 620.2031 599.02814Q620.0625 599.2469 620.0625 599.52814Q620.0625 599.95 620.375 600.23126Q620.7031 600.5125 621.3125 600.5125Q621.9219 600.5125 622.3906 600.2469Q622.875 599.98126 623.09375 599.5125Q623.2656 599.15314 623.2656 598.46564L623.2656 598.075ZM625.59375 601.2L627.8594 597.96564L625.7656 594.98126L627.0781 594.98126L628.03125 596.4344Q628.2969 596.85626 628.46875 597.1375Q628.71875 596.7469 628.9375 596.45L629.9844 594.98126L631.25 594.98126L629.09375 597.90314L631.40625 601.2L630.125 601.2L628.84375 599.2625L628.5 598.7469L626.8594 601.2L625.59375 601.2ZM631.9844 603.73126L631.2344 603.73126Q632.9844 600.91876 632.9844 598.09064Q632.9844 596.9969 632.7344 595.90314Q632.53125 595.02814 632.1719 594.21564Q631.9375 593.7 631.2344 592.46564L631.9844 592.46564Q633.0781 593.9344 633.6094 595.41876Q634.0625 596.7 634.0625 598.09064Q634.0625 599.66876 633.4531 601.15314Q632.84375 602.6219 631.9844 603.73126Z" fill-rule="nonzero"/><path fill="#000000" d="M42.80001 344.725L34.20626 344.725L34.20626 341.49063Q34.20626 340.50626 34.471886 339.9125Q34.73751 339.31876 35.284386 338.99063Q35.815636 338.64688 36.409386 338.64688Q36.95626 338.64688 37.440636 338.94376Q37.92501 339.24063 38.221886 339.85Q38.45626 339.06876 39.01876 338.6625Q39.565636 338.24063 40.315636 338.24063Q40.909386 338.24063 41.440636 338.49063Q41.95626 338.74063 42.23751 339.11563Q42.51876 339.49063 42.659386 340.06876Q42.80001 340.63126 42.80001 341.44376L42.80001 344.725ZM37.815636 343.58438L37.815636 341.725Q37.815636 340.975 37.721886 340.64688Q37.596886 340.20938 37.30001 339.99063Q36.98751 339.77188 36.534386 339.77188Q36.11251 339.77188 35.784386 339.975Q35.45626 340.17813 35.346886 340.56876Q35.221886 340.94376 35.221886 341.86563L35.221886 343.58438L37.815636 343.58438ZM41.784386 343.58438L41.784386 341.44376Q41.784386 340.89688 41.73751 340.67813Q41.67501 340.27188 41.51876 340.02188Q41.346886 339.75626 41.034386 339.58438Q40.721886 339.4125 40.315636 339.4125Q39.83126 339.4125 39.471886 339.6625Q39.11251 339.89688 38.971886 340.33438Q38.83126 340.77188 38.83126 341.6L38.83126 343.58438L41.784386 343.58438ZM45.190636 336.80313L36.58126 336.80313L36.58126 335.85L37.378136 335.85Q36.909386 335.50626 36.67501 335.08438Q36.440636 334.64688 36.440636 334.0375Q36.440636 333.24063 36.846886 332.63126Q37.253136 332.02188 38.003136 331.725Q38.753136 331.4125 39.64376 331.4125Q40.596886 331.4125 41.36251 331.75626Q42.128136 332.08438 42.534386 332.74063Q42.940636 333.39688 42.940636 334.11563Q42.940636 334.64688 42.721886 335.06876Q42.48751 335.49063 42.159386 335.75626L45.190636 335.75626L45.190636 336.80313ZM39.721886 335.85Q40.92501 335.85 41.503136 335.36563Q42.065636 334.88126 42.065636 334.19376Q42.065636 333.49063 41.471886 332.99063Q40.878136 332.49063 39.628136 332.49063Q38.440636 332.49063 37.86251 332.975Q37.26876 333.45938 37.26876 334.14688Q37.26876 334.81876 37.89376 335.33438Q38.51876 335.85 39.721886 335.85ZM40.80001 325.55313L40.92501 324.45938Q41.878136 324.70938 42.409386 325.4125Q42.940636 326.11563 42.940636 327.19376Q42.940636 328.55313 42.096886 329.36563Q41.253136 330.1625 39.73751 330.1625Q38.17501 330.1625 37.315636 329.35Q36.440636 328.5375 36.440636 327.25626Q36.440636 326.00626 37.284386 325.225Q38.128136 324.42813 39.67501 324.42813Q39.76876 324.42813 39.95626 324.42813L39.95626 329.06876Q40.98751 329.00626 41.534386 328.49063Q42.065636 327.975 42.065636 327.19376Q42.065636 326.61563 41.76876 326.20938Q41.45626 325.7875 40.80001 325.55313ZM39.096886 329.00626L39.096886 325.5375Q38.30001 325.6 37.909386 325.92813Q37.30001 326.44376 37.30001 327.24063Q37.30001 327.975 37.784386 328.475Q38.26876 328.95938 39.096886 329.00626ZM36.58126 322.77188L36.58126 321.13126L41.55001 319.50626L36.58126 317.69376L36.58126 316.1625L42.80001 316.1625L42.80001 317.225L37.784386 317.225L42.80001 319.06876L42.80001 320.00626L37.55001 321.74063L42.80001 321.74063L42.80001 322.77188L36.58126 322.77188ZM36.58126 308.9125L42.80001 308.9125L42.80001 309.95938L40.378136 309.95938L40.378136 310.56876Q40.378136 311.13126 40.51876 311.39688Q40.659386 311.6625 41.440636 312.19376L42.80001 313.11563L42.80001 314.4125L41.128136 313.2875Q40.36251 312.75626 40.253136 312.24063Q40.128136 313.14688 39.61251 313.58438Q39.08126 314.02188 38.39376 314.02188Q37.58126 314.02188 37.08126 313.45938Q36.58126 312.88126 36.58126 311.7875L36.58126 308.9125ZM37.45626 309.95938L37.45626 311.45938Q37.45626 312.39688 37.753136 312.67813Q38.034386 312.94376 38.42501 312.94376Q38.98751 312.94376 39.253136 312.55313Q39.503136 312.14688 39.503136 311.13126L39.503136 309.95938L37.45626 309.95938ZM45.33126 304.7875Q44.221886 305.6625 42.753136 306.27188Q41.26876 306.86563 39.690636 306.86563Q38.30001 306.86563 37.01876 306.42813Q35.534386 305.89688 34.065636 304.7875L34.065636 304.0375Q35.284386 304.74063 35.80001 304.975Q36.61251 305.33438 37.48751 305.5375Q38.58126 305.7875 39.690636 305.7875Q42.51876 305.7875 45.33126 304.0375L45.33126 304.7875ZM40.51876 298.74063L40.659386 297.70938Q41.721886 297.88126 42.33126 298.58438Q42.940636 299.2875 42.940636 300.30313Q42.940636 301.58438 42.11251 302.36563Q41.26876 303.13126 39.70626 303.13126Q38.70626 303.13126 37.95626 302.80313Q37.190636 302.45938 36.815636 301.7875Q36.440636 301.1 36.440636 300.2875Q36.440636 299.2875 36.95626 298.64688Q37.45626 297.99063 38.409386 297.80313L38.565636 298.83438Q37.940636 298.975 37.628136 299.35Q37.30001 299.725 37.30001 300.25626Q37.30001 301.05313 37.878136 301.55313Q38.440636 302.05313 39.67501 302.05313Q40.940636 302.05313 41.503136 301.56876Q42.065636 301.08438 42.065636 300.31876Q42.065636 299.69376 41.690636 299.2875Q41.315636 298.86563 40.51876 298.74063ZM45.33126 296.11563L45.33126 296.86563Q42.51876 295.11563 39.690636 295.11563Q38.596886 295.11563 37.503136 295.36563Q36.628136 295.56876 35.815636 295.92813Q35.30001 296.1625 34.065636 296.86563L34.065636 296.11563Q35.534386 295.02188 37.01876 294.49063Q38.30001 294.0375 39.690636 294.0375Q41.26876 294.0375 42.753136 294.64688Q44.221886 295.25626 45.33126 296.11563Z" fill-rule="nonzero"/><path fill="#000000" d="M64.3 551.96564Q64.3 550.4344 64.6125 549.5125Q64.925 548.575 65.53438 548.075Q66.15938 547.575 67.09688 547.575Q67.78438 547.575 68.3 547.85626Q68.83125 548.1375 69.175 548.66876Q69.51875 549.1844 69.70625 549.9344Q69.89375 550.6844 69.89375 551.96564Q69.89375 553.48126 69.58125 554.40314Q69.28438 555.325 68.65938 555.84064Q68.05 556.34064 67.09688 556.34064Q65.8625 556.34064 65.14375 555.45Q64.3 554.3875 64.3 551.96564ZM65.37813 551.96564Q65.37813 554.075 65.87813 554.77814Q66.37813 555.48126 67.09688 555.48126Q67.83125 555.48126 68.31563 554.77814Q68.81563 554.075 68.81563 551.96564Q68.81563 549.84064 68.31563 549.15314Q67.83125 548.45 67.08125 548.45Q66.3625 548.45 65.925 549.0594Q65.37813 549.84064 65.37813 551.96564ZM71.8625 556.2L71.8625 554.9969L73.06563 554.9969L73.06563 556.2Q73.06563 556.85626 72.83125 557.2625Q72.59688 557.6844 72.09688 557.90314L71.8 557.45Q72.12813 557.3094 72.28438 557.0125Q72.44063 556.73126 72.47188 556.2L71.8625 556.2ZM74.3 551.96564Q74.3 550.4344 74.6125 549.5125Q74.925 548.575 75.53438 548.075Q76.15938 547.575 77.09688 547.575Q77.78438 547.575 78.3 547.85626Q78.83125 548.1375 79.175 548.66876Q79.51875 549.1844 79.70625 549.9344Q79.89375 550.6844 79.89375 551.96564Q79.89375 553.48126 79.58125 554.40314Q79.28438 555.325 78.65938 555.84064Q78.05 556.34064 77.09688 556.34064Q75.8625 556.34064 75.14375 555.45Q74.3 554.3875 74.3 551.96564ZM75.37813 551.96564Q75.37813 554.075 75.87813 554.77814Q76.37813 555.48126 77.09688 555.48126Q77.83125 555.48126 78.31563 554.77814Q78.81563 554.075 78.81563 551.96564Q78.81563 549.84064 78.31563 549.15314Q77.83125 548.45 77.08125 548.45Q76.3625 548.45 75.925 549.0594Q75.37813 549.84064 75.37813 551.96564ZM81.3 551.96564Q81.3 550.4344 81.6125 549.5125Q81.925 548.575 82.53438 548.075Q83.15938 547.575 84.09688 547.575Q84.78438 547.575 85.3 547.85626Q85.83125 548.1375 86.175 548.66876Q86.51875 549.1844 86.70625 549.9344Q86.89375 550.6844 86.89375 551.96564Q86.89375 553.48126 86.58125 554.40314Q86.28438 555.325 85.65938 555.84064Q85.05 556.34064 84.09688 556.34064Q82.8625 556.34064 82.14375 555.45Q81.3 554.3875 81.3 551.96564ZM82.37813 551.96564Q82.37813 554.075 82.87813 554.77814Q83.37813 555.48126 84.09688 555.48126Q84.83125 555.48126 85.31563 554.77814Q85.81563 554.075 85.81563 551.96564Q85.81563 549.84064 85.31563 549.15314Q84.83125 548.45 84.08125 548.45Q83.3625 548.45 82.925 549.0594Q82.37813 549.84064 82.37813 551.96564ZM88.3 551.96564Q88.3 550.4344 88.6125 549.5125Q88.925 548.575 89.53438 548.075Q90.15938 547.575 91.09688 547.575Q91.78438 547.575 92.3 547.85626Q92.83125 548.1375 93.175 548.66876Q93.51875 549.1844 93.70625 549.9344Q93.89375 550.6844 93.89375 551.96564Q93.89375 553.48126 93.58125 554.40314Q93.28438 555.325 92.65938 555.84064Q92.05 556.34064 91.09688 556.34064Q89.8625 556.34064 89.14375 555.45Q88.3 554.3875 88.3 551.96564ZM89.37813 551.96564Q89.37813 554.075 89.87813 554.77814Q90.37813 555.48126 91.09688 555.48126Q91.83125 555.48126 92.31563 554.77814Q92.81563 554.075 92.81563 551.96564Q92.81563 549.84064 92.31563 549.15314Q91.83125 548.45 91.08125 548.45Q90.3625 548.45 89.925 549.0594Q89.37813 549.84064 89.37813 551.96564ZM95.3 551.96564Q95.3 550.4344 95.6125 549.5125Q95.925 548.575 96.53438 548.075Q97.15938 547.575 98.09688 547.575Q98.78438 547.575 99.3 547.85626Q99.83125 548.1375 100.175 548.66876Q100.51875 549.1844 100.70625 549.9344Q100.89375 550.6844 100.89375 551.96564Q100.89375 553.48126 100.58125 554.40314Q100.28438 555.325 99.65938 555.84064Q99.05 556.34064 98.09688 556.34064Q96.8625 556.34064 96.14375 555.45Q95.3 554.3875 95.3 551.96564ZM96.37813 551.96564Q96.37813 554.075 96.87813 554.77814Q97.37813 555.48126 98.09688 555.48126Q98.83125 555.48126 99.31563 554.77814Q99.81563 554.075 99.81563 551.96564Q99.81563 549.84064 99.31563 549.15314Q98.83125 548.45 98.08125 548.45Q97.3625 548.45 96.925 549.0594Q96.37813 549.84064 96.37813 551.96564ZM102.3 551.96564Q102.3 550.4344 102.6125 549.5125Q102.925 548.575 103.53438 548.075Q104.15938 547.575 105.09688 547.575Q105.78438 547.575 106.3 547.85626Q106.83125 548.1375 107.175 548.66876Q107.51875 549.1844 107.70625 549.9344Q107.89375 550.6844 107.89375 551.96564Q107.89375 553.48126 107.58125 554.40314Q107.28438 555.325 106.65938 555.84064Q106.05 556.34064 105.09688 556.34064Q103.8625 556.34064 103.14375 555.45Q102.3 554.3875 102.3 551.96564ZM103.37813 551.96564Q103.37813 554.075 103.87813 554.77814Q104.37813 555.48126 105.09688 555.48126Q105.83125 555.48126 106.31563 554.77814Q106.81563 554.075 106.81563 551.96564Q106.81563 549.84064 106.31563 549.15314Q105.83125 548.45 105.08125 548.45Q104.3625 548.45 103.925 549.0594Q103.37813 549.84064 103.37813 551.96564ZM109.3 551.96564Q109.3 550.4344 109.6125 549.5125Q109.925 548.575 110.53438 548.075Q111.15938 547.575 112.09688 547.575Q112.78438 547.575 113.3 547.85626Q113.83125 548.1375 114.175 548.66876Q114.51875 549.1844 114.70625 549.9344Q114.89375 550.6844 114.89375 551.96564Q114.89375 553.48126 114.58125 554.40314Q114.28438 555.325 113.65938 555.84064Q113.05 556.34064 112.09688 556.34064Q110.8625 556.34064 110.14375 555.45Q109.3 554.3875 109.3 551.96564ZM110.37813 551.96564Q110.37813 554.075 110.87813 554.77814Q111.37813 555.48126 112.09688 555.48126Q112.83125 555.48126 113.31563 554.77814Q113.81563 554.075 113.81563 551.96564Q113.81563 549.84064 113.31563 549.15314Q112.83125 548.45 112.08125 548.45Q111.3625 548.45 110.925 549.0594Q110.37813 549.84064 110.37813 551.96564Z" fill-rule="nonzero"/><path fill="#000000" d="M64.3 392.5656Q64.3 391.03436 64.6125 390.1125Q64.925 389.175 65.53438 388.675Q66.15938 388.175 67.09688 388.175Q67.78438 388.175 68.3 388.45624Q68.83125 388.7375 69.175 389.26874Q69.51875 389.78436 69.70625 390.53436Q69.89375 391.28436 69.89375 392.5656Q69.89375 394.08124 69.58125 395.0031Q69.28438 395.925 68.65938 396.4406Q68.05 396.9406 67.09688 396.9406Q65.8625 396.9406 65.14375 396.05Q64.3 394.9875 64.3 392.5656ZM65.37813 392.5656Q65.37813 394.675 65.87813 395.3781Q66.37813 396.08124 67.09688 396.08124Q67.83125 396.08124 68.31563 395.3781Q68.81563 394.675 68.81563 392.5656Q68.81563 390.4406 68.31563 389.7531Q67.83125 389.05 67.08125 389.05Q66.3625 389.05 65.925 389.65936Q65.37813 390.4406 65.37813 392.5656ZM71.8625 396.8L71.8625 395.59686L73.06563 395.59686L73.06563 396.8Q73.06563 397.45624 72.83125 397.8625Q72.59688 398.28436 72.09688 398.5031L71.8 398.05Q72.12813 397.90936 72.28438 397.6125Q72.44063 397.33124 72.47188 396.8L71.8625 396.8ZM74.3 392.5656Q74.3 391.03436 74.6125 390.1125Q74.925 389.175 75.53438 388.675Q76.15938 388.175 77.09688 388.175Q77.78438 388.175 78.3 388.45624Q78.83125 388.7375 79.175 389.26874Q79.51875 389.78436 79.70625 390.53436Q79.89375 391.28436 79.89375 392.5656Q79.89375 394.08124 79.58125 395.0031Q79.28438 395.925 78.65938 396.4406Q78.05 396.9406 77.09688 396.9406Q75.8625 396.9406 75.14375 396.05Q74.3 394.9875 74.3 392.5656ZM75.37813 392.5656Q75.37813 394.675 75.87813 395.3781Q76.37813 396.08124 77.09688 396.08124Q77.83125 396.08124 78.31563 395.3781Q78.81563 394.675 78.81563 392.5656Q78.81563 390.4406 78.31563 389.7531Q77.83125 389.05 77.08125 389.05Q76.3625 389.05 75.925 389.65936Q75.37813 390.4406 75.37813 392.5656ZM81.3 392.5656Q81.3 391.03436 81.6125 390.1125Q81.925 389.175 82.53438 388.675Q83.15938 388.175 84.09688 388.175Q84.78438 388.175 85.3 388.45624Q85.83125 388.7375 86.175 389.26874Q86.51875 389.78436 86.70625 390.53436Q86.89375 391.28436 86.89375 392.5656Q86.89375 394.08124 86.58125 395.0031Q86.28438 395.925 85.65938 396.4406Q85.05 396.9406 84.09688 396.9406Q82.8625 396.9406 82.14375 396.05Q81.3 394.9875 81.3 392.5656ZM82.37813 392.5656Q82.37813 394.675 82.87813 395.3781Q83.37813 396.08124 84.09688 396.08124Q84.83125 396.08124 85.31563 395.3781Q85.81563 394.675 85.81563 392.5656Q85.81563 390.4406 85.31563 389.7531Q84.83125 389.05 84.08125 389.05Q83.3625 389.05 82.925 389.65936Q82.37813 390.4406 82.37813 392.5656ZM88.3 392.5656Q88.3 391.03436 88.6125 390.1125Q88.925 389.175 89.53438 388.675Q90.15938 388.175 91.09688 388.175Q91.78438 388.175 92.3 388.45624Q92.83125 388.7375 93.175 389.26874Q93.51875 389.78436 93.70625 390.53436Q93.89375 391.28436 93.89375 392.5656Q93.89375 394.08124 93.58125 395.0031Q93.28438 395.925 92.65938 396.4406Q92.05 396.9406 91.09688 396.9406Q89.8625 396.9406 89.14375 396.05Q88.3 394.9875 88.3 392.5656ZM89.37813 392.5656Q89.37813 394.675 89.87813 395.3781Q90.37813 396.08124 91.09688 396.08124Q91.83125 396.08124 92.31563 395.3781Q92.81563 394.675 92.81563 392.5656Q92.81563 390.4406 92.31563 389.7531Q91.83125 389.05 91.08125 389.05Q90.3625 389.05 89.925 389.65936Q89.37813 390.4406 89.37813 392.5656ZM95.3 392.5656Q95.3 391.03436 95.6125 390.1125Q95.925 389.175 96.53438 388.675Q97.15938 388.175 98.09688 388.175Q98.78438 388.175 99.3 388.45624Q99.83125 388.7375 100.175 389.26874Q100.51875 389.78436 100.70625 390.53436Q100.89375 391.28436 100.89375 392.5656Q100.89375 394.08124 100.58125 395.0031Q100.28438 395.925 99.65938 396.4406Q99.05 396.9406 98.09688 396.9406Q96.8625 396.9406 96.14375 396.05Q95.3 394.9875 95.3 392.5656ZM96.37813 392.5656Q96.37813 394.675 96.87813 395.3781Q97.37813 396.08124 98.09688 396.08124Q98.83125 396.08124 99.31563 395.3781Q99.81563 394.675 99.81563 392.5656Q99.81563 390.4406 99.31563 389.7531Q98.83125 389.05 98.08125 389.05Q97.3625 389.05 96.925 389.65936Q96.37813 390.4406 96.37813 392.5656ZM102.3 392.5656Q102.3 391.03436 102.6125 390.1125Q102.925 389.175 103.53438 388.675Q104.15938 388.175 105.09688 388.175Q105.78438 388.175 106.3 388.45624Q106.83125 388.7375 107.175 389.26874Q107.51875 389.78436 107.70625 390.53436Q107.89375 391.28436 107.89375 392.5656Q107.89375 394.08124 107.58125 395.0031Q107.28438 395.925 106.65938 396.4406Q106.05 396.9406 105.09688 396.9406Q103.8625 396.9406 103.14375 396.05Q102.3 394.9875 102.3 392.5656ZM103.37813 392.5656Q103.37813 394.675 103.87813 395.3781Q104.37813 396.08124 105.09688 396.08124Q105.83125 396.08124 106.31563 395.3781Q106.81563 394.675 106.81563 392.5656Q106.81563 390.4406 106.31563 389.7531Q105.83125 389.05 105.08125 389.05Q104.3625 389.05 103.925 389.65936Q103.37813 390.4406 103.37813 392.5656ZM114.84688 395.78436L114.84688 396.8L109.15938 396.8Q109.15938 396.425 109.28438 396.0656Q109.50313 395.4875 109.97188 394.925Q110.45625 394.3625 111.3625 393.6281Q112.76875 392.47186 113.25313 391.8Q113.75313 391.1281 113.75313 390.53436Q113.75313 389.90936 113.3 389.4875Q112.84688 389.05 112.12813 389.05Q111.3625 389.05 110.90938 389.5031Q110.45625 389.95624 110.44063 390.76874L109.3625 390.65936Q109.47188 389.4406 110.19063 388.8156Q110.925 388.175 112.15938 388.175Q113.39375 388.175 114.1125 388.8625Q114.83125 389.55 114.83125 390.5656Q114.83125 391.08124 114.6125 391.58124Q114.40938 392.0656 113.90938 392.6281Q113.425 393.175 112.3 394.1281Q111.34688 394.925 111.06563 395.22186Q110.8 395.5031 110.62813 395.78436L114.84688 395.78436Z" fill-rule="nonzero"/><path fill="#000000" d="M64.3 233.16562Q64.3 231.63437 64.6125 230.7125Q64.925 229.775 65.53438 229.275Q66.15938 228.775 67.09688 228.775Q67.78438 228.775 68.3 229.05624Q68.83125 229.3375 69.175 229.86874Q69.51875 230.38437 69.70625 231.13437Q69.89375 231.88437 69.89375 233.16562Q69.89375 234.68124 69.58125 235.60312Q69.28438 236.525 68.65938 237.04062Q68.05 237.54062 67.09688 237.54062Q65.8625 237.54062 65.14375 236.65Q64.3 235.5875 64.3 233.16562ZM65.37813 233.16562Q65.37813 235.275 65.87813 235.97812Q66.37813 236.68124 67.09688 236.68124Q67.83125 236.68124 68.31563 235.97812Q68.81563 235.275 68.81563 233.16562Q68.81563 231.04062 68.31563 230.35312Q67.83125 229.65 67.08125 229.65Q66.3625 229.65 65.925 230.25937Q65.37813 231.04062 65.37813 233.16562ZM71.8625 237.4L71.8625 236.19687L73.06563 236.19687L73.06563 237.4Q73.06563 238.05624 72.83125 238.4625Q72.59688 238.88437 72.09688 239.10312L71.8 238.65Q72.12813 238.50937 72.28438 238.2125Q72.44063 237.93124 72.47188 237.4L71.8625 237.4ZM74.3 233.16562Q74.3 231.63437 74.6125 230.7125Q74.925 229.775 75.53438 229.275Q76.15938 228.775 77.09688 228.775Q77.78438 228.775 78.3 229.05624Q78.83125 229.3375 79.175 229.86874Q79.51875 230.38437 79.70625 231.13437Q79.89375 231.88437 79.89375 233.16562Q79.89375 234.68124 79.58125 235.60312Q79.28438 236.525 78.65938 237.04062Q78.05 237.54062 77.09688 237.54062Q75.8625 237.54062 75.14375 236.65Q74.3 235.5875 74.3 233.16562ZM75.37813 233.16562Q75.37813 235.275 75.87813 235.97812Q76.37813 236.68124 77.09688 236.68124Q77.83125 236.68124 78.31563 235.97812Q78.81563 235.275 78.81563 233.16562Q78.81563 231.04062 78.31563 230.35312Q77.83125 229.65 77.08125 229.65Q76.3625 229.65 75.925 230.25937Q75.37813 231.04062 75.37813 233.16562ZM81.3 233.16562Q81.3 231.63437 81.6125 230.7125Q81.925 229.775 82.53438 229.275Q83.15938 228.775 84.09688 228.775Q84.78438 228.775 85.3 229.05624Q85.83125 229.3375 86.175 229.86874Q86.51875 230.38437 86.70625 231.13437Q86.89375 231.88437 86.89375 233.16562Q86.89375 234.68124 86.58125 235.60312Q86.28438 236.525 85.65938 237.04062Q85.05 237.54062 84.09688 237.54062Q82.8625 237.54062 82.14375 236.65Q81.3 235.5875 81.3 233.16562ZM82.37813 233.16562Q82.37813 235.275 82.87813 235.97812Q83.37813 236.68124 84.09688 236.68124Q84.83125 236.68124 85.31563 235.97812Q85.81563 235.275 85.81563 233.16562Q85.81563 231.04062 85.31563 230.35312Q84.83125 229.65 84.08125 229.65Q83.3625 229.65 82.925 230.25937Q82.37813 231.04062 82.37813 233.16562ZM88.3 233.16562Q88.3 231.63437 88.6125 230.7125Q88.925 229.775 89.53438 229.275Q90.15938 228.775 91.09688 228.775Q91.78438 228.775 92.3 229.05624Q92.83125 229.3375 93.175 229.86874Q93.51875 230.38437 93.70625 231.13437Q93.89375 231.88437 93.89375 233.16562Q93.89375 234.68124 93.58125 235.60312Q93.28438 236.525 92.65938 237.04062Q92.05 237.54062 91.09688 237.54062Q89.8625 237.54062 89.14375 236.65Q88.3 235.5875 88.3 233.16562ZM89.37813 233.16562Q89.37813 235.275 89.87813 235.97812Q90.37813 236.68124 91.09688 236.68124Q91.83125 236.68124 92.31563 235.97812Q92.81563 235.275 92.81563 233.16562Q92.81563 231.04062 92.31563 230.35312Q91.83125 229.65 91.08125 229.65Q90.3625 229.65 89.925 230.25937Q89.37813 231.04062 89.37813 233.16562ZM95.3 233.16562Q95.3 231.63437 95.6125 230.7125Q95.925 229.775 96.53438 229.275Q97.15938 228.775 98.09688 228.775Q98.78438 228.775 99.3 229.05624Q99.83125 229.3375 100.175 229.86874Q100.51875 230.38437 100.70625 231.13437Q100.89375 231.88437 100.89375 233.16562Q100.89375 234.68124 100.58125 235.60312Q100.28438 236.525 99.65938 237.04062Q99.05 237.54062 98.09688 237.54062Q96.8625 237.54062 96.14375 236.65Q95.3 235.5875 95.3 233.16562ZM96.37813 233.16562Q96.37813 235.275 96.87813 235.97812Q97.37813 236.68124 98.09688 236.68124Q98.83125 236.68124 99.31563 235.97812Q99.81563 235.275 99.81563 233.16562Q99.81563 231.04062 99.31563 230.35312Q98.83125 229.65 98.08125 229.65Q97.3625 229.65 96.925 230.25937Q96.37813 231.04062 96.37813 233.16562ZM102.3 233.16562Q102.3 231.63437 102.6125 230.7125Q102.925 229.775 103.53438 229.275Q104.15938 228.775 105.09688 228.775Q105.78438 228.775 106.3 229.05624Q106.83125 229.3375 107.175 229.86874Q107.51875 230.38437 107.70625 231.13437Q107.89375 231.88437 107.89375 233.16562Q107.89375 234.68124 107.58125 235.60312Q107.28438 236.525 106.65938 237.04062Q106.05 237.54062 105.09688 237.54062Q103.8625 237.54062 103.14375 236.65Q102.3 235.5875 102.3 233.16562ZM103.37813 233.16562Q103.37813 235.275 103.87813 235.97812Q104.37813 236.68124 105.09688 236.68124Q105.83125 236.68124 106.31563 235.97812Q106.81563 235.275 106.81563 233.16562Q106.81563 231.04062 106.31563 230.35312Q105.83125 229.65 105.08125 229.65Q104.3625 229.65 103.925 230.25937Q103.37813 231.04062 103.37813 233.16562ZM112.675 237.4L112.675 235.3375L108.95625 235.3375L108.95625 234.36874L112.87813 228.80624L113.7375 228.80624L113.7375 234.36874L114.89375 234.36874L114.89375 235.3375L113.7375 235.3375L113.7375 237.4L112.675 237.4ZM112.675 234.36874L112.675 230.50937L109.9875 234.36874L112.675 234.36874Z" fill-rule="nonzero"/><path fill="#000000" d="M64.3 73.765625Q64.3 72.234375 64.6125 71.3125Q64.925 70.375 65.53438 69.875Q66.15938 69.375 67.09688 69.375Q67.78438 69.375 68.3 69.65625Q68.83125 69.9375 69.175 70.46875Q69.51875 70.984375 69.70625 71.734375Q69.89375 72.484375 69.89375 73.765625Q69.89375 75.28125 69.58125 76.203125Q69.28438 77.125 68.65938 77.640625Q68.05 78.140625 67.09688 78.140625Q65.8625 78.140625 65.14375 77.25Q64.3 76.1875 64.3 73.765625ZM65.37813 73.765625Q65.37813 75.875 65.87813 76.578125Q66.37813 77.28125 67.09688 77.28125Q67.83125 77.28125 68.31563 76.578125Q68.81563 75.875 68.81563 73.765625Q68.81563 71.640625 68.31563 70.953125Q67.83125 70.25 67.08125 70.25Q66.3625 70.25 65.925 70.859375Q65.37813 71.640625 65.37813 73.765625ZM71.8625 78.0L71.8625 76.796875L73.06563 76.796875L73.06563 78.0Q73.06563 78.65625 72.83125 79.0625Q72.59688 79.484375 72.09688 79.703125L71.8 79.25Q72.12813 79.109375 72.28438 78.8125Q72.44063 78.53125 72.47188 78.0L71.8625 78.0ZM74.3 73.765625Q74.3 72.234375 74.6125 71.3125Q74.925 70.375 75.53438 69.875Q76.15938 69.375 77.09688 69.375Q77.78438 69.375 78.3 69.65625Q78.83125 69.9375 79.175 70.46875Q79.51875 70.984375 79.70625 71.734375Q79.89375 72.484375 79.89375 73.765625Q79.89375 75.28125 79.58125 76.203125Q79.28438 77.125 78.65938 77.640625Q78.05 78.140625 77.09688 78.140625Q75.8625 78.140625 75.14375 77.25Q74.3 76.1875 74.3 73.765625ZM75.37813 73.765625Q75.37813 75.875 75.87813 76.578125Q76.37813 77.28125 77.09688 77.28125Q77.83125 77.28125 78.31563 76.578125Q78.81563 75.875 78.81563 73.765625Q78.81563 71.640625 78.31563 70.953125Q77.83125 70.25 77.08125 70.25Q76.3625 70.25 75.925 70.859375Q75.37813 71.640625 75.37813 73.765625ZM81.3 73.765625Q81.3 72.234375 81.6125 71.3125Q81.925 70.375 82.53438 69.875Q83.15938 69.375 84.09688 69.375Q84.78438 69.375 85.3 69.65625Q85.83125 69.9375 86.175 70.46875Q86.51875 70.984375 86.70625 71.734375Q86.89375 72.484375 86.89375 73.765625Q86.89375 75.28125 86.58125 76.203125Q86.28438 77.125 85.65938 77.640625Q85.05 78.140625 84.09688 78.140625Q82.8625 78.140625 82.14375 77.25Q81.3 76.1875 81.3 73.765625ZM82.37813 73.765625Q82.37813 75.875 82.87813 76.578125Q83.37813 77.28125 84.09688 77.28125Q84.83125 77.28125 85.31563 76.578125Q85.81563 75.875 85.81563 73.765625Q85.81563 71.640625 85.31563 70.953125Q84.83125 70.25 84.08125 70.25Q83.3625 70.25 82.925 70.859375Q82.37813 71.640625 82.37813 73.765625ZM88.3 73.765625Q88.3 72.234375 88.6125 71.3125Q88.925 70.375 89.53438 69.875Q90.15938 69.375 91.09688 69.375Q91.78438 69.375 92.3 69.65625Q92.83125 69.9375 93.175 70.46875Q93.51875 70.984375 93.70625 71.734375Q93.89375 72.484375 93.89375 73.765625Q93.89375 75.28125 93.58125 76.203125Q93.28438 77.125 92.65938 77.640625Q92.05 78.140625 91.09688 78.140625Q89.8625 78.140625 89.14375 77.25Q88.3 76.1875 88.3 73.765625ZM89.37813 73.765625Q89.37813 75.875 89.87813 76.578125Q90.37813 77.28125 91.09688 77.28125Q91.83125 77.28125 92.31563 76.578125Q92.81563 75.875 92.81563 73.765625Q92.81563 71.640625 92.31563 70.953125Q91.83125 70.25 91.08125 70.25Q90.3625 70.25 89.925 70.859375Q89.37813 71.640625 89.37813 73.765625ZM95.3 73.765625Q95.3 72.234375 95.6125 71.3125Q95.925 70.375 96.53438 69.875Q97.15938 69.375 98.09688 69.375Q98.78438 69.375 99.3 69.65625Q99.83125 69.9375 100.175 70.46875Q100.51875 70.984375 100.70625 71.734375Q100.89375 72.484375 100.89375 73.765625Q100.89375 75.28125 100.58125 76.203125Q100.28438 77.125 99.65938 77.640625Q99.05 78.140625 98.09688 78.140625Q96.8625 78.140625 96.14375 77.25Q95.3 76.1875 95.3 73.765625ZM96.37813 73.765625Q96.37813 75.875 96.87813 76.578125Q97.37813 77.28125 98.09688 77.28125Q98.83125 77.28125 99.31563 76.578125Q99.81563 75.875 99.81563 73.765625Q99.81563 71.640625 99.31563 70.953125Q98.83125 70.25 98.08125 70.25Q97.3625 70.25 96.925 70.859375Q96.37813 71.640625 96.37813 73.765625ZM102.3 73.765625Q102.3 72.234375 102.6125 71.3125Q102.925 70.375 103.53438 69.875Q104.15938 69.375 105.09688 69.375Q105.78438 69.375 106.3 69.65625Q106.83125 69.9375 107.175 70.46875Q107.51875 70.984375 107.70625 71.734375Q107.89375 72.484375 107.89375 73.765625Q107.89375 75.28125 107.58125 76.203125Q107.28438 77.125 106.65938 77.640625Q106.05 78.140625 105.09688 78.140625Q103.8625 78.140625 103.14375 77.25Q102.3 76.1875 102.3 73.765625ZM103.37813 73.765625Q103.37813 75.875 103.87813 76.578125Q104.37813 77.28125 105.09688 77.28125Q105.83125 77.28125 106.31563 76.578125Q106.81563 75.875 106.81563 73.765625Q106.81563 71.640625 106.31563 70.953125Q105.83125 70.25 105.08125 70.25Q104.3625 70.25 103.925 70.859375Q103.37813 71.640625 103.37813 73.765625ZM114.76875 71.515625L113.72188 71.59375Q113.58125 70.96875 113.33125 70.6875Q112.89375 70.234375 112.26875 70.234375Q111.76875 70.234375 111.37813 70.515625Q110.89375 70.890625 110.59688 71.59375Q110.31563 72.28125 110.3 73.5625Q110.675 72.984375 111.22188 72.703125Q111.78438 72.421875 112.39375 72.421875Q113.44063 72.421875 114.175 73.203125Q114.925 73.984375 114.925 75.203125Q114.925 76.015625 114.56563 76.71875Q114.22188 77.40625 113.6125 77.78125Q113.00313 78.140625 112.2375 78.140625Q110.90938 78.140625 110.08125 77.171875Q109.25313 76.203125 109.25313 73.984375Q109.25313 71.484375 110.175 70.359375Q110.97188 69.375 112.33125 69.375Q113.34688 69.375 113.9875 69.953125Q114.64375 70.515625 114.76875 71.515625ZM110.47188 75.21875Q110.47188 75.765625 110.69063 76.265625Q110.925 76.75 111.33125 77.015625Q111.75313 77.28125 112.22188 77.28125Q112.87813 77.28125 113.3625 76.75Q113.84688 76.203125 113.84688 75.28125Q113.84688 74.390625 113.3625 73.875Q112.89375 73.359375 112.175 73.359375Q111.45625 73.359375 110.95625 73.875Q110.47188 74.390625 110.47188 75.21875Z" fill-rule="nonzero"/><path fill="#000000" d="M118.8 564.96564Q118.8 563.4344 119.1125 562.5125Q119.425 561.575 120.03438 561.075Q120.65938 560.575 121.59688 560.575Q122.28438 560.575 122.8 560.85626Q123.33125 561.1375 123.675 561.66876Q124.01875 562.1844 124.20625 562.9344Q124.39375 563.6844 124.39375 564.96564Q124.39375 566.48126 124.08125 567.40314Q123.78438 568.325 123.15938 568.84064Q122.55 569.34064 121.59688 569.34064Q120.3625 569.34064 119.64375 568.45Q118.8 567.3875 118.8 564.96564ZM119.87813 564.96564Q119.87813 567.075 120.37813 567.77814Q120.87813 568.48126 121.59688 568.48126Q122.33125 568.48126 122.81563 567.77814Q123.31563 567.075 123.31563 564.96564Q123.31563 562.84064 122.81563 562.15314Q122.33125 561.45 121.58125 561.45Q120.8625 561.45 120.425 562.0594Q119.87813 562.84064 119.87813 564.96564Z" fill-rule="nonzero"/><path fill="#000000" d="M258.86993 568.1844L258.86993 569.2L253.18245 569.2Q253.18245 568.825 253.30745 568.46564Q253.5262 567.8875 253.99495 567.325Q254.47932 566.7625 255.38557 566.02814Q256.7918 564.8719 257.27618 564.2Q257.77618 563.52814 257.77618 562.9344Q257.77618 562.3094 257.32306 561.8875Q256.86993 561.45 256.15118 561.45Q255.38557 561.45 254.93245 561.90314Q254.47932 562.35626 254.4637 563.16876L253.38557 563.0594Q253.49495 561.84064 254.2137 561.21564Q254.94807 560.575 256.18243 560.575Q257.4168 560.575 258.13556 561.2625Q258.8543 561.95 258.8543 562.96564Q258.8543 563.48126 258.63556 563.98126Q258.43243 564.46564 257.93243 565.02814Q257.44806 565.575 256.32306 566.52814Q255.36995 567.325 255.0887 567.6219Q254.82307 567.90314 254.6512 568.1844L258.86993 568.1844Z" fill-rule="nonzero"/><path fill="#000000" d="M391.22116 569.2L391.22116 567.1375L387.5024 567.1375L387.5024 566.16876L391.4243 560.60626L392.28366 560.60626L392.28366 566.16876L393.4399 566.16876L393.4399 567.1375L392.28366 567.1375L392.28366 569.2L391.22116 569.2ZM391.22116 566.16876L391.22116 562.3094L388.53366 566.16876L391.22116 566.16876Z" fill-rule="nonzero"/><path fill="#000000" d="M527.83795 562.71564L526.7911 562.79376Q526.65045 562.16876 526.40045 561.8875Q525.96295 561.4344 525.33795 561.4344Q524.83795 561.4344 524.4473 561.71564Q523.96295 562.09064 523.6661 562.79376Q523.3848 563.48126 523.3692 564.7625Q523.7442 564.1844 524.2911 563.90314Q524.8536 563.6219 525.46295 563.6219Q526.5098 563.6219 527.2442 564.40314Q527.9942 565.1844 527.9942 566.40314Q527.9942 567.21564 527.6348 567.91876Q527.2911 568.60626 526.6817 568.98126Q526.0723 569.34064 525.3067 569.34064Q523.9786 569.34064 523.15045 568.3719Q522.3223 567.40314 522.3223 565.1844Q522.3223 562.6844 523.2442 561.5594Q524.0411 560.575 525.40045 560.575Q526.4161 560.575 527.0567 561.15314Q527.71295 561.71564 527.83795 562.71564ZM523.5411 566.41876Q523.5411 566.96564 523.7598 567.46564Q523.9942 567.95 524.40045 568.21564Q524.8223 568.48126 525.2911 568.48126Q525.9473 568.48126 526.4317 567.95Q526.9161 567.40314 526.9161 566.48126Q526.9161 565.59064 526.4317 565.075Q525.96295 564.5594 525.2442 564.5594Q524.52545 564.5594 524.02545 565.075Q523.5411 565.59064 523.5411 566.41876Z" fill-rule="nonzero"/><path fill="#000000" d="M658.51733 564.54376Q657.8611 564.29376 657.53296 563.85626Q657.22046 563.40314 657.22046 562.79376Q657.22046 561.85626 657.89233 561.21564Q658.57983 560.575 659.6892 560.575Q660.8142 560.575 661.5017 561.23126Q662.1892 561.8875 662.1892 562.825Q662.1892 563.41876 661.8767 563.85626Q661.5642 564.29376 660.9236 564.54376Q661.72046 564.79376 662.1267 565.3719Q662.53296 565.95 662.53296 566.7469Q662.53296 567.84064 661.7517 568.59064Q660.9861 569.34064 659.70483 569.34064Q658.4392 569.34064 657.65796 568.59064Q656.8767 567.84064 656.8767 566.71564Q656.8767 565.8719 657.2986 565.3094Q657.7361 564.7469 658.51733 564.54376ZM658.2986 562.7469Q658.2986 563.35626 658.6892 563.7469Q659.09546 564.1375 659.72046 564.1375Q660.32983 564.1375 660.72046 563.7625Q661.1111 563.3719 661.1111 562.8094Q661.1111 562.23126 660.70483 561.84064Q660.2986 561.4344 659.70483 561.4344Q659.09546 561.4344 658.6892 561.825Q658.2986 562.21564 658.2986 562.7469ZM657.97046 566.71564Q657.97046 567.16876 658.1736 567.59064Q658.39233 568.0125 658.8142 568.2469Q659.2361 568.48126 659.72046 568.48126Q660.47046 568.48126 660.95483 567.9969Q661.45483 567.5125 661.45483 566.7625Q661.45483 565.9969 660.95483 565.4969Q660.45483 564.9969 659.6892 564.9969Q658.9392 564.9969 658.45483 565.4969Q657.97046 565.98126 657.97046 566.71564Z" fill-rule="nonzero"/><path fill="#000000" d="M791.88416 569.2L790.8373 569.2L790.8373 562.48126Q790.44666 562.84064 789.82166 563.21564Q789.2123 563.575 788.7279 563.7469L788.7279 562.73126Q789.6029 562.3094 790.25916 561.73126Q790.931 561.1375 791.2123 560.575L791.88416 560.575L791.88416 569.2ZM794.9154 564.96564Q794.9154 563.4344 795.2279 562.5125Q795.5404 561.575 796.1498 561.075Q796.7748 560.575 797.7123 560.575Q798.3998 560.575 798.9154 560.85626Q799.44666 561.1375 799.7904 561.66876Q800.13416 562.1844 800.32166 562.9344Q800.50916 563.6844 800.50916 564.96564Q800.50916 566.48126 800.19666 567.40314Q799.8998 568.325 799.2748 568.84064Q798.6654 569.34064 797.7123 569.34064Q796.4779 569.34064 795.75916 568.45Q794.9154 567.3875 794.9154 564.96564ZM795.9935 564.96564Q795.9935 567.075 796.4935 567.77814Q796.9935 568.48126 797.7123 568.48126Q798.44666 568.48126 798.931 567.77814Q799.431 567.075 799.431 564.96564Q799.431 562.84064 798.931 562.15314Q798.44666 561.45 797.69666 561.45Q796.9779 561.45 796.5404 562.0594Q795.9935 562.84064 795.9935 564.96564Z" fill-rule="nonzero"/><path fill="#000000" d="M926.4072 569.2L925.36035 569.2L925.36035 562.48126Q924.9697 562.84064 924.3447 563.21564Q923.73535 563.575 923.251 563.7469L923.251 562.73126Q924.126 562.3094 924.7822 561.73126Q925.4541 561.1375 925.73535 560.575L926.4072 560.575L926.4072 569.2ZM934.98535 568.1844L934.98535 569.2L929.29785 569.2Q929.29785 568.825 929.42285 568.46564Q929.6416 567.8875 930.11035 567.325Q930.5947 566.7625 931.501 566.02814Q932.9072 564.8719 933.3916 564.2Q933.8916 563.52814 933.8916 562.9344Q933.8916 562.3094 933.4385 561.8875Q932.98535 561.45 932.2666 561.45Q931.501 561.45 931.04785 561.90314Q930.5947 562.35626 930.5791 563.16876L929.501 563.0594Q929.61035 561.84064 930.3291 561.21564Q931.0635 560.575 932.29785 560.575Q933.5322 560.575 934.251 561.2625Q934.9697 561.95 934.9697 562.96564Q934.9697 563.48126 934.751 563.98126Q934.54785 564.46564 934.04785 565.02814Q933.5635 565.575 932.4385 566.52814Q931.48535 567.325 931.2041 567.6219Q930.9385 567.90314 930.7666 568.1844L934.98535 568.1844Z" fill-rule="nonzero"/><path stroke="#4285f4" stroke-width="4.0" stroke-linecap="butt" d="M389.0 38.8L401.0 38.8" fill-rule="nonzero"/><path fill="#1a1a1a" d="M410.54688 34.20625L415.9375 34.20625L415.9375 42.8L414.79688 42.8L414.79688 35.221874L411.6875 35.221874L411.6875 39.64375Q411.6875 40.9875 411.5625 41.628124Q411.4375 42.253124 411.03125 42.596874Q410.625 42.940624 410.01562 42.940624Q409.64062 42.940624 409.10938 42.8L409.29688 41.8Q409.57812 41.909374 409.78125 41.909374Q410.17188 41.909374 410.35938 41.628124Q410.54688 41.33125 410.54688 40.253124L410.54688 34.20625ZM422.04688 40.8L423.14062 40.925Q422.89062 41.878124 422.1875 42.409374Q421.48438 42.940624 420.40625 42.940624Q419.04688 42.940624 418.23438 42.096874Q417.4375 41.253124 417.4375 39.7375Q417.4375 38.175 418.25 37.315624Q419.0625 36.440624 420.34375 36.440624Q421.59375 36.440624 422.375 37.284374Q423.17188 38.128124 423.17188 39.675Q423.17188 39.76875 423.17188 39.95625L418.53125 39.95625Q418.59375 40.9875 419.10938 41.534374Q419.625 42.065624 420.40625 42.065624Q420.98438 42.065624 421.39062 41.76875Q421.8125 41.45625 422.04688 40.8ZM418.59375 39.096874L422.0625 39.096874Q422.0 38.3 421.67188 37.909374Q421.15625 37.3 420.35938 37.3Q419.625 37.3 419.125 37.784374Q418.64062 38.26875 418.59375 39.096874ZM424.79688 36.58125L427.23438 36.58125Q428.125 36.58125 428.5625 36.7375Q429.0 36.878124 429.3125 37.284374Q429.625 37.675 429.625 38.221874Q429.625 38.675 429.4375 39.003124Q429.25 39.33125 428.89062 39.565624Q429.32812 39.70625 429.60938 40.1125Q429.90625 40.503124 429.90625 41.065624Q429.84375 41.940624 429.26562 42.378124Q428.70312 42.8 427.60938 42.8L424.79688 42.8L424.79688 36.58125ZM425.85938 39.190624L426.98438 39.190624Q427.65625 39.190624 427.90625 39.128124Q428.15625 39.05 428.34375 38.846874Q428.54688 38.628124 428.54688 38.33125Q428.54688 37.83125 428.20312 37.64375Q427.85938 37.45625 427.01562 37.45625L425.85938 37.45625L425.85938 39.190624ZM425.85938 41.925L427.23438 41.925Q428.14062 41.925 428.46875 41.721874Q428.8125 41.51875 428.82812 41.003124Q428.82812 40.70625 428.625 40.45625Q428.4375 40.190624 428.125 40.128124Q427.8125 40.065624 427.125 40.065624L425.85938 40.065624L425.85938 41.925ZM435.04688 40.8L436.14062 40.925Q435.89062 41.878124 435.1875 42.409374Q434.48438 42.940624 433.40625 42.940624Q432.04688 42.940624 431.23438 42.096874Q430.4375 41.253124 430.4375 39.7375Q430.4375 38.175 431.25 37.315624Q432.0625 36.440624 433.34375 36.440624Q434.59375 36.440624 435.375 37.284374Q436.17188 38.128124 436.17188 39.675Q436.17188 39.76875 436.17188 39.95625L431.53125 39.95625Q431.59375 40.9875 432.10938 41.534374Q432.625 42.065624 433.40625 42.065624Q433.98438 42.065624 434.39062 41.76875Q434.8125 41.45625 435.04688 40.8ZM431.59375 39.096874L435.0625 39.096874Q435.0 38.3 434.67188 37.909374Q434.15625 37.3 433.35938 37.3Q432.625 37.3 432.125 37.784374Q431.64062 38.26875 431.59375 39.096874ZM437.79688 36.58125L438.85938 36.58125L438.85938 39.159374L441.78125 39.159374L441.78125 36.58125L442.82812 36.58125L442.82812 42.8L441.78125 42.8L441.78125 40.034374L438.85938 40.034374L438.85938 42.8L437.79688 42.8L437.79688 36.58125ZM444.82812 36.58125L445.875 36.58125L445.875 41.925L448.28125 41.925L448.28125 36.58125L449.34375 36.58125L449.34375 41.925L451.75 41.925L451.75 36.58125L452.79688 36.58125L452.79688 42.8L444.82812 42.8L444.82812 36.58125ZM453.21875 36.58125L458.28125 36.58125L458.28125 37.45625L456.28125 37.45625L456.28125 42.8L455.23438 42.8L455.23438 37.45625L453.21875 37.45625L453.21875 36.58125ZM463.04688 40.8L464.14062 40.925Q463.89062 41.878124 463.1875 42.409374Q462.48438 42.940624 461.40625 42.940624Q460.04688 42.940624 459.23438 42.096874Q458.4375 41.253124 458.4375 39.7375Q458.4375 38.175 459.25 37.315624Q460.0625 36.440624 461.34375 36.440624Q462.59375 36.440624 463.375 37.284374Q464.17188 38.128124 464.17188 39.675Q464.17188 39.76875 464.17188 39.95625L459.53125 39.95625Q459.59375 40.9875 460.10938 41.534374Q460.625 42.065624 461.40625 42.065624Q461.98438 42.065624 462.39062 41.76875Q462.8125 41.45625 463.04688 40.8ZM459.59375 39.096874L463.0625 39.096874Q463.0 38.3 462.67188 37.909374Q462.15625 37.3 461.35938 37.3Q460.625 37.3 460.125 37.784374Q459.64062 38.26875 459.59375 39.096874ZM465.79688 36.58125L466.84375 36.58125L466.84375 41.315624L469.76562 36.58125L470.90625 36.58125L470.90625 42.8L469.85938 42.8L469.85938 38.08125L466.92188 42.8L465.79688 42.8L465.79688 36.58125ZM469.45312 34.221874L470.17188 34.221874Q470.07812 34.95625 469.625 35.346874Q469.1875 35.7375 468.4375 35.7375Q467.6875 35.7375 467.23438 35.346874Q466.79688 34.95625 466.70312 34.221874L467.42188 34.221874Q467.51562 34.6125 467.75 34.815624Q468.0 35.01875 468.40625 35.01875Q468.875 35.01875 469.125 34.83125Q469.375 34.628124 469.45312 34.221874ZM472.79688 36.58125L473.85938 36.58125L473.85938 39.159374L476.78125 39.159374L476.78125 36.58125L477.82812 36.58125L477.82812 42.8L476.78125 42.8L476.78125 40.034374L473.85938 40.034374L473.85938 42.8L472.79688 42.8L472.79688 36.58125Z" fill-rule="nonzero"/><path stroke="#ea4335" stroke-width="4.0" stroke-linecap="butt" d="M495.0 38.8L507.0 38.8" fill-rule="nonzero"/><path fill="#1a1a1a" d="M516.7031 34.20625L521.9375 34.20625L521.9375 41.784374L522.7031 41.784374L522.7031 44.8L521.6875 44.8L521.6875 42.8L516.0156 42.8L516.0156 44.8L515.0 44.8L515.0 41.784374L515.6719 41.784374Q516.7031 40.221874 516.7031 35.45625L516.7031 34.20625ZM520.7969 35.221874L517.7969 35.221874L517.7969 35.659374Q517.7969 36.753124 517.59375 38.659374Q517.40625 40.565624 516.8281 41.784374L520.7969 41.784374L520.7969 35.221874ZM527.8594 42.034374Q527.2656 42.534374 526.71875 42.7375Q526.1875 42.940624 525.5625 42.940624Q524.53125 42.940624 523.9844 42.440624Q523.4375 41.940624 523.4375 41.159374Q523.4375 40.70625 523.6406 40.33125Q523.84375 39.940624 524.1875 39.721874Q524.53125 39.4875 524.9531 39.378124Q525.25 39.284374 525.8906 39.20625Q527.15625 39.065624 527.7656 38.846874Q527.7656 38.628124 527.7656 38.58125Q527.7656 37.925 527.46875 37.659374Q527.0625 37.315624 526.2656 37.315624Q525.53125 37.315624 525.1719 37.58125Q524.8125 37.83125 524.6406 38.4875L523.6094 38.346874Q523.75 37.690624 524.0781 37.284374Q524.40625 36.878124 525.0156 36.659374Q525.625 36.440624 526.4219 36.440624Q527.21875 36.440624 527.71875 36.628124Q528.21875 36.815624 528.4531 37.096874Q528.6875 37.378124 528.78125 37.815624Q528.8281 38.08125 528.8281 38.784374L528.8281 40.190624Q528.8281 41.659374 528.8906 42.05Q528.96875 42.440624 529.1719 42.8L528.0625 42.8Q527.90625 42.471874 527.8594 42.034374ZM527.7656 39.675Q527.1875 39.909374 526.0469 40.08125Q525.3906 40.175 525.125 40.3Q524.8594 40.409374 524.7031 40.628124Q524.5625 40.846874 524.5625 41.128124Q524.5625 41.55 524.875 41.83125Q525.2031 42.1125 525.8125 42.1125Q526.4219 42.1125 526.8906 41.846874Q527.375 41.58125 527.59375 41.1125Q527.7656 40.753124 527.7656 40.065624L527.7656 39.675ZM530.8281 36.58125L532.46875 36.58125L534.09375 41.55L535.90625 36.58125L537.4375 36.58125L537.4375 42.8L536.375 42.8L536.375 37.784374L534.53125 42.8L533.59375 42.8L531.8594 37.55L531.8594 42.8L530.8281 42.8L530.8281 36.58125ZM544.0469 40.8L545.1406 40.925Q544.8906 41.878124 544.1875 42.409374Q543.4844 42.940624 542.40625 42.940624Q541.0469 42.940624 540.2344 42.096874Q539.4375 41.253124 539.4375 39.7375Q539.4375 38.175 540.25 37.315624Q541.0625 36.440624 542.34375 36.440624Q543.59375 36.440624 544.375 37.284374Q545.1719 38.128124 545.1719 39.675Q545.1719 39.76875 545.1719 39.95625L540.53125 39.95625Q540.59375 40.9875 541.1094 41.534374Q541.625 42.065624 542.40625 42.065624Q542.9844 42.065624 543.3906 41.76875Q543.8125 41.45625 544.0469 40.8ZM540.59375 39.096874L544.0625 39.096874Q544.0 38.3 543.6719 37.909374Q543.15625 37.3 542.3594 37.3Q541.625 37.3 541.125 37.784374Q540.6406 38.26875 540.59375 39.096874ZM546.7969 45.190624L546.7969 36.58125L547.75 36.58125L547.75 37.378124Q548.09375 36.909374 548.5156 36.675Q548.9531 36.440624 549.5625 36.440624Q550.3594 36.440624 550.96875 36.846874Q551.5781 37.253124 551.875 38.003124Q552.1875 38.753124 552.1875 39.64375Q552.1875 40.596874 551.84375 41.3625Q551.5156 42.128124 550.8594 42.534374Q550.2031 42.940624 549.4844 42.940624Q548.9531 42.940624 548.53125 42.721874Q548.1094 42.4875 547.84375 42.159374L547.84375 45.190624L546.7969 45.190624ZM547.75 39.721874Q547.75 40.925 548.2344 41.503124Q548.71875 42.065624 549.40625 42.065624Q550.1094 42.065624 550.6094 41.471874Q551.1094 40.878124 551.1094 39.628124Q551.1094 38.440624 550.625 37.8625Q550.1406 37.26875 549.4531 37.26875Q548.78125 37.26875 548.2656 37.89375Q547.75 38.51875 547.75 39.721874ZM557.8594 42.034374Q557.2656 42.534374 556.71875 42.7375Q556.1875 42.940624 555.5625 42.940624Q554.53125 42.940624 553.9844 42.440624Q553.4375 41.940624 553.4375 41.159374Q553.4375 40.70625 553.6406 40.33125Q553.84375 39.940624 554.1875 39.721874Q554.53125 39.4875 554.9531 39.378124Q555.25 39.284374 555.8906 39.20625Q557.15625 39.065624 557.7656 38.846874Q557.7656 38.628124 557.7656 38.58125Q557.7656 37.925 557.46875 37.659374Q557.0625 37.315624 556.2656 37.315624Q555.53125 37.315624 555.1719 37.58125Q554.8125 37.83125 554.6406 38.4875L553.6094 38.346874Q553.75 37.690624 554.0781 37.284374Q554.40625 36.878124 555.0156 36.659374Q555.625 36.440624 556.4219 36.440624Q557.21875 36.440624 557.71875 36.628124Q558.21875 36.815624 558.4531 37.096874Q558.6875 37.378124 558.78125 37.815624Q558.8281 38.08125 558.8281 38.784374L558.8281 40.190624Q558.8281 41.659374 558.8906 42.05Q558.96875 42.440624 559.1719 42.8L558.0625 42.8Q557.90625 42.471874 557.8594 42.034374ZM557.7656 39.675Q557.1875 39.909374 556.0469 40.08125Q555.3906 40.175 555.125 40.3Q554.8594 40.409374 554.7031 40.628124Q554.5625 40.846874 554.5625 41.128124Q554.5625 41.55 554.875 41.83125Q555.2031 42.1125 555.8125 42.1125Q556.4219 42.1125 556.8906 41.846874Q557.375 41.58125 557.59375 41.1125Q557.7656 40.753124 557.7656 40.065624L557.7656 39.675ZM560.75 45.190624L560.625 44.20625Q560.96875 44.3 561.2344 44.3Q561.5781 44.3 561.78125 44.175Q562.0 44.065624 562.1406 43.8625Q562.2344 43.690624 562.46875 43.065624Q562.4844 42.9875 562.5625 42.815624L560.1875 36.58125L561.3281 36.58125L562.625 40.175Q562.875 40.8625 563.0781 41.628124Q563.2656 40.89375 563.5156 40.20625L564.84375 36.58125L565.8906 36.58125L563.53125 42.909374Q563.1406 43.925 562.9375 44.315624Q562.65625 44.846874 562.28125 45.08125Q561.9219 45.33125 561.4219 45.33125Q561.125 45.33125 560.75 45.190624ZM565.375 40.221874L565.375 39.159374L568.625 39.159374L568.625 40.221874L565.375 40.221874ZM570.5469 34.20625L575.9375 34.20625L575.9375 42.8L574.7969 42.8L574.7969 35.221874L571.6875 35.221874L571.6875 39.64375Q571.6875 40.9875 571.5625 41.628124Q571.4375 42.253124 571.03125 42.596874Q570.625 42.940624 570.0156 42.940624Q569.6406 42.940624 569.1094 42.8L569.2969 41.8Q569.5781 41.909374 569.78125 41.909374Q570.1719 41.909374 570.3594 41.628124Q570.5469 41.33125 570.5469 40.253124L570.5469 34.20625ZM582.0469 40.8L583.1406 40.925Q582.8906 41.878124 582.1875 42.409374Q581.4844 42.940624 580.40625 42.940624Q579.0469 42.940624 578.2344 42.096874Q577.4375 41.253124 577.4375 39.7375Q577.4375 38.175 578.25 37.315624Q579.0625 36.440624 580.34375 36.440624Q581.59375 36.440624 582.375 37.284374Q583.1719 38.128124 583.1719 39.675Q583.1719 39.76875 583.1719 39.95625L578.53125 39.95625Q578.59375 40.9875 579.1094 41.534374Q579.625 42.065624 580.40625 42.065624Q580.9844 42.065624 581.3906 41.76875Q581.8125 41.45625 582.0469 40.8ZM578.59375 39.096874L582.0625 39.096874Q582.0 38.3 581.6719 37.909374Q581.15625 37.3 580.3594 37.3Q579.625 37.3 579.125 37.784374Q578.6406 38.26875 578.59375 39.096874ZM584.7969 36.58125L587.2344 36.58125Q588.125 36.58125 588.5625 36.7375Q589.0 36.878124 589.3125 37.284374Q589.625 37.675 589.625 38.221874Q589.625 38.675 589.4375 39.003124Q589.25 39.33125 588.8906 39.565624Q589.3281 39.70625 589.6094 40.1125Q589.90625 40.503124 589.90625 41.065624Q589.84375 41.940624 589.2656 42.378124Q588.7031 42.8 587.6094 42.8L584.7969 42.8L584.7969 36.58125ZM585.8594 39.190624L586.9844 39.190624Q587.65625 39.190624 587.90625 39.128124Q588.15625 39.05 588.34375 38.846874Q588.5469 38.628124 588.5469 38.33125Q588.5469 37.83125 588.2031 37.64375Q587.8594 37.45625 587.0156 37.45625L585.8594 37.45625L585.8594 39.190624ZM585.8594 41.925L587.2344 41.925Q588.1406 41.925 588.46875 41.721874Q588.8125 41.51875 588.8281 41.003124Q588.8281 40.70625 588.625 40.45625Q588.4375 40.190624 588.125 40.128124Q587.8125 40.065624 587.125 40.065624L585.8594 40.065624L585.8594 41.925ZM595.0469 40.8L596.1406 40.925Q595.8906 41.878124 595.1875 42.409374Q594.4844 42.940624 593.40625 42.940624Q592.0469 42.940624 591.2344 42.096874Q590.4375 41.253124 590.4375 39.7375Q590.4375 38.175 591.25 37.315624Q592.0625 36.440624 593.34375 36.440624Q594.59375 36.440624 595.375 37.284374Q596.1719 38.128124 596.1719 39.675Q596.1719 39.76875 596.1719 39.95625L591.53125 39.95625Q591.59375 40.9875 592.1094 41.534374Q592.625 42.065624 593.40625 42.065624Q593.9844 42.065624 594.3906 41.76875Q594.8125 41.45625 595.0469 40.8ZM591.59375 39.096874L595.0625 39.096874Q595.0 38.3 594.6719 37.909374Q594.15625 37.3 593.3594 37.3Q592.625 37.3 592.125 37.784374Q591.6406 38.26875 591.59375 39.096874ZM597.7969 36.58125L598.8594 36.58125L598.8594 39.159374L601.78125 39.159374L601.78125 36.58125L602.8281 36.58125L602.8281 42.8L601.78125 42.8L601.78125 40.034374L598.8594 40.034374L598.8594 42.8L597.7969 42.8L597.7969 36.58125ZM604.8281 36.58125L605.875 36.58125L605.875 41.925L608.28125 41.925L608.28125 36.58125L609.34375 36.58125L609.34375 41.925L611.75 41.925L611.75 36.58125L612.7969 36.58125L612.7969 42.8L604.8281 42.8L604.8281 36.58125ZM613.21875 36.58125L618.28125 36.58125L618.28125 37.45625L616.28125 37.45625L616.28125 42.8L615.2344 42.8L615.2344 37.45625L613.21875 37.45625L613.21875 36.58125ZM623.0469 40.8L624.1406 40.925Q623.8906 41.878124 623.1875 42.409374Q622.4844 42.940624 621.40625 42.940624Q620.0469 42.940624 619.2344 42.096874Q618.4375 41.253124 618.4375 39.7375Q618.4375 38.175 619.25 37.315624Q620.0625 36.440624 621.34375 36.440624Q622.59375 36.440624 623.375 37.284374Q624.1719 38.128124 624.1719 39.675Q624.1719 39.76875 624.1719 39.95625L619.53125 39.95625Q619.59375 40.9875 620.1094 41.534374Q620.625 42.065624 621.40625 42.065624Q621.9844 42.065624 622.3906 41.76875Q622.8125 41.45625 623.0469 40.8ZM619.59375 39.096874L623.0625 39.096874Q623.0 38.3 622.6719 37.909374Q622.15625 37.3 621.3594 37.3Q620.625 37.3 620.125 37.784374Q619.6406 38.26875 619.59375 39.096874ZM625.7969 36.58125L626.84375 36.58125L626.84375 41.315624L629.7656 36.58125L630.90625 36.58125L630.90625 42.8L629.8594 42.8L629.8594 38.08125L626.9219 42.8L625.7969 42.8L625.7969 36.58125ZM629.4531 34.221874L630.1719 34.221874Q630.0781 34.95625 629.625 35.346874Q629.1875 35.7375 628.4375 35.7375Q627.6875 35.7375 627.2344 35.346874Q626.7969 34.95625 626.7031 34.221874L627.4219 34.221874Q627.5156 34.6125 627.75 34.815624Q628.0 35.01875 628.40625 35.01875Q628.875 35.01875 629.125 34.83125Q629.375 34.628124 629.4531 34.221874ZM632.7969 36.58125L633.8594 36.58125L633.8594 39.159374L636.78125 39.159374L636.78125 36.58125L637.8281 36.58125L637.8281 42.8L636.78125 42.8L636.78125 40.034374L633.8594 40.034374L633.8594 42.8L632.7969 42.8L632.7969 36.58125Z" fill-rule="nonzero"/></svg>