<svg version="1.1" viewBox="0.0 0.0 1252.0 775.0" fill="none" stroke="none" stroke-linecap="square" stroke-miterlimit="10" width="1252" height="775" xmlns:xlink="http://www.w3.org/1999/xlink" xmlns="http://www.w3.org/2000/svg"><path fill="#ffffff" d="M0 0L1252.0 0L1252.0 775.0L0 775.0L0 0Z" fill-rule="nonzero"/><path stroke="#333333" stroke-width="1.0" stroke-linecap="butt" d="M170.5 96.5L170.5 658.5" fill-rule="nonzero"/><path stroke="#cccccc" stroke-width="1.0" stroke-linecap="butt" d="M331.5 96.5L331.5 658.5" fill-rule="nonzero"/><path stroke="#cccccc" stroke-width="1.0" stroke-linecap="butt" d="M491.5 96.5L491.5 658.5" fill-rule="nonzero"/><path stroke="#cccccc" stroke-width="1.0" stroke-linecap="butt" d="M651.5 96.5L651.5 658.5" fill-rule="nonzero"/><path stroke="#cccccc" stroke-width="1.0" stroke-linecap="butt" d="M812.5 96.5L812.5 658.5" fill-rule="nonzero"/><path stroke="#cccccc" stroke-width="1.0" stroke-linecap="butt" d="M972.5 96.5L972.5 658.5" fill-rule="nonzero"/><path stroke="#cccccc" stroke-width="1.0" stroke-linecap="butt" d="M1133.5 96.5L1133.5 658.5" fill-rule="nonzero"/><path stroke="#333333" stroke-width="1.0" stroke-linecap="butt" d="M170.5 658.5L1213.5 658.5" fill-rule="nonzero"/><path stroke="#cccccc" stroke-width="1.0" stroke-linecap="butt" d="M170.5 470.5L1213.5 470.5" fill-rule="nonzero"/><path stroke="#cccccc" stroke-width="1.0" stroke-linecap="butt" d="M170.5 283.5L1213.5 283.5" fill-rule="nonzero"/><path stroke="#cccccc" stroke-width="1.0" stroke-linecap="butt" d="M170.5 96.5L1213.5 96.5" fill-rule="nonzero"/><clipPath id="id_0"><path d="M170.75 96.083336L1213.25 96.083336L1213.25 658.25L170.75 658.25L170.75 96.083336Z" clip-rule="nonzero"/></clipPath><path stroke="#4285f4" stroke-width="2.0" stroke-linecap="butt" clip-path="url(#id_0)" d="M170.75 564.55554L250.9423 564.55554L331.1346 564.55554L411.32693 564.55554L491.51923 470.8611L571.71155 470.8611L651.9039 377.16666L732.0961 377.16666L812.28845 283.47223L892.4808 283.47223L972.6731 283.47223L1052.8654 283.47223L1133.0577 189.77777L1213.25 189.77777" fill-rule="nonzero"/><path stroke="#ea4335" stroke-width="2.0" stroke-linecap="butt" clip-path="url(#id_0)" d="M170.75 564.55554L250.9423 564.55554L331.1346 564.55554L411.32693 564.55554L491.51923 564.55554L571.71155 470.8611L651.9039 470.8611L732.0961 470.8611L812.28845 283.47223L892.4808 189.77777L972.6731 189.77777L1052.8654 189.77777L1133.0577 189.77777L1213.25 96.083336" fill-rule="nonzero"/><path fill="#000000" fill-opacity="0.0" clip-path="url(#id_0)" d="M173.75 564.55554C173.75 566.2124 172.40686 567.55554 170.75 567.55554C169.09314 567.55554 167.75 566.2124 167.75 564.55554C167.75 562.8987 169.09314 561.55554 170.75 561.55554C172.40686 561.55554 173.75 562.8987 173.75 564.55554Z" fill-rule="nonzero"/><path fill="#000000" fill-opacity="0.0" clip-path="url(#id_0)" d="M253.9423 564.55554C253.9423 566.2124 252.59917 567.55554 250.9423 567.55554C249.28545 567.55554 247.9423 566.2124 247.9423 564.55554C247.9423 562.8987 249.28545 561.55554 250.9423 561.55554C252.59917 561.55554 253.9423 562.8987 253.9423 564.55554Z" fill-rule="nonzero"/><path fill="#000000" fill-opacity="0.0" clip-path="url(#id_0)" d="M334.1346 564.55554C334.1346 566.2124 332.79147 567.55554 331.1346 567.55554C329.47775 567.55554 328.1346 566.2124 328.1346 564.55554C328.1346 562.8987 329.47775 561.55554 331.1346 561.55554C332.79147 561.55554 334.1346 562.8987 334.1346 564.55554Z" fill-rule="nonzero"/><path fill="#000000" fill-opacity="0.0" clip-path="url(#id_0)" d="M414.32693 564.55554C414.32693 566.2124 412.98376 567.55554 411.32693 567.55554C409.67007 567.55554 408.32693 566.2124 408.32693 564.55554C408.32693 562.8987 409.67007 561.55554 411.32693 561.55554C412.98376 561.55554 414.32693 562.8987 414.32693 564.55554Z" fill-rule="nonzero"/><path fill="#000000" fill-opacity="0.0" clip-path="url(#id_0)" d="M494.51923 470.8611C494.51923 472.51797 493.1761 473.8611 491.51923 473.8611C489.86237 473.8611 488.51923 472.51797 488.51923 470.8611C488.51923 469.20425 489.86237 467.8611 491.51923 467.8611C493.1761 467.8611 494.51923 469.20425 494.51923 470.8611Z" fill-rule="nonzero"/><path fill="#000000" fill-opacity="0.0" clip-path="url(#id_0)" d="M574.71155 470.8611C574.71155 472.51797 573.3684 473.8611 571.71155 473.8611C570.0547 473.8611 568.71155 472.51797 568.71155 470.8611C568.71155 469.20425 570.0547 467.8611 571.71155 467.8611C573.3684 467.8611 574.71155 469.20425 574.71155 470.8611Z" fill-rule="nonzero"/><path fill="#000000" fill-opacity="0.0" clip-path="url(#id_0)" d="M654.9039 377.16666C654.9039 378.82352 653.5607 380.16666 651.9039 380.16666C650.247 380.16666 648.9039 378.82352 648.9039 377.16666C648.9039 375.50983 650.247 374.16666 651.9039 374.16666C653.5607 374.16666 654.9039 375.50983 654.9039 377.16666Z" fill-rule="nonzero"/><path fill="#000000" fill-opacity="0.0" clip-path="url(#id_0)" d="M735.0961 377.16666C735.0961 378.82352 733.753 380.16666 732.0961 380.16666C730.4393 380.16666 729.0961 378.82352 729.0961 377.16666C729.0961 375.50983 730.4393 374.16666 732.0961 374.16666C733.753 374.16666 735.0961 375.50983 735.0961 377.16666Z" fill-rule="nonzero"/><path fill="#000000" fill-opacity="0.0" clip-path="url(#id_0)" d="M815.28845 283.47223C815.28845 285.1291 813.9453 286.47223 812.28845 286.47223C810.6316 286.47223 809.28845 285.1291 809.28845 283.47223C809.28845 281.81537 810.6316 280.47223 812.28845 280.47223C813.9453 280.47223 815.28845 281.81537 815.28845 283.47223Z" fill-rule="nonzero"/><path fill="#000000" fill-opacity="0.0" clip-path="url(#id_0)" d="M895.4808 283.47223C895.4808 285.1291 894.13763 286.47223 892.4808 286.47223C890.8239 286.47223 889.4808 285.1291 889.4808 283.47223C889.4808 281.81537 890.8239 280.47223 892.4808 280.47223C894.13763 280.47223 895.4808 281.81537 895.4808 283.47223Z" fill-rule="nonzero"/><path fill="#000000" fill-opacity="0.0" clip-path="url(#id_0)" d="M975.6731 283.47223C975.6731 285.1291 974.32996 286.47223 972.6731 286.47223C971.01624 286.47223 969.6731 285.1291 969.6731 283.47223C969.6731 281.81537 971.01624 280.47223 972.6731 280.47223C974.32996 280.47223 975.6731 281.81537 975.6731 283.47223Z" fill-rule="nonzero"/><path fill="#000000" fill-opacity="0.0" clip-path="url(#id_0)" d="M1055.8654 283.47223C1055.8654 285.1291 1054.5222 286.47223 1052.8654 286.47223C1051.2085 286.47223 1049.8654 285.1291 1049.8654 283.47223C1049.8654 281.81537 1051.2085 280.47223 1052.8654 280.47223C1054.5222 280.47223 1055.8654 281.81537 1055.8654 283.47223Z" fill-rule="nonzero"/><path fill="#000000" fill-opacity="0.0" clip-path="url(#id_0)" d="M1136.0577 189.77777C1136.0577 191.43463 1134.7146 192.77777 1133.0577 192.77777C1131.4009 192.77777 1130.0577 191.43463 1130.0577 189.77777C1130.0577 188.12093 1131.4009 186.77777 1133.0577 186.77777C1134.7146 186.77777 1136.0577 188.12093 1136.0577 189.77777Z" fill-rule="nonzero"/><path fill="#000000" fill-opacity="0.0" clip-path="url(#id_0)" d="M1216.25 189.77777C1216.25 191.43463 1214.9069 192.77777 1213.25 192.77777C1211.5931 192.77777 1210.25 191.43463 1210.25 189.77777C1210.25 188.12093 1211.5931 186.77777 1213.25 186.77777C1214.9069 186.77777 1216.25 188.12093 1216.25 189.77777Z" fill-rule="nonzero"/><path fill="#000000" fill-opacity="0.0" clip-path="url(#id_0)" d="M173.75 564.55554C173.75 566.2124 172.40686 567.55554 170.75 567.55554C169.09314 567.55554 167.75 566.2124 167.75 564.55554C167.75 562.8987 169.09314 561.55554 170.75 561.55554C172.40686 561.55554 173.75 562.8987 173.75 564.55554Z" fill-rule="nonzero"/><path fill="#000000" fill-opacity="0.0" clip-path="url(#id_0)" d="M253.9423 564.55554C253.9423 566.2124 252.59917 567.55554 250.9423 567.55554C249.28545 567.55554 247.9423 566.2124 247.9423 564.55554C247.9423 562.8987 249.28545 561.55554 250.9423 561.55554C252.59917 561.55554 253.9423 562.8987 253.9423 564.55554Z" fill-rule="nonzero"/><path fill="#000000" fill-opacity="0.0" clip-path="url(#id_0)" d="M334.1346 564.55554C334.1346 566.2124 332.79147 567.55554 331.1346 567.55554C329.47775 567.55554 328.1346 566.2124 328.1346 564.55554C328.1346 562.8987 329.47775 561.55554 331.1346 561.55554C332.79147 561.55554 334.1346 562.8987 334.1346 564.55554Z" fill-rule="nonzero"/><path fill="#000000" fill-opacity="0.0" clip-path="url(#id_0)" d="M414.32693 564.55554C414.32693 566.2124 412.98376 567.55554 411.32693 567.55554C409.67007 567.55554 408.32693 566.2124 408.32693 564.55554C408.32693 562.8987 409.67007 561.55554 411.32693 561.55554C412.98376 561.55554 414.32693 562.8987 414.32693 564.55554Z" fill-rule="nonzero"/><path fill="#000000" fill-opacity="0.0" clip-path="url(#id_0)" d="M494.51923 564.55554C494.51923 566.2124 493.1761 567.55554 491.51923 567.55554C489.86237 567.55554 488.51923 566.2124 488.51923 564.55554C488.51923 562.8987 489.86237 561.55554 491.51923 561.55554C493.1761 561.55554 494.51923 562.8987 494.51923 564.55554Z" fill-rule="nonzero"/><path fill="#000000" fill-opacity="0.0" clip-path="url(#id_0)" d="M574.71155 470.8611C574.71155 472.51797 573.3684 473.8611 571.71155 473.8611C570.0547 473.8611 568.71155 472.51797 568.71155 470.8611C568.71155 469.20425 570.0547 467.8611 571.71155 467.8611C573.3684 467.8611 574.71155 469.20425 574.71155 470.8611Z" fill-rule="nonzero"/><path fill="#000000" fill-opacity="0.0" clip-path="url(#id_0)" d="M654.9039 470.8611C654.9039 472.51797 653.5607 473.8611 651.9039 473.8611C650.247 473.8611 648.9039 472.51797 648.9039 470.8611C648.9039 469.20425 650.247 467.8611 651.9039 467.8611C653.5607 467.8611 654.9039 469.20425 654.9039 470.8611Z" fill-rule="nonzero"/><path fill="#000000" fill-opacity="0.0" clip-path="url(#id_0)" d="M735.0961 470.8611C735.0961 472.51797 733.753 473.8611 732.0961 473.8611C730.4393 473.8611 729.0961 472.51797 729.0961 470.8611C729.0961 469.20425 730.4393 467.8611 732.0961 467.8611C733.753 467.8611 735.0961 469.20425 735.0961 470.8611Z" fill-rule="nonzero"/><path fill="#000000" fill-opacity="0.0" clip-path="url(#id_0)" d="M815.28845 283.47223C815.28845 285.1291 813.9453 286.47223 812.28845 286.47223C810.6316 286.47223 809.28845 285.1291 809.28845 283.47223C809.28845 281.81537 810.6316 280.47223 812.28845 280.47223C813.9453 280.47223 815.28845 281.81537 815.28845 283.47223Z" fill-rule="nonzero"/><path fill="#000000" fill-opacity="0.0" clip-path="url(#id_0)" d="M895.4808 189.77777C895.4808 191.43463 894.13763 192.77777 892.4808 192.77777C890.8239 192.77777 889.4808 191.43463 889.4808 189.77777C889.4808 188.12093 890.8239 186.77777 892.4808 186.77777C894.13763 186.77777 895.4808 188.12093 895.4808 189.77777Z" fill-rule="nonzero"/><path fill="#000000" fill-opacity="0.0" clip-path="url(#id_0)" d="M975.6731 189.77777C975.6731 191.43463 974.32996 192.77777 972.6731 192.77777C971.01624 192.77777 969.6731 191.43463 969.6731 189.77777C969.6731 188.12093 971.01624 186.77777 972.6731 186.77777C974.32996 186.77777 975.6731 188.12093 975.6731 189.77777Z" fill-rule="nonzero"/><path fill="#000000" fill-opacity="0.0" clip-path="url(#id_0)" d="M1055.8654 189.77777C1055.8654 191.43463 1054.5222 192.77777 1052.8654 192.77777C1051.2085 192.77777 1049.8654 191.43463 1049.8654 189.77777C1049.8654 188.12093 1051.2085 186.77777 1052.8654 186.77777C1054.5222 186.77777 1055.8654 188.12093 1055.8654 189.77777Z" fill-rule="nonzero"/><path fill="#000000" fill-opacity="0.0" clip-path="url(#id_0)" d="M1136.0577 189.77777C1136.0577 191.43463 1134.7146 192.77777 1133.0577 192.77777C1131.4009 192.77777 1130.0577 191.43463 1130.0577 189.77777C1130.0577 188.12093 1131.4009 186.77777 1133.0577 186.77777C1134.7146 186.77777 1136.0577 188.12093 1136.0577 189.77777Z" fill-rule="nonzero"/><path fill="#000000" fill-opacity="0.0" clip-path="url(#id_0)" d="M1216.25 96.083336C1216.25 97.74019 1214.9069 99.083336 1213.25 99.083336C1211.5931 99.083336 1210.25 97.74019 1210.25 96.083336C1210.25 94.426476 1211.5931 93.083336 1213.25 93.083336C1214.9069 93.083336 1216.25 94.426476 1216.25 96.083336Z" fill-rule="nonzero"/><path fill="#000000" d="M582.0625 719.3594L589.8906 719.3594L589.8906 730.7344L591.0625 730.7344L591.0625 735.25L589.53125 735.25L589.53125 732.25L581.0156 732.25L581.0156 735.25L579.5 735.25L579.5 730.7344L580.5 730.7344Q582.0625 728.375 582.0625 721.25L582.0625 719.3594ZM588.1875 720.8906L583.7031 720.8906L583.7031 721.5469Q583.7031 723.1875 583.40625 726.0469Q583.1094 728.8906 582.25 730.7344L588.1875 730.7344L588.1875 720.8906ZM593.4531 722.9219L600.8125 722.9219L600.8125 732.25L599.2344 732.25L599.2344 724.21875L595.0469 724.21875L595.0469 728.875Q595.0469 730.5 594.9375 731.0156Q594.8281 731.53125 594.34375 731.9219Q593.875 732.3125 592.9844 732.3125Q592.4375 732.3125 591.71875 732.2344L591.71875 730.9219L592.40625 730.9219Q592.8906 730.9219 593.09375 730.8281Q593.3125 730.71875 593.375 730.5Q593.4531 730.28125 593.4531 729.0625L593.4531 722.9219ZM603.6875 722.9219L605.2656 722.9219L605.2656 730.03125L609.65625 722.9219L611.3594 722.9219L611.3594 732.25L609.78125 732.25L609.78125 725.1719L605.3906 732.25L603.6875 732.25L603.6875 722.9219ZM613.7031 722.9219L615.28125 722.9219L615.28125 726.7969L619.65625 726.7969L619.65625 722.9219L621.25 722.9219L621.25 732.25L619.65625 732.25L619.65625 728.1094L615.28125 728.1094L615.28125 732.25L613.7031 732.25L613.7031 722.9219ZM629.78125 731.09375Q628.90625 731.84375 628.0781 732.15625Q627.2656 732.46875 626.34375 732.46875Q624.7969 732.46875 623.96875 731.71875Q623.15625 730.9531 623.15625 729.78125Q623.15625 729.1094 623.46875 728.5469Q623.78125 727.96875 624.28125 727.625Q624.78125 727.28125 625.4219 727.1094Q625.8906 726.9844 626.8281 726.875Q628.7344 726.6406 629.6406 726.3281Q629.65625 726.0 629.65625 725.90625Q629.65625 724.9531 629.2031 724.5469Q628.59375 724.0156 627.40625 724.0156Q626.28125 724.0156 625.75 724.40625Q625.21875 724.7969 624.96875 725.7969L623.4219 725.5781Q623.6406 724.5781 624.1094 723.96875Q624.59375 723.3594 625.5 723.03125Q626.4219 722.7031 627.6406 722.7031Q628.8281 722.7031 629.5781 722.9844Q630.3281 723.2656 630.6719 723.7031Q631.03125 724.125 631.1719 724.7656Q631.25 725.1719 631.25 726.2344L631.25 728.34375Q631.25 730.5469 631.34375 731.1406Q631.4531 731.71875 631.75 732.25L630.09375 732.25Q629.84375 731.75 629.78125 731.09375ZM629.6406 727.5625Q628.78125 727.9219 627.0625 728.15625Q626.09375 728.2969 625.6875 728.4844Q625.28125 728.65625 625.0625 729.0Q624.84375 729.3281 624.84375 729.75Q624.84375 730.375 625.3125 730.7969Q625.7969 731.21875 626.71875 731.21875Q627.6406 731.21875 628.34375 730.8281Q629.0625 730.4219 629.3906 729.7344Q629.6406 729.1875 629.6406 728.1406L629.6406 727.5625ZM644.78125 728.8281L646.3281 729.03125Q646.0781 730.6406 645.03125 731.5625Q643.9844 732.46875 642.4531 732.46875Q640.53125 732.46875 639.3594 731.21875Q638.2031 729.9531 638.2031 727.625Q638.2031 726.1094 638.7031 724.9844Q639.2031 723.84375 640.21875 723.28125Q641.25 722.7031 642.4531 722.7031Q643.9844 722.7031 644.9375 723.4844Q645.90625 724.25 646.1875 725.65625L644.6406 725.8906Q644.4219 724.9531 643.8594 724.4844Q643.3125 724.0 642.5156 724.0Q641.3281 724.0 640.5781 724.8594Q639.8281 725.71875 639.8281 727.5781Q639.8281 729.4531 640.5469 730.3125Q641.2656 731.15625 642.4375 731.15625Q643.3594 731.15625 643.9844 730.59375Q644.6094 730.0156 644.78125 728.8281ZM646.8281 722.9219L654.4219 722.9219L654.4219 724.21875L651.40625 724.21875L651.40625 732.25L649.84375 732.25L649.84375 724.21875L646.8281 724.21875L646.8281 722.9219ZM655.6875 735.8281L655.6875 722.9219L657.125 722.9219L657.125 724.125Q657.6406 723.4219 658.28125 723.0625Q658.9219 722.7031 659.8281 722.7031Q661.03125 722.7031 661.9375 723.3281Q662.8594 723.9375 663.3281 725.0625Q663.7969 726.1719 663.7969 727.5156Q663.7969 728.9375 663.28125 730.09375Q662.7656 731.2344 661.78125 731.8594Q660.7969 732.46875 659.71875 732.46875Q658.9375 732.46875 658.2969 732.1406Q657.6719 731.7969 657.2656 731.28125L657.2656 735.8281L655.6875 735.8281ZM657.125 727.6406Q657.125 729.4375 657.84375 730.2969Q658.5781 731.15625 659.6094 731.15625Q660.6719 731.15625 661.4219 730.2656Q662.1719 729.375 662.1719 727.5Q662.1719 725.71875 661.4375 724.8281Q660.7031 723.9375 659.6875 723.9375Q658.6719 723.9375 657.8906 724.8906Q657.125 725.8281 657.125 727.6406ZM665.09375 727.5781Q665.09375 724.9844 666.5469 723.7344Q667.75 722.7031 669.46875 722.7031Q671.40625 722.7031 672.625 723.96875Q673.84375 725.2344 673.84375 727.4531Q673.84375 729.25 673.2969 730.28125Q672.7656 731.3125 671.7344 731.8906Q670.7031 732.46875 669.46875 732.46875Q667.5156 732.46875 666.2969 731.21875Q665.09375 729.9531 665.09375 727.5781ZM666.71875 727.5781Q666.71875 729.375 667.5 730.2656Q668.28125 731.15625 669.46875 731.15625Q670.65625 731.15625 671.4375 730.2656Q672.21875 729.3594 672.21875 727.53125Q672.21875 725.7969 671.4219 724.90625Q670.6406 724.0156 669.46875 724.0156Q668.28125 724.0156 667.5 724.90625Q666.71875 725.7969 666.71875 727.5781ZM675.6719 722.9219L677.2656 722.9219L677.2656 726.9531Q678.0156 726.9531 678.3125 726.6719Q678.625 726.375 679.21875 724.96875Q679.6719 723.8594 679.9531 723.5156Q680.25 723.15625 680.625 723.0469Q681.0156 722.9219 681.84375 722.9219L682.1719 722.9219L682.1719 724.21875L681.71875 724.21875Q681.09375 724.21875 680.9219 724.40625Q680.7344 724.59375 680.3594 725.5469Q680.0 726.46875 679.7031 726.8281Q679.40625 727.1719 678.78125 727.4531Q679.7969 727.7344 680.78125 729.3594L682.5156 732.25L680.78125 732.25L679.09375 729.3594Q678.5625 728.4844 678.1719 728.21875Q677.7969 727.9375 677.2656 727.9375L677.2656 732.25L675.6719 732.25L675.6719 722.9219ZM683.6875 722.9219L685.2656 722.9219L685.2656 730.03125L689.65625 722.9219L691.3594 722.9219L691.3594 732.25L689.78125 732.25L689.78125 725.1719L685.3906 732.25L683.6875 732.25L683.6875 722.9219ZM701.7031 736.03125Q700.40625 734.3906 699.5 732.1719Q698.59375 729.9531 698.59375 727.5781Q698.59375 725.4844 699.2656 723.5781Q700.0625 721.34375 701.7031 719.1406L702.84375 719.1406Q701.78125 720.96875 701.4375 721.75Q700.90625 722.96875 700.59375 724.28125Q700.21875 725.9375 700.21875 727.59375Q700.21875 731.8125 702.84375 736.03125L701.7031 736.03125ZM704.7031 722.9219L708.34375 722.9219Q709.6875 722.9219 710.34375 723.1406Q711.0 723.3594 711.46875 723.96875Q711.9375 724.5625 711.9375 725.3906Q711.9375 726.0625 711.65625 726.5625Q711.3906 727.0625 710.8281 727.3906Q711.4844 727.6094 711.9219 728.21875Q712.3594 728.8125 712.3594 729.6406Q712.2656 730.96875 711.40625 731.6094Q710.5469 732.25 708.90625 732.25L704.7031 732.25L704.7031 722.9219ZM706.28125 726.84375L707.96875 726.84375Q708.96875 726.84375 709.34375 726.75Q709.7344 726.6406 710.03125 726.3125Q710.3281 725.9844 710.3281 725.5469Q710.3281 724.8125 709.7969 724.5156Q709.28125 724.21875 708.0156 724.21875L706.28125 724.21875L706.28125 726.84375ZM706.28125 730.9531L708.3594 730.9531Q709.7031 730.9531 710.2031 730.6406Q710.7031 730.3281 710.7344 729.5625Q710.7344 729.1094 710.4375 728.7344Q710.15625 728.34375 709.6875 728.25Q709.21875 728.1406 708.1875 728.1406L706.28125 728.1406L706.28125 730.9531ZM725.78125 728.8281L727.3281 729.03125Q727.0781 730.6406 726.03125 731.5625Q724.9844 732.46875 723.4531 732.46875Q721.53125 732.46875 720.3594 731.21875Q719.2031 729.9531 719.2031 727.625Q719.2031 726.1094 719.7031 724.9844Q720.2031 723.84375 721.21875 723.28125Q722.25 722.7031 723.4531 722.7031Q724.9844 722.7031 725.9375 723.4844Q726.90625 724.25 727.1875 725.65625L725.6406 725.8906Q725.4219 724.9531 724.8594 724.4844Q724.3125 724.0 723.5156 724.0Q722.3281 724.0 721.5781 724.8594Q720.8281 725.71875 720.8281 727.5781Q720.8281 729.4531 721.5469 730.3125Q722.2656 731.15625 723.4375 731.15625Q724.3594 731.15625 724.9844 730.59375Q725.6094 730.0156 725.78125 728.8281ZM728.6875 722.9219L730.2656 722.9219L730.2656 730.03125L734.65625 722.9219L736.3594 722.9219L736.3594 732.25L734.78125 732.25L734.78125 725.1719L730.3906 732.25L728.6875 732.25L728.6875 722.9219ZM738.7344 722.9219L741.1875 722.9219L743.6406 730.3906L746.375 722.9219L748.6406 722.9219L748.6406 732.25L747.0625 732.25L747.0625 724.7344L744.2969 732.25L742.8906 732.25L740.28125 724.375L740.28125 732.25L738.7344 732.25L738.7344 722.9219ZM750.7031 722.9219L754.34375 722.9219Q755.6875 722.9219 756.34375 723.1406Q757.0 723.3594 757.46875 723.96875Q757.9375 724.5625 757.9375 725.3906Q757.9375 726.0625 757.65625 726.5625Q757.3906 727.0625 756.8281 727.3906Q757.4844 727.6094 757.9219 728.21875Q758.3594 728.8125 758.3594 729.6406Q758.2656 730.96875 757.40625 731.6094Q756.5469 732.25 754.90625 732.25L750.7031 732.25L750.7031 722.9219ZM752.28125 726.84375L753.96875 726.84375Q754.96875 726.84375 755.34375 726.75Q755.7344 726.6406 756.03125 726.3125Q756.3281 725.9844 756.3281 725.5469Q756.3281 724.8125 755.7969 724.5156Q755.28125 724.21875 754.0156 724.21875L752.28125 724.21875L752.28125 726.84375ZM752.28125 730.9531L754.3594 730.9531Q755.7031 730.9531 756.2031 730.6406Q756.7031 730.3281 756.7344 729.5625Q756.7344 729.1094 756.4375 728.7344Q756.15625 728.34375 755.6875 728.25Q755.21875 728.1406 754.1875 728.1406L752.28125 728.1406L752.28125 730.9531ZM760.09375 727.5781Q760.09375 724.9844 761.5469 723.7344Q762.75 722.7031 764.46875 722.7031Q766.40625 722.7031 767.625 723.96875Q768.84375 725.2344 768.84375 727.4531Q768.84375 729.25 768.2969 730.28125Q767.7656 731.3125 766.7344 731.8906Q765.7031 732.46875 764.46875 732.46875Q762.5156 732.46875 761.2969 731.21875Q760.09375 729.9531 760.09375 727.5781ZM761.71875 727.5781Q761.71875 729.375 762.5 730.2656Q763.28125 731.15625 764.46875 731.15625Q765.65625 731.15625 766.4375 730.2656Q767.21875 729.3594 767.21875 727.53125Q767.21875 725.7969 766.4219 724.90625Q765.6406 724.0156 764.46875 724.0156Q763.28125 724.0156 762.5 724.90625Q761.71875 725.7969 761.71875 727.5781ZM771.4531 722.9219L778.8125 722.9219L778.8125 732.25L777.2344 732.25L777.2344 724.21875L773.0469 724.21875L773.0469 728.875Q773.0469 730.5 772.9375 731.0156Q772.8281 731.53125 772.34375 731.9219Q771.875 732.3125 770.9844 732.3125Q770.4375 732.3125 769.71875 732.2344L769.71875 730.9219L770.40625 730.9219Q770.8906 730.9219 771.09375 730.8281Q771.3125 730.71875 771.375 730.5Q771.4531 730.28125 771.4531 729.0625L771.4531 722.9219ZM787.78125 731.09375Q786.90625 731.84375 786.0781 732.15625Q785.2656 732.46875 784.34375 732.46875Q782.7969 732.46875 781.96875 731.71875Q781.15625 730.9531 781.15625 729.78125Q781.15625 729.1094 781.46875 728.5469Q781.78125 727.96875 782.28125 727.625Q782.78125 727.28125 783.4219 727.1094Q783.8906 726.9844 784.8281 726.875Q786.7344 726.6406 787.6406 726.3281Q787.65625 726.0 787.65625 725.90625Q787.65625 724.9531 787.2031 724.5469Q786.59375 724.0156 785.40625 724.0156Q784.28125 724.0156 783.75 724.40625Q783.21875 724.7969 782.96875 725.7969L781.4219 725.5781Q781.6406 724.5781 782.1094 723.96875Q782.59375 723.3594 783.5 723.03125Q784.4219 722.7031 785.6406 722.7031Q786.8281 722.7031 787.5781 722.9844Q788.3281 723.2656 788.6719 723.7031Q789.03125 724.125 789.1719 724.7656Q789.25 725.1719 789.25 726.2344L789.25 728.34375Q789.25 730.5469 789.34375 731.1406Q789.4531 731.71875 789.75 732.25L788.09375 732.25Q787.84375 731.75 787.78125 731.09375ZM787.6406 727.5625Q786.78125 727.9219 785.0625 728.15625Q784.09375 728.2969 783.6875 728.4844Q783.28125 728.65625 783.0625 729.0Q782.84375 729.3281 782.84375 729.75Q782.84375 730.375 783.3125 730.7969Q783.7969 731.21875 784.71875 731.21875Q785.6406 731.21875 786.34375 730.8281Q787.0625 730.4219 787.3906 729.7344Q787.6406 729.1875 787.6406 728.1406L787.6406 727.5625ZM790.625 732.25L794.0469 727.3906L790.8906 722.9219L792.8594 722.9219L794.2969 725.1094Q794.7031 725.7344 794.9531 726.15625Q795.3281 725.5625 795.65625 725.125L797.2344 722.9219L799.125 722.9219L795.8906 727.3125L799.375 732.25L797.4219 732.25L795.5156 729.34375L795.0 728.5625L792.5469 732.25L790.625 732.25ZM800.71875 736.03125L799.59375 736.03125Q802.21875 731.8125 802.21875 727.59375Q802.21875 725.9375 801.84375 724.3125Q801.5469 723.0 801.0 721.78125Q800.65625 720.9844 799.59375 719.1406L800.71875 719.1406Q802.375 721.34375 803.1719 723.5781Q803.84375 725.4844 803.84375 727.5781Q803.84375 729.9531 802.9375 732.1719Q802.03125 734.3906 800.71875 736.03125Z" fill-rule="nonzero"/><path fill="#000000" d="M55.75 423.10416L42.859375 423.10416L42.859375 418.2604Q42.859375 416.79166 43.25 415.90103Q43.640625 415.0104 44.453125 414.5104Q45.265625 413.99478 46.15625 413.99478Q46.984375 413.99478 47.71875 414.4479Q48.453125 414.8854 48.890625 415.79166Q49.234375 414.61978 50.0625 413.99478Q50.890625 413.36978 52.015625 413.36978Q52.921875 413.36978 53.703125 413.7604Q54.46875 414.1354 54.890625 414.6979Q55.3125 415.2604 55.53125 416.10416Q55.75 416.9479 55.75 418.18228L55.75 423.10416ZM48.28125 421.3854L48.28125 418.60416Q48.28125 417.47916 48.125 416.97916Q47.9375 416.3229 47.5 415.99478Q47.046875 415.66666 46.359375 415.66666Q45.71875 415.66666 45.234375 415.97916Q44.75 416.29166 44.578125 416.86978Q44.390625 417.43228 44.390625 418.8229L44.390625 421.3854L48.28125 421.3854ZM54.234375 421.3854L54.234375 418.18228Q54.234375 417.35416 54.171875 417.02603Q54.0625 416.43228 53.8125 416.04166Q53.5625 415.65103 53.09375 415.40103Q52.625 415.1354 52.015625 415.1354Q51.296875 415.1354 50.765625 415.5104Q50.234375 415.86978 50.015625 416.52603Q49.796875 417.18228 49.796875 418.41666L49.796875 421.3854L54.234375 421.3854ZM59.328125 411.22916L46.421875 411.22916L46.421875 409.79166L47.625 409.79166Q46.921875 409.27603 46.5625 408.6354Q46.203125 407.99478 46.203125 407.08853Q46.203125 405.8854 46.828125 404.97916Q47.4375 404.05728 48.5625 403.58853Q49.671875 403.11978 51.015625 403.11978Q52.4375 403.11978 53.59375 403.6354Q54.734375 404.15103 55.359375 405.1354Q55.96875 406.11978 55.96875 407.1979Q55.96875 407.97916 55.640625 408.61978Q55.296875 409.24478 54.78125 409.65103L59.328125 409.65103L59.328125 411.22916ZM51.140625 409.79166Q52.9375 409.79166 53.796875 409.0729Q54.65625 408.33853 54.65625 407.30728Q54.65625 406.24478 53.765625 405.49478Q52.875 404.74478 51.0 404.74478Q49.21875 404.74478 48.328125 405.47916Q47.4375 406.21353 47.4375 407.22916Q47.4375 408.24478 48.390625 409.02603Q49.328125 409.79166 51.140625 409.79166ZM52.75 394.83853L52.953125 393.1979Q54.375 393.58853 55.171875 394.6354Q55.96875 395.68228 55.96875 397.30728Q55.96875 399.35416 54.703125 400.55728Q53.4375 401.7604 51.15625 401.7604Q48.8125 401.7604 47.515625 400.55728Q46.203125 399.33853 46.203125 397.40103Q46.203125 395.52603 47.484375 394.33853Q48.75 393.15103 51.0625 393.15103Q51.203125 393.15103 51.484375 393.16666L51.484375 400.11978Q53.03125 400.04166 53.84375 399.2604Q54.65625 398.46353 54.65625 397.30728Q54.65625 396.43228 54.203125 395.8229Q53.75 395.1979 52.75 394.83853ZM50.1875 400.04166L50.1875 394.8229Q49.015625 394.93228 48.421875 395.41666Q47.5 396.18228 47.5 397.3854Q47.5 398.46353 48.234375 399.21353Q48.96875 399.9479 50.1875 400.04166ZM46.421875 391.18228L46.421875 388.72916L53.890625 386.27603L46.421875 383.54166L46.421875 381.27603L55.75 381.27603L55.75 382.85416L48.234375 382.85416L55.75 385.61978L55.75 387.02603L47.875 389.6354L55.75 389.6354L55.75 391.18228L46.421875 391.18228ZM46.421875 371.8854L55.75 371.8854L55.75 373.4479L52.109375 373.4479L52.109375 374.36978Q52.109375 375.1979 52.328125 375.61978Q52.546875 376.02603 53.703125 376.80728L55.75 378.18228L55.75 380.15103L53.234375 378.43228Q52.078125 377.65103 51.9375 376.8854Q51.75 378.22916 50.96875 378.8854Q50.171875 379.54166 49.140625 379.54166Q47.921875 379.54166 47.171875 378.6979Q46.421875 377.83853 46.421875 376.21353L46.421875 371.8854ZM47.71875 373.4479L47.71875 375.6979Q47.71875 377.11978 48.171875 377.52603Q48.609375 377.93228 49.1875 377.93228Q50.03125 377.93228 50.421875 377.33853Q50.8125 376.72916 50.8125 375.1979L50.8125 373.4479L47.71875 373.4479ZM59.53125 366.21353Q57.890625 367.5104 55.671875 368.41666Q53.453125 369.3229 51.078125 369.3229Q48.984375 369.3229 47.078125 368.65103Q44.84375 367.85416 42.640625 366.21353L42.640625 365.0729Q44.46875 366.1354 45.25 366.47916Q46.46875 367.0104 47.78125 367.3229Q49.4375 367.6979 51.09375 367.6979Q55.3125 367.6979 59.53125 365.0729L59.53125 366.21353ZM52.328125 357.1354L52.53125 355.58853Q54.140625 355.83853 55.0625 356.8854Q55.96875 357.93228 55.96875 359.46353Q55.96875 361.3854 54.71875 362.55728Q53.453125 363.71353 51.125 363.71353Q49.609375 363.71353 48.484375 363.21353Q47.34375 362.71353 46.78125 361.6979Q46.203125 360.66666 46.203125 359.46353Q46.203125 357.93228 46.984375 356.97916Q47.75 356.0104 49.15625 355.72916L49.390625 357.27603Q48.453125 357.49478 47.984375 358.05728Q47.5 358.60416 47.5 359.40103Q47.5 360.58853 48.359375 361.33853Q49.21875 362.08853 51.078125 362.08853Q52.953125 362.08853 53.8125 361.36978Q54.65625 360.65103 54.65625 359.47916Q54.65625 358.55728 54.09375 357.93228Q53.515625 357.30728 52.328125 357.1354ZM59.53125 353.1979L59.53125 354.3229Q55.3125 351.6979 51.09375 351.6979Q49.4375 351.6979 47.8125 352.0729Q46.5 352.36978 45.28125 352.91666Q44.484375 353.2604 42.640625 354.3229L42.640625 353.1979Q44.84375 351.54166 47.078125 350.74478Q48.984375 350.0729 51.078125 350.0729Q53.453125 350.0729 55.671875 350.97916Q57.890625 351.8854 59.53125 353.1979Z" fill-rule="nonzero"/><path fill="#000000" d="M87.5 658.3906Q87.5 656.1094 87.96875 654.71875Q88.4375 653.3281 89.359375 652.5781Q90.296875 651.8125 91.703125 651.8125Q92.734375 651.8125 93.515625 652.2344Q94.296875 652.6406 94.796875 653.4375Q95.3125 654.21875 95.609375 655.3594Q95.90625 656.4844 95.90625 658.3906Q95.90625 660.65625 95.4375 662.0625Q94.96875 663.4531 94.03125 664.21875Q93.109375 664.96875 91.703125 664.96875Q89.828125 664.96875 88.765625 663.6406Q87.5 662.03125 87.5 658.3906ZM89.125 658.3906Q89.125 661.5625 89.859375 662.625Q90.609375 663.6719 91.703125 663.6719Q92.78125 663.6719 93.53125 662.625Q94.28125 661.5625 94.28125 658.3906Q94.28125 655.21875 93.53125 654.1719Q92.78125 653.125 91.6875 653.125Q90.59375 653.125 89.9375 654.0469Q89.125 655.21875 89.125 658.3906ZM98.34375 664.75L98.34375 662.9531L100.15625 662.9531L100.15625 664.75Q100.15625 665.75 99.796875 666.3594Q99.453125 666.96875 98.6875 667.2969L98.25 666.625Q98.75 666.40625 98.984375 665.96875Q99.21875 665.5469 99.25 664.75L98.34375 664.75ZM102.5 658.3906Q102.5 656.1094 102.96875 654.71875Q103.4375 653.3281 104.359375 652.5781Q105.296875 651.8125 106.703125 651.8125Q107.734375 651.8125 108.515625 652.2344Q109.296875 652.6406 109.796875 653.4375Q110.3125 654.21875 110.609375 655.3594Q110.90625 656.4844 110.90625 658.3906Q110.90625 660.65625 110.4375 662.0625Q109.96875 663.4531 109.03125 664.21875Q108.109375 664.96875 106.703125 664.96875Q104.828125 664.96875 103.765625 663.6406Q102.5 662.03125 102.5 658.3906ZM104.125 658.3906Q104.125 661.5625 104.859375 662.625Q105.609375 663.6719 106.703125 663.6719Q107.78125 663.6719 108.53125 662.625Q109.28125 661.5625 109.28125 658.3906Q109.28125 655.21875 108.53125 654.1719Q107.78125 653.125 106.6875 653.125Q105.59375 653.125 104.9375 654.0469Q104.125 655.21875 104.125 658.3906ZM112.5 658.3906Q112.5 656.1094 112.96875 654.71875Q113.4375 653.3281 114.359375 652.5781Q115.296875 651.8125 116.703125 651.8125Q117.734375 651.8125 118.515625 652.2344Q119.296875 652.6406 119.796875 653.4375Q120.3125 654.21875 120.609375 655.3594Q120.90625 656.4844 120.90625 658.3906Q120.90625 660.65625 120.4375 662.0625Q119.96875 663.4531 119.03125 664.21875Q118.109375 664.96875 116.703125 664.96875Q114.828125 664.96875 113.765625 663.6406Q112.5 662.03125 112.5 658.3906ZM114.125 658.3906Q114.125 661.5625 114.859375 662.625Q115.609375 663.6719 116.703125 663.6719Q117.78125 663.6719 118.53125 662.625Q119.28125 661.5625 119.28125 658.3906Q119.28125 655.21875 118.53125 654.1719Q117.78125 653.125 116.6875 653.125Q115.59375 653.125 114.9375 654.0469Q114.125 655.21875 114.125 658.3906ZM122.5 658.3906Q122.5 656.1094 122.96875 654.71875Q123.4375 653.3281 124.359375 652.5781Q125.296875 651.8125 126.703125 651.8125Q127.734375 651.8125 128.51562 652.2344Q129.29688 652.6406 129.79688 653.4375Q130.3125 654.21875 130.60938 655.3594Q130.90625 656.4844 130.90625 658.3906Q130.90625 660.65625 130.4375 662.0625Q129.96875 663.4531 129.03125 664.21875Q128.10938 664.96875 126.703125 664.96875Q124.828125 664.96875 123.765625 663.6406Q122.5 662.03125 122.5 658.3906ZM124.125 658.3906Q124.125 661.5625 124.859375 662.625Q125.609375 663.6719 126.703125 663.6719Q127.78125 663.6719 128.53125 662.625Q129.28125 661.5625 129.28125 658.3906Q129.28125 655.21875 128.53125 654.1719Q127.78125 653.125 126.6875 653.125Q125.59375 653.125 124.9375 654.0469Q124.125 655.21875 124.125 658.3906ZM132.5 658.3906Q132.5 656.1094 132.96875 654.71875Q133.4375 653.3281 134.35938 652.5781Q135.29688 651.8125 136.70312 651.8125Q137.73438 651.8125 138.51562 652.2344Q139.29688 652.6406 139.79688 653.4375Q140.3125 654.21875 140.60938 655.3594Q140.90625 656.4844 140.90625 658.3906Q140.90625 660.65625 140.4375 662.0625Q139.96875 663.4531 139.03125 664.21875Q138.10938 664.96875 136.70312 664.96875Q134.82812 664.96875 133.76562 663.6406Q132.5 662.03125 132.5 658.3906ZM134.125 658.3906Q134.125 661.5625 134.85938 662.625Q135.60938 663.6719 136.70312 663.6719Q137.78125 663.6719 138.53125 662.625Q139.28125 661.5625 139.28125 658.3906Q139.28125 655.21875 138.53125 654.1719Q137.78125 653.125 136.6875 653.125Q135.59375 653.125 134.9375 654.0469Q134.125 655.21875 134.125 658.3906ZM142.5 658.3906Q142.5 656.1094 142.96875 654.71875Q143.4375 653.3281 144.35938 652.5781Q145.29688 651.8125 146.70312 651.8125Q147.73438 651.8125 148.51562 652.2344Q149.29688 652.6406 149.79688 653.4375Q150.3125 654.21875 150.60938 655.3594Q150.90625 656.4844 150.90625 658.3906Q150.90625 660.65625 150.4375 662.0625Q149.96875 663.4531 149.03125 664.21875Q148.10938 664.96875 146.70312 664.96875Q144.82812 664.96875 143.76562 663.6406Q142.5 662.03125 142.5 658.3906ZM144.125 658.3906Q144.125 661.5625 144.85938 662.625Q145.60938 663.6719 146.70312 663.6719Q147.78125 663.6719 148.53125 662.625Q149.28125 661.5625 149.28125 658.3906Q149.28125 655.21875 148.53125 654.1719Q147.78125 653.125 146.6875 653.125Q145.59375 653.125 144.9375 654.0469Q144.125 655.21875 144.125 658.3906ZM152.5 658.3906Q152.5 656.1094 152.96875 654.71875Q153.4375 653.3281 154.35938 652.5781Q155.29688 651.8125 156.70312 651.8125Q157.73438 651.8125 158.51562 652.2344Q159.29688 652.6406 159.79688 653.4375Q160.3125 654.21875 160.60938 655.3594Q160.90625 656.4844 160.90625 658.3906Q160.90625 660.65625 160.4375 662.0625Q159.96875 663.4531 159.03125 664.21875Q158.10938 664.96875 156.70312 664.96875Q154.82812 664.96875 153.76562 663.6406Q152.5 662.03125 152.5 658.3906ZM154.125 658.3906Q154.125 661.5625 154.85938 662.625Q155.60938 663.6719 156.70312 663.6719Q157.78125 663.6719 158.53125 662.625Q159.28125 661.5625 159.28125 658.3906Q159.28125 655.21875 158.53125 654.1719Q157.78125 653.125 156.6875 653.125Q155.59375 653.125 154.9375 654.0469Q154.125 655.21875 154.125 658.3906Z" fill-rule="nonzero"/><path fill="#000000" d="M87.5 471.00174Q87.5 468.7205 87.96875 467.32986Q88.4375 465.93924 89.359375 465.18924Q90.296875 464.4236 91.703125 464.4236Q92.734375 464.4236 93.515625 464.8455Q94.296875 465.25174 94.796875 466.0486Q95.3125 466.82986 95.609375 467.9705Q95.90625 469.0955 95.90625 471.00174Q95.90625 473.26736 95.4375 474.6736Q94.96875 476.06424 94.03125 476.82986Q93.109375 477.57986 91.703125 477.57986Q89.828125 477.57986 88.765625 476.25174Q87.5 474.64236 87.5 471.00174ZM89.125 471.00174Q89.125 474.1736 89.859375 475.2361Q90.609375 476.283 91.703125 476.283Q92.78125 476.283 93.53125 475.2361Q94.28125 474.1736 94.28125 471.00174Q94.28125 467.82986 93.53125 466.783Q92.78125 465.7361 91.6875 465.7361Q90.59375 465.7361 89.9375 466.658Q89.125 467.82986 89.125 471.00174ZM98.34375 477.3611L98.34375 475.56424L100.15625 475.56424L100.15625 477.3611Q100.15625 478.3611 99.796875 478.9705Q99.453125 479.57986 98.6875 479.908L98.25 479.2361Q98.75 479.01736 98.984375 478.57986Q99.21875 478.158 99.25 477.3611L98.34375 477.3611ZM102.5 471.00174Q102.5 468.7205 102.96875 467.32986Q103.4375 465.93924 104.359375 465.18924Q105.296875 464.4236 106.703125 464.4236Q107.734375 464.4236 108.515625 464.8455Q109.296875 465.25174 109.796875 466.0486Q110.3125 466.82986 110.609375 467.9705Q110.90625 469.0955 110.90625 471.00174Q110.90625 473.26736 110.4375 474.6736Q109.96875 476.06424 109.03125 476.82986Q108.109375 477.57986 106.703125 477.57986Q104.828125 477.57986 103.765625 476.25174Q102.5 474.64236 102.5 471.00174ZM104.125 471.00174Q104.125 474.1736 104.859375 475.2361Q105.609375 476.283 106.703125 476.283Q107.78125 476.283 108.53125 475.2361Q109.28125 474.1736 109.28125 471.00174Q109.28125 467.82986 108.53125 466.783Q107.78125 465.7361 106.6875 465.7361Q105.59375 465.7361 104.9375 466.658Q104.125 467.82986 104.125 471.00174ZM112.5 471.00174Q112.5 468.7205 112.96875 467.32986Q113.4375 465.93924 114.359375 465.18924Q115.296875 464.4236 116.703125 464.4236Q117.734375 464.4236 118.515625 464.8455Q119.296875 465.25174 119.796875 466.0486Q120.3125 466.82986 120.609375 467.9705Q120.90625 469.0955 120.90625 471.00174Q120.90625 473.26736 120.4375 474.6736Q119.96875 476.06424 119.03125 476.82986Q118.109375 477.57986 116.703125 477.57986Q114.828125 477.57986 113.765625 476.25174Q112.5 474.64236 112.5 471.00174ZM114.125 471.00174Q114.125 474.1736 114.859375 475.2361Q115.609375 476.283 116.703125 476.283Q117.78125 476.283 118.53125 475.2361Q119.28125 474.1736 119.28125 471.00174Q119.28125 467.82986 118.53125 466.783Q117.78125 465.7361 116.6875 465.7361Q115.59375 465.7361 114.9375 466.658Q114.125 467.82986 114.125 471.00174ZM122.5 471.00174Q122.5 468.7205 122.96875 467.32986Q123.4375 465.93924 124.359375 465.18924Q125.296875 464.4236 126.703125 464.4236Q127.734375 464.4236 128.51562 464.8455Q129.29688 465.25174 129.79688 466.0486Q130.3125 466.82986 130.60938 467.9705Q130.90625 469.0955 130.90625 471.00174Q130.90625 473.26736 130.4375 474.6736Q129.96875 476.06424 129.03125 476.82986Q128.10938 477.57986 126.703125 477.57986Q124.828125 477.57986 123.765625 476.25174Q122.5 474.64236 122.5 471.00174ZM124.125 471.00174Q124.125 474.1736 124.859375 475.2361Q125.609375 476.283 126.703125 476.283Q127.78125 476.283 128.53125 475.2361Q129.28125 474.1736 129.28125 471.00174Q129.28125 467.82986 128.53125 466.783Q127.78125 465.7361 126.6875 465.7361Q125.59375 465.7361 124.9375 466.658Q124.125 467.82986 124.125 471.00174ZM132.5 471.00174Q132.5 468.7205 132.96875 467.32986Q133.4375 465.93924 134.35938 465.18924Q135.29688 464.4236 136.70312 464.4236Q137.73438 464.4236 138.51562 464.8455Q139.29688 465.25174 139.79688 466.0486Q140.3125 466.82986 140.60938 467.9705Q140.90625 469.0955 140.90625 471.00174Q140.90625 473.26736 140.4375 474.6736Q139.96875 476.06424 139.03125 476.82986Q138.10938 477.57986 136.70312 477.57986Q134.82812 477.57986 133.76562 476.25174Q132.5 474.64236 132.5 471.00174ZM134.125 471.00174Q134.125 474.1736 134.85938 475.2361Q135.60938 476.283 136.70312 476.283Q137.78125 476.283 138.53125 475.2361Q139.28125 474.1736 139.28125 471.00174Q139.28125 467.82986 138.53125 466.783Q137.78125 465.7361 136.6875 465.7361Q135.59375 465.7361 134.9375 466.658Q134.125 467.82986 134.125 471.00174ZM142.5 471.00174Q142.5 468.7205 142.96875 467.32986Q143.4375 465.93924 144.35938 465.18924Q145.29688 464.4236 146.70312 464.4236Q147.73438 464.4236 148.51562 464.8455Q149.29688 465.25174 149.79688 466.0486Q150.3125 466.82986 150.60938 467.9705Q150.90625 469.0955 150.90625 471.00174Q150.90625 473.26736 150.4375 474.6736Q149.96875 476.06424 149.03125 476.82986Q148.10938 477.57986 146.70312 477.57986Q144.82812 477.57986 143.76562 476.25174Q142.5 474.64236 142.5 471.00174ZM144.125 471.00174Q144.125 474.1736 144.85938 475.2361Q145.60938 476.283 146.70312 476.283Q147.78125 476.283 148.53125 475.2361Q149.28125 474.1736 149.28125 471.00174Q149.28125 467.82986 148.53125 466.783Q147.78125 465.7361 146.6875 465.7361Q145.59375 465.7361 144.9375 466.658Q144.125 467.82986 144.125 471.00174ZM160.8125 475.8455L160.8125 477.3611L152.29688 477.3611Q152.28125 476.783 152.48438 476.26736Q152.8125 475.39236 153.51562 474.5486Q154.23438 473.70486 155.59375 472.5955Q157.6875 470.87674 158.42188 469.87674Q159.17188 468.8611 159.17188 467.9705Q159.17188 467.01736 158.5 466.37674Q157.82812 465.7361 156.75 465.7361Q155.59375 465.7361 154.90625 466.4236Q154.23438 467.1111 154.21875 468.31424L152.59375 468.14236Q152.76562 466.32986 153.84375 465.37674Q154.9375 464.4236 156.78125 464.4236Q158.625 464.4236 159.70312 465.45486Q160.79688 466.4861 160.79688 468.00174Q160.79688 468.76736 160.46875 469.51736Q160.15625 470.26736 159.42188 471.0955Q158.6875 471.9236 156.98438 473.3611Q155.5625 474.56424 155.15625 474.9861Q154.75 475.408 154.5 475.8455L160.8125 475.8455Z" fill-rule="nonzero"/><path fill="#000000" d="M87.5 283.61285Q87.5 281.3316 87.96875 279.94098Q88.4375 278.55035 89.359375 277.80035Q90.296875 277.03473 91.703125 277.03473Q92.734375 277.03473 93.515625 277.4566Q94.296875 277.86285 94.796875 278.65973Q95.3125 279.44098 95.609375 280.5816Q95.90625 281.7066 95.90625 283.61285Q95.90625 285.87848 95.4375 287.28473Q94.96875 288.67535 94.03125 289.44098Q93.109375 290.19098 91.703125 290.19098Q89.828125 290.19098 88.765625 288.86285Q87.5 287.25348 87.5 283.61285ZM89.125 283.61285Q89.125 286.78473 89.859375 287.84723Q90.609375 288.8941 91.703125 288.8941Q92.78125 288.8941 93.53125 287.84723Q94.28125 286.78473 94.28125 283.61285Q94.28125 280.44098 93.53125 279.3941Q92.78125 278.34723 91.6875 278.34723Q90.59375 278.34723 89.9375 279.2691Q89.125 280.44098 89.125 283.61285ZM98.34375 289.97223L98.34375 288.17535L100.15625 288.17535L100.15625 289.97223Q100.15625 290.97223 99.796875 291.5816Q99.453125 292.19098 98.6875 292.5191L98.25 291.84723Q98.75 291.62848 98.984375 291.19098Q99.21875 290.7691 99.25 289.97223L98.34375 289.97223ZM102.5 283.61285Q102.5 281.3316 102.96875 279.94098Q103.4375 278.55035 104.359375 277.80035Q105.296875 277.03473 106.703125 277.03473Q107.734375 277.03473 108.515625 277.4566Q109.296875 277.86285 109.796875 278.65973Q110.3125 279.44098 110.609375 280.5816Q110.90625 281.7066 110.90625 283.61285Q110.90625 285.87848 110.4375 287.28473Q109.96875 288.67535 109.03125 289.44098Q108.109375 290.19098 106.703125 290.19098Q104.828125 290.19098 103.765625 288.86285Q102.5 287.25348 102.5 283.61285ZM104.125 283.61285Q104.125 286.78473 104.859375 287.84723Q105.609375 288.8941 106.703125 288.8941Q107.78125 288.8941 108.53125 287.84723Q109.28125 286.78473 109.28125 283.61285Q109.28125 280.44098 108.53125 279.3941Q107.78125 278.34723 106.6875 278.34723Q105.59375 278.34723 104.9375 279.2691Q104.125 280.44098 104.125 283.61285ZM112.5 283.61285Q112.5 281.3316 112.96875 279.94098Q113.4375 278.55035 114.359375 277.80035Q115.296875 277.03473 116.703125 277.03473Q117.734375 277.03473 118.515625 277.4566Q119.296875 277.86285 119.796875 278.65973Q120.3125 279.44098 120.609375 280.5816Q120.90625 281.7066 120.90625 283.61285Q120.90625 285.87848 120.4375 287.28473Q119.96875 288.67535 119.03125 289.44098Q118.109375 290.19098 116.703125 290.19098Q114.828125 290.19098 113.765625 288.86285Q112.5 287.25348 112.5 283.61285ZM114.125 283.61285Q114.125 286.78473 114.859375 287.84723Q115.609375 288.8941 116.703125 288.8941Q117.78125 288.8941 118.53125 287.84723Q119.28125 286.78473 119.28125 283.61285Q119.28125 280.44098 118.53125 279.3941Q117.78125 278.34723 116.6875 278.34723Q115.59375 278.34723 114.9375 279.2691Q114.125 280.44098 114.125 283.61285ZM122.5 283.61285Q122.5 281.3316 122.96875 279.94098Q123.4375 278.55035 124.359375 277.80035Q125.296875 277.03473 126.703125 277.03473Q127.734375 277.03473 128.51562 277.4566Q129.29688 277.86285 129.79688 278.65973Q130.3125 279.44098 130.60938 280.5816Q130.90625 281.7066 130.90625 283.61285Q130.90625 285.87848 130.4375 287.28473Q129.96875 288.67535 129.03125 289.44098Q128.10938 290.19098 126.703125 290.19098Q124.828125 290.19098 123.765625 288.86285Q122.5 287.25348 122.5 283.61285ZM124.125 283.61285Q124.125 286.78473 124.859375 287.84723Q125.609375 288.8941 126.703125 288.8941Q127.78125 288.8941 128.53125 287.84723Q129.28125 286.78473 129.28125 283.61285Q129.28125 280.44098 128.53125 279.3941Q127.78125 278.34723 126.6875 278.34723Q125.59375 278.34723 124.9375 279.2691Q124.125 280.44098 124.125 283.61285ZM132.5 283.61285Q132.5 281.3316 132.96875 279.94098Q133.4375 278.55035 134.35938 277.80035Q135.29688 277.03473 136.70312 277.03473Q137.73438 277.03473 138.51562 277.4566Q139.29688 277.86285 139.79688 278.65973Q140.3125 279.44098 140.60938 280.5816Q140.90625 281.7066 140.90625 283.61285Q140.90625 285.87848 140.4375 287.28473Q139.96875 288.67535 139.03125 289.44098Q138.10938 290.19098 136.70312 290.19098Q134.82812 290.19098 133.76562 288.86285Q132.5 287.25348 132.5 283.61285ZM134.125 283.61285Q134.125 286.78473 134.85938 287.84723Q135.60938 288.8941 136.70312 288.8941Q137.78125 288.8941 138.53125 287.84723Q139.28125 286.78473 139.28125 283.61285Q139.28125 280.44098 138.53125 279.3941Q137.78125 278.34723 136.6875 278.34723Q135.59375 278.34723 134.9375 279.2691Q134.125 280.44098 134.125 283.61285ZM142.5 283.61285Q142.5 281.3316 142.96875 279.94098Q143.4375 278.55035 144.35938 277.80035Q145.29688 277.03473 146.70312 277.03473Q147.73438 277.03473 148.51562 277.4566Q149.29688 277.86285 149.79688 278.65973Q150.3125 279.44098 150.60938 280.5816Q150.90625 281.7066 150.90625 283.61285Q150.90625 285.87848 150.4375 287.28473Q149.96875 288.67535 149.03125 289.44098Q148.10938 290.19098 146.70312 290.19098Q144.82812 290.19098 143.76562 288.86285Q142.5 287.25348 142.5 283.61285ZM144.125 283.61285Q144.125 286.78473 144.85938 287.84723Q145.60938 288.8941 146.70312 288.8941Q147.78125 288.8941 148.53125 287.84723Q149.28125 286.78473 149.28125 283.61285Q149.28125 280.44098 148.53125 279.3941Q147.78125 278.34723 146.6875 278.34723Q145.59375 278.34723 144.9375 279.2691Q144.125 280.44098 144.125 283.61285ZM157.5625 289.97223L157.5625 286.8941L151.98438 286.8941L151.98438 285.44098L157.85938 277.0816L159.15625 277.0816L159.15625 285.44098L160.89062 285.44098L160.89062 286.8941L159.15625 286.8941L159.15625 289.97223L157.5625 289.97223ZM157.5625 285.44098L157.5625 279.62848L153.53125 285.44098L157.5625 285.44098Z" fill-rule="nonzero"/><path fill="#000000" d="M87.5 96.22396Q87.5 93.94271 87.96875 92.552086Q88.4375 91.16146 89.359375 90.41146Q90.296875 89.645836 91.703125 89.645836Q92.734375 89.645836 93.515625 90.06771Q94.296875 90.47396 94.796875 91.270836Q95.3125 92.052086 95.609375 93.19271Q95.90625 94.31771 95.90625 96.22396Q95.90625 98.489586 95.4375 99.895836Q94.96875 101.28646 94.03125 102.052086Q93.109375 102.802086 91.703125 102.802086Q89.828125 102.802086 88.765625 101.47396Q87.5 99.864586 87.5 96.22396ZM89.125 96.22396Q89.125 99.395836 89.859375 100.458336Q90.609375 101.50521 91.703125 101.50521Q92.78125 101.50521 93.53125 100.458336Q94.28125 99.395836 94.28125 96.22396Q94.28125 93.052086 93.53125 92.00521Q92.78125 90.958336 91.6875 90.958336Q90.59375 90.958336 89.9375 91.88021Q89.125 93.052086 89.125 96.22396ZM98.34375 102.583336L98.34375 100.78646L100.15625 100.78646L100.15625 102.583336Q100.15625 103.583336 99.796875 104.19271Q99.453125 104.802086 98.6875 105.13021L98.25 104.458336Q98.75 104.239586 98.984375 103.802086Q99.21875 103.38021 99.25 102.583336L98.34375 102.583336ZM102.5 96.22396Q102.5 93.94271 102.96875 92.552086Q103.4375 91.16146 104.359375 90.41146Q105.296875 89.645836 106.703125 89.645836Q107.734375 89.645836 108.515625 90.06771Q109.296875 90.47396 109.796875 91.270836Q110.3125 92.052086 110.609375 93.19271Q110.90625 94.31771 110.90625 96.22396Q110.90625 98.489586 110.4375 99.895836Q109.96875 101.28646 109.03125 102.052086Q108.109375 102.802086 106.703125 102.802086Q104.828125 102.802086 103.765625 101.47396Q102.5 99.864586 102.5 96.22396ZM104.125 96.22396Q104.125 99.395836 104.859375 100.458336Q105.609375 101.50521 106.703125 101.50521Q107.78125 101.50521 108.53125 100.458336Q109.28125 99.395836 109.28125 96.22396Q109.28125 93.052086 108.53125 92.00521Q107.78125 90.958336 106.6875 90.958336Q105.59375 90.958336 104.9375 91.88021Q104.125 93.052086 104.125 96.22396ZM112.5 96.22396Q112.5 93.94271 112.96875 92.552086Q113.4375 91.16146 114.359375 90.41146Q115.296875 89.645836 116.703125 89.645836Q117.734375 89.645836 118.515625 90.06771Q119.296875 90.47396 119.796875 91.270836Q120.3125 92.052086 120.609375 93.19271Q120.90625 94.31771 120.90625 96.22396Q120.90625 98.489586 120.4375 99.895836Q119.96875 101.28646 119.03125 102.052086Q118.109375 102.802086 116.703125 102.802086Q114.828125 102.802086 113.765625 101.47396Q112.5 99.864586 112.5 96.22396ZM114.125 96.22396Q114.125 99.395836 114.859375 100.458336Q115.609375 101.50521 116.703125 101.50521Q117.78125 101.50521 118.53125 100.458336Q119.28125 99.395836 119.28125 96.22396Q119.28125 93.052086 118.53125 92.00521Q117.78125 90.958336 116.6875 90.958336Q115.59375 90.958336 114.9375 91.88021Q114.125 93.052086 114.125 96.22396ZM122.5 96.22396Q122.5 93.94271 122.96875 92.552086Q123.4375 91.16146 124.359375 90.41146Q125.296875 89.645836 126.703125 89.645836Q127.734375 89.645836 128.51562 90.06771Q129.29688 90.47396 129.79688 91.270836Q130.3125 92.052086 130.60938 93.19271Q130.90625 94.31771 130.90625 96.22396Q130.90625 98.489586 130.4375 99.895836Q129.96875 101.28646 129.03125 102.052086Q128.10938 102.802086 126.703125 102.802086Q124.828125 102.802086 123.765625 101.47396Q122.5 99.864586 122.5 96.22396ZM124.125 96.22396Q124.125 99.395836 124.859375 100.458336Q125.609375 101.50521 126.703125 101.50521Q127.78125 101.50521 128.53125 100.458336Q129.28125 99.395836 129.28125 96.22396Q129.28125 93.052086 128.53125 92.00521Q127.78125 90.958336 126.6875 90.958336Q125.59375 90.958336 124.9375 91.88021Q124.125 93.052086 124.125 96.22396ZM132.5 96.22396Q132.5 93.94271 132.96875 92.552086Q133.4375 91.16146 134.35938 90.41146Q135.29688 89.645836 136.70312 89.645836Q137.73438 89.645836 138.51562 90.06771Q139.29688 90.47396 139.79688 91.270836Q140.3125 92.052086 140.60938 93.19271Q140.90625 94.31771 140.90625 96.22396Q140.90625 98.489586 140.4375 99.895836Q139.96875 101.28646 139.03125 102.052086Q138.10938 102.802086 136.70312 102.802086Q134.82812 102.802086 133.76562 101.47396Q132.5 99.864586 132.5 96.22396ZM134.125 96.22396Q134.125 99.395836 134.85938 100.458336Q135.60938 101.50521 136.70312 101.50521Q137.78125 101.50521 138.53125 100.458336Q139.28125 99.395836 139.28125 96.22396Q139.28125 93.052086 138.53125 92.00521Q137.78125 90.958336 136.6875 90.958336Q135.59375 90.958336 134.9375 91.88021Q134.125 93.052086 134.125 96.22396ZM142.5 96.22396Q142.5 93.94271 142.96875 92.552086Q143.4375 91.16146 144.35938 90.41146Q145.29688 89.645836 146.70312 89.645836Q147.73438 89.645836 148.51562 90.06771Q149.29688 90.47396 149.79688 91.270836Q150.3125 92.052086 150.60938 93.19271Q150.90625 94.31771 150.90625 96.22396Q150.90625 98.489586 150.4375 99.895836Q149.96875 101.28646 149.03125 102.052086Q148.10938 102.802086 146.70312 102.802086Q144.82812 102.802086 143.76562 101.47396Q142.5 99.864586 142.5 96.22396ZM144.125 96.22396Q144.125 99.395836 144.85938 100.458336Q145.60938 101.50521 146.70312 101.50521Q147.78125 101.50521 148.53125 100.458336Q149.28125 99.395836 149.28125 96.22396Q149.28125 93.052086 148.53125 92.00521Q147.78125 90.958336 146.6875 90.958336Q145.59375 90.958336 144.9375 91.88021Q144.125 93.052086 144.125 96.22396ZM160.70312 92.84896L159.14062 92.97396Q158.92188 92.052086 158.53125 91.63021Q157.89062 90.94271 156.95312 90.94271Q156.20312 90.94271 155.625 91.364586Q154.875 91.91146 154.4375 92.958336Q154.01562 94.00521 154.0 95.94271Q154.57812 95.06771 155.39062 94.645836Q156.21875 94.22396 157.125 94.22396Q158.71875 94.22396 159.82812 95.395836Q160.9375 96.552086 160.9375 98.395836Q160.9375 99.614586 160.40625 100.66146Q159.89062 101.69271 158.96875 102.25521Q158.0625 102.802086 156.90625 102.802086Q154.92188 102.802086 153.67188 101.34896Q152.42188 99.895836 152.42188 96.552086Q152.42188 92.81771 153.8125 91.114586Q155.01562 89.645836 157.04688 89.645836Q158.57812 89.645836 159.54688 90.50521Q160.51562 91.34896 160.70312 92.84896ZM154.25 98.41146Q154.25 99.22396 154.59375 99.97396Q154.9375 100.72396 155.5625 101.114586Q156.1875 101.50521 156.875 101.50521Q157.875 101.50521 158.59375 100.69271Q159.3125 99.88021 159.3125 98.489586Q159.3125 97.16146 158.59375 96.395836Q157.89062 95.614586 156.8125 95.614586Q155.73438 95.614586 154.98438 96.395836Q154.25 97.16146 154.25 98.41146Z" fill-rule="nonzero"/><path fill="#000000" d="M166.5 677.8906Q166.5 675.6094 166.96875 674.21875Q167.4375 672.8281 168.35938 672.0781Q169.29688 671.3125 170.70312 671.3125Q171.73438 671.3125 172.51562 671.7344Q173.29688 672.1406 173.79688 672.9375Q174.3125 673.71875 174.60938 674.8594Q174.90625 675.9844 174.90625 677.8906Q174.90625 680.15625 174.4375 681.5625Q173.96875 682.9531 173.03125 683.71875Q172.10938 684.46875 170.70312 684.46875Q168.82812 684.46875 167.76562 683.1406Q166.5 681.53125 166.5 677.8906ZM168.125 677.8906Q168.125 681.0625 168.85938 682.125Q169.60938 683.1719 170.70312 683.1719Q171.78125 683.1719 172.53125 682.125Q173.28125 681.0625 173.28125 677.8906Q173.28125 674.71875 172.53125 673.6719Q171.78125 672.625 170.6875 672.625Q169.59375 672.625 168.9375 673.5469Q168.125 674.71875 168.125 677.8906Z" fill-rule="nonzero"/><path fill="#000000" d="M335.1971 682.7344L335.1971 684.25L326.6815 684.25Q326.66586 683.6719 326.869 683.15625Q327.1971 682.28125 327.90024 681.4375Q328.619 680.59375 329.97836 679.4844Q332.0721 677.7656 332.8065 676.7656Q333.5565 675.75 333.5565 674.8594Q333.5565 673.90625 332.8846 673.2656Q332.21274 672.625 331.1346 672.625Q329.97836 672.625 329.29086 673.3125Q328.619 674.0 328.60336 675.2031L326.97836 675.03125Q327.15024 673.21875 328.22836 672.2656Q329.3221 671.3125 331.16586 671.3125Q333.0096 671.3125 334.08774 672.34375Q335.1815 673.375 335.1815 674.8906Q335.1815 675.65625 334.85336 676.40625Q334.54086 677.15625 333.8065 677.9844Q333.0721 678.8125 331.369 680.25Q329.9471 681.4531 329.54086 681.875Q329.1346 682.2969 328.8846 682.7344L335.1971 682.7344Z" fill-rule="nonzero"/><path fill="#000000" d="M492.33173 684.25L492.33173 681.1719L486.7536 681.1719L486.7536 679.71875L492.6286 671.3594L493.92548 671.3594L493.92548 679.71875L495.65985 679.71875L495.65985 681.1719L493.92548 681.1719L493.92548 684.25L492.33173 684.25ZM492.33173 679.71875L492.33173 673.90625L488.30048 679.71875L492.33173 679.71875Z" fill-rule="nonzero"/><path fill="#000000" d="M655.857 674.5156L654.2945 674.6406Q654.07574 673.71875 653.6851 673.2969Q653.0445 672.6094 652.107 672.6094Q651.357 672.6094 650.7789 673.03125Q650.0289 673.5781 649.5914 674.625Q649.1695 675.6719 649.1539 677.6094Q649.732 676.7344 650.5445 676.3125Q651.3726 675.8906 652.2789 675.8906Q653.8726 675.8906 654.982 677.0625Q656.0914 678.21875 656.0914 680.0625Q656.0914 681.28125 655.5601 682.3281Q655.0445 683.3594 654.1226 683.9219Q653.2164 684.46875 652.0601 684.46875Q650.07574 684.46875 648.82574 683.0156Q647.57574 681.5625 647.57574 678.21875Q647.57574 674.4844 648.9664 672.78125Q650.1695 671.3125 652.20074 671.3125Q653.732 671.3125 654.70074 672.1719Q655.6695 673.0156 655.857 674.5156ZM649.4039 680.0781Q649.4039 680.8906 649.7476 681.6406Q650.0914 682.3906 650.7164 682.78125Q651.3414 683.1719 652.0289 683.1719Q653.0289 683.1719 653.7476 682.3594Q654.4664 681.5469 654.4664 680.15625Q654.4664 678.8281 653.7476 678.0625Q653.0445 677.28125 651.9664 677.28125Q650.88824 677.28125 650.13824 678.0625Q649.4039 678.8281 649.4039 680.0781Z" fill-rule="nonzero"/><path fill="#000000" d="M810.47595 677.2656Q809.4916 676.90625 809.0072 676.2344Q808.53845 675.5625 808.53845 674.6406Q808.53845 673.2344 809.53845 672.28125Q810.5541 671.3125 812.2416 671.3125Q813.9291 671.3125 814.9447 672.2969Q815.97595 673.2656 815.97595 674.6719Q815.97595 675.5781 815.5072 676.25Q815.03845 676.90625 814.0853 677.2656Q815.2728 677.65625 815.8822 678.5156Q816.5072 679.375 816.5072 680.5625Q816.5072 682.21875 815.3353 683.34375Q814.16345 684.46875 812.2572 684.46875Q810.35095 684.46875 809.1791 683.34375Q808.0228 682.2031 808.0228 680.5156Q808.0228 679.2656 808.6478 678.4219Q809.28845 677.5625 810.47595 677.2656ZM810.1478 674.5781Q810.1478 675.5 810.7416 676.0781Q811.3353 676.65625 812.2728 676.65625Q813.1791 676.65625 813.7572 676.0781Q814.35095 675.5 814.35095 674.6719Q814.35095 673.7969 813.7416 673.2031Q813.1478 672.6094 812.2572 672.6094Q811.35095 672.6094 810.7416 673.1875Q810.1478 673.7656 810.1478 674.5781ZM809.6478 680.53125Q809.6478 681.2031 809.9603 681.84375Q810.28845 682.46875 810.91345 682.8281Q811.5541 683.1719 812.28845 683.1719Q813.41345 683.1719 814.1478 682.4375Q814.8978 681.7031 814.8978 680.5781Q814.8978 679.4375 814.1322 678.7031Q813.3666 677.9531 812.22595 677.9531Q811.1166 677.9531 810.3822 678.6875Q809.6478 679.4219 809.6478 680.53125Z" fill-rule="nonzero"/><path fill="#000000" d="M969.3762 684.25L967.7981 684.25L967.7981 674.1719Q967.22 674.71875 966.2981 675.2656Q965.3762 675.7969 964.6262 676.0781L964.6262 674.5469Q965.95435 673.9219 966.95435 673.03125Q967.95435 672.1406 968.3606 671.3125L969.3762 671.3125L969.3762 684.25ZM973.4231 677.8906Q973.4231 675.6094 973.89185 674.21875Q974.3606 672.8281 975.2825 672.0781Q976.22 671.3125 977.6262 671.3125Q978.6575 671.3125 979.4387 671.7344Q980.22 672.1406 980.72 672.9375Q981.2356 673.71875 981.5325 674.8594Q981.82935 675.9844 981.82935 677.8906Q981.82935 680.15625 981.3606 681.5625Q980.89185 682.9531 979.95435 683.71875Q979.0325 684.46875 977.6262 684.46875Q975.7512 684.46875 974.6887 683.1406Q973.4231 681.53125 973.4231 677.8906ZM975.0481 677.8906Q975.0481 681.0625 975.7825 682.125Q976.5325 683.1719 977.6262 683.1719Q978.70435 683.1719 979.45435 682.125Q980.20435 681.0625 980.20435 677.8906Q980.20435 674.71875 979.45435 673.6719Q978.70435 672.625 977.6106 672.625Q976.51685 672.625 975.8606 673.5469Q975.0481 674.71875 975.0481 677.8906Z" fill-rule="nonzero"/><path fill="#000000" d="M1129.7609 684.25L1128.1827 684.25L1128.1827 674.1719Q1127.6046 674.71875 1126.6827 675.2656Q1125.7609 675.7969 1125.0109 676.0781L1125.0109 674.5469Q1126.339 673.9219 1127.339 673.03125Q1128.339 672.1406 1128.7452 671.3125L1129.7609 671.3125L1129.7609 684.25ZM1142.1202 682.7344L1142.1202 684.25L1133.6046 684.25Q1133.589 683.6719 1133.7921 683.15625Q1134.1202 682.28125 1134.8234 681.4375Q1135.5421 680.59375 1136.9015 679.4844Q1138.9952 677.7656 1139.7296 676.7656Q1140.4796 675.75 1140.4796 674.8594Q1140.4796 673.90625 1139.8077 673.2656Q1139.1359 672.625 1138.0577 672.625Q1136.9015 672.625 1136.214 673.3125Q1135.5421 674.0 1135.5265 675.2031L1133.9015 675.03125Q1134.0734 673.21875 1135.1515 672.2656Q1136.2452 671.3125 1138.089 671.3125Q1139.9327 671.3125 1141.0109 672.34375Q1142.1046 673.375 1142.1046 674.8906Q1142.1046 675.65625 1141.7765 676.40625Q1141.464 677.15625 1140.7296 677.9844Q1139.9952 678.8125 1138.2921 680.25Q1136.8702 681.4531 1136.464 681.875Q1136.0577 682.2969 1135.8077 682.7344L1142.1202 682.7344Z" fill-rule="nonzero"/><path stroke="#4285f4" stroke-width="4.0" stroke-linecap="butt" d="M454.5 49.25L466.5 49.25" fill-rule="nonzero"/><path fill="#1a1a1a" d="M476.82812 42.859375L484.89062 42.859375L484.89062 55.75L483.1875 55.75L483.1875 44.390625L478.53125 44.390625L478.53125 51.015625Q478.53125 53.046875 478.34375 53.984375Q478.15625 54.921875 477.54688 55.453125Q476.9375 55.96875 476.01562 55.96875Q475.45312 55.96875 474.65625 55.765625L474.95312 54.25Q475.375 54.421875 475.67188 54.421875Q476.25 54.421875 476.53125 53.984375Q476.82812 53.546875 476.82812 51.9375L476.82812 42.859375ZM494.07812 52.75L495.71875 52.953125Q495.32812 54.375 494.28125 55.171875Q493.23438 55.96875 491.60938 55.96875Q489.5625 55.96875 488.35938 54.703125Q487.15625 53.4375 487.15625 51.15625Q487.15625 48.8125 488.35938 47.515625Q489.57812 46.203125 491.51562 46.203125Q493.39062 46.203125 494.57812 47.484375Q495.76562 48.75 495.76562 51.0625Q495.76562 51.203125 495.75 51.484375L488.79688 51.484375Q488.875 53.03125 489.65625 53.84375Q490.45312 54.65625 491.60938 54.65625Q492.48438 54.65625 493.09375 54.203125Q493.71875 53.75 494.07812 52.75ZM488.875 50.1875L494.09375 50.1875Q493.98438 49.015625 493.5 48.421875Q492.73438 47.5 491.53125 47.5Q490.45312 47.5 489.70312 48.234375Q488.96875 48.96875 488.875 50.1875ZM497.70312 46.421875L501.34375 46.421875Q502.6875 46.421875 503.34375 46.640625Q504.0 46.859375 504.46875 47.46875Q504.9375 48.0625 504.9375 48.890625Q504.9375 49.5625 504.65625 50.0625Q504.39062 50.5625 503.82812 50.890625Q504.48438 51.109375 504.92188 51.71875Q505.35938 52.3125 505.35938 53.140625Q505.26562 54.46875 504.40625 55.109375Q503.54688 55.75 501.90625 55.75L497.70312 55.75L497.70312 46.421875ZM499.28125 50.34375L500.96875 50.34375Q501.96875 50.34375 502.34375 50.25Q502.73438 50.140625 503.03125 49.8125Q503.32812 49.484375 503.32812 49.046875Q503.32812 48.3125 502.79688 48.015625Q502.28125 47.71875 501.01562 47.71875L499.28125 47.71875L499.28125 50.34375ZM499.28125 54.453125L501.35938 54.453125Q502.70312 54.453125 503.20312 54.140625Q503.70312 53.828125 503.73438 53.0625Q503.73438 52.609375 503.4375 52.234375Q503.15625 51.84375 502.6875 51.75Q502.21875 51.640625 501.1875 51.640625L499.28125 51.640625L499.28125 54.453125ZM514.0781 52.75L515.71875 52.953125Q515.3281 54.375 514.28125 55.171875Q513.2344 55.96875 511.60938 55.96875Q509.5625 55.96875 508.35938 54.703125Q507.15625 53.4375 507.15625 51.15625Q507.15625 48.8125 508.35938 47.515625Q509.57812 46.203125 511.51562 46.203125Q513.3906 46.203125 514.5781 47.484375Q515.7656 48.75 515.7656 51.0625Q515.7656 51.203125 515.75 51.484375L508.79688 51.484375Q508.875 53.03125 509.65625 53.84375Q510.45312 54.65625 511.60938 54.65625Q512.4844 54.65625 513.09375 54.203125Q513.71875 53.75 514.0781 52.75ZM508.875 50.1875L514.09375 50.1875Q513.9844 49.015625 513.5 48.421875Q512.7344 47.5 511.53125 47.5Q510.45312 47.5 509.70312 48.234375Q508.96875 48.96875 508.875 50.1875ZM517.7031 46.421875L519.28125 46.421875L519.28125 50.296875L523.65625 50.296875L523.65625 46.421875L525.25 46.421875L525.25 55.75L523.65625 55.75L523.65625 51.609375L519.28125 51.609375L519.28125 55.75L517.7031 55.75L517.7031 46.421875ZM527.7344 46.421875L529.3281 46.421875L529.3281 54.4375L532.9219 54.4375L532.9219 46.421875L534.5 46.421875L534.5 54.4375L538.125 54.4375L538.125 46.421875L539.6875 46.421875L539.6875 55.75L527.7344 55.75L527.7344 46.421875ZM540.8281 46.421875L548.4219 46.421875L548.4219 47.71875L545.40625 47.71875L545.40625 55.75L543.84375 55.75L543.84375 47.71875L540.8281 47.71875L540.8281 46.421875ZM556.0781 52.75L557.71875 52.953125Q557.3281 54.375 556.28125 55.171875Q555.2344 55.96875 553.6094 55.96875Q551.5625 55.96875 550.3594 54.703125Q549.15625 53.4375 549.15625 51.15625Q549.15625 48.8125 550.3594 47.515625Q551.5781 46.203125 553.5156 46.203125Q555.3906 46.203125 556.5781 47.484375Q557.7656 48.75 557.7656 51.0625Q557.7656 51.203125 557.75 51.484375L550.7969 51.484375Q550.875 53.03125 551.65625 53.84375Q552.4531 54.65625 553.6094 54.65625Q554.4844 54.65625 555.09375 54.203125Q555.71875 53.75 556.0781 52.75ZM550.875 50.1875L556.09375 50.1875Q555.9844 49.015625 555.5 48.421875Q554.7344 47.5 553.53125 47.5Q552.4531 47.5 551.7031 48.234375Q550.96875 48.96875 550.875 50.1875ZM559.6875 46.421875L561.2656 46.421875L561.2656 53.53125L565.65625 46.421875L567.3594 46.421875L567.3594 55.75L565.78125 55.75L565.78125 48.671875L561.3906 55.75L559.6875 55.75L559.6875 46.421875ZM565.1719 42.875L566.25 42.875Q566.125 43.984375 565.4531 44.578125Q564.78125 45.15625 563.65625 45.15625Q562.53125 45.15625 561.8594 44.578125Q561.1875 43.984375 561.0625 42.875L562.1406 42.875Q562.2656 43.484375 562.625 43.78125Q563.0 44.0625 563.6094 44.0625Q564.3281 44.0625 564.6875 43.78125Q565.0469 43.5 565.1719 42.875ZM569.7031 46.421875L571.28125 46.421875L571.28125 50.296875L575.65625 50.296875L575.65625 46.421875L577.25 46.421875L577.25 55.75L575.65625 55.75L575.65625 51.609375L571.28125 51.609375L571.28125 55.75L569.7031 55.75L569.7031 46.421875Z" fill-rule="nonzero"/><path stroke="#ea4335" stroke-width="4.0" stroke-linecap="butt" d="M594.5 49.25L606.5 49.25" fill-rule="nonzero"/><path fill="#1a1a1a" d="M617.0625 42.859375L624.8906 42.859375L624.8906 54.234375L626.0625 54.234375L626.0625 58.75L624.53125 58.75L624.53125 55.75L616.0156 55.75L616.0156 58.75L614.5 58.75L614.5 54.234375L615.5 54.234375Q617.0625 51.875 617.0625 44.75L617.0625 42.859375ZM623.1875 44.390625L618.7031 44.390625L618.7031 45.046875Q618.7031 46.6875 618.40625 49.546875Q618.1094 52.390625 617.25 54.234375L623.1875 54.234375L623.1875 44.390625ZM633.78125 54.59375Q632.90625 55.34375 632.0781 55.65625Q631.2656 55.96875 630.34375 55.96875Q628.7969 55.96875 627.96875 55.21875Q627.15625 54.453125 627.15625 53.28125Q627.15625 52.609375 627.46875 52.046875Q627.78125 51.46875 628.28125 51.125Q628.78125 50.78125 629.4219 50.609375Q629.8906 50.484375 630.8281 50.375Q632.7344 50.140625 633.6406 49.828125Q633.65625 49.5 633.65625 49.40625Q633.65625 48.453125 633.2031 48.046875Q632.59375 47.515625 631.40625 47.515625Q630.28125 47.515625 629.75 47.90625Q629.21875 48.296875 628.96875 49.296875L627.4219 49.078125Q627.6406 48.078125 628.1094 47.46875Q628.59375 46.859375 629.5 46.53125Q630.4219 46.203125 631.6406 46.203125Q632.8281 46.203125 633.5781 46.484375Q634.3281 46.765625 634.6719 47.203125Q635.03125 47.625 635.1719 48.265625Q635.25 48.671875 635.25 49.734375L635.25 51.84375Q635.25 54.046875 635.34375 54.640625Q635.4531 55.21875 635.75 55.75L634.09375 55.75Q633.84375 55.25 633.78125 54.59375ZM633.6406 51.0625Q632.78125 51.421875 631.0625 51.65625Q630.09375 51.796875 629.6875 51.984375Q629.28125 52.15625 629.0625 52.5Q628.84375 52.828125 628.84375 53.25Q628.84375 53.875 629.3125 54.296875Q629.7969 54.71875 630.71875 54.71875Q631.6406 54.71875 632.34375 54.328125Q633.0625 53.921875 633.3906 53.234375Q633.6406 52.6875 633.6406 51.640625L633.6406 51.0625ZM637.7344 46.421875L640.1875 46.421875L642.6406 53.890625L645.375 46.421875L647.6406 46.421875L647.6406 55.75L646.0625 55.75L646.0625 48.234375L643.2969 55.75L641.8906 55.75L639.28125 47.875L639.28125 55.75L637.7344 55.75L637.7344 46.421875ZM656.0781 52.75L657.71875 52.953125Q657.3281 54.375 656.28125 55.171875Q655.2344 55.96875 653.6094 55.96875Q651.5625 55.96875 650.3594 54.703125Q649.15625 53.4375 649.15625 51.15625Q649.15625 48.8125 650.3594 47.515625Q651.5781 46.203125 653.5156 46.203125Q655.3906 46.203125 656.5781 47.484375Q657.7656 48.75 657.7656 51.0625Q657.7656 51.203125 657.75 51.484375L650.7969 51.484375Q650.875 53.03125 651.65625 53.84375Q652.4531 54.65625 653.6094 54.65625Q654.4844 54.65625 655.09375 54.203125Q655.71875 53.75 656.0781 52.75ZM650.875 50.1875L656.09375 50.1875Q655.9844 49.015625 655.5 48.421875Q654.7344 47.5 653.53125 47.5Q652.4531 47.5 651.7031 48.234375Q650.96875 48.96875 650.875 50.1875ZM659.6875 59.328125L659.6875 46.421875L661.125 46.421875L661.125 47.625Q661.6406 46.921875 662.28125 46.5625Q662.9219 46.203125 663.8281 46.203125Q665.03125 46.203125 665.9375 46.828125Q666.8594 47.4375 667.3281 48.5625Q667.7969 49.671875 667.7969 51.015625Q667.7969 52.4375 667.28125 53.59375Q666.7656 54.734375 665.78125 55.359375Q664.7969 55.96875 663.71875 55.96875Q662.9375 55.96875 662.2969 55.640625Q661.6719 55.296875 661.2656 54.78125L661.2656 59.328125L659.6875 59.328125ZM661.125 51.140625Q661.125 52.9375 661.84375 53.796875Q662.5781 54.65625 663.6094 54.65625Q664.6719 54.65625 665.4219 53.765625Q666.1719 52.875 666.1719 51.0Q666.1719 49.21875 665.4375 48.328125Q664.7031 47.4375 663.6875 47.4375Q662.6719 47.4375 661.8906 48.390625Q661.125 49.328125 661.125 51.140625ZM675.78125 54.59375Q674.90625 55.34375 674.0781 55.65625Q673.2656 55.96875 672.34375 55.96875Q670.7969 55.96875 669.96875 55.21875Q669.15625 54.453125 669.15625 53.28125Q669.15625 52.609375 669.46875 52.046875Q669.78125 51.46875 670.28125 51.125Q670.78125 50.78125 671.4219 50.609375Q671.8906 50.484375 672.8281 50.375Q674.7344 50.140625 675.6406 49.828125Q675.65625 49.5 675.65625 49.40625Q675.65625 48.453125 675.2031 48.046875Q674.59375 47.515625 673.40625 47.515625Q672.28125 47.515625 671.75 47.90625Q671.21875 48.296875 670.96875 49.296875L669.4219 49.078125Q669.6406 48.078125 670.1094 47.46875Q670.59375 46.859375 671.5 46.53125Q672.4219 46.203125 673.6406 46.203125Q674.8281 46.203125 675.5781 46.484375Q676.3281 46.765625 676.6719 47.203125Q677.03125 47.625 677.1719 48.265625Q677.25 48.671875 677.25 49.734375L677.25 51.84375Q677.25 54.046875 677.34375 54.640625Q677.4531 55.21875 677.75 55.75L676.09375 55.75Q675.84375 55.25 675.78125 54.59375ZM675.6406 51.0625Q674.78125 51.421875 673.0625 51.65625Q672.09375 51.796875 671.6875 51.984375Q671.28125 52.15625 671.0625 52.5Q670.84375 52.828125 670.84375 53.25Q670.84375 53.875 671.3125 54.296875Q671.7969 54.71875 672.71875 54.71875Q673.6406 54.71875 674.34375 54.328125Q675.0625 53.921875 675.3906 53.234375Q675.6406 52.6875 675.6406 51.640625L675.6406 51.0625ZM679.6094 59.34375L679.4375 57.859375Q679.9531 58.0 680.34375 58.0Q680.875 58.0 681.1875 57.828125Q681.5 57.65625 681.7031 57.328125Q681.8594 57.09375 682.1875 56.15625Q682.2344 56.015625 682.3281 55.765625L678.7969 46.421875L680.5 46.421875L682.4375 51.828125Q682.8125 52.84375 683.1094 53.984375Q683.3906 52.890625 683.7656 51.859375L685.7656 46.421875L687.34375 46.421875L683.7969 55.90625Q683.21875 57.453125 682.90625 58.03125Q682.4844 58.8125 681.9375 59.171875Q681.3906 59.53125 680.6406 59.53125Q680.1719 59.53125 679.6094 59.34375ZM688.0781 51.875L688.0781 50.296875L692.9375 50.296875L692.9375 51.875L688.0781 51.875ZM695.8281 42.859375L703.8906 42.859375L703.8906 55.75L702.1875 55.75L702.1875 44.390625L697.53125 44.390625L697.53125 51.015625Q697.53125 53.046875 697.34375 53.984375Q697.15625 54.921875 696.5469 55.453125Q695.9375 55.96875 695.0156 55.96875Q694.4531 55.96875 693.65625 55.765625L693.9531 54.25Q694.375 54.421875 694.6719 54.421875Q695.25 54.421875 695.53125 53.984375Q695.8281 53.546875 695.8281 51.9375L695.8281 42.859375ZM713.0781 52.75L714.71875 52.953125Q714.3281 54.375 713.28125 55.171875Q712.2344 55.96875 710.6094 55.96875Q708.5625 55.96875 707.3594 54.703125Q706.15625 53.4375 706.15625 51.15625Q706.15625 48.8125 707.3594 47.515625Q708.5781 46.203125 710.5156 46.203125Q712.3906 46.203125 713.5781 47.484375Q714.7656 48.75 714.7656 51.0625Q714.7656 51.203125 714.75 51.484375L707.7969 51.484375Q707.875 53.03125 708.65625 53.84375Q709.4531 54.65625 710.6094 54.65625Q711.4844 54.65625 712.09375 54.203125Q712.71875 53.75 713.0781 52.75ZM707.875 50.1875L713.09375 50.1875Q712.9844 49.015625 712.5 48.421875Q711.7344 47.5 710.53125 47.5Q709.4531 47.5 708.7031 48.234375Q707.96875 48.96875 707.875 50.1875ZM716.7031 46.421875L720.34375 46.421875Q721.6875 46.421875 722.34375 46.640625Q723.0 46.859375 723.46875 47.46875Q723.9375 48.0625 723.9375 48.890625Q723.9375 49.5625 723.65625 50.0625Q723.3906 50.5625 722.8281 50.890625Q723.4844 51.109375 723.9219 51.71875Q724.3594 52.3125 724.3594 53.140625Q724.2656 54.46875 723.40625 55.109375Q722.5469 55.75 720.90625 55.75L716.7031 55.75L716.7031 46.421875ZM718.28125 50.34375L719.96875 50.34375Q720.96875 50.34375 721.34375 50.25Q721.7344 50.140625 722.03125 49.8125Q722.3281 49.484375 722.3281 49.046875Q722.3281 48.3125 721.7969 48.015625Q721.28125 47.71875 720.0156 47.71875L718.28125 47.71875L718.28125 50.34375ZM718.28125 54.453125L720.3594 54.453125Q721.7031 54.453125 722.2031 54.140625Q722.7031 53.828125 722.7344 53.0625Q722.7344 52.609375 722.4375 52.234375Q722.15625 51.84375 721.6875 51.75Q721.21875 51.640625 720.1875 51.640625L718.28125 51.640625L718.28125 54.453125ZM733.0781 52.75L734.71875 52.953125Q734.3281 54.375 733.28125 55.171875Q732.2344 55.96875 730.6094 55.96875Q728.5625 55.96875 727.3594 54.703125Q726.15625 53.4375 726.15625 51.15625Q726.15625 48.8125 727.3594 47.515625Q728.5781 46.203125 730.5156 46.203125Q732.3906 46.203125 733.5781 47.484375Q734.7656 48.75 734.7656 51.0625Q734.7656 51.203125 734.75 51.484375L727.7969 51.484375Q727.875 53.03125 728.65625 53.84375Q729.4531 54.65625 730.6094 54.65625Q731.4844 54.65625 732.09375 54.203125Q732.71875 53.75 733.0781 52.75ZM727.875 50.1875L733.09375 50.1875Q732.9844 49.015625 732.5 48.421875Q731.7344 47.5 730.53125 47.5Q729.4531 47.5 728.7031 48.234375Q727.96875 48.96875 727.875 50.1875ZM736.7031 46.421875L738.28125 46.421875L738.28125 50.296875L742.65625 50.296875L742.65625 46.421875L744.25 46.421875L744.25 55.75L742.65625 55.75L742.65625 51.609375L738.28125 51.609375L738.28125 55.75L736.7031 55.75L736.7031 46.421875ZM746.7344 46.421875L748.3281 46.421875L748.3281 54.4375L751.9219 54.4375L751.9219 46.421875L753.5 46.421875L753.5 54.4375L757.125 54.4375L757.125 46.421875L758.6875 46.421875L758.6875 55.75L746.7344 55.75L746.7344 46.421875ZM759.8281 46.421875L767.4219 46.421875L767.4219 47.71875L764.40625 47.71875L764.40625 55.75L762.84375 55.75L762.84375 47.71875L759.8281 47.71875L759.8281 46.421875ZM775.0781 52.75L776.71875 52.953125Q776.3281 54.375 775.28125 55.171875Q774.2344 55.96875 772.6094 55.96875Q770.5625 55.96875 769.3594 54.703125Q768.15625 53.4375 768.15625 51.15625Q768.15625 48.8125 769.3594 47.515625Q770.5781 46.203125 772.5156 46.203125Q774.3906 46.203125 775.5781 47.484375Q776.7656 48.75 776.7656 51.0625Q776.7656 51.203125 776.75 51.484375L769.7969 51.484375Q769.875 53.03125 770.65625 53.84375Q771.4531 54.65625 772.6094 54.65625Q773.4844 54.65625 774.09375 54.203125Q774.71875 53.75 775.0781 52.75ZM769.875 50.1875L775.09375 50.1875Q774.9844 49.015625 774.5 48.421875Q773.7344 47.5 772.53125 47.5Q771.4531 47.5 770.7031 48.234375Q769.96875 48.96875 769.875 50.1875ZM778.6875 46.421875L780.2656 46.421875L780.2656 53.53125L784.65625 46.421875L786.3594 46.421875L786.3594 55.75L784.78125 55.75L784.78125 48.671875L780.3906 55.75L778.6875 55.75L778.6875 46.421875ZM784.1719 42.875L785.25 42.875Q785.125 43.984375 784.4531 44.578125Q783.78125 45.15625 782.65625 45.15625Q781.53125 45.15625 780.8594 44.578125Q780.1875 43.984375 780.0625 42.875L781.1406 42.875Q781.2656 43.484375 781.625 43.78125Q782.0 44.0625 782.6094 44.0625Q783.3281 44.0625 783.6875 43.78125Q784.0469 43.5 784.1719 42.875ZM788.7031 46.421875L790.28125 46.421875L790.28125 50.296875L794.65625 50.296875L794.65625 46.421875L796.25 46.421875L796.25 55.75L794.65625 55.75L794.65625 51.609375L790.28125 51.609375L790.28125 55.75L788.7031 55.75L788.7031 46.421875Z" fill-rule="nonzero"/></svg>