<svg version="1.1" viewBox="0.0 0.0 1191.0 734.0" fill="none" stroke="none" stroke-linecap="square" stroke-miterlimit="10" width="1191" height="734" xmlns:xlink="http://www.w3.org/1999/xlink" xmlns="http://www.w3.org/2000/svg"><path fill="#ffffff" d="M0 0L1191.0 0L1191.0 734.0L0 734.0L0 0Z" fill-rule="nonzero"/><path stroke="#333333" stroke-width="1.0" stroke-linecap="butt" d="M126.5 82.5L126.5 645.5" fill-rule="nonzero"/><path stroke="#cccccc" stroke-width="1.0" stroke-linecap="butt" d="M284.5 82.5L284.5 645.5" fill-rule="nonzero"/><path stroke="#cccccc" stroke-width="1.0" stroke-linecap="butt" d="M442.5 82.5L442.5 645.5" fill-rule="nonzero"/><path stroke="#cccccc" stroke-width="1.0" stroke-linecap="butt" d="M600.5 82.5L600.5 645.5" fill-rule="nonzero"/><path stroke="#cccccc" stroke-width="1.0" stroke-linecap="butt" d="M759.5 82.5L759.5 645.5" fill-rule="nonzero"/><path stroke="#cccccc" stroke-width="1.0" stroke-linecap="butt" d="M917.5 82.5L917.5 645.5" fill-rule="nonzero"/><path stroke="#cccccc" stroke-width="1.0" stroke-linecap="butt" d="M1075.5 82.5L1075.5 645.5" fill-rule="nonzero"/><path stroke="#333333" stroke-width="1.0" stroke-linecap="butt" d="M126.5 645.5L1154.5 645.5" fill-rule="nonzero"/><path stroke="#cccccc" stroke-width="1.0" stroke-linecap="butt" d="M126.5 504.5L1154.5 504.5" fill-rule="nonzero"/><path stroke="#cccccc" stroke-width="1.0" stroke-linecap="butt" d="M126.5 363.5L1154.5 363.5" fill-rule="nonzero"/><path stroke="#cccccc" stroke-width="1.0" stroke-linecap="butt" d="M126.5 222.5L1154.5 222.5" fill-rule="nonzero"/><path stroke="#cccccc" stroke-width="1.0" stroke-linecap="butt" d="M126.5 82.5L1154.5 82.5" fill-rule="nonzero"/><clipPath id="id_0"><path d="M126.7 82.166664L1154.3 82.166664L1154.3 645.3L126.7 645.3L126.7 82.166664Z" clip-rule="nonzero"/></clipPath><path stroke="#4285f4" stroke-width="2.0" stroke-linecap="butt" clip-path="url(#id_0)" d="M126.7 588.9867L205.74615 588.9867L284.7923 588.9867L363.83847 588.9867L442.8846 588.9867L521.9308 532.67334L600.9769 532.67334L680.0231 532.67334L759.0692 420.04666L838.11536 363.73334L917.16156 363.73334L996.2077 363.73334L1075.2539 363.73334L1154.3 307.42" fill-rule="nonzero"/><path stroke="#ea4335" stroke-width="2.0" stroke-linecap="butt" clip-path="url(#id_0)" d="M126.7 588.9867L205.74615 588.9867L284.7923 532.67334L363.83847 532.67334L442.8846 476.36L521.9308 420.04666L600.9769 307.42L680.0231 251.10667L759.0692 194.79333L838.11536 194.79333L917.16156 251.10667L996.2077 194.79333L1075.2539 138.48L1154.3 138.48" fill-rule="nonzero"/><path fill="#000000" fill-opacity="0.0" clip-path="url(#id_0)" d="M129.7 588.9867C129.7 590.6435 128.35686 591.9867 126.7 591.9867C125.043144 591.9867 123.7 590.6435 123.7 588.9867C123.7 587.32983 125.043144 585.9867 126.7 585.9867C128.35686 585.9867 129.7 587.32983 129.7 588.9867Z" fill-rule="nonzero"/><path fill="#000000" fill-opacity="0.0" clip-path="url(#id_0)" d="M208.74615 588.9867C208.74615 590.6435 207.40302 591.9867 205.74615 591.9867C204.0893 591.9867 202.74615 590.6435 202.74615 588.9867C202.74615 587.32983 204.0893 585.9867 205.74615 585.9867C207.40302 585.9867 208.74615 587.32983 208.74615 588.9867Z" fill-rule="nonzero"/><path fill="#000000" fill-opacity="0.0" clip-path="url(#id_0)" d="M287.7923 588.9867C287.7923 590.6435 286.44916 591.9867 284.7923 591.9867C283.13547 591.9867 281.7923 590.6435 281.7923 588.9867C281.7923 587.32983 283.13547 585.9867 284.7923 585.9867C286.44916 585.9867 287.7923 587.32983 287.7923 588.9867Z" fill-rule="nonzero"/><path fill="#000000" fill-opacity="0.0" clip-path="url(#id_0)" d="M366.83847 588.9867C366.83847 590.6435 365.49533 591.9867 363.83847 591.9867C362.1816 591.9867 360.83847 590.6435 360.83847 588.9867C360.83847 587.32983 362.1816 585.9867 363.83847 585.9867C365.49533 585.9867 366.83847 587.32983 366.83847 588.9867Z" fill-rule="nonzero"/><path fill="#000000" fill-opacity="0.0" clip-path="url(#id_0)" d="M445.8846 588.9867C445.8846 590.6435 444.54147 591.9867 442.8846 591.9867C441.22775 591.9867 439.8846 590.6435 439.8846 588.9867C439.8846 587.32983 441.22775 585.9867 442.8846 585.9867C444.54147 585.9867 445.8846 587.32983 445.8846 588.9867Z" fill-rule="nonzero"/><path fill="#000000" fill-opacity="0.0" clip-path="url(#id_0)" d="M524.9308 532.67334C524.9308 534.3302 523.58765 535.67334 521.9308 535.67334C520.2739 535.67334 518.9308 534.3302 518.9308 532.67334C518.9308 531.0165 520.2739 529.67334 521.9308 529.67334C523.58765 529.67334 524.9308 531.0165 524.9308 532.67334Z" fill-rule="nonzero"/><path fill="#000000" fill-opacity="0.0" clip-path="url(#id_0)" d="M603.9769 532.67334C603.9769 534.3302 602.6338 535.67334 600.9769 535.67334C599.32007 535.67334 597.9769 534.3302 597.9769 532.67334C597.9769 531.0165 599.32007 529.67334 600.9769 529.67334C602.6338 529.67334 603.9769 531.0165 603.9769 532.67334Z" fill-rule="nonzero"/><path fill="#000000" fill-opacity="0.0" clip-path="url(#id_0)" d="M683.0231 532.67334C683.0231 534.3302 681.67993 535.67334 680.0231 535.67334C678.3662 535.67334 677.0231 534.3302 677.0231 532.67334C677.0231 531.0165 678.3662 529.67334 680.0231 529.67334C681.67993 529.67334 683.0231 531.0165 683.0231 532.67334Z" fill-rule="nonzero"/><path fill="#000000" fill-opacity="0.0" clip-path="url(#id_0)" d="M762.0692 420.04666C762.0692 421.70352 760.7261 423.04666 759.0692 423.04666C757.41235 423.04666 756.0692 421.70352 756.0692 420.04666C756.0692 418.3898 757.41235 417.04666 759.0692 417.04666C760.7261 417.04666 762.0692 418.3898 762.0692 420.04666Z" fill-rule="nonzero"/><path fill="#000000" fill-opacity="0.0" clip-path="url(#id_0)" d="M841.11536 363.73334C841.11536 365.3902 839.7722 366.73334 838.11536 366.73334C836.45856 366.73334 835.11536 365.3902 835.11536 363.73334C835.11536 362.07648 836.45856 360.73334 838.11536 360.73334C839.7722 360.73334 841.11536 362.07648 841.11536 363.73334Z" fill-rule="nonzero"/><path fill="#000000" fill-opacity="0.0" clip-path="url(#id_0)" d="M920.16156 363.73334C920.16156 365.3902 918.8184 366.73334 917.16156 366.73334C915.5047 366.73334 914.16156 365.3902 914.16156 363.73334C914.16156 362.07648 915.5047 360.73334 917.16156 360.73334C918.8184 360.73334 920.16156 362.07648 920.16156 363.73334Z" fill-rule="nonzero"/><path fill="#000000" fill-opacity="0.0" clip-path="url(#id_0)" d="M999.2077 363.73334C999.2077 365.3902 997.86456 366.73334 996.2077 366.73334C994.55084 366.73334 993.2077 365.3902 993.2077 363.73334C993.2077 362.07648 994.55084 360.73334 996.2077 360.73334C997.86456 360.73334 999.2077 362.07648 999.2077 363.73334Z" fill-rule="nonzero"/><path fill="#000000" fill-opacity="0.0" clip-path="url(#id_0)" d="M1078.2539 363.73334C1078.2539 365.3902 1076.9106 366.73334 1075.2539 366.73334C1073.597 366.73334 1072.2539 365.3902 1072.2539 363.73334C1072.2539 362.07648 1073.597 360.73334 1075.2539 360.73334C1076.9106 360.73334 1078.2539 362.07648 1078.2539 363.73334Z" fill-rule="nonzero"/><path fill="#000000" fill-opacity="0.0" clip-path="url(#id_0)" d="M1157.3 307.42C1157.3 309.07684 1155.9569 310.42 1154.3 310.42C1152.6432 310.42 1151.3 309.07684 1151.3 307.42C1151.3 305.76315 1152.6432 304.42 1154.3 304.42C1155.9569 304.42 1157.3 305.76315 1157.3 307.42Z" fill-rule="nonzero"/><path fill="#000000" fill-opacity="0.0" clip-path="url(#id_0)" d="M129.7 588.9867C129.7 590.6435 128.35686 591.9867 126.7 591.9867C125.043144 591.9867 123.7 590.6435 123.7 588.9867C123.7 587.32983 125.043144 585.9867 126.7 585.9867C128.35686 585.9867 129.7 587.32983 129.7 588.9867Z" fill-rule="nonzero"/><path fill="#000000" fill-opacity="0.0" clip-path="url(#id_0)" d="M208.74615 588.9867C208.74615 590.6435 207.40302 591.9867 205.74615 591.9867C204.0893 591.9867 202.74615 590.6435 202.74615 588.9867C202.74615 587.32983 204.0893 585.9867 205.74615 585.9867C207.40302 585.9867 208.74615 587.32983 208.74615 588.9867Z" fill-rule="nonzero"/><path fill="#000000" fill-opacity="0.0" clip-path="url(#id_0)" d="M287.7923 532.67334C287.7923 534.3302 286.44916 535.67334 284.7923 535.67334C283.13547 535.67334 281.7923 534.3302 281.7923 532.67334C281.7923 531.0165 283.13547 529.67334 284.7923 529.67334C286.44916 529.67334 287.7923 531.0165 287.7923 532.67334Z" fill-rule="nonzero"/><path fill="#000000" fill-opacity="0.0" clip-path="url(#id_0)" d="M366.83847 532.67334C366.83847 534.3302 365.49533 535.67334 363.83847 535.67334C362.1816 535.67334 360.83847 534.3302 360.83847 532.67334C360.83847 531.0165 362.1816 529.67334 363.83847 529.67334C365.49533 529.67334 366.83847 531.0165 366.83847 532.67334Z" fill-rule="nonzero"/><path fill="#000000" fill-opacity="0.0" clip-path="url(#id_0)" d="M445.8846 476.36C445.8846 478.01685 444.54147 479.36 442.8846 479.36C441.22775 479.36 439.8846 478.01685 439.8846 476.36C439.8846 474.70316 441.22775 473.36 442.8846 473.36C444.54147 473.36 445.8846 474.70316 445.8846 476.36Z" fill-rule="nonzero"/><path fill="#000000" fill-opacity="0.0" clip-path="url(#id_0)" d="M524.9308 420.04666C524.9308 421.70352 523.58765 423.04666 521.9308 423.04666C520.2739 423.04666 518.9308 421.70352 518.9308 420.04666C518.9308 418.3898 520.2739 417.04666 521.9308 417.04666C523.58765 417.04666 524.9308 418.3898 524.9308 420.04666Z" fill-rule="nonzero"/><path fill="#000000" fill-opacity="0.0" clip-path="url(#id_0)" d="M603.9769 307.42C603.9769 309.07684 602.6338 310.42 600.9769 310.42C599.32007 310.42 597.9769 309.07684 597.9769 307.42C597.9769 305.76315 599.32007 304.42 600.9769 304.42C602.6338 304.42 603.9769 305.76315 603.9769 307.42Z" fill-rule="nonzero"/><path fill="#000000" fill-opacity="0.0" clip-path="url(#id_0)" d="M683.0231 251.10667C683.0231 252.76352 681.67993 254.10667 680.0231 254.10667C678.3662 254.10667 677.0231 252.76352 677.0231 251.10667C677.0231 249.44981 678.3662 248.10667 680.0231 248.10667C681.67993 248.10667 683.0231 249.44981 683.0231 251.10667Z" fill-rule="nonzero"/><path fill="#000000" fill-opacity="0.0" clip-path="url(#id_0)" d="M762.0692 194.79333C762.0692 196.45018 760.7261 197.79333 759.0692 197.79333C757.41235 197.79333 756.0692 196.45018 756.0692 194.79333C756.0692 193.13647 757.41235 191.79333 759.0692 191.79333C760.7261 191.79333 762.0692 193.13647 762.0692 194.79333Z" fill-rule="nonzero"/><path fill="#000000" fill-opacity="0.0" clip-path="url(#id_0)" d="M841.11536 194.79333C841.11536 196.45018 839.7722 197.79333 838.11536 197.79333C836.45856 197.79333 835.11536 196.45018 835.11536 194.79333C835.11536 193.13647 836.45856 191.79333 838.11536 191.79333C839.7722 191.79333 841.11536 193.13647 841.11536 194.79333Z" fill-rule="nonzero"/><path fill="#000000" fill-opacity="0.0" clip-path="url(#id_0)" d="M920.16156 251.10667C920.16156 252.76352 918.8184 254.10667 917.16156 254.10667C915.5047 254.10667 914.16156 252.76352 914.16156 251.10667C914.16156 249.44981 915.5047 248.10667 917.16156 248.10667C918.8184 248.10667 920.16156 249.44981 920.16156 251.10667Z" fill-rule="nonzero"/><path fill="#000000" fill-opacity="0.0" clip-path="url(#id_0)" d="M999.2077 194.79333C999.2077 196.45018 997.86456 197.79333 996.2077 197.79333C994.55084 197.79333 993.2077 196.45018 993.2077 194.79333C993.2077 193.13647 994.55084 191.79333 996.2077 191.79333C997.86456 191.79333 999.2077 193.13647 999.2077 194.79333Z" fill-rule="nonzero"/><path fill="#000000" fill-opacity="0.0" clip-path="url(#id_0)" d="M1078.2539 138.48C1078.2539 140.13686 1076.9106 141.48 1075.2539 141.48C1073.597 141.48 1072.2539 140.13686 1072.2539 138.48C1072.2539 136.82315 1073.597 135.48 1075.2539 135.48C1076.9106 135.48 1078.2539 136.82315 1078.2539 138.48Z" fill-rule="nonzero"/><path fill="#000000" fill-opacity="0.0" clip-path="url(#id_0)" d="M1157.3 138.48C1157.3 140.13686 1155.9569 141.48 1154.3 141.48C1152.6432 141.48 1151.3 140.13686 1151.3 138.48C1151.3 136.82315 1152.6432 135.48 1154.3 135.48C1155.9569 135.48 1157.3 136.82315 1157.3 138.48Z" fill-rule="nonzero"/><path fill="#000000" d="M566.7031 685.70624L571.9375 685.70624L571.9375 693.28436L572.7031 693.28436L572.7031 696.3L571.6875 696.3L571.6875 694.3L566.0156 694.3L566.0156 696.3L565.0 696.3L565.0 693.28436L565.6719 693.28436Q566.7031 691.72186 566.7031 686.95624L566.7031 685.70624ZM570.7969 686.72186L567.7969 686.72186L567.7969 687.15936Q567.7969 688.2531 567.59375 690.15936Q567.40625 692.0656 566.8281 693.28436L570.7969 693.28436L570.7969 686.72186ZM574.3125 688.08124L579.2031 688.08124L579.2031 694.3L578.15625 694.3L578.15625 688.95624L575.3594 688.95624L575.3594 692.05Q575.3594 693.1281 575.28125 693.4875Q575.21875 693.83124 574.90625 694.09686Q574.59375 694.34686 573.9844 694.34686Q573.625 694.34686 573.1406 694.3L573.1406 693.40936L573.6094 693.40936Q573.9375 693.40936 574.0781 693.34686Q574.21875 693.28436 574.2656 693.14374Q574.3125 692.9875 574.3125 692.175L574.3125 688.08124ZM580.7969 688.08124L581.84375 688.08124L581.84375 692.8156L584.7656 688.08124L585.90625 688.08124L585.90625 694.3L584.8594 694.3L584.8594 689.58124L581.9219 694.3L580.7969 694.3L580.7969 688.08124ZM587.7969 688.08124L588.8594 688.08124L588.8594 690.65936L591.78125 690.65936L591.78125 688.08124L592.8281 688.08124L592.8281 694.3L591.78125 694.3L591.78125 691.53436L588.8594 691.53436L588.8594 694.3L587.7969 694.3L587.7969 688.08124ZM598.8594 693.53436Q598.2656 694.03436 597.71875 694.2375Q597.1875 694.4406 596.5625 694.4406Q595.53125 694.4406 594.9844 693.9406Q594.4375 693.4406 594.4375 692.65936Q594.4375 692.20624 594.6406 691.83124Q594.84375 691.4406 595.1875 691.22186Q595.53125 690.9875 595.9531 690.8781Q596.25 690.78436 596.8906 690.70624Q598.15625 690.5656 598.7656 690.34686Q598.7656 690.1281 598.7656 690.08124Q598.7656 689.425 598.46875 689.15936Q598.0625 688.8156 597.2656 688.8156Q596.53125 688.8156 596.1719 689.08124Q595.8125 689.33124 595.6406 689.9875L594.6094 689.84686Q594.75 689.1906 595.0781 688.78436Q595.40625 688.3781 596.0156 688.15936Q596.625 687.9406 597.4219 687.9406Q598.21875 687.9406 598.71875 688.1281Q599.21875 688.3156 599.4531 688.59686Q599.6875 688.8781 599.78125 689.3156Q599.8281 689.58124 599.8281 690.28436L599.8281 691.6906Q599.8281 693.15936 599.8906 693.55Q599.96875 693.9406 600.1719 694.3L599.0625 694.3Q598.90625 693.97186 598.8594 693.53436ZM598.7656 691.175Q598.1875 691.40936 597.0469 691.58124Q596.3906 691.675 596.125 691.8Q595.8594 691.90936 595.7031 692.1281Q595.5625 692.34686 595.5625 692.6281Q595.5625 693.05 595.875 693.33124Q596.2031 693.6125 596.8125 693.6125Q597.4219 693.6125 597.8906 693.34686Q598.375 693.08124 598.59375 692.6125Q598.7656 692.2531 598.7656 691.5656L598.7656 691.175ZM608.8594 692.01874L609.8906 692.15936Q609.71875 693.22186 609.0156 693.83124Q608.3125 694.4406 607.2969 694.4406Q606.0156 694.4406 605.2344 693.6125Q604.46875 692.76874 604.46875 691.20624Q604.46875 690.20624 604.7969 689.45624Q605.1406 688.6906 605.8125 688.3156Q606.5 687.9406 607.3125 687.9406Q608.3125 687.9406 608.9531 688.45624Q609.6094 688.95624 609.7969 689.90936L608.7656 690.0656Q608.625 689.4406 608.25 689.1281Q607.875 688.8 607.34375 688.8Q606.5469 688.8 606.0469 689.3781Q605.5469 689.9406 605.5469 691.175Q605.5469 692.4406 606.03125 693.0031Q606.5156 693.5656 607.28125 693.5656Q607.90625 693.5656 608.3125 693.1906Q608.7344 692.8156 608.8594 692.01874ZM610.21875 688.08124L615.28125 688.08124L615.28125 688.95624L613.28125 688.95624L613.28125 694.3L612.2344 694.3L612.2344 688.95624L610.21875 688.95624L610.21875 688.08124ZM615.7969 696.6906L615.7969 688.08124L616.75 688.08124L616.75 688.8781Q617.09375 688.40936 617.5156 688.175Q617.9531 687.9406 618.5625 687.9406Q619.3594 687.9406 619.96875 688.34686Q620.5781 688.7531 620.875 689.5031Q621.1875 690.2531 621.1875 691.14374Q621.1875 692.09686 620.84375 692.8625Q620.5156 693.6281 619.8594 694.03436Q619.2031 694.4406 618.4844 694.4406Q617.9531 694.4406 617.53125 694.22186Q617.1094 693.9875 616.84375 693.65936L616.84375 696.6906L615.7969 696.6906ZM616.75 691.22186Q616.75 692.425 617.2344 693.0031Q617.71875 693.5656 618.40625 693.5656Q619.1094 693.5656 619.6094 692.97186Q620.1094 692.3781 620.1094 691.1281Q620.1094 689.9406 619.625 689.3625Q619.1406 688.76874 618.4531 688.76874Q617.78125 688.76874 617.2656 689.39374Q616.75 690.01874 616.75 691.22186ZM622.40625 691.1906Q622.40625 689.45624 623.3594 688.6281Q624.15625 687.9406 625.3125 687.9406Q626.59375 687.9406 627.40625 688.78436Q628.2344 689.6125 628.2344 691.09686Q628.2344 692.3 627.875 692.9875Q627.5156 693.675 626.8125 694.0656Q626.125 694.4406 625.3125 694.4406Q624.0156 694.4406 623.2031 693.6125Q622.40625 692.76874 622.40625 691.1906ZM623.4844 691.1906Q623.4844 692.3781 624.0 692.97186Q624.53125 693.5656 625.3125 693.5656Q626.1094 693.5656 626.625 692.97186Q627.1406 692.3781 627.1406 691.15936Q627.1406 690.0031 626.6094 689.40936Q626.09375 688.8156 625.3125 688.8156Q624.53125 688.8156 624.0 689.40936Q623.4844 689.9875 623.4844 691.1906ZM629.78125 688.08124L630.84375 688.08124L630.84375 690.76874Q631.34375 690.76874 631.5469 690.58124Q631.75 690.3781 632.1406 689.4406Q632.4531 688.70624 632.6406 688.47186Q632.84375 688.2375 633.09375 688.15936Q633.34375 688.08124 633.90625 688.08124L634.1094 688.08124L634.1094 688.95624L633.8125 688.9406Q633.40625 688.9406 633.28125 689.0656Q633.15625 689.1906 632.90625 689.83124Q632.6719 690.4406 632.46875 690.675Q632.2656 690.90936 631.8594 691.1125Q632.53125 691.28436 633.1875 692.3781L634.34375 694.3L633.1875 694.3L632.0625 692.3781Q631.71875 691.78436 631.4531 691.6125Q631.2031 691.425 630.84375 691.425L630.84375 694.3L629.78125 694.3L629.78125 688.08124ZM635.7969 688.08124L636.84375 688.08124L636.84375 692.8156L639.7656 688.08124L640.90625 688.08124L640.90625 694.3L639.8594 694.3L639.8594 689.58124L636.9219 694.3L635.7969 694.3L635.7969 688.08124ZM647.8125 696.83124Q646.9375 695.72186 646.3281 694.2531Q645.7344 692.76874 645.7344 691.1906Q645.7344 689.8 646.1719 688.51874Q646.7031 687.03436 647.8125 685.5656L648.5625 685.5656Q647.8594 686.78436 647.625 687.3Q647.2656 688.1125 647.0625 688.9875Q646.8125 690.08124 646.8125 691.1906Q646.8125 694.01874 648.5625 696.83124L647.8125 696.83124ZM649.7969 688.08124L652.2344 688.08124Q653.125 688.08124 653.5625 688.2375Q654.0 688.3781 654.3125 688.78436Q654.625 689.175 654.625 689.72186Q654.625 690.175 654.4375 690.5031Q654.25 690.83124 653.8906 691.0656Q654.3281 691.20624 654.6094 691.6125Q654.90625 692.0031 654.90625 692.5656Q654.84375 693.4406 654.2656 693.8781Q653.7031 694.3 652.6094 694.3L649.7969 694.3L649.7969 688.08124ZM650.8594 690.6906L651.9844 690.6906Q652.65625 690.6906 652.90625 690.6281Q653.15625 690.55 653.34375 690.34686Q653.5469 690.1281 653.5469 689.83124Q653.5469 689.33124 653.2031 689.14374Q652.8594 688.95624 652.0156 688.95624L650.8594 688.95624L650.8594 690.6906ZM650.8594 693.425L652.2344 693.425Q653.1406 693.425 653.46875 693.22186Q653.8125 693.01874 653.8281 692.5031Q653.8281 692.20624 653.625 691.95624Q653.4375 691.6906 653.125 691.6281Q652.8125 691.5656 652.125 691.5656L650.8594 691.5656L650.8594 693.425ZM662.8594 692.01874L663.8906 692.15936Q663.71875 693.22186 663.0156 693.83124Q662.3125 694.4406 661.2969 694.4406Q660.0156 694.4406 659.2344 693.6125Q658.46875 692.76874 658.46875 691.20624Q658.46875 690.20624 658.7969 689.45624Q659.1406 688.6906 659.8125 688.3156Q660.5 687.9406 661.3125 687.9406Q662.3125 687.9406 662.9531 688.45624Q663.6094 688.95624 663.7969 689.90936L662.7656 690.0656Q662.625 689.4406 662.25 689.1281Q661.875 688.8 661.34375 688.8Q660.5469 688.8 660.0469 689.3781Q659.5469 689.9406 659.5469 691.175Q659.5469 692.4406 660.03125 693.0031Q660.5156 693.5656 661.28125 693.5656Q661.90625 693.5656 662.3125 693.1906Q662.7344 692.8156 662.8594 692.01874ZM664.7969 688.08124L665.84375 688.08124L665.84375 692.8156L668.7656 688.08124L669.90625 688.08124L669.90625 694.3L668.8594 694.3L668.8594 689.58124L665.9219 694.3L664.7969 694.3L664.7969 688.08124ZM671.8281 688.08124L673.46875 688.08124L675.09375 693.05L676.90625 688.08124L678.4375 688.08124L678.4375 694.3L677.375 694.3L677.375 689.28436L675.53125 694.3L674.59375 694.3L672.8594 689.05L672.8594 694.3L671.8281 694.3L671.8281 688.08124ZM680.7969 688.08124L683.2344 688.08124Q684.125 688.08124 684.5625 688.2375Q685.0 688.3781 685.3125 688.78436Q685.625 689.175 685.625 689.72186Q685.625 690.175 685.4375 690.5031Q685.25 690.83124 684.8906 691.0656Q685.3281 691.20624 685.6094 691.6125Q685.90625 692.0031 685.90625 692.5656Q685.84375 693.4406 685.2656 693.8781Q684.7031 694.3 683.6094 694.3L680.7969 694.3L680.7969 688.08124ZM681.8594 690.6906L682.9844 690.6906Q683.65625 690.6906 683.90625 690.6281Q684.15625 690.55 684.34375 690.34686Q684.5469 690.1281 684.5469 689.83124Q684.5469 689.33124 684.2031 689.14374Q683.8594 688.95624 683.0156 688.95624L681.8594 688.95624L681.8594 690.6906ZM681.8594 693.425L683.2344 693.425Q684.1406 693.425 684.46875 693.22186Q684.8125 693.01874 684.8281 692.5031Q684.8281 692.20624 684.625 691.95624Q684.4375 691.6906 684.125 691.6281Q683.8125 691.5656 683.125 691.5656L681.8594 691.5656L681.8594 693.425ZM686.40625 691.1906Q686.40625 689.45624 687.3594 688.6281Q688.15625 687.9406 689.3125 687.9406Q690.59375 687.9406 691.40625 688.78436Q692.2344 689.6125 692.2344 691.09686Q692.2344 692.3 691.875 692.9875Q691.5156 693.675 690.8125 694.0656Q690.125 694.4406 689.3125 694.4406Q688.0156 694.4406 687.2031 693.6125Q686.40625 692.76874 686.40625 691.1906ZM687.4844 691.1906Q687.4844 692.3781 688.0 692.97186Q688.53125 693.5656 689.3125 693.5656Q690.1094 693.5656 690.625 692.97186Q691.1406 692.3781 691.1406 691.15936Q691.1406 690.0031 690.6094 689.40936Q690.09375 688.8156 689.3125 688.8156Q688.53125 688.8156 688.0 689.40936Q687.4844 689.9875 687.4844 691.1906ZM694.3125 688.08124L699.2031 688.08124L699.2031 694.3L698.15625 694.3L698.15625 688.95624L695.3594 688.95624L695.3594 692.05Q695.3594 693.1281 695.28125 693.4875Q695.21875 693.83124 694.90625 694.09686Q694.59375 694.34686 693.9844 694.34686Q693.625 694.34686 693.1406 694.3L693.1406 693.40936L693.6094 693.40936Q693.9375 693.40936 694.0781 693.34686Q694.21875 693.28436 694.2656 693.14374Q694.3125 692.9875 694.3125 692.175L694.3125 688.08124ZM704.8594 693.53436Q704.2656 694.03436 703.71875 694.2375Q703.1875 694.4406 702.5625 694.4406Q701.53125 694.4406 700.9844 693.9406Q700.4375 693.4406 700.4375 692.65936Q700.4375 692.20624 700.6406 691.83124Q700.84375 691.4406 701.1875 691.22186Q701.53125 690.9875 701.9531 690.8781Q702.25 690.78436 702.8906 690.70624Q704.15625 690.5656 704.7656 690.34686Q704.7656 690.1281 704.7656 690.08124Q704.7656 689.425 704.46875 689.15936Q704.0625 688.8156 703.2656 688.8156Q702.53125 688.8156 702.1719 689.08124Q701.8125 689.33124 701.6406 689.9875L700.6094 689.84686Q700.75 689.1906 701.0781 688.78436Q701.40625 688.3781 702.0156 688.15936Q702.625 687.9406 703.4219 687.9406Q704.21875 687.9406 704.71875 688.1281Q705.21875 688.3156 705.4531 688.59686Q705.6875 688.8781 705.78125 689.3156Q705.8281 689.58124 705.8281 690.28436L705.8281 691.6906Q705.8281 693.15936 705.8906 693.55Q705.96875 693.9406 706.1719 694.3L705.0625 694.3Q704.90625 693.97186 704.8594 693.53436ZM704.7656 691.175Q704.1875 691.40936 703.0469 691.58124Q702.3906 691.675 702.125 691.8Q701.8594 691.90936 701.7031 692.1281Q701.5625 692.34686 701.5625 692.6281Q701.5625 693.05 701.875 693.33124Q702.2031 693.6125 702.8125 693.6125Q703.4219 693.6125 703.8906 693.34686Q704.375 693.08124 704.59375 692.6125Q704.7656 692.2531 704.7656 691.5656L704.7656 691.175ZM707.09375 694.3L709.3594 691.0656L707.2656 688.08124L708.5781 688.08124L709.53125 689.53436Q709.7969 689.95624 709.96875 690.2375Q710.21875 689.84686 710.4375 689.55L711.4844 688.08124L712.75 688.08124L710.59375 691.0031L712.90625 694.3L711.625 694.3L710.34375 692.3625L710.0 691.84686L708.3594 694.3L707.09375 694.3ZM713.4844 696.83124L712.7344 696.83124Q714.4844 694.01874 714.4844 691.1906Q714.4844 690.09686 714.2344 689.0031Q714.03125 688.1281 713.6719 687.3156Q713.4375 686.8 712.7344 685.5656L713.4844 685.5656Q714.5781 687.03436 715.1094 688.51874Q715.5625 689.8 715.5625 691.1906Q715.5625 692.76874 714.9531 694.2531Q714.34375 695.72186 713.4844 696.83124Z" fill-rule="nonzero"/><path fill="#000000" d="M47.69999 395.35834L39.10624 395.35834L39.10624 392.12396Q39.10624 391.1396 39.371864 390.54584Q39.63749 389.9521 40.184364 389.62396Q40.715614 389.2802 41.309364 389.2802Q41.85624 389.2802 42.340614 389.5771Q42.82499 389.87396 43.121864 390.48334Q43.35624 389.7021 43.91874 389.29584Q44.465614 388.87396 45.215614 388.87396Q45.809364 388.87396 46.340614 389.12396Q46.85624 389.37396 47.13749 389.74896Q47.41874 390.12396 47.559364 390.7021Q47.69999 391.2646 47.69999 392.0771L47.69999 395.35834ZM42.715614 394.2177L42.715614 392.35834Q42.715614 391.60834 42.621864 391.2802Q42.496864 390.8427 42.19999 390.62396Q41.88749 390.4052 41.434364 390.4052Q41.01249 390.4052 40.684364 390.60834Q40.35624 390.81146 40.246864 391.2021Q40.121864 391.5771 40.121864 392.49896L40.121864 394.2177L42.715614 394.2177ZM46.684364 394.2177L46.684364 392.0771Q46.684364 391.5302 46.63749 391.31146Q46.57499 390.9052 46.41874 390.6552Q46.246864 390.3896 45.934364 390.2177Q45.621864 390.04584 45.215614 390.04584Q44.73124 390.04584 44.371864 390.29584Q44.01249 390.5302 43.871864 390.9677Q43.73124 391.4052 43.73124 392.23334L43.73124 394.2177L46.684364 394.2177ZM50.090614 387.43646L41.48124 387.43646L41.48124 386.48334L42.278114 386.48334Q41.809364 386.1396 41.57499 385.7177Q41.340614 385.2802 41.340614 384.67084Q41.340614 383.87396 41.746864 383.2646Q42.153114 382.6552 42.903114 382.35834Q43.653114 382.04584 44.54374 382.04584Q45.496864 382.04584 46.26249 382.3896Q47.028114 382.7177 47.434364 383.37396Q47.840614 384.0302 47.840614 384.74896Q47.840614 385.2802 47.621864 385.7021Q47.38749 386.12396 47.059364 386.3896L50.090614 386.3896L50.090614 387.43646ZM44.621864 386.48334Q45.82499 386.48334 46.403114 385.99896Q46.965614 385.5146 46.965614 384.8271Q46.965614 384.12396 46.371864 383.62396Q45.778114 383.12396 44.528114 383.12396Q43.340614 383.12396 42.76249 383.60834Q42.16874 384.0927 42.16874 384.7802Q42.16874 385.4521 42.79374 385.9677Q43.41874 386.48334 44.621864 386.48334ZM45.69999 376.18646L45.82499 375.0927Q46.778114 375.3427 47.309364 376.04584Q47.840614 376.74896 47.840614 377.8271Q47.840614 379.18646 46.996864 379.99896Q46.153114 380.79584 44.63749 380.79584Q43.07499 380.79584 42.215614 379.98334Q41.340614 379.17084 41.340614 377.8896Q41.340614 376.6396 42.184364 375.85834Q43.028114 375.06146 44.57499 375.06146Q44.66874 375.06146 44.85624 375.06146L44.85624 379.7021Q45.88749 379.6396 46.434364 379.12396Q46.965614 378.60834 46.965614 377.8271Q46.965614 377.24896 46.66874 376.8427Q46.35624 376.42084 45.69999 376.18646ZM43.996864 379.6396L43.996864 376.17084Q43.19999 376.23334 42.809364 376.56146Q42.19999 377.0771 42.19999 377.87396Q42.19999 378.60834 42.684364 379.10834Q43.16874 379.5927 43.996864 379.6396ZM41.48124 373.4052L41.48124 371.7646L46.44999 370.1396L41.48124 368.3271L41.48124 366.79584L47.69999 366.79584L47.69999 367.85834L42.684364 367.85834L47.69999 369.7021L47.69999 370.6396L42.44999 372.37396L47.69999 372.37396L47.69999 373.4052L41.48124 373.4052ZM41.48124 359.54584L47.69999 359.54584L47.69999 360.5927L45.278114 360.5927L45.278114 361.2021Q45.278114 361.7646 45.41874 362.0302Q45.559364 362.29584 46.340614 362.8271L47.69999 363.74896L47.69999 365.04584L46.028114 363.92084Q45.26249 363.3896 45.153114 362.87396Q45.028114 363.7802 44.51249 364.2177Q43.98124 364.6552 43.29374 364.6552Q42.48124 364.6552 41.98124 364.0927Q41.48124 363.5146 41.48124 362.42084L41.48124 359.54584ZM42.35624 360.5927L42.35624 362.0927Q42.35624 363.0302 42.653114 363.31146Q42.934364 363.5771 43.32499 363.5771Q43.88749 363.5771 44.153114 363.18646Q44.403114 362.7802 44.403114 361.7646L44.403114 360.5927L42.35624 360.5927ZM50.23124 355.42084Q49.121864 356.29584 47.653114 356.9052Q46.16874 357.49896 44.590614 357.49896Q43.19999 357.49896 41.91874 357.06146Q40.434364 356.5302 38.965614 355.42084L38.965614 354.67084Q40.184364 355.37396 40.69999 355.60834Q41.51249 355.9677 42.38749 356.17084Q43.48124 356.42084 44.590614 356.42084Q47.41874 356.42084 50.23124 354.67084L50.23124 355.42084ZM45.41874 349.37396L45.559364 348.3427Q46.621864 348.5146 47.23124 349.2177Q47.840614 349.92084 47.840614 350.93646Q47.840614 352.2177 47.01249 352.99896Q46.16874 353.7646 44.60624 353.7646Q43.60624 353.7646 42.85624 353.43646Q42.090614 353.0927 41.715614 352.42084Q41.340614 351.73334 41.340614 350.92084Q41.340614 349.92084 41.85624 349.2802Q42.35624 348.62396 43.309364 348.43646L43.465614 349.4677Q42.840614 349.60834 42.528114 349.98334Q42.19999 350.35834 42.19999 350.8896Q42.19999 351.68646 42.778114 352.18646Q43.340614 352.68646 44.57499 352.68646Q45.840614 352.68646 46.403114 352.2021Q46.965614 351.7177 46.965614 350.9521Q46.965614 350.3271 46.590614 349.92084Q46.215614 349.49896 45.41874 349.37396ZM50.23124 346.74896L50.23124 347.49896Q47.41874 345.74896 44.590614 345.74896Q43.496864 345.74896 42.403114 345.99896Q41.528114 346.2021 40.715614 346.56146Q40.19999 346.79584 38.965614 347.49896L38.965614 346.74896Q40.434364 345.6552 41.91874 345.12396Q43.19999 344.67084 44.590614 344.67084Q46.16874 344.67084 47.653114 345.2802Q49.121864 345.8896 50.23124 346.74896Z" fill-rule="nonzero"/><path fill="#000000" d="M69.2 645.0656Q69.2 643.53436 69.5125 642.6125Q69.825 641.675 70.43437 641.175Q71.05937 640.675 71.99687 640.675Q72.68437 640.675 73.2 640.95624Q73.73125 641.2375 74.075 641.76874Q74.41875 642.28436 74.60625 643.03436Q74.79375 643.78436 74.79375 645.0656Q74.79375 646.58124 74.48125 647.5031Q74.18437 648.425 73.55937 648.9406Q72.95 649.4406 71.99687 649.4406Q70.7625 649.4406 70.04375 648.55Q69.2 647.4875 69.2 645.0656ZM70.27812 645.0656Q70.27812 647.175 70.77812 647.8781Q71.27812 648.58124 71.99687 648.58124Q72.73125 648.58124 73.21562 647.8781Q73.71562 647.175 73.71562 645.0656Q73.71562 642.9406 73.21562 642.2531Q72.73125 641.55 71.98125 641.55Q71.2625 641.55 70.825 642.15936Q70.27812 642.9406 70.27812 645.0656ZM76.7625 649.3L76.7625 648.09686L77.96562 648.09686L77.96562 649.3Q77.96562 649.95624 77.73125 650.3625Q77.49687 650.78436 76.99687 651.0031L76.7 650.55Q77.02812 650.40936 77.18437 650.1125Q77.34062 649.83124 77.37187 649.3L76.7625 649.3ZM79.2 645.0656Q79.2 643.53436 79.5125 642.6125Q79.825 641.675 80.43437 641.175Q81.05937 640.675 81.99687 640.675Q82.68437 640.675 83.2 640.95624Q83.73125 641.2375 84.075 641.76874Q84.41875 642.28436 84.60625 643.03436Q84.79375 643.78436 84.79375 645.0656Q84.79375 646.58124 84.48125 647.5031Q84.18437 648.425 83.55937 648.9406Q82.95 649.4406 81.99687 649.4406Q80.7625 649.4406 80.04375 648.55Q79.2 647.4875 79.2 645.0656ZM80.27812 645.0656Q80.27812 647.175 80.77812 647.8781Q81.27812 648.58124 81.99687 648.58124Q82.73125 648.58124 83.21562 647.8781Q83.71562 647.175 83.71562 645.0656Q83.71562 642.9406 83.21562 642.2531Q82.73125 641.55 81.98125 641.55Q81.2625 641.55 80.825 642.15936Q80.27812 642.9406 80.27812 645.0656ZM86.2 645.0656Q86.2 643.53436 86.5125 642.6125Q86.825 641.675 87.43437 641.175Q88.05937 640.675 88.99687 640.675Q89.68437 640.675 90.2 640.95624Q90.73125 641.2375 91.075 641.76874Q91.41875 642.28436 91.60625 643.03436Q91.79375 643.78436 91.79375 645.0656Q91.79375 646.58124 91.48125 647.5031Q91.18437 648.425 90.55937 648.9406Q89.95 649.4406 88.99687 649.4406Q87.7625 649.4406 87.04375 648.55Q86.2 647.4875 86.2 645.0656ZM87.27812 645.0656Q87.27812 647.175 87.77812 647.8781Q88.27812 648.58124 88.99687 648.58124Q89.73125 648.58124 90.21562 647.8781Q90.71562 647.175 90.71562 645.0656Q90.71562 642.9406 90.21562 642.2531Q89.73125 641.55 88.98125 641.55Q88.2625 641.55 87.825 642.15936Q87.27812 642.9406 87.27812 645.0656ZM93.2 645.0656Q93.2 643.53436 93.5125 642.6125Q93.825 641.675 94.43437 641.175Q95.05937 640.675 95.99687 640.675Q96.68437 640.675 97.2 640.95624Q97.73125 641.2375 98.075 641.76874Q98.41875 642.28436 98.60625 643.03436Q98.79375 643.78436 98.79375 645.0656Q98.79375 646.58124 98.48125 647.5031Q98.18437 648.425 97.55937 648.9406Q96.95 649.4406 95.99687 649.4406Q94.7625 649.4406 94.04375 648.55Q93.2 647.4875 93.2 645.0656ZM94.27812 645.0656Q94.27812 647.175 94.77812 647.8781Q95.27812 648.58124 95.99687 648.58124Q96.73125 648.58124 97.21562 647.8781Q97.71562 647.175 97.71562 645.0656Q97.71562 642.9406 97.21562 642.2531Q96.73125 641.55 95.98125 641.55Q95.2625 641.55 94.825 642.15936Q94.27812 642.9406 94.27812 645.0656ZM100.2 645.0656Q100.2 643.53436 100.5125 642.6125Q100.825 641.675 101.43437 641.175Q102.05937 640.675 102.99687 640.675Q103.68437 640.675 104.2 640.95624Q104.73125 641.2375 105.075 641.76874Q105.41875 642.28436 105.60625 643.03436Q105.79375 643.78436 105.79375 645.0656Q105.79375 646.58124 105.48125 647.5031Q105.18437 648.425 104.55937 648.9406Q103.95 649.4406 102.99687 649.4406Q101.7625 649.4406 101.04375 648.55Q100.2 647.4875 100.2 645.0656ZM101.27812 645.0656Q101.27812 647.175 101.77812 647.8781Q102.27812 648.58124 102.99687 648.58124Q103.73125 648.58124 104.21562 647.8781Q104.71562 647.175 104.71562 645.0656Q104.71562 642.9406 104.21562 642.2531Q103.73125 641.55 102.98125 641.55Q102.2625 641.55 101.825 642.15936Q101.27812 642.9406 101.27812 645.0656ZM107.2 645.0656Q107.2 643.53436 107.5125 642.6125Q107.825 641.675 108.43437 641.175Q109.05937 640.675 109.99687 640.675Q110.68437 640.675 111.2 640.95624Q111.73125 641.2375 112.075 641.76874Q112.41875 642.28436 112.60625 643.03436Q112.79375 643.78436 112.79375 645.0656Q112.79375 646.58124 112.48125 647.5031Q112.18437 648.425 111.55937 648.9406Q110.95 649.4406 109.99687 649.4406Q108.7625 649.4406 108.04375 648.55Q107.2 647.4875 107.2 645.0656ZM108.27812 645.0656Q108.27812 647.175 108.77812 647.8781Q109.27812 648.58124 109.99687 648.58124Q110.73125 648.58124 111.21562 647.8781Q111.71562 647.175 111.71562 645.0656Q111.71562 642.9406 111.21562 642.2531Q110.73125 641.55 109.98125 641.55Q109.2625 641.55 108.825 642.15936Q108.27812 642.9406 108.27812 645.0656ZM114.2 645.0656Q114.2 643.53436 114.5125 642.6125Q114.825 641.675 115.43437 641.175Q116.05937 640.675 116.99687 640.675Q117.68437 640.675 118.2 640.95624Q118.73125 641.2375 119.075 641.76874Q119.41875 642.28436 119.60625 643.03436Q119.79375 643.78436 119.79375 645.0656Q119.79375 646.58124 119.48125 647.5031Q119.18437 648.425 118.55937 648.9406Q117.95 649.4406 116.99687 649.4406Q115.7625 649.4406 115.04375 648.55Q114.2 647.4875 114.2 645.0656ZM115.27812 645.0656Q115.27812 647.175 115.77812 647.8781Q116.27812 648.58124 116.99687 648.58124Q117.73125 648.58124 118.21562 647.8781Q118.71562 647.175 118.71562 645.0656Q118.71562 642.9406 118.21562 642.2531Q117.73125 641.55 116.98125 641.55Q116.2625 641.55 115.825 642.15936Q115.27812 642.9406 115.27812 645.0656Z" fill-rule="nonzero"/><path fill="#000000" d="M69.2 504.2823Q69.2 502.75104 69.5125 501.82916Q69.825 500.89166 70.43437 500.39166Q71.05937 499.89166 71.99687 499.89166Q72.68437 499.89166 73.2 500.1729Q73.73125 500.45416 74.075 500.9854Q74.41875 501.50104 74.60625 502.25104Q74.79375 503.00104 74.79375 504.2823Q74.79375 505.7979 74.48125 506.7198Q74.18437 507.64166 73.55937 508.1573Q72.95 508.6573 71.99687 508.6573Q70.7625 508.6573 70.04375 507.76666Q69.2 506.70416 69.2 504.2823ZM70.27812 504.2823Q70.27812 506.39166 70.77812 507.0948Q71.27812 507.7979 71.99687 507.7979Q72.73125 507.7979 73.21562 507.0948Q73.71562 506.39166 73.71562 504.2823Q73.71562 502.1573 73.21562 501.4698Q72.73125 500.76666 71.98125 500.76666Q71.2625 500.76666 70.825 501.37604Q70.27812 502.1573 70.27812 504.2823ZM76.7625 508.51666L76.7625 507.31354L77.96562 507.31354L77.96562 508.51666Q77.96562 509.1729 77.73125 509.57916Q77.49687 510.00104 76.99687 510.2198L76.7 509.76666Q77.02812 509.62604 77.18437 509.32916Q77.34062 509.0479 77.37187 508.51666L76.7625 508.51666ZM79.2 504.2823Q79.2 502.75104 79.5125 501.82916Q79.825 500.89166 80.43437 500.39166Q81.05937 499.89166 81.99687 499.89166Q82.68437 499.89166 83.2 500.1729Q83.73125 500.45416 84.075 500.9854Q84.41875 501.50104 84.60625 502.25104Q84.79375 503.00104 84.79375 504.2823Q84.79375 505.7979 84.48125 506.7198Q84.18437 507.64166 83.55937 508.1573Q82.95 508.6573 81.99687 508.6573Q80.7625 508.6573 80.04375 507.76666Q79.2 506.70416 79.2 504.2823ZM80.27812 504.2823Q80.27812 506.39166 80.77812 507.0948Q81.27812 507.7979 81.99687 507.7979Q82.73125 507.7979 83.21562 507.0948Q83.71562 506.39166 83.71562 504.2823Q83.71562 502.1573 83.21562 501.4698Q82.73125 500.76666 81.98125 500.76666Q81.2625 500.76666 80.825 501.37604Q80.27812 502.1573 80.27812 504.2823ZM86.2 504.2823Q86.2 502.75104 86.5125 501.82916Q86.825 500.89166 87.43437 500.39166Q88.05937 499.89166 88.99687 499.89166Q89.68437 499.89166 90.2 500.1729Q90.73125 500.45416 91.075 500.9854Q91.41875 501.50104 91.60625 502.25104Q91.79375 503.00104 91.79375 504.2823Q91.79375 505.7979 91.48125 506.7198Q91.18437 507.64166 90.55937 508.1573Q89.95 508.6573 88.99687 508.6573Q87.7625 508.6573 87.04375 507.76666Q86.2 506.70416 86.2 504.2823ZM87.27812 504.2823Q87.27812 506.39166 87.77812 507.0948Q88.27812 507.7979 88.99687 507.7979Q89.73125 507.7979 90.21562 507.0948Q90.71562 506.39166 90.71562 504.2823Q90.71562 502.1573 90.21562 501.4698Q89.73125 500.76666 88.98125 500.76666Q88.2625 500.76666 87.825 501.37604Q87.27812 502.1573 87.27812 504.2823ZM93.2 504.2823Q93.2 502.75104 93.5125 501.82916Q93.825 500.89166 94.43437 500.39166Q95.05937 499.89166 95.99687 499.89166Q96.68437 499.89166 97.2 500.1729Q97.73125 500.45416 98.075 500.9854Q98.41875 501.50104 98.60625 502.25104Q98.79375 503.00104 98.79375 504.2823Q98.79375 505.7979 98.48125 506.7198Q98.18437 507.64166 97.55937 508.1573Q96.95 508.6573 95.99687 508.6573Q94.7625 508.6573 94.04375 507.76666Q93.2 506.70416 93.2 504.2823ZM94.27812 504.2823Q94.27812 506.39166 94.77812 507.0948Q95.27812 507.7979 95.99687 507.7979Q96.73125 507.7979 97.21562 507.0948Q97.71562 506.39166 97.71562 504.2823Q97.71562 502.1573 97.21562 501.4698Q96.73125 500.76666 95.98125 500.76666Q95.2625 500.76666 94.825 501.37604Q94.27812 502.1573 94.27812 504.2823ZM100.2 504.2823Q100.2 502.75104 100.5125 501.82916Q100.825 500.89166 101.43437 500.39166Q102.05937 499.89166 102.99687 499.89166Q103.68437 499.89166 104.2 500.1729Q104.73125 500.45416 105.075 500.9854Q105.41875 501.50104 105.60625 502.25104Q105.79375 503.00104 105.79375 504.2823Q105.79375 505.7979 105.48125 506.7198Q105.18437 507.64166 104.55937 508.1573Q103.95 508.6573 102.99687 508.6573Q101.7625 508.6573 101.04375 507.76666Q100.2 506.70416 100.2 504.2823ZM101.27812 504.2823Q101.27812 506.39166 101.77812 507.0948Q102.27812 507.7979 102.99687 507.7979Q103.73125 507.7979 104.21562 507.0948Q104.71562 506.39166 104.71562 504.2823Q104.71562 502.1573 104.21562 501.4698Q103.73125 500.76666 102.98125 500.76666Q102.2625 500.76666 101.825 501.37604Q101.27812 502.1573 101.27812 504.2823ZM107.2 504.2823Q107.2 502.75104 107.5125 501.82916Q107.825 500.89166 108.43437 500.39166Q109.05937 499.89166 109.99687 499.89166Q110.68437 499.89166 111.2 500.1729Q111.73125 500.45416 112.075 500.9854Q112.41875 501.50104 112.60625 502.25104Q112.79375 503.00104 112.79375 504.2823Q112.79375 505.7979 112.48125 506.7198Q112.18437 507.64166 111.55937 508.1573Q110.95 508.6573 109.99687 508.6573Q108.7625 508.6573 108.04375 507.76666Q107.2 506.70416 107.2 504.2823ZM108.27812 504.2823Q108.27812 506.39166 108.77812 507.0948Q109.27812 507.7979 109.99687 507.7979Q110.73125 507.7979 111.21562 507.0948Q111.71562 506.39166 111.71562 504.2823Q111.71562 502.1573 111.21562 501.4698Q110.73125 500.76666 109.98125 500.76666Q109.2625 500.76666 108.825 501.37604Q108.27812 502.1573 108.27812 504.2823ZM114.2 506.25104L115.2625 506.1104Q115.43437 507.00104 115.87187 507.4073Q116.30937 507.7979 116.93437 507.7979Q117.68437 507.7979 118.2 507.2823Q118.71562 506.76666 118.71562 506.00104Q118.71562 505.2823 118.23125 504.81354Q117.7625 504.32916 117.02812 504.32916Q116.73125 504.32916 116.27812 504.45416L116.40312 503.51666Q116.5125 503.5323 116.575 503.5323Q117.24687 503.5323 117.77812 503.18854Q118.325 502.82916 118.325 502.0948Q118.325 501.51666 117.93437 501.14166Q117.54375 500.75104 116.91875 500.75104Q116.30937 500.75104 115.8875 501.14166Q115.48125 501.5323 115.37187 502.2979L114.30937 502.1104Q114.49687 501.06354 115.18437 500.4854Q115.87187 499.89166 116.8875 499.89166Q117.59062 499.89166 118.18437 500.20416Q118.77812 500.50104 119.09062 501.01666Q119.40312 501.5323 119.40312 502.12604Q119.40312 502.6729 119.10625 503.14166Q118.80937 503.5948 118.23125 503.8604Q118.98125 504.0323 119.40312 504.5948Q119.825 505.14166 119.825 505.9854Q119.825 507.1104 118.99687 507.89166Q118.18437 508.6729 116.93437 508.6729Q115.80937 508.6729 115.05937 508.00104Q114.30937 507.31354 114.2 506.25104Z" fill-rule="nonzero"/><path fill="#000000" d="M69.2 363.49896Q69.2 361.9677 69.5125 361.04584Q69.825 360.10834 70.43437 359.60834Q71.05937 359.10834 71.99687 359.10834Q72.68437 359.10834 73.2 359.3896Q73.73125 359.67084 74.075 360.2021Q74.41875 360.7177 74.60625 361.4677Q74.79375 362.2177 74.79375 363.49896Q74.79375 365.0146 74.48125 365.93646Q74.18437 366.85834 73.55937 367.37396Q72.95 367.87396 71.99687 367.87396Q70.7625 367.87396 70.04375 366.98334Q69.2 365.92084 69.2 363.49896ZM70.27812 363.49896Q70.27812 365.60834 70.77812 366.31146Q71.27812 367.0146 71.99687 367.0146Q72.73125 367.0146 73.21562 366.31146Q73.71562 365.60834 73.71562 363.49896Q73.71562 361.37396 73.21562 360.68646Q72.73125 359.98334 71.98125 359.98334Q71.2625 359.98334 70.825 360.5927Q70.27812 361.37396 70.27812 363.49896ZM76.7625 367.73334L76.7625 366.5302L77.96562 366.5302L77.96562 367.73334Q77.96562 368.3896 77.73125 368.79584Q77.49687 369.2177 76.99687 369.43646L76.7 368.98334Q77.02812 368.8427 77.18437 368.54584Q77.34062 368.2646 77.37187 367.73334L76.7625 367.73334ZM79.2 363.49896Q79.2 361.9677 79.5125 361.04584Q79.825 360.10834 80.43437 359.60834Q81.05937 359.10834 81.99687 359.10834Q82.68437 359.10834 83.2 359.3896Q83.73125 359.67084 84.075 360.2021Q84.41875 360.7177 84.60625 361.4677Q84.79375 362.2177 84.79375 363.49896Q84.79375 365.0146 84.48125 365.93646Q84.18437 366.85834 83.55937 367.37396Q82.95 367.87396 81.99687 367.87396Q80.7625 367.87396 80.04375 366.98334Q79.2 365.92084 79.2 363.49896ZM80.27812 363.49896Q80.27812 365.60834 80.77812 366.31146Q81.27812 367.0146 81.99687 367.0146Q82.73125 367.0146 83.21562 366.31146Q83.71562 365.60834 83.71562 363.49896Q83.71562 361.37396 83.21562 360.68646Q82.73125 359.98334 81.98125 359.98334Q81.2625 359.98334 80.825 360.5927Q80.27812 361.37396 80.27812 363.49896ZM86.2 363.49896Q86.2 361.9677 86.5125 361.04584Q86.825 360.10834 87.43437 359.60834Q88.05937 359.10834 88.99687 359.10834Q89.68437 359.10834 90.2 359.3896Q90.73125 359.67084 91.075 360.2021Q91.41875 360.7177 91.60625 361.4677Q91.79375 362.2177 91.79375 363.49896Q91.79375 365.0146 91.48125 365.93646Q91.18437 366.85834 90.55937 367.37396Q89.95 367.87396 88.99687 367.87396Q87.7625 367.87396 87.04375 366.98334Q86.2 365.92084 86.2 363.49896ZM87.27812 363.49896Q87.27812 365.60834 87.77812 366.31146Q88.27812 367.0146 88.99687 367.0146Q89.73125 367.0146 90.21562 366.31146Q90.71562 365.60834 90.71562 363.49896Q90.71562 361.37396 90.21562 360.68646Q89.73125 359.98334 88.98125 359.98334Q88.2625 359.98334 87.825 360.5927Q87.27812 361.37396 87.27812 363.49896ZM93.2 363.49896Q93.2 361.9677 93.5125 361.04584Q93.825 360.10834 94.43437 359.60834Q95.05937 359.10834 95.99687 359.10834Q96.68437 359.10834 97.2 359.3896Q97.73125 359.67084 98.075 360.2021Q98.41875 360.7177 98.60625 361.4677Q98.79375 362.2177 98.79375 363.49896Q98.79375 365.0146 98.48125 365.93646Q98.18437 366.85834 97.55937 367.37396Q96.95 367.87396 95.99687 367.87396Q94.7625 367.87396 94.04375 366.98334Q93.2 365.92084 93.2 363.49896ZM94.27812 363.49896Q94.27812 365.60834 94.77812 366.31146Q95.27812 367.0146 95.99687 367.0146Q96.73125 367.0146 97.21562 366.31146Q97.71562 365.60834 97.71562 363.49896Q97.71562 361.37396 97.21562 360.68646Q96.73125 359.98334 95.98125 359.98334Q95.2625 359.98334 94.825 360.5927Q94.27812 361.37396 94.27812 363.49896ZM100.2 363.49896Q100.2 361.9677 100.5125 361.04584Q100.825 360.10834 101.43437 359.60834Q102.05937 359.10834 102.99687 359.10834Q103.68437 359.10834 104.2 359.3896Q104.73125 359.67084 105.075 360.2021Q105.41875 360.7177 105.60625 361.4677Q105.79375 362.2177 105.79375 363.49896Q105.79375 365.0146 105.48125 365.93646Q105.18437 366.85834 104.55937 367.37396Q103.95 367.87396 102.99687 367.87396Q101.7625 367.87396 101.04375 366.98334Q100.2 365.92084 100.2 363.49896ZM101.27812 363.49896Q101.27812 365.60834 101.77812 366.31146Q102.27812 367.0146 102.99687 367.0146Q103.73125 367.0146 104.21562 366.31146Q104.71562 365.60834 104.71562 363.49896Q104.71562 361.37396 104.21562 360.68646Q103.73125 359.98334 102.98125 359.98334Q102.2625 359.98334 101.825 360.5927Q101.27812 361.37396 101.27812 363.49896ZM107.2 363.49896Q107.2 361.9677 107.5125 361.04584Q107.825 360.10834 108.43437 359.60834Q109.05937 359.10834 109.99687 359.10834Q110.68437 359.10834 111.2 359.3896Q111.73125 359.67084 112.075 360.2021Q112.41875 360.7177 112.60625 361.4677Q112.79375 362.2177 112.79375 363.49896Q112.79375 365.0146 112.48125 365.93646Q112.18437 366.85834 111.55937 367.37396Q110.95 367.87396 109.99687 367.87396Q108.7625 367.87396 108.04375 366.98334Q107.2 365.92084 107.2 363.49896ZM108.27812 363.49896Q108.27812 365.60834 108.77812 366.31146Q109.27812 367.0146 109.99687 367.0146Q110.73125 367.0146 111.21562 366.31146Q111.71562 365.60834 111.71562 363.49896Q111.71562 361.37396 111.21562 360.68646Q110.73125 359.98334 109.98125 359.98334Q109.2625 359.98334 108.825 360.5927Q108.27812 361.37396 108.27812 363.49896ZM114.2 365.48334L115.30937 365.3896Q115.43437 366.2021 115.87187 366.60834Q116.325 367.0146 116.96562 367.0146Q117.71562 367.0146 118.24687 366.43646Q118.77812 365.85834 118.77812 364.92084Q118.77812 364.0146 118.2625 363.49896Q117.7625 362.9677 116.93437 362.9677Q116.43437 362.9677 116.0125 363.2021Q115.60625 363.43646 115.37187 363.79584L114.3875 363.67084L115.21562 359.2646L119.49687 359.2646L119.49687 360.2646L116.05937 360.2646L115.60625 362.5771Q116.37187 362.0302 117.21562 362.0302Q118.34062 362.0302 119.10625 362.81146Q119.8875 363.5927 119.8875 364.8271Q119.8875 365.98334 119.21562 366.8427Q118.3875 367.87396 116.96562 367.87396Q115.79375 367.87396 115.04375 367.2177Q114.30937 366.56146 114.2 365.48334Z" fill-rule="nonzero"/><path fill="#000000" d="M69.2 222.71562Q69.2 221.18437 69.5125 220.2625Q69.825 219.325 70.43437 218.825Q71.05937 218.325 71.99687 218.325Q72.68437 218.325 73.2 218.60625Q73.73125 218.8875 74.075 219.41875Q74.41875 219.93437 74.60625 220.68437Q74.79375 221.43437 74.79375 222.71562Q74.79375 224.23125 74.48125 225.15312Q74.18437 226.075 73.55937 226.59062Q72.95 227.09062 71.99687 227.09062Q70.7625 227.09062 70.04375 226.2Q69.2 225.1375 69.2 222.71562ZM70.27812 222.71562Q70.27812 224.825 70.77812 225.52812Q71.27812 226.23125 71.99687 226.23125Q72.73125 226.23125 73.21562 225.52812Q73.71562 224.825 73.71562 222.71562Q73.71562 220.59062 73.21562 219.90312Q72.73125 219.2 71.98125 219.2Q71.2625 219.2 70.825 219.80937Q70.27812 220.59062 70.27812 222.71562ZM76.7625 226.95L76.7625 225.74687L77.96562 225.74687L77.96562 226.95Q77.96562 227.60625 77.73125 228.0125Q77.49687 228.43437 76.99687 228.65312L76.7 228.2Q77.02812 228.05937 77.18437 227.7625Q77.34062 227.48125 77.37187 226.95L76.7625 226.95ZM79.2 222.71562Q79.2 221.18437 79.5125 220.2625Q79.825 219.325 80.43437 218.825Q81.05937 218.325 81.99687 218.325Q82.68437 218.325 83.2 218.60625Q83.73125 218.8875 84.075 219.41875Q84.41875 219.93437 84.60625 220.68437Q84.79375 221.43437 84.79375 222.71562Q84.79375 224.23125 84.48125 225.15312Q84.18437 226.075 83.55937 226.59062Q82.95 227.09062 81.99687 227.09062Q80.7625 227.09062 80.04375 226.2Q79.2 225.1375 79.2 222.71562ZM80.27812 222.71562Q80.27812 224.825 80.77812 225.52812Q81.27812 226.23125 81.99687 226.23125Q82.73125 226.23125 83.21562 225.52812Q83.71562 224.825 83.71562 222.71562Q83.71562 220.59062 83.21562 219.90312Q82.73125 219.2 81.98125 219.2Q81.2625 219.2 80.825 219.80937Q80.27812 220.59062 80.27812 222.71562ZM86.2 222.71562Q86.2 221.18437 86.5125 220.2625Q86.825 219.325 87.43437 218.825Q88.05937 218.325 88.99687 218.325Q89.68437 218.325 90.2 218.60625Q90.73125 218.8875 91.075 219.41875Q91.41875 219.93437 91.60625 220.68437Q91.79375 221.43437 91.79375 222.71562Q91.79375 224.23125 91.48125 225.15312Q91.18437 226.075 90.55937 226.59062Q89.95 227.09062 88.99687 227.09062Q87.7625 227.09062 87.04375 226.2Q86.2 225.1375 86.2 222.71562ZM87.27812 222.71562Q87.27812 224.825 87.77812 225.52812Q88.27812 226.23125 88.99687 226.23125Q89.73125 226.23125 90.21562 225.52812Q90.71562 224.825 90.71562 222.71562Q90.71562 220.59062 90.21562 219.90312Q89.73125 219.2 88.98125 219.2Q88.2625 219.2 87.825 219.80937Q87.27812 220.59062 87.27812 222.71562ZM93.2 222.71562Q93.2 221.18437 93.5125 220.2625Q93.825 219.325 94.43437 218.825Q95.05937 218.325 95.99687 218.325Q96.68437 218.325 97.2 218.60625Q97.73125 218.8875 98.075 219.41875Q98.41875 219.93437 98.60625 220.68437Q98.79375 221.43437 98.79375 222.71562Q98.79375 224.23125 98.48125 225.15312Q98.18437 226.075 97.55937 226.59062Q96.95 227.09062 95.99687 227.09062Q94.7625 227.09062 94.04375 226.2Q93.2 225.1375 93.2 222.71562ZM94.27812 222.71562Q94.27812 224.825 94.77812 225.52812Q95.27812 226.23125 95.99687 226.23125Q96.73125 226.23125 97.21562 225.52812Q97.71562 224.825 97.71562 222.71562Q97.71562 220.59062 97.21562 219.90312Q96.73125 219.2 95.98125 219.2Q95.2625 219.2 94.825 219.80937Q94.27812 220.59062 94.27812 222.71562ZM100.2 222.71562Q100.2 221.18437 100.5125 220.2625Q100.825 219.325 101.43437 218.825Q102.05937 218.325 102.99687 218.325Q103.68437 218.325 104.2 218.60625Q104.73125 218.8875 105.075 219.41875Q105.41875 219.93437 105.60625 220.68437Q105.79375 221.43437 105.79375 222.71562Q105.79375 224.23125 105.48125 225.15312Q105.18437 226.075 104.55937 226.59062Q103.95 227.09062 102.99687 227.09062Q101.7625 227.09062 101.04375 226.2Q100.2 225.1375 100.2 222.71562ZM101.27812 222.71562Q101.27812 224.825 101.77812 225.52812Q102.27812 226.23125 102.99687 226.23125Q103.73125 226.23125 104.21562 225.52812Q104.71562 224.825 104.71562 222.71562Q104.71562 220.59062 104.21562 219.90312Q103.73125 219.2 102.98125 219.2Q102.2625 219.2 101.825 219.80937Q101.27812 220.59062 101.27812 222.71562ZM107.2 222.71562Q107.2 221.18437 107.5125 220.2625Q107.825 219.325 108.43437 218.825Q109.05937 218.325 109.99687 218.325Q110.68437 218.325 111.2 218.60625Q111.73125 218.8875 112.075 219.41875Q112.41875 219.93437 112.60625 220.68437Q112.79375 221.43437 112.79375 222.71562Q112.79375 224.23125 112.48125 225.15312Q112.18437 226.075 111.55937 226.59062Q110.95 227.09062 109.99687 227.09062Q108.7625 227.09062 108.04375 226.2Q107.2 225.1375 107.2 222.71562ZM108.27812 222.71562Q108.27812 224.825 108.77812 225.52812Q109.27812 226.23125 109.99687 226.23125Q110.73125 226.23125 111.21562 225.52812Q111.71562 224.825 111.71562 222.71562Q111.71562 220.59062 111.21562 219.90312Q110.73125 219.2 109.98125 219.2Q109.2625 219.2 108.825 219.80937Q108.27812 220.59062 108.27812 222.71562ZM115.825 222.29375Q115.16875 222.04375 114.84062 221.60625Q114.52812 221.15312 114.52812 220.54375Q114.52812 219.60625 115.2 218.96562Q115.8875 218.325 116.99687 218.325Q118.12187 218.325 118.80937 218.98125Q119.49687 219.6375 119.49687 220.575Q119.49687 221.16875 119.18437 221.60625Q118.87187 222.04375 118.23125 222.29375Q119.02812 222.54375 119.43437 223.12187Q119.84062 223.7 119.84062 224.49687Q119.84062 225.59062 119.05937 226.34062Q118.29375 227.09062 117.0125 227.09062Q115.74687 227.09062 114.96562 226.34062Q114.18437 225.59062 114.18437 224.46562Q114.18437 223.62187 114.60625 223.05937Q115.04375 222.49687 115.825 222.29375ZM115.60625 220.49687Q115.60625 221.10625 115.99687 221.49687Q116.40312 221.8875 117.02812 221.8875Q117.6375 221.8875 118.02812 221.5125Q118.41875 221.12187 118.41875 220.55937Q118.41875 219.98125 118.0125 219.59062Q117.60625 219.18437 117.0125 219.18437Q116.40312 219.18437 115.99687 219.575Q115.60625 219.96562 115.60625 220.49687ZM115.27812 224.46562Q115.27812 224.91875 115.48125 225.34062Q115.7 225.7625 116.12187 225.99687Q116.54375 226.23125 117.02812 226.23125Q117.77812 226.23125 118.2625 225.74687Q118.7625 225.2625 118.7625 224.5125Q118.7625 223.74687 118.2625 223.24687Q117.7625 222.74687 116.99687 222.74687Q116.24687 222.74687 115.7625 223.24687Q115.27812 223.73125 115.27812 224.46562Z" fill-rule="nonzero"/><path fill="#000000" d="M69.2 81.93229Q69.2 80.40104 69.5125 79.479164Q69.825 78.541664 70.43437 78.041664Q71.05937 77.541664 71.99687 77.541664Q72.68437 77.541664 73.2 77.822914Q73.73125 78.104164 74.075 78.635414Q74.41875 79.15104 74.60625 79.90104Q74.79375 80.65104 74.79375 81.93229Q74.79375 83.447914 74.48125 84.36979Q74.18437 85.291664 73.55937 85.80729Q72.95 86.30729 71.99687 86.30729Q70.7625 86.30729 70.04375 85.416664Q69.2 84.354164 69.2 81.93229ZM70.27812 81.93229Q70.27812 84.041664 70.77812 84.74479Q71.27812 85.447914 71.99687 85.447914Q72.73125 85.447914 73.21562 84.74479Q73.71562 84.041664 73.71562 81.93229Q73.71562 79.80729 73.21562 79.11979Q72.73125 78.416664 71.98125 78.416664Q71.2625 78.416664 70.825 79.02604Q70.27812 79.80729 70.27812 81.93229ZM76.7625 86.166664L76.7625 84.96354L77.96562 84.96354L77.96562 86.166664Q77.96562 86.822914 77.73125 87.229164Q77.49687 87.65104 76.99687 87.86979L76.7 87.416664Q77.02812 87.27604 77.18437 86.979164Q77.34062 86.697914 77.37187 86.166664L76.7625 86.166664ZM79.2 81.93229Q79.2 80.40104 79.5125 79.479164Q79.825 78.541664 80.43437 78.041664Q81.05937 77.541664 81.99687 77.541664Q82.68437 77.541664 83.2 77.822914Q83.73125 78.104164 84.075 78.635414Q84.41875 79.15104 84.60625 79.90104Q84.79375 80.65104 84.79375 81.93229Q84.79375 83.447914 84.48125 84.36979Q84.18437 85.291664 83.55937 85.80729Q82.95 86.30729 81.99687 86.30729Q80.7625 86.30729 80.04375 85.416664Q79.2 84.354164 79.2 81.93229ZM80.27812 81.93229Q80.27812 84.041664 80.77812 84.74479Q81.27812 85.447914 81.99687 85.447914Q82.73125 85.447914 83.21562 84.74479Q83.71562 84.041664 83.71562 81.93229Q83.71562 79.80729 83.21562 79.11979Q82.73125 78.416664 81.98125 78.416664Q81.2625 78.416664 80.825 79.02604Q80.27812 79.80729 80.27812 81.93229ZM86.2 81.93229Q86.2 80.40104 86.5125 79.479164Q86.825 78.541664 87.43437 78.041664Q88.05937 77.541664 88.99687 77.541664Q89.68437 77.541664 90.2 77.822914Q90.73125 78.104164 91.075 78.635414Q91.41875 79.15104 91.60625 79.90104Q91.79375 80.65104 91.79375 81.93229Q91.79375 83.447914 91.48125 84.36979Q91.18437 85.291664 90.55937 85.80729Q89.95 86.30729 88.99687 86.30729Q87.7625 86.30729 87.04375 85.416664Q86.2 84.354164 86.2 81.93229ZM87.27812 81.93229Q87.27812 84.041664 87.77812 84.74479Q88.27812 85.447914 88.99687 85.447914Q89.73125 85.447914 90.21562 84.74479Q90.71562 84.041664 90.71562 81.93229Q90.71562 79.80729 90.21562 79.11979Q89.73125 78.416664 88.98125 78.416664Q88.2625 78.416664 87.825 79.02604Q87.27812 79.80729 87.27812 81.93229ZM93.2 81.93229Q93.2 80.40104 93.5125 79.479164Q93.825 78.541664 94.43437 78.041664Q95.05937 77.541664 95.99687 77.541664Q96.68437 77.541664 97.2 77.822914Q97.73125 78.104164 98.075 78.635414Q98.41875 79.15104 98.60625 79.90104Q98.79375 80.65104 98.79375 81.93229Q98.79375 83.447914 98.48125 84.36979Q98.18437 85.291664 97.55937 85.80729Q96.95 86.30729 95.99687 86.30729Q94.7625 86.30729 94.04375 85.416664Q93.2 84.354164 93.2 81.93229ZM94.27812 81.93229Q94.27812 84.041664 94.77812 84.74479Q95.27812 85.447914 95.99687 85.447914Q96.73125 85.447914 97.21562 84.74479Q97.71562 84.041664 97.71562 81.93229Q97.71562 79.80729 97.21562 79.11979Q96.73125 78.416664 95.98125 78.416664Q95.2625 78.416664 94.825 79.02604Q94.27812 79.80729 94.27812 81.93229ZM100.2 81.93229Q100.2 80.40104 100.5125 79.479164Q100.825 78.541664 101.43437 78.041664Q102.05937 77.541664 102.99687 77.541664Q103.68437 77.541664 104.2 77.822914Q104.73125 78.104164 105.075 78.635414Q105.41875 79.15104 105.60625 79.90104Q105.79375 80.65104 105.79375 81.93229Q105.79375 83.447914 105.48125 84.36979Q105.18437 85.291664 104.55937 85.80729Q103.95 86.30729 102.99687 86.30729Q101.7625 86.30729 101.04375 85.416664Q100.2 84.354164 100.2 81.93229ZM101.27812 81.93229Q101.27812 84.041664 101.77812 84.74479Q102.27812 85.447914 102.99687 85.447914Q103.73125 85.447914 104.21562 84.74479Q104.71562 84.041664 104.71562 81.93229Q104.71562 79.80729 104.21562 79.11979Q103.73125 78.416664 102.98125 78.416664Q102.2625 78.416664 101.825 79.02604Q101.27812 79.80729 101.27812 81.93229ZM111.16875 86.166664L110.12187 86.166664L110.12187 79.447914Q109.73125 79.80729 109.10625 80.18229Q108.49687 80.541664 108.0125 80.71354L108.0125 79.697914Q108.8875 79.27604 109.54375 78.697914Q110.21562 78.104164 110.49687 77.541664L111.16875 77.541664L111.16875 86.166664ZM114.2 81.93229Q114.2 80.40104 114.5125 79.479164Q114.825 78.541664 115.43437 78.041664Q116.05937 77.541664 116.99687 77.541664Q117.68437 77.541664 118.2 77.822914Q118.73125 78.104164 119.075 78.635414Q119.41875 79.15104 119.60625 79.90104Q119.79375 80.65104 119.79375 81.93229Q119.79375 83.447914 119.48125 84.36979Q119.18437 85.291664 118.55937 85.80729Q117.95 86.30729 116.99687 86.30729Q115.7625 86.30729 115.04375 85.416664Q114.2 84.354164 114.2 81.93229ZM115.27812 81.93229Q115.27812 84.041664 115.77812 84.74479Q116.27812 85.447914 116.99687 85.447914Q117.73125 85.447914 118.21562 84.74479Q118.71562 84.041664 118.71562 81.93229Q118.71562 79.80729 118.21562 79.11979Q117.73125 78.416664 116.98125 78.416664Q116.2625 78.416664 115.825 79.02604Q115.27812 79.80729 115.27812 81.93229Z" fill-rule="nonzero"/><path fill="#000000" d="M123.7 658.0656Q123.7 656.53436 124.0125 655.6125Q124.325 654.675 124.93437 654.175Q125.55937 653.675 126.49687 653.675Q127.18437 653.675 127.7 653.95624Q128.23125 654.2375 128.575 654.76874Q128.91875 655.28436 129.10625 656.03436Q129.29375 656.78436 129.29375 658.0656Q129.29375 659.58124 128.98125 660.5031Q128.68437 661.425 128.05937 661.9406Q127.45 662.4406 126.49687 662.4406Q125.2625 662.4406 124.54375 661.55Q123.7 660.4875 123.7 658.0656ZM124.77812 658.0656Q124.77812 660.175 125.27812 660.8781Q125.77812 661.58124 126.49687 661.58124Q127.23125 661.58124 127.71562 660.8781Q128.21562 660.175 128.21562 658.0656Q128.21562 655.9406 127.71562 655.2531Q127.23125 654.55 126.48125 654.55Q125.7625 654.55 125.325 655.15936Q124.77812 655.9406 124.77812 658.0656Z" fill-rule="nonzero"/><path fill="#000000" d="M287.33917 661.28436L287.33917 662.3L281.65167 662.3Q281.65167 661.925 281.77667 661.5656Q281.99542 660.9875 282.46417 660.425Q282.94855 659.8625 283.8548 659.1281Q285.26105 657.97186 285.74542 657.3Q286.24542 656.6281 286.24542 656.03436Q286.24542 655.40936 285.7923 654.9875Q285.33917 654.55 284.62042 654.55Q283.8548 654.55 283.40167 655.0031Q282.94855 655.45624 282.93292 656.26874L281.8548 656.15936Q281.96417 654.9406 282.68292 654.3156Q283.4173 653.675 284.65167 653.675Q285.88605 653.675 286.6048 654.3625Q287.32355 655.05 287.32355 656.0656Q287.32355 656.58124 287.1048 657.08124Q286.90167 657.5656 286.40167 658.1281Q285.9173 658.675 284.7923 659.6281Q283.83917 660.425 283.55792 660.72186Q283.2923 661.0031 283.12042 661.28436L287.33917 661.28436Z" fill-rule="nonzero"/><path fill="#000000" d="M443.2596 662.3L443.2596 660.2375L439.54086 660.2375L439.54086 659.26874L443.46274 653.70624L444.3221 653.70624L444.3221 659.26874L445.47836 659.26874L445.47836 660.2375L444.3221 660.2375L444.3221 662.3L443.2596 662.3ZM443.2596 659.26874L443.2596 655.40936L440.5721 659.26874L443.2596 659.26874Z" fill-rule="nonzero"/><path fill="#000000" d="M603.4457 655.8156L602.3988 655.89374Q602.2582 655.26874 602.0082 654.9875Q601.5707 654.53436 600.9457 654.53436Q600.4457 654.53436 600.05505 654.8156Q599.5707 655.1906 599.2738 655.89374Q598.99255 656.58124 598.9769 657.8625Q599.3519 657.28436 599.8988 657.0031Q600.4613 656.72186 601.0707 656.72186Q602.11755 656.72186 602.8519 657.5031Q603.6019 658.28436 603.6019 659.5031Q603.6019 660.3156 603.24255 661.01874Q602.8988 661.70624 602.2894 662.08124Q601.68005 662.4406 600.9144 662.4406Q599.5863 662.4406 598.7582 661.47186Q597.93005 660.5031 597.93005 658.28436Q597.93005 655.78436 598.8519 654.65936Q599.6488 653.675 601.0082 653.675Q602.0238 653.675 602.6644 654.2531Q603.3207 654.8156 603.4457 655.8156ZM599.1488 659.51874Q599.1488 660.0656 599.36755 660.5656Q599.6019 661.05 600.0082 661.3156Q600.43005 661.58124 600.8988 661.58124Q601.55505 661.58124 602.0394 661.05Q602.5238 660.5031 602.5238 659.58124Q602.5238 658.6906 602.0394 658.175Q601.5707 657.65936 600.8519 657.65936Q600.1332 657.65936 599.6332 658.175Q599.1488 658.6906 599.1488 659.51874Z" fill-rule="nonzero"/><path fill="#000000" d="M757.6942 657.64374Q757.03796 657.39374 756.70984 656.95624Q756.39734 656.5031 756.39734 655.89374Q756.39734 654.95624 757.0692 654.3156Q757.7567 653.675 758.8661 653.675Q759.9911 653.675 760.6786 654.33124Q761.3661 654.9875 761.3661 655.925Q761.3661 656.51874 761.0536 656.95624Q760.7411 657.39374 760.10046 657.64374Q760.89734 657.89374 761.3036 658.47186Q761.70984 659.05 761.70984 659.84686Q761.70984 660.9406 760.9286 661.6906Q760.16296 662.4406 758.8817 662.4406Q757.6161 662.4406 756.83484 661.6906Q756.0536 660.9406 756.0536 659.8156Q756.0536 658.97186 756.47546 658.40936Q756.91296 657.84686 757.6942 657.64374ZM757.47546 655.84686Q757.47546 656.45624 757.8661 656.84686Q758.27234 657.2375 758.89734 657.2375Q759.5067 657.2375 759.89734 656.8625Q760.28796 656.47186 760.28796 655.90936Q760.28796 655.33124 759.8817 654.9406Q759.47546 654.53436 758.8817 654.53436Q758.27234 654.53436 757.8661 654.925Q757.47546 655.3156 757.47546 655.84686ZM757.14734 659.8156Q757.14734 660.26874 757.35046 660.6906Q757.5692 661.1125 757.9911 661.34686Q758.41296 661.58124 758.89734 661.58124Q759.64734 661.58124 760.1317 661.09686Q760.6317 660.6125 760.6317 659.8625Q760.6317 659.09686 760.1317 658.59686Q759.6317 658.09686 758.8661 658.09686Q758.1161 658.09686 757.6317 658.59686Q757.14734 659.08124 757.14734 659.8156Z" fill-rule="nonzero"/><path fill="#000000" d="M914.6303 662.3L913.58344 662.3L913.58344 655.58124Q913.1928 655.9406 912.5678 656.3156Q911.95844 656.675 911.47406 656.84686L911.47406 655.83124Q912.34906 655.40936 913.0053 654.83124Q913.6772 654.2375 913.95844 653.675L914.6303 653.675L914.6303 662.3ZM917.66156 658.0656Q917.66156 656.53436 917.97406 655.6125Q918.28656 654.675 918.89594 654.175Q919.52094 653.675 920.45844 653.675Q921.14594 653.675 921.66156 653.95624Q922.1928 654.2375 922.53656 654.76874Q922.8803 655.28436 923.0678 656.03436Q923.2553 656.78436 923.2553 658.0656Q923.2553 659.58124 922.9428 660.5031Q922.64594 661.425 922.02094 661.9406Q921.41156 662.4406 920.45844 662.4406Q919.22406 662.4406 918.5053 661.55Q917.66156 660.4875 917.66156 658.0656ZM918.7397 658.0656Q918.7397 660.175 919.2397 660.8781Q919.7397 661.58124 920.45844 661.58124Q921.1928 661.58124 921.6772 660.8781Q922.1772 660.175 922.1772 658.0656Q922.1772 655.9406 921.6772 655.2531Q921.1928 654.55 920.4428 654.55Q919.72406 654.55 919.28656 655.15936Q918.7397 655.9406 918.7397 658.0656Z" fill-rule="nonzero"/><path fill="#000000" d="M1072.7227 662.3L1071.6758 662.3L1071.6758 655.58124Q1071.2852 655.9406 1070.6602 656.3156Q1070.0508 656.675 1069.5664 656.84686L1069.5664 655.83124Q1070.4414 655.40936 1071.0977 654.83124Q1071.7695 654.2375 1072.0508 653.675L1072.7227 653.675L1072.7227 662.3ZM1081.3008 661.28436L1081.3008 662.3L1075.6133 662.3Q1075.6133 661.925 1075.7383 661.5656Q1075.957 660.9875 1076.4258 660.425Q1076.9102 659.8625 1077.8164 659.1281Q1079.2227 657.97186 1079.707 657.3Q1080.207 656.6281 1080.207 656.03436Q1080.207 655.40936 1079.7539 654.9875Q1079.3008 654.55 1078.582 654.55Q1077.8164 654.55 1077.3633 655.0031Q1076.9102 655.45624 1076.8945 656.26874L1075.8164 656.15936Q1075.9258 654.9406 1076.6445 654.3156Q1077.3789 653.675 1078.6133 653.675Q1079.8477 653.675 1080.5664 654.3625Q1081.2852 655.05 1081.2852 656.0656Q1081.2852 656.58124 1081.0664 657.08124Q1080.8633 657.5656 1080.3633 658.1281Q1079.8789 658.675 1078.7539 659.6281Q1077.8008 660.425 1077.5195 660.72186Q1077.2539 661.0031 1077.082 661.28436L1081.3008 661.28436Z" fill-rule="nonzero"/><path stroke="#4285f4" stroke-width="4.0" stroke-linecap="butt" d="M383.0 43.7L395.0 43.7" fill-rule="nonzero"/><path fill="#1a1a1a" d="M404.70312 39.10625L409.9375 39.10625L409.9375 46.684376L410.70312 46.684376L410.70312 49.7L409.6875 49.7L409.6875 47.7L404.01562 47.7L404.01562 49.7L403.0 49.7L403.0 46.684376L403.67188 46.684376Q404.70312 45.121876 404.70312 40.35625L404.70312 39.10625ZM408.79688 40.121876L405.79688 40.121876L405.79688 40.559376Q405.79688 41.653126 405.59375 43.559376Q405.40625 45.465626 404.82812 46.684376L408.79688 46.684376L408.79688 40.121876ZM415.85938 46.934376Q415.26562 47.434376 414.71875 47.6375Q414.1875 47.840626 413.5625 47.840626Q412.53125 47.840626 411.98438 47.340626Q411.4375 46.840626 411.4375 46.059376Q411.4375 45.60625 411.64062 45.23125Q411.84375 44.840626 412.1875 44.621876Q412.53125 44.3875 412.95312 44.278126Q413.25 44.184376 413.89062 44.10625Q415.15625 43.965626 415.76562 43.746876Q415.76562 43.528126 415.76562 43.48125Q415.76562 42.825 415.46875 42.559376Q415.0625 42.215626 414.26562 42.215626Q413.53125 42.215626 413.17188 42.48125Q412.8125 42.73125 412.64062 43.3875L411.60938 43.246876Q411.75 42.590626 412.07812 42.184376Q412.40625 41.778126 413.01562 41.559376Q413.625 41.340626 414.42188 41.340626Q415.21875 41.340626 415.71875 41.528126Q416.21875 41.715626 416.45312 41.996876Q416.6875 42.278126 416.78125 42.715626Q416.82812 42.98125 416.82812 43.684376L416.82812 45.090626Q416.82812 46.559376 416.89062 46.95Q416.96875 47.340626 417.17188 47.7L416.0625 47.7Q415.90625 47.371876 415.85938 46.934376ZM415.76562 44.575Q415.1875 44.809376 414.04688 44.98125Q413.39062 45.075 413.125 45.2Q412.85938 45.309376 412.70312 45.528126Q412.5625 45.746876 412.5625 46.028126Q412.5625 46.45 412.875 46.73125Q413.20312 47.0125 413.8125 47.0125Q414.42188 47.0125 414.89062 46.746876Q415.375 46.48125 415.59375 46.0125Q415.76562 45.653126 415.76562 44.965626L415.76562 44.575ZM418.82812 41.48125L420.46875 41.48125L422.09375 46.45L423.90625 41.48125L425.4375 41.48125L425.4375 47.7L424.375 47.7L424.375 42.684376L422.53125 47.7L421.59375 47.7L419.85938 42.45L419.85938 47.7L418.82812 47.7L418.82812 41.48125ZM432.04688 45.7L433.14062 45.825Q432.89062 46.778126 432.1875 47.309376Q431.48438 47.840626 430.40625 47.840626Q429.04688 47.840626 428.23438 46.996876Q427.4375 46.153126 427.4375 44.6375Q427.4375 43.075 428.25 42.215626Q429.0625 41.340626 430.34375 41.340626Q431.59375 41.340626 432.375 42.184376Q433.17188 43.028126 433.17188 44.575Q433.17188 44.66875 433.17188 44.85625L428.53125 44.85625Q428.59375 45.8875 429.10938 46.434376Q429.625 46.965626 430.40625 46.965626Q430.98438 46.965626 431.39062 46.66875Q431.8125 46.35625 432.04688 45.7ZM428.59375 43.996876L432.0625 43.996876Q432.0 43.2 431.67188 42.809376Q431.15625 42.2 430.35938 42.2Q429.625 42.2 429.125 42.684376Q428.64062 43.16875 428.59375 43.996876ZM434.79688 50.090626L434.79688 41.48125L435.75 41.48125L435.75 42.278126Q436.09375 41.809376 436.51562 41.575Q436.95312 41.340626 437.5625 41.340626Q438.35938 41.340626 438.96875 41.746876Q439.57812 42.153126 439.875 42.903126Q440.1875 43.653126 440.1875 44.54375Q440.1875 45.496876 439.84375 46.2625Q439.51562 47.028126 438.85938 47.434376Q438.20312 47.840626 437.48438 47.840626Q436.95312 47.840626 436.53125 47.621876Q436.10938 47.3875 435.84375 47.059376L435.84375 50.090626L434.79688 50.090626ZM435.75 44.621876Q435.75 45.825 436.23438 46.403126Q436.71875 46.965626 437.40625 46.965626Q438.10938 46.965626 438.60938 46.371876Q439.10938 45.778126 439.10938 44.528126Q439.10938 43.340626 438.625 42.7625Q438.14062 42.16875 437.45312 42.16875Q436.78125 42.16875 436.26562 42.79375Q435.75 43.41875 435.75 44.621876ZM445.85938 46.934376Q445.26562 47.434376 444.71875 47.6375Q444.1875 47.840626 443.5625 47.840626Q442.53125 47.840626 441.98438 47.340626Q441.4375 46.840626 441.4375 46.059376Q441.4375 45.60625 441.64062 45.23125Q441.84375 44.840626 442.1875 44.621876Q442.53125 44.3875 442.95312 44.278126Q443.25 44.184376 443.89062 44.10625Q445.15625 43.965626 445.76562 43.746876Q445.76562 43.528126 445.76562 43.48125Q445.76562 42.825 445.46875 42.559376Q445.0625 42.215626 444.26562 42.215626Q443.53125 42.215626 443.17188 42.48125Q442.8125 42.73125 442.64062 43.3875L441.60938 43.246876Q441.75 42.590626 442.07812 42.184376Q442.40625 41.778126 443.01562 41.559376Q443.625 41.340626 444.42188 41.340626Q445.21875 41.340626 445.71875 41.528126Q446.21875 41.715626 446.45312 41.996876Q446.6875 42.278126 446.78125 42.715626Q446.82812 42.98125 446.82812 43.684376L446.82812 45.090626Q446.82812 46.559376 446.89062 46.95Q446.96875 47.340626 447.17188 47.7L446.0625 47.7Q445.90625 47.371876 445.85938 46.934376ZM445.76562 44.575Q445.1875 44.809376 444.04688 44.98125Q443.39062 45.075 443.125 45.2Q442.85938 45.309376 442.70312 45.528126Q442.5625 45.746876 442.5625 46.028126Q442.5625 46.45 442.875 46.73125Q443.20312 47.0125 443.8125 47.0125Q444.42188 47.0125 444.89062 46.746876Q445.375 46.48125 445.59375 46.0125Q445.76562 45.653126 445.76562 44.965626L445.76562 44.575ZM448.75 50.090626L448.625 49.10625Q448.96875 49.2 449.23438 49.2Q449.57812 49.2 449.78125 49.075Q450.0 48.965626 450.14062 48.7625Q450.23438 48.590626 450.46875 47.965626Q450.48438 47.8875 450.5625 47.715626L448.1875 41.48125L449.32812 41.48125L450.625 45.075Q450.875 45.7625 451.07812 46.528126Q451.26562 45.79375 451.51562 45.10625L452.84375 41.48125L453.89062 41.48125L451.53125 47.809376Q451.14062 48.825 450.9375 49.215626Q450.65625 49.746876 450.28125 49.98125Q449.92188 50.23125 449.42188 50.23125Q449.125 50.23125 448.75 50.090626ZM453.375 45.121876L453.375 44.059376L456.625 44.059376L456.625 45.121876L453.375 45.121876ZM458.54688 39.10625L463.9375 39.10625L463.9375 47.7L462.79688 47.7L462.79688 40.121876L459.6875 40.121876L459.6875 44.54375Q459.6875 45.8875 459.5625 46.528126Q459.4375 47.153126 459.03125 47.496876Q458.625 47.840626 458.01562 47.840626Q457.64062 47.840626 457.10938 47.7L457.29688 46.7Q457.57812 46.809376 457.78125 46.809376Q458.17188 46.809376 458.35938 46.528126Q458.54688 46.23125 458.54688 45.153126L458.54688 39.10625ZM470.04688 45.7L471.14062 45.825Q470.89062 46.778126 470.1875 47.309376Q469.48438 47.840626 468.40625 47.840626Q467.04688 47.840626 466.23438 46.996876Q465.4375 46.153126 465.4375 44.6375Q465.4375 43.075 466.25 42.215626Q467.0625 41.340626 468.34375 41.340626Q469.59375 41.340626 470.375 42.184376Q471.17188 43.028126 471.17188 44.575Q471.17188 44.66875 471.17188 44.85625L466.53125 44.85625Q466.59375 45.8875 467.10938 46.434376Q467.625 46.965626 468.40625 46.965626Q468.98438 46.965626 469.39062 46.66875Q469.8125 46.35625 470.04688 45.7ZM466.59375 43.996876L470.0625 43.996876Q470.0 43.2 469.67188 42.809376Q469.15625 42.2 468.35938 42.2Q467.625 42.2 467.125 42.684376Q466.64062 43.16875 466.59375 43.996876ZM472.79688 41.48125L475.23438 41.48125Q476.125 41.48125 476.5625 41.6375Q477.0 41.778126 477.3125 42.184376Q477.625 42.575 477.625 43.121876Q477.625 43.575 477.4375 43.903126Q477.25 44.23125 476.89062 44.465626Q477.32812 44.60625 477.60938 45.0125Q477.90625 45.403126 477.90625 45.965626Q477.84375 46.840626 477.26562 47.278126Q476.70312 47.7 475.60938 47.7L472.79688 47.7L472.79688 41.48125ZM473.85938 44.090626L474.98438 44.090626Q475.65625 44.090626 475.90625 44.028126Q476.15625 43.95 476.34375 43.746876Q476.54688 43.528126 476.54688 43.23125Q476.54688 42.73125 476.20312 42.54375Q475.85938 42.35625 475.01562 42.35625L473.85938 42.35625L473.85938 44.090626ZM473.85938 46.825L475.23438 46.825Q476.14062 46.825 476.46875 46.621876Q476.8125 46.41875 476.82812 45.903126Q476.82812 45.60625 476.625 45.35625Q476.4375 45.090626 476.125 45.028126Q475.8125 44.965626 475.125 44.965626L473.85938 44.965626L473.85938 46.825ZM483.04688 45.7L484.14062 45.825Q483.89062 46.778126 483.1875 47.309376Q482.48438 47.840626 481.40625 47.840626Q480.04688 47.840626 479.23438 46.996876Q478.4375 46.153126 478.4375 44.6375Q478.4375 43.075 479.25 42.215626Q480.0625 41.340626 481.34375 41.340626Q482.59375 41.340626 483.375 42.184376Q484.17188 43.028126 484.17188 44.575Q484.17188 44.66875 484.17188 44.85625L479.53125 44.85625Q479.59375 45.8875 480.10938 46.434376Q480.625 46.965626 481.40625 46.965626Q481.98438 46.965626 482.39062 46.66875Q482.8125 46.35625 483.04688 45.7ZM479.59375 43.996876L483.0625 43.996876Q483.0 43.2 482.67188 42.809376Q482.15625 42.2 481.35938 42.2Q480.625 42.2 480.125 42.684376Q479.64062 43.16875 479.59375 43.996876ZM485.79688 41.48125L486.85938 41.48125L486.85938 44.059376L489.78125 44.059376L489.78125 41.48125L490.82812 41.48125L490.82812 47.7L489.78125 47.7L489.78125 44.934376L486.85938 44.934376L486.85938 47.7L485.79688 47.7L485.79688 41.48125ZM492.82812 41.48125L493.875 41.48125L493.875 46.825L496.28125 46.825L496.28125 41.48125L497.34375 41.48125L497.34375 46.825L499.75 46.825L499.75 41.48125L500.79688 41.48125L500.79688 47.7L492.82812 47.7L492.82812 41.48125ZM501.21875 41.48125L506.28125 41.48125L506.28125 42.35625L504.28125 42.35625L504.28125 47.7L503.23438 47.7L503.23438 42.35625L501.21875 42.35625L501.21875 41.48125ZM511.04688 45.7L512.1406 45.825Q511.89062 46.778126 511.1875 47.309376Q510.48438 47.840626 509.40625 47.840626Q508.04688 47.840626 507.23438 46.996876Q506.4375 46.153126 506.4375 44.6375Q506.4375 43.075 507.25 42.215626Q508.0625 41.340626 509.34375 41.340626Q510.59375 41.340626 511.375 42.184376Q512.1719 43.028126 512.1719 44.575Q512.1719 44.66875 512.1719 44.85625L507.53125 44.85625Q507.59375 45.8875 508.10938 46.434376Q508.625 46.965626 509.40625 46.965626Q509.98438 46.965626 510.39062 46.66875Q510.8125 46.35625 511.04688 45.7ZM507.59375 43.996876L511.0625 43.996876Q511.0 43.2 510.67188 42.809376Q510.15625 42.2 509.35938 42.2Q508.625 42.2 508.125 42.684376Q507.64062 43.16875 507.59375 43.996876ZM513.7969 41.48125L514.84375 41.48125L514.84375 46.215626L517.7656 41.48125L518.90625 41.48125L518.90625 47.7L517.8594 47.7L517.8594 42.98125L514.9219 47.7L513.7969 47.7L513.7969 41.48125ZM517.4531 39.121876L518.1719 39.121876Q518.0781 39.85625 517.625 40.246876Q517.1875 40.6375 516.4375 40.6375Q515.6875 40.6375 515.2344 40.246876Q514.7969 39.85625 514.7031 39.121876L515.4219 39.121876Q515.5156 39.5125 515.75 39.715626Q516.0 39.91875 516.40625 39.91875Q516.875 39.91875 517.125 39.73125Q517.375 39.528126 517.4531 39.121876ZM520.7969 41.48125L521.8594 41.48125L521.8594 44.059376L524.78125 44.059376L524.78125 41.48125L525.8281 41.48125L525.8281 47.7L524.78125 47.7L524.78125 44.934376L521.8594 44.934376L521.8594 47.7L520.7969 47.7L520.7969 41.48125Z" fill-rule="nonzero"/><path stroke="#ea4335" stroke-width="4.0" stroke-linecap="butt" d="M543.0 43.7L555.0 43.7" fill-rule="nonzero"/><path fill="#1a1a1a" d="M564.7031 39.10625L569.9375 39.10625L569.9375 46.684376L570.7031 46.684376L570.7031 49.7L569.6875 49.7L569.6875 47.7L564.0156 47.7L564.0156 49.7L563.0 49.7L563.0 46.684376L563.6719 46.684376Q564.7031 45.121876 564.7031 40.35625L564.7031 39.10625ZM568.7969 40.121876L565.7969 40.121876L565.7969 40.559376Q565.7969 41.653126 565.59375 43.559376Q565.40625 45.465626 564.8281 46.684376L568.7969 46.684376L568.7969 40.121876ZM575.8594 46.934376Q575.2656 47.434376 574.71875 47.6375Q574.1875 47.840626 573.5625 47.840626Q572.53125 47.840626 571.9844 47.340626Q571.4375 46.840626 571.4375 46.059376Q571.4375 45.60625 571.6406 45.23125Q571.84375 44.840626 572.1875 44.621876Q572.53125 44.3875 572.9531 44.278126Q573.25 44.184376 573.8906 44.10625Q575.15625 43.965626 575.7656 43.746876Q575.7656 43.528126 575.7656 43.48125Q575.7656 42.825 575.46875 42.559376Q575.0625 42.215626 574.2656 42.215626Q573.53125 42.215626 573.1719 42.48125Q572.8125 42.73125 572.6406 43.3875L571.6094 43.246876Q571.75 42.590626 572.0781 42.184376Q572.40625 41.778126 573.0156 41.559376Q573.625 41.340626 574.4219 41.340626Q575.21875 41.340626 575.71875 41.528126Q576.21875 41.715626 576.4531 41.996876Q576.6875 42.278126 576.78125 42.715626Q576.8281 42.98125 576.8281 43.684376L576.8281 45.090626Q576.8281 46.559376 576.8906 46.95Q576.96875 47.340626 577.1719 47.7L576.0625 47.7Q575.90625 47.371876 575.8594 46.934376ZM575.7656 44.575Q575.1875 44.809376 574.0469 44.98125Q573.3906 45.075 573.125 45.2Q572.8594 45.309376 572.7031 45.528126Q572.5625 45.746876 572.5625 46.028126Q572.5625 46.45 572.875 46.73125Q573.2031 47.0125 573.8125 47.0125Q574.4219 47.0125 574.8906 46.746876Q575.375 46.48125 575.59375 46.0125Q575.7656 45.653126 575.7656 44.965626L575.7656 44.575ZM578.8281 41.48125L580.46875 41.48125L582.09375 46.45L583.90625 41.48125L585.4375 41.48125L585.4375 47.7L584.375 47.7L584.375 42.684376L582.53125 47.7L581.59375 47.7L579.8594 42.45L579.8594 47.7L578.8281 47.7L578.8281 41.48125ZM592.0469 45.7L593.1406 45.825Q592.8906 46.778126 592.1875 47.309376Q591.4844 47.840626 590.40625 47.840626Q589.0469 47.840626 588.2344 46.996876Q587.4375 46.153126 587.4375 44.6375Q587.4375 43.075 588.25 42.215626Q589.0625 41.340626 590.34375 41.340626Q591.59375 41.340626 592.375 42.184376Q593.1719 43.028126 593.1719 44.575Q593.1719 44.66875 593.1719 44.85625L588.53125 44.85625Q588.59375 45.8875 589.1094 46.434376Q589.625 46.965626 590.40625 46.965626Q590.9844 46.965626 591.3906 46.66875Q591.8125 46.35625 592.0469 45.7ZM588.59375 43.996876L592.0625 43.996876Q592.0 43.2 591.6719 42.809376Q591.15625 42.2 590.3594 42.2Q589.625 42.2 589.125 42.684376Q588.6406 43.16875 588.59375 43.996876ZM594.7969 50.090626L594.7969 41.48125L595.75 41.48125L595.75 42.278126Q596.09375 41.809376 596.5156 41.575Q596.9531 41.340626 597.5625 41.340626Q598.3594 41.340626 598.96875 41.746876Q599.5781 42.153126 599.875 42.903126Q600.1875 43.653126 600.1875 44.54375Q600.1875 45.496876 599.84375 46.2625Q599.5156 47.028126 598.8594 47.434376Q598.2031 47.840626 597.4844 47.840626Q596.9531 47.840626 596.53125 47.621876Q596.1094 47.3875 595.84375 47.059376L595.84375 50.090626L594.7969 50.090626ZM595.75 44.621876Q595.75 45.825 596.2344 46.403126Q596.71875 46.965626 597.40625 46.965626Q598.1094 46.965626 598.6094 46.371876Q599.1094 45.778126 599.1094 44.528126Q599.1094 43.340626 598.625 42.7625Q598.1406 42.16875 597.4531 42.16875Q596.78125 42.16875 596.2656 42.79375Q595.75 43.41875 595.75 44.621876ZM605.8594 46.934376Q605.2656 47.434376 604.71875 47.6375Q604.1875 47.840626 603.5625 47.840626Q602.53125 47.840626 601.9844 47.340626Q601.4375 46.840626 601.4375 46.059376Q601.4375 45.60625 601.6406 45.23125Q601.84375 44.840626 602.1875 44.621876Q602.53125 44.3875 602.9531 44.278126Q603.25 44.184376 603.8906 44.10625Q605.15625 43.965626 605.7656 43.746876Q605.7656 43.528126 605.7656 43.48125Q605.7656 42.825 605.46875 42.559376Q605.0625 42.215626 604.2656 42.215626Q603.53125 42.215626 603.1719 42.48125Q602.8125 42.73125 602.6406 43.3875L601.6094 43.246876Q601.75 42.590626 602.0781 42.184376Q602.40625 41.778126 603.0156 41.559376Q603.625 41.340626 604.4219 41.340626Q605.21875 41.340626 605.71875 41.528126Q606.21875 41.715626 606.4531 41.996876Q606.6875 42.278126 606.78125 42.715626Q606.8281 42.98125 606.8281 43.684376L606.8281 45.090626Q606.8281 46.559376 606.8906 46.95Q606.96875 47.340626 607.1719 47.7L606.0625 47.7Q605.90625 47.371876 605.8594 46.934376ZM605.7656 44.575Q605.1875 44.809376 604.0469 44.98125Q603.3906 45.075 603.125 45.2Q602.8594 45.309376 602.7031 45.528126Q602.5625 45.746876 602.5625 46.028126Q602.5625 46.45 602.875 46.73125Q603.2031 47.0125 603.8125 47.0125Q604.4219 47.0125 604.8906 46.746876Q605.375 46.48125 605.59375 46.0125Q605.7656 45.653126 605.7656 44.965626L605.7656 44.575ZM608.75 50.090626L608.625 49.10625Q608.96875 49.2 609.2344 49.2Q609.5781 49.2 609.78125 49.075Q610.0 48.965626 610.1406 48.7625Q610.2344 48.590626 610.46875 47.965626Q610.4844 47.8875 610.5625 47.715626L608.1875 41.48125L609.3281 41.48125L610.625 45.075Q610.875 45.7625 611.0781 46.528126Q611.2656 45.79375 611.5156 45.10625L612.84375 41.48125L613.8906 41.48125L611.53125 47.809376Q611.1406 48.825 610.9375 49.215626Q610.65625 49.746876 610.28125 49.98125Q609.9219 50.23125 609.4219 50.23125Q609.125 50.23125 608.75 50.090626ZM613.375 45.121876L613.375 44.059376L616.625 44.059376L616.625 45.121876L613.375 45.121876ZM618.5469 39.10625L623.9375 39.10625L623.9375 47.7L622.7969 47.7L622.7969 40.121876L619.6875 40.121876L619.6875 44.54375Q619.6875 45.8875 619.5625 46.528126Q619.4375 47.153126 619.03125 47.496876Q618.625 47.840626 618.0156 47.840626Q617.6406 47.840626 617.1094 47.7L617.2969 46.7Q617.5781 46.809376 617.78125 46.809376Q618.1719 46.809376 618.3594 46.528126Q618.5469 46.23125 618.5469 45.153126L618.5469 39.10625ZM630.0469 45.7L631.1406 45.825Q630.8906 46.778126 630.1875 47.309376Q629.4844 47.840626 628.40625 47.840626Q627.0469 47.840626 626.2344 46.996876Q625.4375 46.153126 625.4375 44.6375Q625.4375 43.075 626.25 42.215626Q627.0625 41.340626 628.34375 41.340626Q629.59375 41.340626 630.375 42.184376Q631.1719 43.028126 631.1719 44.575Q631.1719 44.66875 631.1719 44.85625L626.53125 44.85625Q626.59375 45.8875 627.1094 46.434376Q627.625 46.965626 628.40625 46.965626Q628.9844 46.965626 629.3906 46.66875Q629.8125 46.35625 630.0469 45.7ZM626.59375 43.996876L630.0625 43.996876Q630.0 43.2 629.6719 42.809376Q629.15625 42.2 628.3594 42.2Q627.625 42.2 627.125 42.684376Q626.6406 43.16875 626.59375 43.996876ZM632.7969 41.48125L635.2344 41.48125Q636.125 41.48125 636.5625 41.6375Q637.0 41.778126 637.3125 42.184376Q637.625 42.575 637.625 43.121876Q637.625 43.575 637.4375 43.903126Q637.25 44.23125 636.8906 44.465626Q637.3281 44.60625 637.6094 45.0125Q637.90625 45.403126 637.90625 45.965626Q637.84375 46.840626 637.2656 47.278126Q636.7031 47.7 635.6094 47.7L632.7969 47.7L632.7969 41.48125ZM633.8594 44.090626L634.9844 44.090626Q635.65625 44.090626 635.90625 44.028126Q636.15625 43.95 636.34375 43.746876Q636.5469 43.528126 636.5469 43.23125Q636.5469 42.73125 636.2031 42.54375Q635.8594 42.35625 635.0156 42.35625L633.8594 42.35625L633.8594 44.090626ZM633.8594 46.825L635.2344 46.825Q636.1406 46.825 636.46875 46.621876Q636.8125 46.41875 636.8281 45.903126Q636.8281 45.60625 636.625 45.35625Q636.4375 45.090626 636.125 45.028126Q635.8125 44.965626 635.125 44.965626L633.8594 44.965626L633.8594 46.825ZM643.0469 45.7L644.1406 45.825Q643.8906 46.778126 643.1875 47.309376Q642.4844 47.840626 641.40625 47.840626Q640.0469 47.840626 639.2344 46.996876Q638.4375 46.153126 638.4375 44.6375Q638.4375 43.075 639.25 42.215626Q640.0625 41.340626 641.34375 41.340626Q642.59375 41.340626 643.375 42.184376Q644.1719 43.028126 644.1719 44.575Q644.1719 44.66875 644.1719 44.85625L639.53125 44.85625Q639.59375 45.8875 640.1094 46.434376Q640.625 46.965626 641.40625 46.965626Q641.9844 46.965626 642.3906 46.66875Q642.8125 46.35625 643.0469 45.7ZM639.59375 43.996876L643.0625 43.996876Q643.0 43.2 642.6719 42.809376Q642.15625 42.2 641.3594 42.2Q640.625 42.2 640.125 42.684376Q639.6406 43.16875 639.59375 43.996876ZM645.7969 41.48125L646.8594 41.48125L646.8594 44.059376L649.78125 44.059376L649.78125 41.48125L650.8281 41.48125L650.8281 47.7L649.78125 47.7L649.78125 44.934376L646.8594 44.934376L646.8594 47.7L645.7969 47.7L645.7969 41.48125ZM652.8281 41.48125L653.875 41.48125L653.875 46.825L656.28125 46.825L656.28125 41.48125L657.34375 41.48125L657.34375 46.825L659.75 46.825L659.75 41.48125L660.7969 41.48125L660.7969 47.7L652.8281 47.7L652.8281 41.48125ZM661.21875 41.48125L666.28125 41.48125L666.28125 42.35625L664.28125 42.35625L664.28125 47.7L663.2344 47.7L663.2344 42.35625L661.21875 42.35625L661.21875 41.48125ZM671.0469 45.7L672.1406 45.825Q671.8906 46.778126 671.1875 47.309376Q670.4844 47.840626 669.40625 47.840626Q668.0469 47.840626 667.2344 46.996876Q666.4375 46.153126 666.4375 44.6375Q666.4375 43.075 667.25 42.215626Q668.0625 41.340626 669.34375 41.340626Q670.59375 41.340626 671.375 42.184376Q672.1719 43.028126 672.1719 44.575Q672.1719 44.66875 672.1719 44.85625L667.53125 44.85625Q667.59375 45.8875 668.1094 46.434376Q668.625 46.965626 669.40625 46.965626Q669.9844 46.965626 670.3906 46.66875Q670.8125 46.35625 671.0469 45.7ZM667.59375 43.996876L671.0625 43.996876Q671.0 43.2 670.6719 42.809376Q670.15625 42.2 669.3594 42.2Q668.625 42.2 668.125 42.684376Q667.6406 43.16875 667.59375 43.996876ZM673.7969 41.48125L674.84375 41.48125L674.84375 46.215626L677.7656 41.48125L678.90625 41.48125L678.90625 47.7L677.8594 47.7L677.8594 42.98125L674.9219 47.7L673.7969 47.7L673.7969 41.48125ZM677.4531 39.121876L678.1719 39.121876Q678.0781 39.85625 677.625 40.246876Q677.1875 40.6375 676.4375 40.6375Q675.6875 40.6375 675.2344 40.246876Q674.7969 39.85625 674.7031 39.121876L675.4219 39.121876Q675.5156 39.5125 675.75 39.715626Q676.0 39.91875 676.40625 39.91875Q676.875 39.91875 677.125 39.73125Q677.375 39.528126 677.4531 39.121876ZM680.7969 41.48125L681.8594 41.48125L681.8594 44.059376L684.78125 44.059376L684.78125 41.48125L685.8281 41.48125L685.8281 47.7L684.78125 47.7L684.78125 44.934376L681.8594 44.934376L681.8594 47.7L680.7969 47.7L680.7969 41.48125ZM694.8594 45.41875L695.8906 45.559376Q695.71875 46.621876 695.0156 47.23125Q694.3125 47.840626 693.2969 47.840626Q692.0156 47.840626 691.2344 47.0125Q690.46875 46.16875 690.46875 44.60625Q690.46875 43.60625 690.7969 42.85625Q691.1406 42.090626 691.8125 41.715626Q692.5 41.340626 693.3125 41.340626Q694.3125 41.340626 694.9531 41.85625Q695.6094 42.35625 695.7969 43.309376L694.7656 43.465626Q694.625 42.840626 694.25 42.528126Q693.875 42.2 693.34375 42.2Q692.5469 42.2 692.0469 42.778126Q691.5469 43.340626 691.5469 44.575Q691.5469 45.840626 692.03125 46.403126Q692.5156 46.965626 693.28125 46.965626Q693.90625 46.965626 694.3125 46.590626Q694.7344 46.215626 694.8594 45.41875ZM699.7969 50.090626L699.7969 41.48125L700.75 41.48125L700.75 42.278126Q701.09375 41.809376 701.5156 41.575Q701.9531 41.340626 702.5625 41.340626Q703.3594 41.340626 703.96875 41.746876Q704.5781 42.153126 704.875 42.903126Q705.1875 43.653126 705.1875 44.54375Q705.1875 45.496876 704.84375 46.2625Q704.5156 47.028126 703.8594 47.434376Q703.2031 47.840626 702.4844 47.840626Q701.9531 47.840626 701.53125 47.621876Q701.1094 47.3875 700.84375 47.059376L700.84375 50.090626L699.7969 50.090626ZM700.75 44.621876Q700.75 45.825 701.2344 46.403126Q701.71875 46.965626 702.40625 46.965626Q703.1094 46.965626 703.6094 46.371876Q704.1094 45.778126 704.1094 44.528126Q704.1094 43.340626 703.625 42.7625Q703.1406 42.16875 702.4531 42.16875Q701.78125 42.16875 701.2656 42.79375Q700.75 43.41875 700.75 44.621876ZM711.0469 45.7L712.1406 45.825Q711.8906 46.778126 711.1875 47.309376Q710.4844 47.840626 709.40625 47.840626Q708.0469 47.840626 707.2344 46.996876Q706.4375 46.153126 706.4375 44.6375Q706.4375 43.075 707.25 42.215626Q708.0625 41.340626 709.34375 41.340626Q710.59375 41.340626 711.375 42.184376Q712.1719 43.028126 712.1719 44.575Q712.1719 44.66875 712.1719 44.85625L707.53125 44.85625Q707.59375 45.8875 708.1094 46.434376Q708.625 46.965626 709.40625 46.965626Q709.9844 46.965626 710.3906 46.66875Q710.8125 46.35625 711.0469 45.7ZM707.59375 43.996876L711.0625 43.996876Q711.0 43.2 710.6719 42.809376Q710.15625 42.2 709.3594 42.2Q708.625 42.2 708.125 42.684376Q707.6406 43.16875 707.59375 43.996876ZM713.78125 41.48125L714.84375 41.48125L714.84375 44.16875Q715.34375 44.16875 715.5469 43.98125Q715.75 43.778126 716.1406 42.840626Q716.4531 42.10625 716.6406 41.871876Q716.84375 41.6375 717.09375 41.559376Q717.34375 41.48125 717.90625 41.48125L718.1094 41.48125L718.1094 42.35625L717.8125 42.340626Q717.40625 42.340626 717.28125 42.465626Q717.15625 42.590626 716.90625 43.23125Q716.6719 43.840626 716.46875 44.075Q716.2656 44.309376 715.8594 44.5125Q716.53125 44.684376 717.1875 45.778126L718.34375 47.7L717.1875 47.7L716.0625 45.778126Q715.71875 45.184376 715.4531 45.0125Q715.2031 44.825 714.84375 44.825L714.84375 47.7L713.78125 47.7L713.78125 41.48125ZM719.75 50.090626L719.625 49.10625Q719.96875 49.2 720.2344 49.2Q720.5781 49.2 720.78125 49.075Q721.0 48.965626 721.1406 48.7625Q721.2344 48.590626 721.46875 47.965626Q721.4844 47.8875 721.5625 47.715626L719.1875 41.48125L720.3281 41.48125L721.625 45.075Q721.875 45.7625 722.0781 46.528126Q722.2656 45.79375 722.5156 45.10625L723.84375 41.48125L724.8906 41.48125L722.53125 47.809376Q722.1406 48.825 721.9375 49.215626Q721.65625 49.746876 721.28125 49.98125Q720.9219 50.23125 720.4219 50.23125Q720.125 50.23125 719.75 50.090626ZM724.7969 50.090626L724.7969 41.48125L725.75 41.48125L725.75 42.278126Q726.09375 41.809376 726.5156 41.575Q726.9531 41.340626 727.5625 41.340626Q728.3594 41.340626 728.96875 41.746876Q729.5781 42.153126 729.875 42.903126Q730.1875 43.653126 730.1875 44.54375Q730.1875 45.496876 729.84375 46.2625Q729.5156 47.028126 728.8594 47.434376Q728.2031 47.840626 727.4844 47.840626Q726.9531 47.840626 726.53125 47.621876Q726.1094 47.3875 725.84375 47.059376L725.84375 50.090626L724.7969 50.090626ZM725.75 44.621876Q725.75 45.825 726.2344 46.403126Q726.71875 46.965626 727.40625 46.965626Q728.1094 46.965626 728.6094 46.371876Q729.1094 45.778126 729.1094 44.528126Q729.1094 43.340626 728.625 42.7625Q728.1406 42.16875 727.4531 42.16875Q726.78125 42.16875 726.2656 42.79375Q725.75 43.41875 725.75 44.621876ZM735.8594 45.41875L736.8906 45.559376Q736.71875 46.621876 736.0156 47.23125Q735.3125 47.840626 734.2969 47.840626Q733.0156 47.840626 732.2344 47.0125Q731.46875 46.16875 731.46875 44.60625Q731.46875 43.60625 731.7969 42.85625Q732.1406 42.090626 732.8125 41.715626Q733.5 41.340626 734.3125 41.340626Q735.3125 41.340626 735.9531 41.85625Q736.6094 42.35625 736.7969 43.309376L735.7656 43.465626Q735.625 42.840626 735.25 42.528126Q734.875 42.2 734.34375 42.2Q733.5469 42.2 733.0469 42.778126Q732.5469 43.340626 732.5469 44.575Q732.5469 45.840626 733.03125 46.403126Q733.5156 46.965626 734.28125 46.965626Q734.90625 46.965626 735.3125 46.590626Q735.7344 46.215626 735.8594 45.41875ZM737.7969 41.48125L738.84375 41.48125L738.84375 46.215626L741.7656 41.48125L742.90625 41.48125L742.90625 47.7L741.8594 47.7L741.8594 42.98125L738.9219 47.7L737.7969 47.7L737.7969 41.48125ZM749.0469 45.7L750.1406 45.825Q749.8906 46.778126 749.1875 47.309376Q748.4844 47.840626 747.40625 47.840626Q746.0469 47.840626 745.2344 46.996876Q744.4375 46.153126 744.4375 44.6375Q744.4375 43.075 745.25 42.215626Q746.0625 41.340626 747.34375 41.340626Q748.59375 41.340626 749.375 42.184376Q750.1719 43.028126 750.1719 44.575Q750.1719 44.66875 750.1719 44.85625L745.53125 44.85625Q745.59375 45.8875 746.1094 46.434376Q746.625 46.965626 747.40625 46.965626Q747.9844 46.965626 748.3906 46.66875Q748.8125 46.35625 749.0469 45.7ZM745.59375 43.996876L749.0625 43.996876Q749.0 43.2 748.6719 42.809376Q748.15625 42.2 747.3594 42.2Q746.625 42.2 746.125 42.684376Q745.6406 43.16875 745.59375 43.996876ZM751.7969 41.48125L752.84375 41.48125L752.84375 46.215626L755.7656 41.48125L756.90625 41.48125L756.90625 47.7L755.8594 47.7L755.8594 42.98125L752.9219 47.7L751.7969 47.7L751.7969 41.48125ZM755.4531 39.121876L756.1719 39.121876Q756.0781 39.85625 755.625 40.246876Q755.1875 40.6375 754.4375 40.6375Q753.6875 40.6375 753.2344 40.246876Q752.7969 39.85625 752.7031 39.121876L753.4219 39.121876Q753.5156 39.5125 753.75 39.715626Q754.0 39.91875 754.40625 39.91875Q754.875 39.91875 755.125 39.73125Q755.375 39.528126 755.4531 39.121876ZM761.7969 41.48125L762.84375 41.48125L762.84375 46.215626L765.7656 41.48125L766.90625 41.48125L766.90625 47.7L765.8594 47.7L765.8594 42.98125L762.9219 47.7L761.7969 47.7L761.7969 41.48125ZM771.78125 41.48125L772.84375 41.48125L772.84375 44.16875Q773.34375 44.16875 773.5469 43.98125Q773.75 43.778126 774.1406 42.840626Q774.4531 42.10625 774.6406 41.871876Q774.84375 41.6375 775.09375 41.559376Q775.34375 41.48125 775.90625 41.48125L776.1094 41.48125L776.1094 42.35625L775.8125 42.340626Q775.40625 42.340626 775.28125 42.465626Q775.15625 42.590626 774.90625 43.23125Q774.6719 43.840626 774.46875 44.075Q774.2656 44.309376 773.8594 44.5125Q774.53125 44.684376 775.1875 45.778126L776.34375 47.7L775.1875 47.7L774.0625 45.778126Q773.71875 45.184376 773.4531 45.0125Q773.2031 44.825 772.84375 44.825L772.84375 47.7L771.78125 47.7L771.78125 41.48125ZM779.40625 44.075L779.40625 44.95L781.59375 44.95Q781.5 45.965626 781.0625 46.465626Q780.6406 46.965626 779.8906 46.965626Q778.5625 46.965626 778.3125 45.41875L777.28125 45.559376Q777.4531 46.590626 778.1406 47.215626Q778.8281 47.840626 779.9375 47.840626Q781.2656 47.91875 781.9844 46.996876Q782.71875 46.075 782.6875 44.590626Q782.6875 43.075 781.9219 42.215626Q781.1719 41.340626 779.8594 41.340626Q778.8125 41.340626 778.1719 41.903126Q777.53125 42.45 777.3906 43.309376L778.4219 43.48125Q778.6719 42.215626 779.8906 42.215626Q780.59375 42.215626 781.0469 42.73125Q781.5 43.246876 781.59375 44.075L779.40625 44.075ZM783.8281 41.48125L784.875 41.48125L784.875 46.825L787.28125 46.825L787.28125 41.48125L788.34375 41.48125L788.34375 46.825L790.75 46.825L790.75 41.48125L791.7969 41.48125L791.7969 47.7L783.8281 47.7L783.8281 41.48125ZM797.0469 45.7L798.1406 45.825Q797.8906 46.778126 797.1875 47.309376Q796.4844 47.840626 795.40625 47.840626Q794.0469 47.840626 793.2344 46.996876Q792.4375 46.153126 792.4375 44.6375Q792.4375 43.075 793.25 42.215626Q794.0625 41.340626 795.34375 41.340626Q796.59375 41.340626 797.375 42.184376Q798.1719 43.028126 798.1719 44.575Q798.1719 44.66875 798.1719 44.85625L793.53125 44.85625Q793.59375 45.8875 794.1094 46.434376Q794.625 46.965626 795.40625 46.965626Q795.9844 46.965626 796.3906 46.66875Q796.8125 46.35625 797.0469 45.7ZM793.59375 43.996876L797.0625 43.996876Q797.0 43.2 796.6719 42.809376Q796.15625 42.2 795.3594 42.2Q794.625 42.2 794.125 42.684376Q793.6406 43.16875 793.59375 43.996876ZM799.8281 41.48125L801.46875 41.48125L803.09375 46.45L804.90625 41.48125L806.4375 41.48125L806.4375 47.7L805.375 47.7L805.375 42.684376L803.53125 47.7L802.59375 47.7L800.8594 42.45L800.8594 47.7L799.8281 47.7L799.8281 41.48125Z" fill-rule="nonzero"/></svg>