<svg version="1.1" viewBox="0.0 0.0 1191.0 734.0" fill="none" stroke="none" stroke-linecap="square" stroke-miterlimit="10" width="1191" height="734" xmlns:xlink="http://www.w3.org/1999/xlink" xmlns="http://www.w3.org/2000/svg"><path fill="#ffffff" d="M0 0L1191.0 0L1191.0 734.0L0 734.0L0 0Z" fill-rule="nonzero"/><path stroke="#333333" stroke-width="1.0" stroke-linecap="butt" d="M168.5 92.5L168.5 619.5" fill-rule="nonzero"/><path stroke="#cccccc" stroke-width="1.0" stroke-linecap="butt" d="M320.5 92.5L320.5 619.5" fill-rule="nonzero"/><path stroke="#cccccc" stroke-width="1.0" stroke-linecap="butt" d="M471.5 92.5L471.5 619.5" fill-rule="nonzero"/><path stroke="#cccccc" stroke-width="1.0" stroke-linecap="butt" d="M623.5 92.5L623.5 619.5" fill-rule="nonzero"/><path stroke="#cccccc" stroke-width="1.0" stroke-linecap="butt" d="M775.5 92.5L775.5 619.5" fill-rule="nonzero"/><path stroke="#cccccc" stroke-width="1.0" stroke-linecap="butt" d="M926.5 92.5L926.5 619.5" fill-rule="nonzero"/><path stroke="#cccccc" stroke-width="1.0" stroke-linecap="butt" d="M1078.5 92.5L1078.5 619.5" fill-rule="nonzero"/><path stroke="#333333" stroke-width="1.0" stroke-linecap="butt" d="M168.5 619.5L1154.5 619.5" fill-rule="nonzero"/><path stroke="#cccccc" stroke-width="1.0" stroke-linecap="butt" d="M168.5 487.5L1154.5 487.5" fill-rule="nonzero"/><path stroke="#cccccc" stroke-width="1.0" stroke-linecap="butt" d="M168.5 355.5L1154.5 355.5" fill-rule="nonzero"/><path stroke="#cccccc" stroke-width="1.0" stroke-linecap="butt" d="M168.5 224.5L1154.5 224.5" fill-rule="nonzero"/><path stroke="#cccccc" stroke-width="1.0" stroke-linecap="butt" d="M168.5 92.5L1154.5 92.5" fill-rule="nonzero"/><clipPath id="id_0"><path d="M168.7 92.666664L1154.3 92.666664L1154.3 619.3L168.7 619.3L168.7 92.666664Z" clip-rule="nonzero"/></clipPath><path stroke="#4285f4" stroke-width="2.0" stroke-linecap="butt" clip-path="url(#id_0)" d="M168.7 566.63666L244.51538 566.63666L320.33078 566.63666L396.14615 566.63666L471.96155 566.63666L547.7769 513.9733L623.5923 513.9733L699.4077 513.9733L775.2231 408.64667L851.03845 355.98334L926.8538 355.98334L1002.66925 355.98334L1078.4846 355.98334L1154.3 303.32" fill-rule="nonzero"/><path stroke="#ea4335" stroke-width="2.0" stroke-linecap="butt" clip-path="url(#id_0)" d="M168.7 566.63666L244.51538 566.63666L320.33078 513.9733L396.14615 513.9733L471.96155 461.31L547.7769 408.64667L623.5923 303.32L699.4077 250.65666L775.2231 197.99333L851.03845 197.99333L926.8538 250.65666L1002.66925 197.99333L1078.4846 145.33L1154.3 145.33" fill-rule="nonzero"/><path fill="#000000" fill-opacity="0.0" clip-path="url(#id_0)" d="M171.7 566.63666C171.7 568.2935 170.35686 569.63666 168.7 569.63666C167.04315 569.63666 165.7 568.2935 165.7 566.63666C165.7 564.9798 167.04315 563.63666 168.7 563.63666C170.35686 563.63666 171.7 564.9798 171.7 566.63666Z" fill-rule="nonzero"/><path fill="#000000" fill-opacity="0.0" clip-path="url(#id_0)" d="M247.51538 566.63666C247.51538 568.2935 246.17224 569.63666 244.51538 569.63666C242.85854 569.63666 241.51538 568.2935 241.51538 566.63666C241.51538 564.9798 242.85854 563.63666 244.51538 563.63666C246.17224 563.63666 247.51538 564.9798 247.51538 566.63666Z" fill-rule="nonzero"/><path fill="#000000" fill-opacity="0.0" clip-path="url(#id_0)" d="M323.33078 566.63666C323.33078 568.2935 321.9876 569.63666 320.33078 569.63666C318.67392 569.63666 317.33078 568.2935 317.33078 566.63666C317.33078 564.9798 318.67392 563.63666 320.33078 563.63666C321.9876 563.63666 323.33078 564.9798 323.33078 566.63666Z" fill-rule="nonzero"/><path fill="#000000" fill-opacity="0.0" clip-path="url(#id_0)" d="M399.14615 566.63666C399.14615 568.2935 397.803 569.63666 396.14615 569.63666C394.4893 569.63666 393.14615 568.2935 393.14615 566.63666C393.14615 564.9798 394.4893 563.63666 396.14615 563.63666C397.803 563.63666 399.14615 564.9798 399.14615 566.63666Z" fill-rule="nonzero"/><path fill="#000000" fill-opacity="0.0" clip-path="url(#id_0)" d="M474.96155 566.63666C474.96155 568.2935 473.61838 569.63666 471.96155 569.63666C470.3047 569.63666 468.96155 568.2935 468.96155 566.63666C468.96155 564.9798 470.3047 563.63666 471.96155 563.63666C473.61838 563.63666 474.96155 564.9798 474.96155 566.63666Z" fill-rule="nonzero"/><path fill="#000000" fill-opacity="0.0" clip-path="url(#id_0)" d="M550.7769 513.9733C550.7769 515.6302 549.4338 516.9733 547.7769 516.9733C546.12006 516.9733 544.7769 515.6302 544.7769 513.9733C544.7769 512.31647 546.12006 510.97333 547.7769 510.97333C549.4338 510.97333 550.7769 512.31647 550.7769 513.9733Z" fill-rule="nonzero"/><path fill="#000000" fill-opacity="0.0" clip-path="url(#id_0)" d="M626.5923 513.9733C626.5923 515.6302 625.24915 516.9733 623.5923 516.9733C621.9354 516.9733 620.5923 515.6302 620.5923 513.9733C620.5923 512.31647 621.9354 510.97333 623.5923 510.97333C625.24915 510.97333 626.5923 512.31647 626.5923 513.9733Z" fill-rule="nonzero"/><path fill="#000000" fill-opacity="0.0" clip-path="url(#id_0)" d="M702.4077 513.9733C702.4077 515.6302 701.0646 516.9733 699.4077 516.9733C697.75085 516.9733 696.4077 515.6302 696.4077 513.9733C696.4077 512.31647 697.75085 510.97333 699.4077 510.97333C701.0646 510.97333 702.4077 512.31647 702.4077 513.9733Z" fill-rule="nonzero"/><path fill="#000000" fill-opacity="0.0" clip-path="url(#id_0)" d="M778.2231 408.64667C778.2231 410.30353 776.87994 411.64667 775.2231 411.64667C773.5662 411.64667 772.2231 410.30353 772.2231 408.64667C772.2231 406.9898 773.5662 405.64667 775.2231 405.64667C776.87994 405.64667 778.2231 406.9898 778.2231 408.64667Z" fill-rule="nonzero"/><path fill="#000000" fill-opacity="0.0" clip-path="url(#id_0)" d="M854.03845 355.98334C854.03845 357.6402 852.6953 358.98334 851.03845 358.98334C849.3816 358.98334 848.03845 357.6402 848.03845 355.98334C848.03845 354.32648 849.3816 352.98334 851.03845 352.98334C852.6953 352.98334 854.03845 354.32648 854.03845 355.98334Z" fill-rule="nonzero"/><path fill="#000000" fill-opacity="0.0" clip-path="url(#id_0)" d="M929.8538 355.98334C929.8538 357.6402 928.5107 358.98334 926.8538 358.98334C925.197 358.98334 923.8538 357.6402 923.8538 355.98334C923.8538 354.32648 925.197 352.98334 926.8538 352.98334C928.5107 352.98334 929.8538 354.32648 929.8538 355.98334Z" fill-rule="nonzero"/><path fill="#000000" fill-opacity="0.0" clip-path="url(#id_0)" d="M1005.66925 355.98334C1005.66925 357.6402 1004.3261 358.98334 1002.66925 358.98334C1001.0124 358.98334 999.66925 357.6402 999.66925 355.98334C999.66925 354.32648 1001.0124 352.98334 1002.66925 352.98334C1004.3261 352.98334 1005.66925 354.32648 1005.66925 355.98334Z" fill-rule="nonzero"/><path fill="#000000" fill-opacity="0.0" clip-path="url(#id_0)" d="M1081.4846 355.98334C1081.4846 357.6402 1080.1415 358.98334 1078.4846 358.98334C1076.8278 358.98334 1075.4846 357.6402 1075.4846 355.98334C1075.4846 354.32648 1076.8278 352.98334 1078.4846 352.98334C1080.1415 352.98334 1081.4846 354.32648 1081.4846 355.98334Z" fill-rule="nonzero"/><path fill="#000000" fill-opacity="0.0" clip-path="url(#id_0)" d="M1157.3 303.32C1157.3 304.97687 1155.9569 306.32 1154.3 306.32C1152.6432 306.32 1151.3 304.97687 1151.3 303.32C1151.3 301.66315 1152.6432 300.32 1154.3 300.32C1155.9569 300.32 1157.3 301.66315 1157.3 303.32Z" fill-rule="nonzero"/><path fill="#000000" fill-opacity="0.0" clip-path="url(#id_0)" d="M171.7 566.63666C171.7 568.2935 170.35686 569.63666 168.7 569.63666C167.04315 569.63666 165.7 568.2935 165.7 566.63666C165.7 564.9798 167.04315 563.63666 168.7 563.63666C170.35686 563.63666 171.7 564.9798 171.7 566.63666Z" fill-rule="nonzero"/><path fill="#000000" fill-opacity="0.0" clip-path="url(#id_0)" d="M247.51538 566.63666C247.51538 568.2935 246.17224 569.63666 244.51538 569.63666C242.85854 569.63666 241.51538 568.2935 241.51538 566.63666C241.51538 564.9798 242.85854 563.63666 244.51538 563.63666C246.17224 563.63666 247.51538 564.9798 247.51538 566.63666Z" fill-rule="nonzero"/><path fill="#000000" fill-opacity="0.0" clip-path="url(#id_0)" d="M323.33078 513.9733C323.33078 515.6302 321.9876 516.9733 320.33078 516.9733C318.67392 516.9733 317.33078 515.6302 317.33078 513.9733C317.33078 512.31647 318.67392 510.97333 320.33078 510.97333C321.9876 510.97333 323.33078 512.31647 323.33078 513.9733Z" fill-rule="nonzero"/><path fill="#000000" fill-opacity="0.0" clip-path="url(#id_0)" d="M399.14615 513.9733C399.14615 515.6302 397.803 516.9733 396.14615 516.9733C394.4893 516.9733 393.14615 515.6302 393.14615 513.9733C393.14615 512.31647 394.4893 510.97333 396.14615 510.97333C397.803 510.97333 399.14615 512.31647 399.14615 513.9733Z" fill-rule="nonzero"/><path fill="#000000" fill-opacity="0.0" clip-path="url(#id_0)" d="M474.96155 461.31C474.96155 462.96686 473.61838 464.31 471.96155 464.31C470.3047 464.31 468.96155 462.96686 468.96155 461.31C468.96155 459.65314 470.3047 458.31 471.96155 458.31C473.61838 458.31 474.96155 459.65314 474.96155 461.31Z" fill-rule="nonzero"/><path fill="#000000" fill-opacity="0.0" clip-path="url(#id_0)" d="M550.7769 408.64667C550.7769 410.30353 549.4338 411.64667 547.7769 411.64667C546.12006 411.64667 544.7769 410.30353 544.7769 408.64667C544.7769 406.9898 546.12006 405.64667 547.7769 405.64667C549.4338 405.64667 550.7769 406.9898 550.7769 408.64667Z" fill-rule="nonzero"/><path fill="#000000" fill-opacity="0.0" clip-path="url(#id_0)" d="M626.5923 303.32C626.5923 304.97687 625.24915 306.32 623.5923 306.32C621.9354 306.32 620.5923 304.97687 620.5923 303.32C620.5923 301.66315 621.9354 300.32 623.5923 300.32C625.24915 300.32 626.5923 301.66315 626.5923 303.32Z" fill-rule="nonzero"/><path fill="#000000" fill-opacity="0.0" clip-path="url(#id_0)" d="M702.4077 250.65666C702.4077 252.31352 701.0646 253.65666 699.4077 253.65666C697.75085 253.65666 696.4077 252.31352 696.4077 250.65666C696.4077 248.99982 697.75085 247.65666 699.4077 247.65666C701.0646 247.65666 702.4077 248.99982 702.4077 250.65666Z" fill-rule="nonzero"/><path fill="#000000" fill-opacity="0.0" clip-path="url(#id_0)" d="M778.2231 197.99333C778.2231 199.65019 776.87994 200.99333 775.2231 200.99333C773.5662 200.99333 772.2231 199.65019 772.2231 197.99333C772.2231 196.33647 773.5662 194.99333 775.2231 194.99333C776.87994 194.99333 778.2231 196.33647 778.2231 197.99333Z" fill-rule="nonzero"/><path fill="#000000" fill-opacity="0.0" clip-path="url(#id_0)" d="M854.03845 197.99333C854.03845 199.65019 852.6953 200.99333 851.03845 200.99333C849.3816 200.99333 848.03845 199.65019 848.03845 197.99333C848.03845 196.33647 849.3816 194.99333 851.03845 194.99333C852.6953 194.99333 854.03845 196.33647 854.03845 197.99333Z" fill-rule="nonzero"/><path fill="#000000" fill-opacity="0.0" clip-path="url(#id_0)" d="M929.8538 250.65666C929.8538 252.31352 928.5107 253.65666 926.8538 253.65666C925.197 253.65666 923.8538 252.31352 923.8538 250.65666C923.8538 248.99982 925.197 247.65666 926.8538 247.65666C928.5107 247.65666 929.8538 248.99982 929.8538 250.65666Z" fill-rule="nonzero"/><path fill="#000000" fill-opacity="0.0" clip-path="url(#id_0)" d="M1005.66925 197.99333C1005.66925 199.65019 1004.3261 200.99333 1002.66925 200.99333C1001.0124 200.99333 999.66925 199.65019 999.66925 197.99333C999.66925 196.33647 1001.0124 194.99333 1002.66925 194.99333C1004.3261 194.99333 1005.66925 196.33647 1005.66925 197.99333Z" fill-rule="nonzero"/><path fill="#000000" fill-opacity="0.0" clip-path="url(#id_0)" d="M1081.4846 145.33C1081.4846 146.98685 1080.1415 148.33 1078.4846 148.33C1076.8278 148.33 1075.4846 146.98685 1075.4846 145.33C1075.4846 143.67314 1076.8278 142.33 1078.4846 142.33C1080.1415 142.33 1081.4846 143.67314 1081.4846 145.33Z" fill-rule="nonzero"/><path fill="#000000" fill-opacity="0.0" clip-path="url(#id_0)" d="M1157.3 145.33C1157.3 146.98685 1155.9569 148.33 1154.3 148.33C1152.6432 148.33 1151.3 146.98685 1151.3 145.33C1151.3 143.67314 1152.6432 142.33 1154.3 142.33C1155.9569 142.33 1157.3 143.67314 1157.3 145.33Z" fill-rule="nonzero"/><path fill="#000000" d="M551.5625 680.40936L559.3906 680.40936L559.3906 691.78436L560.5625 691.78436L560.5625 696.3L559.03125 696.3L559.03125 693.3L550.5156 693.3L550.5156 696.3L549.0 696.3L549.0 691.78436L550.0 691.78436Q551.5625 689.425 551.5625 682.3L551.5625 680.40936ZM557.6875 681.9406L553.2031 681.9406L553.2031 682.59686Q553.2031 684.2375 552.90625 687.09686Q552.6094 689.9406 551.75 691.78436L557.6875 691.78436L557.6875 681.9406ZM562.9531 683.97186L570.3125 683.97186L570.3125 693.3L568.7344 693.3L568.7344 685.26874L564.5469 685.26874L564.5469 689.925Q564.5469 691.55 564.4375 692.0656Q564.3281 692.58124 563.84375 692.97186Q563.375 693.3625 562.4844 693.3625Q561.9375 693.3625 561.21875 693.28436L561.21875 691.97186L561.90625 691.97186Q562.3906 691.97186 562.59375 691.8781Q562.8125 691.76874 562.875 691.55Q562.9531 691.33124 562.9531 690.1125L562.9531 683.97186ZM573.1875 683.97186L574.7656 683.97186L574.7656 691.08124L579.15625 683.97186L580.8594 683.97186L580.8594 693.3L579.28125 693.3L579.28125 686.22186L574.8906 693.3L573.1875 693.3L573.1875 683.97186ZM583.2031 683.97186L584.78125 683.97186L584.78125 687.84686L589.15625 687.84686L589.15625 683.97186L590.75 683.97186L590.75 693.3L589.15625 693.3L589.15625 689.15936L584.78125 689.15936L584.78125 693.3L583.2031 693.3L583.2031 683.97186ZM599.28125 692.14374Q598.40625 692.89374 597.5781 693.20624Q596.7656 693.51874 595.84375 693.51874Q594.2969 693.51874 593.46875 692.76874Q592.65625 692.0031 592.65625 690.83124Q592.65625 690.15936 592.96875 689.59686Q593.28125 689.01874 593.78125 688.675Q594.28125 688.33124 594.9219 688.15936Q595.3906 688.03436 596.3281 687.925Q598.2344 687.6906 599.1406 687.3781Q599.15625 687.05 599.15625 686.95624Q599.15625 686.0031 598.7031 685.59686Q598.09375 685.0656 596.90625 685.0656Q595.78125 685.0656 595.25 685.45624Q594.71875 685.84686 594.46875 686.84686L592.9219 686.6281Q593.1406 685.6281 593.6094 685.01874Q594.09375 684.40936 595.0 684.08124Q595.9219 683.7531 597.1406 683.7531Q598.3281 683.7531 599.0781 684.03436Q599.8281 684.3156 600.1719 684.7531Q600.53125 685.175 600.6719 685.8156Q600.75 686.22186 600.75 687.28436L600.75 689.39374Q600.75 691.59686 600.84375 692.1906Q600.9531 692.76874 601.25 693.3L599.59375 693.3Q599.34375 692.8 599.28125 692.14374ZM599.1406 688.6125Q598.28125 688.97186 596.5625 689.20624Q595.59375 689.34686 595.1875 689.53436Q594.78125 689.70624 594.5625 690.05Q594.34375 690.3781 594.34375 690.8Q594.34375 691.425 594.8125 691.84686Q595.2969 692.26874 596.21875 692.26874Q597.1406 692.26874 597.84375 691.8781Q598.5625 691.47186 598.8906 690.78436Q599.1406 690.2375 599.1406 689.1906L599.1406 688.6125ZM614.28125 689.8781L615.8281 690.08124Q615.5781 691.6906 614.53125 692.6125Q613.4844 693.51874 611.9531 693.51874Q610.03125 693.51874 608.8594 692.26874Q607.7031 691.0031 607.7031 688.675Q607.7031 687.15936 608.2031 686.03436Q608.7031 684.89374 609.71875 684.33124Q610.75 683.7531 611.9531 683.7531Q613.4844 683.7531 614.4375 684.53436Q615.40625 685.3 615.6875 686.70624L614.1406 686.9406Q613.9219 686.0031 613.3594 685.53436Q612.8125 685.05 612.0156 685.05Q610.8281 685.05 610.0781 685.90936Q609.3281 686.76874 609.3281 688.6281Q609.3281 690.5031 610.0469 691.3625Q610.7656 692.20624 611.9375 692.20624Q612.8594 692.20624 613.4844 691.64374Q614.1094 691.0656 614.28125 689.8781ZM616.3281 683.97186L623.9219 683.97186L623.9219 685.26874L620.90625 685.26874L620.90625 693.3L619.34375 693.3L619.34375 685.26874L616.3281 685.26874L616.3281 683.97186ZM625.1875 696.8781L625.1875 683.97186L626.625 683.97186L626.625 685.175Q627.1406 684.47186 627.78125 684.1125Q628.4219 683.7531 629.3281 683.7531Q630.53125 683.7531 631.4375 684.3781Q632.3594 684.9875 632.8281 686.1125Q633.2969 687.22186 633.2969 688.5656Q633.2969 689.9875 632.78125 691.14374Q632.2656 692.28436 631.28125 692.90936Q630.2969 693.51874 629.21875 693.51874Q628.4375 693.51874 627.7969 693.1906Q627.1719 692.84686 626.7656 692.33124L626.7656 696.8781L625.1875 696.8781ZM626.625 688.6906Q626.625 690.4875 627.34375 691.34686Q628.0781 692.20624 629.1094 692.20624Q630.1719 692.20624 630.9219 691.3156Q631.6719 690.425 631.6719 688.55Q631.6719 686.76874 630.9375 685.8781Q630.2031 684.9875 629.1875 684.9875Q628.1719 684.9875 627.3906 685.9406Q626.625 686.8781 626.625 688.6906ZM634.59375 688.6281Q634.59375 686.03436 636.0469 684.78436Q637.25 683.7531 638.96875 683.7531Q640.90625 683.7531 642.125 685.01874Q643.34375 686.28436 643.34375 688.5031Q643.34375 690.3 642.7969 691.33124Q642.2656 692.3625 641.2344 692.9406Q640.2031 693.51874 638.96875 693.51874Q637.0156 693.51874 635.7969 692.26874Q634.59375 691.0031 634.59375 688.6281ZM636.21875 688.6281Q636.21875 690.425 637.0 691.3156Q637.78125 692.20624 638.96875 692.20624Q640.15625 692.20624 640.9375 691.3156Q641.71875 690.40936 641.71875 688.58124Q641.71875 686.84686 640.9219 685.95624Q640.1406 685.0656 638.96875 685.0656Q637.78125 685.0656 637.0 685.95624Q636.21875 686.84686 636.21875 688.6281ZM645.1719 683.97186L646.7656 683.97186L646.7656 688.0031Q647.5156 688.0031 647.8125 687.72186Q648.125 687.425 648.71875 686.01874Q649.1719 684.90936 649.4531 684.5656Q649.75 684.20624 650.125 684.09686Q650.5156 683.97186 651.34375 683.97186L651.6719 683.97186L651.6719 685.26874L651.21875 685.26874Q650.59375 685.26874 650.4219 685.45624Q650.2344 685.64374 649.8594 686.59686Q649.5 687.51874 649.2031 687.8781Q648.90625 688.22186 648.28125 688.5031Q649.2969 688.78436 650.28125 690.40936L652.0156 693.3L650.28125 693.3L648.59375 690.40936Q648.0625 689.53436 647.6719 689.26874Q647.2969 688.9875 646.7656 688.9875L646.7656 693.3L645.1719 693.3L645.1719 683.97186ZM653.1875 683.97186L654.7656 683.97186L654.7656 691.08124L659.15625 683.97186L660.8594 683.97186L660.8594 693.3L659.28125 693.3L659.28125 686.22186L654.8906 693.3L653.1875 693.3L653.1875 683.97186ZM671.2031 697.08124Q669.90625 695.4406 669.0 693.22186Q668.09375 691.0031 668.09375 688.6281Q668.09375 686.53436 668.7656 684.6281Q669.5625 682.39374 671.2031 680.1906L672.34375 680.1906Q671.28125 682.01874 670.9375 682.8Q670.40625 684.01874 670.09375 685.33124Q669.71875 686.9875 669.71875 688.64374Q669.71875 692.8625 672.34375 697.08124L671.2031 697.08124ZM674.2031 683.97186L677.84375 683.97186Q679.1875 683.97186 679.84375 684.1906Q680.5 684.40936 680.96875 685.01874Q681.4375 685.6125 681.4375 686.4406Q681.4375 687.1125 681.15625 687.6125Q680.8906 688.1125 680.3281 688.4406Q680.9844 688.65936 681.4219 689.26874Q681.8594 689.8625 681.8594 690.6906Q681.7656 692.01874 680.90625 692.65936Q680.0469 693.3 678.40625 693.3L674.2031 693.3L674.2031 683.97186ZM675.78125 687.89374L677.46875 687.89374Q678.46875 687.89374 678.84375 687.8Q679.2344 687.6906 679.53125 687.3625Q679.8281 687.03436 679.8281 686.59686Q679.8281 685.8625 679.2969 685.5656Q678.78125 685.26874 677.5156 685.26874L675.78125 685.26874L675.78125 687.89374ZM675.78125 692.0031L677.8594 692.0031Q679.2031 692.0031 679.7031 691.6906Q680.2031 691.3781 680.2344 690.6125Q680.2344 690.15936 679.9375 689.78436Q679.65625 689.39374 679.1875 689.3Q678.71875 689.1906 677.6875 689.1906L675.78125 689.1906L675.78125 692.0031ZM695.28125 689.8781L696.8281 690.08124Q696.5781 691.6906 695.53125 692.6125Q694.4844 693.51874 692.9531 693.51874Q691.03125 693.51874 689.8594 692.26874Q688.7031 691.0031 688.7031 688.675Q688.7031 687.15936 689.2031 686.03436Q689.7031 684.89374 690.71875 684.33124Q691.75 683.7531 692.9531 683.7531Q694.4844 683.7531 695.4375 684.53436Q696.40625 685.3 696.6875 686.70624L695.1406 686.9406Q694.9219 686.0031 694.3594 685.53436Q693.8125 685.05 693.0156 685.05Q691.8281 685.05 691.0781 685.90936Q690.3281 686.76874 690.3281 688.6281Q690.3281 690.5031 691.0469 691.3625Q691.7656 692.20624 692.9375 692.20624Q693.8594 692.20624 694.4844 691.64374Q695.1094 691.0656 695.28125 689.8781ZM698.1875 683.97186L699.7656 683.97186L699.7656 691.08124L704.15625 683.97186L705.8594 683.97186L705.8594 693.3L704.28125 693.3L704.28125 686.22186L699.8906 693.3L698.1875 693.3L698.1875 683.97186ZM708.2344 683.97186L710.6875 683.97186L713.1406 691.4406L715.875 683.97186L718.1406 683.97186L718.1406 693.3L716.5625 693.3L716.5625 685.78436L713.7969 693.3L712.3906 693.3L709.78125 685.425L709.78125 693.3L708.2344 693.3L708.2344 683.97186ZM720.2031 683.97186L723.84375 683.97186Q725.1875 683.97186 725.84375 684.1906Q726.5 684.40936 726.96875 685.01874Q727.4375 685.6125 727.4375 686.4406Q727.4375 687.1125 727.15625 687.6125Q726.8906 688.1125 726.3281 688.4406Q726.9844 688.65936 727.4219 689.26874Q727.8594 689.8625 727.8594 690.6906Q727.7656 692.01874 726.90625 692.65936Q726.0469 693.3 724.40625 693.3L720.2031 693.3L720.2031 683.97186ZM721.78125 687.89374L723.46875 687.89374Q724.46875 687.89374 724.84375 687.8Q725.2344 687.6906 725.53125 687.3625Q725.8281 687.03436 725.8281 686.59686Q725.8281 685.8625 725.2969 685.5656Q724.78125 685.26874 723.5156 685.26874L721.78125 685.26874L721.78125 687.89374ZM721.78125 692.0031L723.8594 692.0031Q725.2031 692.0031 725.7031 691.6906Q726.2031 691.3781 726.2344 690.6125Q726.2344 690.15936 725.9375 689.78436Q725.65625 689.39374 725.1875 689.3Q724.71875 689.1906 723.6875 689.1906L721.78125 689.1906L721.78125 692.0031ZM729.59375 688.6281Q729.59375 686.03436 731.0469 684.78436Q732.25 683.7531 733.96875 683.7531Q735.90625 683.7531 737.125 685.01874Q738.34375 686.28436 738.34375 688.5031Q738.34375 690.3 737.7969 691.33124Q737.2656 692.3625 736.2344 692.9406Q735.2031 693.51874 733.96875 693.51874Q732.0156 693.51874 730.7969 692.26874Q729.59375 691.0031 729.59375 688.6281ZM731.21875 688.6281Q731.21875 690.425 732.0 691.3156Q732.78125 692.20624 733.96875 692.20624Q735.15625 692.20624 735.9375 691.3156Q736.71875 690.40936 736.71875 688.58124Q736.71875 686.84686 735.9219 685.95624Q735.1406 685.0656 733.96875 685.0656Q732.78125 685.0656 732.0 685.95624Q731.21875 686.84686 731.21875 688.6281ZM740.9531 683.97186L748.3125 683.97186L748.3125 693.3L746.7344 693.3L746.7344 685.26874L742.5469 685.26874L742.5469 689.925Q742.5469 691.55 742.4375 692.0656Q742.3281 692.58124 741.84375 692.97186Q741.375 693.3625 740.4844 693.3625Q739.9375 693.3625 739.21875 693.28436L739.21875 691.97186L739.90625 691.97186Q740.3906 691.97186 740.59375 691.8781Q740.8125 691.76874 740.875 691.55Q740.9531 691.33124 740.9531 690.1125L740.9531 683.97186ZM757.28125 692.14374Q756.40625 692.89374 755.5781 693.20624Q754.7656 693.51874 753.84375 693.51874Q752.2969 693.51874 751.46875 692.76874Q750.65625 692.0031 750.65625 690.83124Q750.65625 690.15936 750.96875 689.59686Q751.28125 689.01874 751.78125 688.675Q752.28125 688.33124 752.9219 688.15936Q753.3906 688.03436 754.3281 687.925Q756.2344 687.6906 757.1406 687.3781Q757.15625 687.05 757.15625 686.95624Q757.15625 686.0031 756.7031 685.59686Q756.09375 685.0656 754.90625 685.0656Q753.78125 685.0656 753.25 685.45624Q752.71875 685.84686 752.46875 686.84686L750.9219 686.6281Q751.1406 685.6281 751.6094 685.01874Q752.09375 684.40936 753.0 684.08124Q753.9219 683.7531 755.1406 683.7531Q756.3281 683.7531 757.0781 684.03436Q757.8281 684.3156 758.1719 684.7531Q758.53125 685.175 758.6719 685.8156Q758.75 686.22186 758.75 687.28436L758.75 689.39374Q758.75 691.59686 758.84375 692.1906Q758.9531 692.76874 759.25 693.3L757.59375 693.3Q757.34375 692.8 757.28125 692.14374ZM757.1406 688.6125Q756.28125 688.97186 754.5625 689.20624Q753.59375 689.34686 753.1875 689.53436Q752.78125 689.70624 752.5625 690.05Q752.34375 690.3781 752.34375 690.8Q752.34375 691.425 752.8125 691.84686Q753.2969 692.26874 754.21875 692.26874Q755.1406 692.26874 755.84375 691.8781Q756.5625 691.47186 756.8906 690.78436Q757.1406 690.2375 757.1406 689.1906L757.1406 688.6125ZM760.125 693.3L763.5469 688.4406L760.3906 683.97186L762.3594 683.97186L763.7969 686.15936Q764.2031 686.78436 764.4531 687.20624Q764.8281 686.6125 765.15625 686.175L766.7344 683.97186L768.625 683.97186L765.3906 688.3625L768.875 693.3L766.9219 693.3L765.0156 690.39374L764.5 689.6125L762.0469 693.3L760.125 693.3ZM770.21875 697.08124L769.09375 697.08124Q771.71875 692.8625 771.71875 688.64374Q771.71875 686.9875 771.34375 685.3625Q771.0469 684.05 770.5 682.83124Q770.15625 682.03436 769.09375 680.1906L770.21875 680.1906Q771.875 682.39374 772.6719 684.6281Q773.34375 686.53436 773.34375 688.6281Q773.34375 691.0031 772.4375 693.22186Q771.53125 695.4406 770.21875 697.08124Z" fill-rule="nonzero"/><path fill="#000000" d="M53.69999 401.92084L40.809364 401.92084L40.809364 397.0771Q40.809364 395.60834 41.19999 394.7177Q41.590614 393.8271 42.403114 393.3271Q43.215614 392.81146 44.10624 392.81146Q44.934364 392.81146 45.66874 393.2646Q46.403114 393.7021 46.840614 394.60834Q47.184364 393.43646 48.01249 392.81146Q48.840614 392.18646 49.965614 392.18646Q50.871864 392.18646 51.653114 392.5771Q52.41874 392.9521 52.840614 393.5146Q53.26249 394.0771 53.48124 394.92084Q53.69999 395.7646 53.69999 396.99896L53.69999 401.92084ZM46.23124 400.2021L46.23124 397.42084Q46.23124 396.29584 46.07499 395.79584Q45.88749 395.1396 45.44999 394.81146Q44.996864 394.48334 44.309364 394.48334Q43.66874 394.48334 43.184364 394.79584Q42.69999 395.10834 42.528114 395.68646Q42.340614 396.24896 42.340614 397.6396L42.340614 400.2021L46.23124 400.2021ZM52.184364 400.2021L52.184364 396.99896Q52.184364 396.17084 52.121864 395.8427Q52.01249 395.24896 51.76249 394.85834Q51.51249 394.4677 51.04374 394.2177Q50.57499 393.9521 49.965614 393.9521Q49.246864 393.9521 48.715614 394.3271Q48.184364 394.68646 47.965614 395.3427Q47.746864 395.99896 47.746864 397.23334L47.746864 400.2021L52.184364 400.2021ZM57.278114 390.04584L44.371864 390.04584L44.371864 388.60834L45.57499 388.60834Q44.871864 388.0927 44.51249 387.4521Q44.153114 386.81146 44.153114 385.9052Q44.153114 384.7021 44.778114 383.79584Q45.38749 382.87396 46.51249 382.4052Q47.621864 381.93646 48.965614 381.93646Q50.38749 381.93646 51.54374 382.4521Q52.684364 382.9677 53.309364 383.9521Q53.91874 384.93646 53.91874 386.0146Q53.91874 386.79584 53.590614 387.43646Q53.246864 388.06146 52.73124 388.4677L57.278114 388.4677L57.278114 390.04584ZM49.090614 388.60834Q50.88749 388.60834 51.746864 387.8896Q52.60624 387.1552 52.60624 386.12396Q52.60624 385.06146 51.715614 384.31146Q50.82499 383.56146 48.94999 383.56146Q47.16874 383.56146 46.278114 384.29584Q45.38749 385.0302 45.38749 386.04584Q45.38749 387.06146 46.340614 387.8427Q47.278114 388.60834 49.090614 388.60834ZM50.69999 373.6552L50.903114 372.0146Q52.32499 372.4052 53.121864 373.4521Q53.91874 374.49896 53.91874 376.12396Q53.91874 378.17084 52.653114 379.37396Q51.38749 380.5771 49.10624 380.5771Q46.76249 380.5771 45.465614 379.37396Q44.153114 378.1552 44.153114 376.2177Q44.153114 374.3427 45.434364 373.1552Q46.69999 371.9677 49.01249 371.9677Q49.153114 371.9677 49.434364 371.98334L49.434364 378.93646Q50.98124 378.85834 51.79374 378.0771Q52.60624 377.2802 52.60624 376.12396Q52.60624 375.24896 52.153114 374.6396Q51.69999 374.0146 50.69999 373.6552ZM48.13749 378.85834L48.13749 373.6396Q46.965614 373.74896 46.371864 374.23334Q45.44999 374.99896 45.44999 376.2021Q45.44999 377.2802 46.184364 378.0302Q46.91874 378.7646 48.13749 378.85834ZM44.371864 369.99896L44.371864 367.54584L51.840614 365.0927L44.371864 362.35834L44.371864 360.0927L53.69999 360.0927L53.69999 361.67084L46.184364 361.67084L53.69999 364.43646L53.69999 365.8427L45.82499 368.4521L53.69999 368.4521L53.69999 369.99896L44.371864 369.99896ZM44.371864 350.7021L53.69999 350.7021L53.69999 352.2646L50.059364 352.2646L50.059364 353.18646Q50.059364 354.0146 50.278114 354.43646Q50.496864 354.8427 51.653114 355.62396L53.69999 356.99896L53.69999 358.9677L51.184364 357.24896Q50.028114 356.4677 49.88749 355.7021Q49.69999 357.04584 48.91874 357.7021Q48.121864 358.35834 47.090614 358.35834Q45.871864 358.35834 45.121864 357.5146Q44.371864 356.6552 44.371864 355.0302L44.371864 350.7021ZM45.66874 352.2646L45.66874 354.5146Q45.66874 355.93646 46.121864 356.3427Q46.559364 356.74896 47.13749 356.74896Q47.98124 356.74896 48.371864 356.1552Q48.76249 355.54584 48.76249 354.0146L48.76249 352.2646L45.66874 352.2646ZM57.48124 345.0302Q55.840614 346.3271 53.621864 347.23334Q51.403114 348.1396 49.028114 348.1396Q46.934364 348.1396 45.028114 347.4677Q42.79374 346.67084 40.590614 345.0302L40.590614 343.8896Q42.41874 344.9521 43.19999 345.29584Q44.41874 345.8271 45.73124 346.1396Q47.38749 346.5146 49.04374 346.5146Q53.26249 346.5146 57.48124 343.8896L57.48124 345.0302ZM50.278114 335.9521L50.48124 334.4052Q52.090614 334.6552 53.01249 335.7021Q53.91874 336.74896 53.91874 338.2802Q53.91874 340.2021 52.66874 341.37396Q51.403114 342.5302 49.07499 342.5302Q47.559364 342.5302 46.434364 342.0302Q45.29374 341.5302 44.73124 340.5146Q44.153114 339.48334 44.153114 338.2802Q44.153114 336.74896 44.934364 335.79584Q45.69999 334.8271 47.10624 334.54584L47.340614 336.0927Q46.403114 336.31146 45.934364 336.87396Q45.44999 337.42084 45.44999 338.2177Q45.44999 339.4052 46.309364 340.1552Q47.16874 340.9052 49.028114 340.9052Q50.903114 340.9052 51.76249 340.18646Q52.60624 339.4677 52.60624 338.29584Q52.60624 337.37396 52.04374 336.74896Q51.465614 336.12396 50.278114 335.9521ZM57.48124 332.0146L57.48124 333.1396Q53.26249 330.5146 49.04374 330.5146Q47.38749 330.5146 45.76249 330.8896Q44.44999 331.18646 43.23124 331.73334Q42.434364 332.0771 40.590614 333.1396L40.590614 332.0146Q42.79374 330.35834 45.028114 329.56146Q46.934364 328.8896 49.028114 328.8896Q51.403114 328.8896 53.621864 329.79584Q55.840614 330.7021 57.48124 332.0146Z" fill-rule="nonzero"/><path fill="#000000" d="M85.45 619.4406Q85.45 617.15936 85.91875 615.76874Q86.3875 614.3781 87.30937 613.6281Q88.24687 612.8625 89.65312 612.8625Q90.68437 612.8625 91.46562 613.28436Q92.24687 613.6906 92.74687 614.4875Q93.2625 615.26874 93.55937 616.40936Q93.85625 617.53436 93.85625 619.4406Q93.85625 621.70624 93.3875 623.1125Q92.91875 624.5031 91.98125 625.26874Q91.05937 626.01874 89.65312 626.01874Q87.77812 626.01874 86.71562 624.6906Q85.45 623.08124 85.45 619.4406ZM87.075 619.4406Q87.075 622.6125 87.80937 623.675Q88.55937 624.72186 89.65312 624.72186Q90.73125 624.72186 91.48125 623.675Q92.23125 622.6125 92.23125 619.4406Q92.23125 616.26874 91.48125 615.22186Q90.73125 614.175 89.6375 614.175Q88.54375 614.175 87.8875 615.09686Q87.075 616.26874 87.075 619.4406ZM96.29375 625.8L96.29375 624.0031L98.10625 624.0031L98.10625 625.8Q98.10625 626.8 97.74687 627.40936Q97.40312 628.01874 96.6375 628.34686L96.2 627.675Q96.7 627.45624 96.93437 627.01874Q97.16875 626.59686 97.2 625.8L96.29375 625.8ZM100.45 619.4406Q100.45 617.15936 100.91875 615.76874Q101.3875 614.3781 102.30937 613.6281Q103.24687 612.8625 104.65312 612.8625Q105.68437 612.8625 106.46562 613.28436Q107.24687 613.6906 107.74687 614.4875Q108.2625 615.26874 108.55937 616.40936Q108.85625 617.53436 108.85625 619.4406Q108.85625 621.70624 108.3875 623.1125Q107.91875 624.5031 106.98125 625.26874Q106.05937 626.01874 104.65312 626.01874Q102.77812 626.01874 101.71562 624.6906Q100.45 623.08124 100.45 619.4406ZM102.075 619.4406Q102.075 622.6125 102.80937 623.675Q103.55937 624.72186 104.65312 624.72186Q105.73125 624.72186 106.48125 623.675Q107.23125 622.6125 107.23125 619.4406Q107.23125 616.26874 106.48125 615.22186Q105.73125 614.175 104.6375 614.175Q103.54375 614.175 102.8875 615.09686Q102.075 616.26874 102.075 619.4406ZM110.45 619.4406Q110.45 617.15936 110.91875 615.76874Q111.3875 614.3781 112.30937 613.6281Q113.24687 612.8625 114.65312 612.8625Q115.68437 612.8625 116.46562 613.28436Q117.24687 613.6906 117.74687 614.4875Q118.2625 615.26874 118.55937 616.40936Q118.85625 617.53436 118.85625 619.4406Q118.85625 621.70624 118.3875 623.1125Q117.91875 624.5031 116.98125 625.26874Q116.05937 626.01874 114.65312 626.01874Q112.77812 626.01874 111.71562 624.6906Q110.45 623.08124 110.45 619.4406ZM112.075 619.4406Q112.075 622.6125 112.80937 623.675Q113.55937 624.72186 114.65312 624.72186Q115.73125 624.72186 116.48125 623.675Q117.23125 622.6125 117.23125 619.4406Q117.23125 616.26874 116.48125 615.22186Q115.73125 614.175 114.6375 614.175Q113.54375 614.175 112.8875 615.09686Q112.075 616.26874 112.075 619.4406ZM120.45 619.4406Q120.45 617.15936 120.91875 615.76874Q121.3875 614.3781 122.30937 613.6281Q123.24687 612.8625 124.65312 612.8625Q125.68437 612.8625 126.46562 613.28436Q127.24687 613.6906 127.74687 614.4875Q128.2625 615.26874 128.55937 616.40936Q128.85625 617.53436 128.85625 619.4406Q128.85625 621.70624 128.3875 623.1125Q127.91875 624.5031 126.98125 625.26874Q126.05937 626.01874 124.65312 626.01874Q122.77812 626.01874 121.71562 624.6906Q120.45 623.08124 120.45 619.4406ZM122.075 619.4406Q122.075 622.6125 122.80937 623.675Q123.55937 624.72186 124.65312 624.72186Q125.73125 624.72186 126.48125 623.675Q127.23125 622.6125 127.23125 619.4406Q127.23125 616.26874 126.48125 615.22186Q125.73125 614.175 124.6375 614.175Q123.54375 614.175 122.8875 615.09686Q122.075 616.26874 122.075 619.4406ZM130.45 619.4406Q130.45 617.15936 130.91875 615.76874Q131.3875 614.3781 132.30937 613.6281Q133.24687 612.8625 134.65312 612.8625Q135.68437 612.8625 136.46562 613.28436Q137.24687 613.6906 137.74687 614.4875Q138.2625 615.26874 138.55937 616.40936Q138.85625 617.53436 138.85625 619.4406Q138.85625 621.70624 138.3875 623.1125Q137.91875 624.5031 136.98125 625.26874Q136.05937 626.01874 134.65312 626.01874Q132.77812 626.01874 131.71562 624.6906Q130.45 623.08124 130.45 619.4406ZM132.075 619.4406Q132.075 622.6125 132.80937 623.675Q133.55937 624.72186 134.65312 624.72186Q135.73125 624.72186 136.48125 623.675Q137.23125 622.6125 137.23125 619.4406Q137.23125 616.26874 136.48125 615.22186Q135.73125 614.175 134.6375 614.175Q133.54375 614.175 132.8875 615.09686Q132.075 616.26874 132.075 619.4406ZM140.45 619.4406Q140.45 617.15936 140.91875 615.76874Q141.3875 614.3781 142.30937 613.6281Q143.24687 612.8625 144.65312 612.8625Q145.68437 612.8625 146.46562 613.28436Q147.24687 613.6906 147.74687 614.4875Q148.2625 615.26874 148.55937 616.40936Q148.85625 617.53436 148.85625 619.4406Q148.85625 621.70624 148.3875 623.1125Q147.91875 624.5031 146.98125 625.26874Q146.05937 626.01874 144.65312 626.01874Q142.77812 626.01874 141.71562 624.6906Q140.45 623.08124 140.45 619.4406ZM142.075 619.4406Q142.075 622.6125 142.80937 623.675Q143.55937 624.72186 144.65312 624.72186Q145.73125 624.72186 146.48125 623.675Q147.23125 622.6125 147.23125 619.4406Q147.23125 616.26874 146.48125 615.22186Q145.73125 614.175 144.6375 614.175Q143.54375 614.175 142.8875 615.09686Q142.075 616.26874 142.075 619.4406ZM150.45 619.4406Q150.45 617.15936 150.91875 615.76874Q151.3875 614.3781 152.30937 613.6281Q153.24687 612.8625 154.65312 612.8625Q155.68437 612.8625 156.46562 613.28436Q157.24687 613.6906 157.74687 614.4875Q158.2625 615.26874 158.55937 616.40936Q158.85625 617.53436 158.85625 619.4406Q158.85625 621.70624 158.3875 623.1125Q157.91875 624.5031 156.98125 625.26874Q156.05937 626.01874 154.65312 626.01874Q152.77812 626.01874 151.71562 624.6906Q150.45 623.08124 150.45 619.4406ZM152.075 619.4406Q152.075 622.6125 152.80937 623.675Q153.55937 624.72186 154.65312 624.72186Q155.73125 624.72186 156.48125 623.675Q157.23125 622.6125 157.23125 619.4406Q157.23125 616.26874 156.48125 615.22186Q155.73125 614.175 154.6375 614.175Q153.54375 614.175 152.8875 615.09686Q152.075 616.26874 152.075 619.4406Z" fill-rule="nonzero"/><path fill="#000000" d="M85.45 487.7823Q85.45 485.50104 85.91875 484.1104Q86.3875 482.7198 87.30937 481.9698Q88.24687 481.20416 89.65312 481.20416Q90.68437 481.20416 91.46562 481.62604Q92.24687 482.0323 92.74687 482.82916Q93.2625 483.6104 93.55937 484.75104Q93.85625 485.87604 93.85625 487.7823Q93.85625 490.0479 93.3875 491.45416Q92.91875 492.8448 91.98125 493.6104Q91.05937 494.3604 89.65312 494.3604Q87.77812 494.3604 86.71562 493.0323Q85.45 491.4229 85.45 487.7823ZM87.075 487.7823Q87.075 490.95416 87.80937 492.01666Q88.55937 493.06354 89.65312 493.06354Q90.73125 493.06354 91.48125 492.01666Q92.23125 490.95416 92.23125 487.7823Q92.23125 484.6104 91.48125 483.56354Q90.73125 482.51666 89.6375 482.51666Q88.54375 482.51666 87.8875 483.43854Q87.075 484.6104 87.075 487.7823ZM96.29375 494.14166L96.29375 492.3448L98.10625 492.3448L98.10625 494.14166Q98.10625 495.14166 97.74687 495.75104Q97.40312 496.3604 96.6375 496.68854L96.2 496.01666Q96.7 495.7979 96.93437 495.3604Q97.16875 494.93854 97.2 494.14166L96.29375 494.14166ZM100.45 487.7823Q100.45 485.50104 100.91875 484.1104Q101.3875 482.7198 102.30937 481.9698Q103.24687 481.20416 104.65312 481.20416Q105.68437 481.20416 106.46562 481.62604Q107.24687 482.0323 107.74687 482.82916Q108.2625 483.6104 108.55937 484.75104Q108.85625 485.87604 108.85625 487.7823Q108.85625 490.0479 108.3875 491.45416Q107.91875 492.8448 106.98125 493.6104Q106.05937 494.3604 104.65312 494.3604Q102.77812 494.3604 101.71562 493.0323Q100.45 491.4229 100.45 487.7823ZM102.075 487.7823Q102.075 490.95416 102.80937 492.01666Q103.55937 493.06354 104.65312 493.06354Q105.73125 493.06354 106.48125 492.01666Q107.23125 490.95416 107.23125 487.7823Q107.23125 484.6104 106.48125 483.56354Q105.73125 482.51666 104.6375 482.51666Q103.54375 482.51666 102.8875 483.43854Q102.075 484.6104 102.075 487.7823ZM110.45 487.7823Q110.45 485.50104 110.91875 484.1104Q111.3875 482.7198 112.30937 481.9698Q113.24687 481.20416 114.65312 481.20416Q115.68437 481.20416 116.46562 481.62604Q117.24687 482.0323 117.74687 482.82916Q118.2625 483.6104 118.55937 484.75104Q118.85625 485.87604 118.85625 487.7823Q118.85625 490.0479 118.3875 491.45416Q117.91875 492.8448 116.98125 493.6104Q116.05937 494.3604 114.65312 494.3604Q112.77812 494.3604 111.71562 493.0323Q110.45 491.4229 110.45 487.7823ZM112.075 487.7823Q112.075 490.95416 112.80937 492.01666Q113.55937 493.06354 114.65312 493.06354Q115.73125 493.06354 116.48125 492.01666Q117.23125 490.95416 117.23125 487.7823Q117.23125 484.6104 116.48125 483.56354Q115.73125 482.51666 114.6375 482.51666Q113.54375 482.51666 112.8875 483.43854Q112.075 484.6104 112.075 487.7823ZM120.45 487.7823Q120.45 485.50104 120.91875 484.1104Q121.3875 482.7198 122.30937 481.9698Q123.24687 481.20416 124.65312 481.20416Q125.68437 481.20416 126.46562 481.62604Q127.24687 482.0323 127.74687 482.82916Q128.2625 483.6104 128.55937 484.75104Q128.85625 485.87604 128.85625 487.7823Q128.85625 490.0479 128.3875 491.45416Q127.91875 492.8448 126.98125 493.6104Q126.05937 494.3604 124.65312 494.3604Q122.77812 494.3604 121.71562 493.0323Q120.45 491.4229 120.45 487.7823ZM122.075 487.7823Q122.075 490.95416 122.80937 492.01666Q123.55937 493.06354 124.65312 493.06354Q125.73125 493.06354 126.48125 492.01666Q127.23125 490.95416 127.23125 487.7823Q127.23125 484.6104 126.48125 483.56354Q125.73125 482.51666 124.6375 482.51666Q123.54375 482.51666 122.8875 483.43854Q122.075 484.6104 122.075 487.7823ZM130.45 487.7823Q130.45 485.50104 130.91875 484.1104Q131.3875 482.7198 132.30937 481.9698Q133.24687 481.20416 134.65312 481.20416Q135.68437 481.20416 136.46562 481.62604Q137.24687 482.0323 137.74687 482.82916Q138.2625 483.6104 138.55937 484.75104Q138.85625 485.87604 138.85625 487.7823Q138.85625 490.0479 138.3875 491.45416Q137.91875 492.8448 136.98125 493.6104Q136.05937 494.3604 134.65312 494.3604Q132.77812 494.3604 131.71562 493.0323Q130.45 491.4229 130.45 487.7823ZM132.075 487.7823Q132.075 490.95416 132.80937 492.01666Q133.55937 493.06354 134.65312 493.06354Q135.73125 493.06354 136.48125 492.01666Q137.23125 490.95416 137.23125 487.7823Q137.23125 484.6104 136.48125 483.56354Q135.73125 482.51666 134.6375 482.51666Q133.54375 482.51666 132.8875 483.43854Q132.075 484.6104 132.075 487.7823ZM140.45 487.7823Q140.45 485.50104 140.91875 484.1104Q141.3875 482.7198 142.30937 481.9698Q143.24687 481.20416 144.65312 481.20416Q145.68437 481.20416 146.46562 481.62604Q147.24687 482.0323 147.74687 482.82916Q148.2625 483.6104 148.55937 484.75104Q148.85625 485.87604 148.85625 487.7823Q148.85625 490.0479 148.3875 491.45416Q147.91875 492.8448 146.98125 493.6104Q146.05937 494.3604 144.65312 494.3604Q142.77812 494.3604 141.71562 493.0323Q140.45 491.4229 140.45 487.7823ZM142.075 487.7823Q142.075 490.95416 142.80937 492.01666Q143.55937 493.06354 144.65312 493.06354Q145.73125 493.06354 146.48125 492.01666Q147.23125 490.95416 147.23125 487.7823Q147.23125 484.6104 146.48125 483.56354Q145.73125 482.51666 144.6375 482.51666Q143.54375 482.51666 142.8875 483.43854Q142.075 484.6104 142.075 487.7823ZM150.45 490.7354L152.04375 490.5323Q152.30937 491.87604 152.96562 492.4698Q153.62187 493.06354 154.55937 493.06354Q155.68437 493.06354 156.45 492.2979Q157.21562 491.51666 157.21562 490.37604Q157.21562 489.2823 156.49687 488.57916Q155.79375 487.8604 154.7 487.8604Q154.24687 487.8604 153.575 488.0479L153.74687 486.6573Q153.90312 486.6729 154.0125 486.6729Q155.0125 486.6729 155.825 486.14166Q156.6375 485.6104 156.6375 484.51666Q156.6375 483.64166 156.04375 483.07916Q155.45 482.50104 154.52812 482.50104Q153.60625 482.50104 152.98125 483.07916Q152.37187 483.6573 152.2 484.82916L150.62187 484.5479Q150.90312 482.95416 151.93437 482.07916Q152.96562 481.20416 154.49687 481.20416Q155.54375 481.20416 156.43437 481.6573Q157.325 482.1104 157.79375 482.89166Q158.2625 483.6729 158.2625 484.5479Q158.2625 485.39166 157.80937 486.07916Q157.37187 486.75104 156.48125 487.1573Q157.62187 487.4229 158.24687 488.26666Q158.8875 489.0948 158.8875 490.32916Q158.8875 492.01666 157.65312 493.20416Q156.43437 494.37604 154.55937 494.37604Q152.85625 494.37604 151.73125 493.3604Q150.62187 492.3448 150.45 490.7354Z" fill-rule="nonzero"/><path fill="#000000" d="M85.45 356.12396Q85.45 353.8427 85.91875 352.4521Q86.3875 351.06146 87.30937 350.31146Q88.24687 349.54584 89.65312 349.54584Q90.68437 349.54584 91.46562 349.9677Q92.24687 350.37396 92.74687 351.17084Q93.2625 351.9521 93.55937 353.0927Q93.85625 354.2177 93.85625 356.12396Q93.85625 358.3896 93.3875 359.79584Q92.91875 361.18646 91.98125 361.9521Q91.05937 362.7021 89.65312 362.7021Q87.77812 362.7021 86.71562 361.37396Q85.45 359.7646 85.45 356.12396ZM87.075 356.12396Q87.075 359.29584 87.80937 360.35834Q88.55937 361.4052 89.65312 361.4052Q90.73125 361.4052 91.48125 360.35834Q92.23125 359.29584 92.23125 356.12396Q92.23125 352.9521 91.48125 351.9052Q90.73125 350.85834 89.6375 350.85834Q88.54375 350.85834 87.8875 351.7802Q87.075 352.9521 87.075 356.12396ZM96.29375 362.48334L96.29375 360.68646L98.10625 360.68646L98.10625 362.48334Q98.10625 363.48334 97.74687 364.0927Q97.40312 364.7021 96.6375 365.0302L96.2 364.35834Q96.7 364.1396 96.93437 363.7021Q97.16875 363.2802 97.2 362.48334L96.29375 362.48334ZM100.45 356.12396Q100.45 353.8427 100.91875 352.4521Q101.3875 351.06146 102.30937 350.31146Q103.24687 349.54584 104.65312 349.54584Q105.68437 349.54584 106.46562 349.9677Q107.24687 350.37396 107.74687 351.17084Q108.2625 351.9521 108.55937 353.0927Q108.85625 354.2177 108.85625 356.12396Q108.85625 358.3896 108.3875 359.79584Q107.91875 361.18646 106.98125 361.9521Q106.05937 362.7021 104.65312 362.7021Q102.77812 362.7021 101.71562 361.37396Q100.45 359.7646 100.45 356.12396ZM102.075 356.12396Q102.075 359.29584 102.80937 360.35834Q103.55937 361.4052 104.65312 361.4052Q105.73125 361.4052 106.48125 360.35834Q107.23125 359.29584 107.23125 356.12396Q107.23125 352.9521 106.48125 351.9052Q105.73125 350.85834 104.6375 350.85834Q103.54375 350.85834 102.8875 351.7802Q102.075 352.9521 102.075 356.12396ZM110.45 356.12396Q110.45 353.8427 110.91875 352.4521Q111.3875 351.06146 112.30937 350.31146Q113.24687 349.54584 114.65312 349.54584Q115.68437 349.54584 116.46562 349.9677Q117.24687 350.37396 117.74687 351.17084Q118.2625 351.9521 118.55937 353.0927Q118.85625 354.2177 118.85625 356.12396Q118.85625 358.3896 118.3875 359.79584Q117.91875 361.18646 116.98125 361.9521Q116.05937 362.7021 114.65312 362.7021Q112.77812 362.7021 111.71562 361.37396Q110.45 359.7646 110.45 356.12396ZM112.075 356.12396Q112.075 359.29584 112.80937 360.35834Q113.55937 361.4052 114.65312 361.4052Q115.73125 361.4052 116.48125 360.35834Q117.23125 359.29584 117.23125 356.12396Q117.23125 352.9521 116.48125 351.9052Q115.73125 350.85834 114.6375 350.85834Q113.54375 350.85834 112.8875 351.7802Q112.075 352.9521 112.075 356.12396ZM120.45 356.12396Q120.45 353.8427 120.91875 352.4521Q121.3875 351.06146 122.30937 350.31146Q123.24687 349.54584 124.65312 349.54584Q125.68437 349.54584 126.46562 349.9677Q127.24687 350.37396 127.74687 351.17084Q128.2625 351.9521 128.55937 353.0927Q128.85625 354.2177 128.85625 356.12396Q128.85625 358.3896 128.3875 359.79584Q127.91875 361.18646 126.98125 361.9521Q126.05937 362.7021 124.65312 362.7021Q122.77812 362.7021 121.71562 361.37396Q120.45 359.7646 120.45 356.12396ZM122.075 356.12396Q122.075 359.29584 122.80937 360.35834Q123.55937 361.4052 124.65312 361.4052Q125.73125 361.4052 126.48125 360.35834Q127.23125 359.29584 127.23125 356.12396Q127.23125 352.9521 126.48125 351.9052Q125.73125 350.85834 124.6375 350.85834Q123.54375 350.85834 122.8875 351.7802Q122.075 352.9521 122.075 356.12396ZM130.45 356.12396Q130.45 353.8427 130.91875 352.4521Q131.3875 351.06146 132.30937 350.31146Q133.24687 349.54584 134.65312 349.54584Q135.68437 349.54584 136.46562 349.9677Q137.24687 350.37396 137.74687 351.17084Q138.2625 351.9521 138.55937 353.0927Q138.85625 354.2177 138.85625 356.12396Q138.85625 358.3896 138.3875 359.79584Q137.91875 361.18646 136.98125 361.9521Q136.05937 362.7021 134.65312 362.7021Q132.77812 362.7021 131.71562 361.37396Q130.45 359.7646 130.45 356.12396ZM132.075 356.12396Q132.075 359.29584 132.80937 360.35834Q133.55937 361.4052 134.65312 361.4052Q135.73125 361.4052 136.48125 360.35834Q137.23125 359.29584 137.23125 356.12396Q137.23125 352.9521 136.48125 351.9052Q135.73125 350.85834 134.6375 350.85834Q133.54375 350.85834 132.8875 351.7802Q132.075 352.9521 132.075 356.12396ZM140.45 356.12396Q140.45 353.8427 140.91875 352.4521Q141.3875 351.06146 142.30937 350.31146Q143.24687 349.54584 144.65312 349.54584Q145.68437 349.54584 146.46562 349.9677Q147.24687 350.37396 147.74687 351.17084Q148.2625 351.9521 148.55937 353.0927Q148.85625 354.2177 148.85625 356.12396Q148.85625 358.3896 148.3875 359.79584Q147.91875 361.18646 146.98125 361.9521Q146.05937 362.7021 144.65312 362.7021Q142.77812 362.7021 141.71562 361.37396Q140.45 359.7646 140.45 356.12396ZM142.075 356.12396Q142.075 359.29584 142.80937 360.35834Q143.55937 361.4052 144.65312 361.4052Q145.73125 361.4052 146.48125 360.35834Q147.23125 359.29584 147.23125 356.12396Q147.23125 352.9521 146.48125 351.9052Q145.73125 350.85834 144.6375 350.85834Q143.54375 350.85834 142.8875 351.7802Q142.075 352.9521 142.075 356.12396ZM150.45 359.10834L152.10625 358.9677Q152.29375 360.18646 152.96562 360.79584Q153.6375 361.4052 154.59062 361.4052Q155.73125 361.4052 156.5125 360.54584Q157.30937 359.68646 157.30937 358.24896Q157.30937 356.9052 156.54375 356.12396Q155.79375 355.3427 154.55937 355.3427Q153.79375 355.3427 153.16875 355.68646Q152.55937 356.0302 152.21562 356.5927L150.73125 356.3896L151.98125 349.7802L158.3875 349.7802L158.3875 351.2802L153.24687 351.2802L152.54375 354.74896Q153.71562 353.93646 154.98125 353.93646Q156.66875 353.93646 157.825 355.10834Q158.99687 356.2802 158.99687 358.10834Q158.99687 359.85834 157.96562 361.1396Q156.73125 362.7021 154.59062 362.7021Q152.825 362.7021 151.71562 361.7177Q150.60625 360.73334 150.45 359.10834Z" fill-rule="nonzero"/><path fill="#000000" d="M85.45 224.46562Q85.45 222.18437 85.91875 220.79375Q86.3875 219.40312 87.30937 218.65312Q88.24687 217.8875 89.65312 217.8875Q90.68437 217.8875 91.46562 218.30937Q92.24687 218.71562 92.74687 219.5125Q93.2625 220.29375 93.55937 221.43437Q93.85625 222.55937 93.85625 224.46562Q93.85625 226.73125 93.3875 228.1375Q92.91875 229.52812 91.98125 230.29375Q91.05937 231.04375 89.65312 231.04375Q87.77812 231.04375 86.71562 229.71562Q85.45 228.10625 85.45 224.46562ZM87.075 224.46562Q87.075 227.6375 87.80937 228.7Q88.55937 229.74687 89.65312 229.74687Q90.73125 229.74687 91.48125 228.7Q92.23125 227.6375 92.23125 224.46562Q92.23125 221.29375 91.48125 220.24687Q90.73125 219.2 89.6375 219.2Q88.54375 219.2 87.8875 220.12187Q87.075 221.29375 87.075 224.46562ZM96.29375 230.825L96.29375 229.02812L98.10625 229.02812L98.10625 230.825Q98.10625 231.825 97.74687 232.43437Q97.40312 233.04375 96.6375 233.37187L96.2 232.7Q96.7 232.48125 96.93437 232.04375Q97.16875 231.62187 97.2 230.825L96.29375 230.825ZM100.45 224.46562Q100.45 222.18437 100.91875 220.79375Q101.3875 219.40312 102.30937 218.65312Q103.24687 217.8875 104.65312 217.8875Q105.68437 217.8875 106.46562 218.30937Q107.24687 218.71562 107.74687 219.5125Q108.2625 220.29375 108.55937 221.43437Q108.85625 222.55937 108.85625 224.46562Q108.85625 226.73125 108.3875 228.1375Q107.91875 229.52812 106.98125 230.29375Q106.05937 231.04375 104.65312 231.04375Q102.77812 231.04375 101.71562 229.71562Q100.45 228.10625 100.45 224.46562ZM102.075 224.46562Q102.075 227.6375 102.80937 228.7Q103.55937 229.74687 104.65312 229.74687Q105.73125 229.74687 106.48125 228.7Q107.23125 227.6375 107.23125 224.46562Q107.23125 221.29375 106.48125 220.24687Q105.73125 219.2 104.6375 219.2Q103.54375 219.2 102.8875 220.12187Q102.075 221.29375 102.075 224.46562ZM110.45 224.46562Q110.45 222.18437 110.91875 220.79375Q111.3875 219.40312 112.30937 218.65312Q113.24687 217.8875 114.65312 217.8875Q115.68437 217.8875 116.46562 218.30937Q117.24687 218.71562 117.74687 219.5125Q118.2625 220.29375 118.55937 221.43437Q118.85625 222.55937 118.85625 224.46562Q118.85625 226.73125 118.3875 228.1375Q117.91875 229.52812 116.98125 230.29375Q116.05937 231.04375 114.65312 231.04375Q112.77812 231.04375 111.71562 229.71562Q110.45 228.10625 110.45 224.46562ZM112.075 224.46562Q112.075 227.6375 112.80937 228.7Q113.55937 229.74687 114.65312 229.74687Q115.73125 229.74687 116.48125 228.7Q117.23125 227.6375 117.23125 224.46562Q117.23125 221.29375 116.48125 220.24687Q115.73125 219.2 114.6375 219.2Q113.54375 219.2 112.8875 220.12187Q112.075 221.29375 112.075 224.46562ZM120.45 224.46562Q120.45 222.18437 120.91875 220.79375Q121.3875 219.40312 122.30937 218.65312Q123.24687 217.8875 124.65312 217.8875Q125.68437 217.8875 126.46562 218.30937Q127.24687 218.71562 127.74687 219.5125Q128.2625 220.29375 128.55937 221.43437Q128.85625 222.55937 128.85625 224.46562Q128.85625 226.73125 128.3875 228.1375Q127.91875 229.52812 126.98125 230.29375Q126.05937 231.04375 124.65312 231.04375Q122.77812 231.04375 121.71562 229.71562Q120.45 228.10625 120.45 224.46562ZM122.075 224.46562Q122.075 227.6375 122.80937 228.7Q123.55937 229.74687 124.65312 229.74687Q125.73125 229.74687 126.48125 228.7Q127.23125 227.6375 127.23125 224.46562Q127.23125 221.29375 126.48125 220.24687Q125.73125 219.2 124.6375 219.2Q123.54375 219.2 122.8875 220.12187Q122.075 221.29375 122.075 224.46562ZM130.45 224.46562Q130.45 222.18437 130.91875 220.79375Q131.3875 219.40312 132.30937 218.65312Q133.24687 217.8875 134.65312 217.8875Q135.68437 217.8875 136.46562 218.30937Q137.24687 218.71562 137.74687 219.5125Q138.2625 220.29375 138.55937 221.43437Q138.85625 222.55937 138.85625 224.46562Q138.85625 226.73125 138.3875 228.1375Q137.91875 229.52812 136.98125 230.29375Q136.05937 231.04375 134.65312 231.04375Q132.77812 231.04375 131.71562 229.71562Q130.45 228.10625 130.45 224.46562ZM132.075 224.46562Q132.075 227.6375 132.80937 228.7Q133.55937 229.74687 134.65312 229.74687Q135.73125 229.74687 136.48125 228.7Q137.23125 227.6375 137.23125 224.46562Q137.23125 221.29375 136.48125 220.24687Q135.73125 219.2 134.6375 219.2Q133.54375 219.2 132.8875 220.12187Q132.075 221.29375 132.075 224.46562ZM140.45 224.46562Q140.45 222.18437 140.91875 220.79375Q141.3875 219.40312 142.30937 218.65312Q143.24687 217.8875 144.65312 217.8875Q145.68437 217.8875 146.46562 218.30937Q147.24687 218.71562 147.74687 219.5125Q148.2625 220.29375 148.55937 221.43437Q148.85625 222.55937 148.85625 224.46562Q148.85625 226.73125 148.3875 228.1375Q147.91875 229.52812 146.98125 230.29375Q146.05937 231.04375 144.65312 231.04375Q142.77812 231.04375 141.71562 229.71562Q140.45 228.10625 140.45 224.46562ZM142.075 224.46562Q142.075 227.6375 142.80937 228.7Q143.55937 229.74687 144.65312 229.74687Q145.73125 229.74687 146.48125 228.7Q147.23125 227.6375 147.23125 224.46562Q147.23125 221.29375 146.48125 220.24687Q145.73125 219.2 144.6375 219.2Q143.54375 219.2 142.8875 220.12187Q142.075 221.29375 142.075 224.46562ZM152.8875 223.84062Q151.90312 223.48125 151.41875 222.80937Q150.95 222.1375 150.95 221.21562Q150.95 219.80937 151.95 218.85625Q152.96562 217.8875 154.65312 217.8875Q156.34062 217.8875 157.35625 218.87187Q158.3875 219.84062 158.3875 221.24687Q158.3875 222.15312 157.91875 222.825Q157.45 223.48125 156.49687 223.84062Q157.68437 224.23125 158.29375 225.09062Q158.91875 225.95 158.91875 227.1375Q158.91875 228.79375 157.74687 229.91875Q156.575 231.04375 154.66875 231.04375Q152.7625 231.04375 151.59062 229.91875Q150.43437 228.77812 150.43437 227.09062Q150.43437 225.84062 151.05937 224.99687Q151.7 224.1375 152.8875 223.84062ZM152.55937 221.15312Q152.55937 222.075 153.15312 222.65312Q153.74687 223.23125 154.68437 223.23125Q155.59062 223.23125 156.16875 222.65312Q156.7625 222.075 156.7625 221.24687Q156.7625 220.37187 156.15312 219.77812Q155.55937 219.18437 154.66875 219.18437Q153.7625 219.18437 153.15312 219.7625Q152.55937 220.34062 152.55937 221.15312ZM152.05937 227.10625Q152.05937 227.77812 152.37187 228.41875Q152.7 229.04375 153.325 229.40312Q153.96562 229.74687 154.7 229.74687Q155.825 229.74687 156.55937 229.0125Q157.30937 228.27812 157.30937 227.15312Q157.30937 226.0125 156.54375 225.27812Q155.77812 224.52812 154.6375 224.52812Q153.52812 224.52812 152.79375 225.2625Q152.05937 225.99687 152.05937 227.10625Z" fill-rule="nonzero"/><path fill="#000000" d="M85.45 92.80729Q85.45 90.52604 85.91875 89.135414Q86.3875 87.74479 87.30937 86.99479Q88.24687 86.229164 89.65312 86.229164Q90.68437 86.229164 91.46562 86.65104Q92.24687 87.05729 92.74687 87.854164Q93.2625 88.635414 93.55937 89.77604Q93.85625 90.90104 93.85625 92.80729Q93.85625 95.072914 93.3875 96.479164Q92.91875 97.86979 91.98125 98.635414Q91.05937 99.385414 89.65312 99.385414Q87.77812 99.385414 86.71562 98.05729Q85.45 96.447914 85.45 92.80729ZM87.075 92.80729Q87.075 95.979164 87.80937 97.041664Q88.55937 98.08854 89.65312 98.08854Q90.73125 98.08854 91.48125 97.041664Q92.23125 95.979164 92.23125 92.80729Q92.23125 89.635414 91.48125 88.58854Q90.73125 87.541664 89.6375 87.541664Q88.54375 87.541664 87.8875 88.46354Q87.075 89.635414 87.075 92.80729ZM96.29375 99.166664L96.29375 97.36979L98.10625 97.36979L98.10625 99.166664Q98.10625 100.166664 97.74687 100.77604Q97.40312 101.385414 96.6375 101.71354L96.2 101.041664Q96.7 100.822914 96.93437 100.385414Q97.16875 99.96354 97.2 99.166664L96.29375 99.166664ZM100.45 92.80729Q100.45 90.52604 100.91875 89.135414Q101.3875 87.74479 102.30937 86.99479Q103.24687 86.229164 104.65312 86.229164Q105.68437 86.229164 106.46562 86.65104Q107.24687 87.05729 107.74687 87.854164Q108.2625 88.635414 108.55937 89.77604Q108.85625 90.90104 108.85625 92.80729Q108.85625 95.072914 108.3875 96.479164Q107.91875 97.86979 106.98125 98.635414Q106.05937 99.385414 104.65312 99.385414Q102.77812 99.385414 101.71562 98.05729Q100.45 96.447914 100.45 92.80729ZM102.075 92.80729Q102.075 95.979164 102.80937 97.041664Q103.55937 98.08854 104.65312 98.08854Q105.73125 98.08854 106.48125 97.041664Q107.23125 95.979164 107.23125 92.80729Q107.23125 89.635414 106.48125 88.58854Q105.73125 87.541664 104.6375 87.541664Q103.54375 87.541664 102.8875 88.46354Q102.075 89.635414 102.075 92.80729ZM110.45 92.80729Q110.45 90.52604 110.91875 89.135414Q111.3875 87.74479 112.30937 86.99479Q113.24687 86.229164 114.65312 86.229164Q115.68437 86.229164 116.46562 86.65104Q117.24687 87.05729 117.74687 87.854164Q118.2625 88.635414 118.55937 89.77604Q118.85625 90.90104 118.85625 92.80729Q118.85625 95.072914 118.3875 96.479164Q117.91875 97.86979 116.98125 98.635414Q116.05937 99.385414 114.65312 99.385414Q112.77812 99.385414 111.71562 98.05729Q110.45 96.447914 110.45 92.80729ZM112.075 92.80729Q112.075 95.979164 112.80937 97.041664Q113.55937 98.08854 114.65312 98.08854Q115.73125 98.08854 116.48125 97.041664Q117.23125 95.979164 117.23125 92.80729Q117.23125 89.635414 116.48125 88.58854Q115.73125 87.541664 114.6375 87.541664Q113.54375 87.541664 112.8875 88.46354Q112.075 89.635414 112.075 92.80729ZM120.45 92.80729Q120.45 90.52604 120.91875 89.135414Q121.3875 87.74479 122.30937 86.99479Q123.24687 86.229164 124.65312 86.229164Q125.68437 86.229164 126.46562 86.65104Q127.24687 87.05729 127.74687 87.854164Q128.2625 88.635414 128.55937 89.77604Q128.85625 90.90104 128.85625 92.80729Q128.85625 95.072914 128.3875 96.479164Q127.91875 97.86979 126.98125 98.635414Q126.05937 99.385414 124.65312 99.385414Q122.77812 99.385414 121.71562 98.05729Q120.45 96.447914 120.45 92.80729ZM122.075 92.80729Q122.075 95.979164 122.80937 97.041664Q123.55937 98.08854 124.65312 98.08854Q125.73125 98.08854 126.48125 97.041664Q127.23125 95.979164 127.23125 92.80729Q127.23125 89.635414 126.48125 88.58854Q125.73125 87.541664 124.6375 87.541664Q123.54375 87.541664 122.8875 88.46354Q122.075 89.635414 122.075 92.80729ZM130.45 92.80729Q130.45 90.52604 130.91875 89.135414Q131.3875 87.74479 132.30937 86.99479Q133.24687 86.229164 134.65312 86.229164Q135.68437 86.229164 136.46562 86.65104Q137.24687 87.05729 137.74687 87.854164Q138.2625 88.635414 138.55937 89.77604Q138.85625 90.90104 138.85625 92.80729Q138.85625 95.072914 138.3875 96.479164Q137.91875 97.86979 136.98125 98.635414Q136.05937 99.385414 134.65312 99.385414Q132.77812 99.385414 131.71562 98.05729Q130.45 96.447914 130.45 92.80729ZM132.075 92.80729Q132.075 95.979164 132.80937 97.041664Q133.55937 98.08854 134.65312 98.08854Q135.73125 98.08854 136.48125 97.041664Q137.23125 95.979164 137.23125 92.80729Q137.23125 89.635414 136.48125 88.58854Q135.73125 87.541664 134.6375 87.541664Q133.54375 87.541664 132.8875 88.46354Q132.075 89.635414 132.075 92.80729ZM146.40312 99.166664L144.825 99.166664L144.825 89.08854Q144.24687 89.635414 143.325 90.18229Q142.40312 90.71354 141.65312 90.99479L141.65312 89.46354Q142.98125 88.83854 143.98125 87.947914Q144.98125 87.05729 145.3875 86.229164L146.40312 86.229164L146.40312 99.166664ZM150.45 92.80729Q150.45 90.52604 150.91875 89.135414Q151.3875 87.74479 152.30937 86.99479Q153.24687 86.229164 154.65312 86.229164Q155.68437 86.229164 156.46562 86.65104Q157.24687 87.05729 157.74687 87.854164Q158.2625 88.635414 158.55937 89.77604Q158.85625 90.90104 158.85625 92.80729Q158.85625 95.072914 158.3875 96.479164Q157.91875 97.86979 156.98125 98.635414Q156.05937 99.385414 154.65312 99.385414Q152.77812 99.385414 151.71562 98.05729Q150.45 96.447914 150.45 92.80729ZM152.075 92.80729Q152.075 95.979164 152.80937 97.041664Q153.55937 98.08854 154.65312 98.08854Q155.73125 98.08854 156.48125 97.041664Q157.23125 95.979164 157.23125 92.80729Q157.23125 89.635414 156.48125 88.58854Q155.73125 87.541664 154.6375 87.541664Q153.54375 87.541664 152.8875 88.46354Q152.075 89.635414 152.075 92.80729Z" fill-rule="nonzero"/><path fill="#000000" d="M164.45 638.9406Q164.45 636.65936 164.91875 635.26874Q165.3875 633.8781 166.30937 633.1281Q167.24687 632.3625 168.65312 632.3625Q169.68437 632.3625 170.46562 632.78436Q171.24687 633.1906 171.74687 633.9875Q172.2625 634.76874 172.55937 635.90936Q172.85625 637.03436 172.85625 638.9406Q172.85625 641.20624 172.3875 642.6125Q171.91875 644.0031 170.98125 644.76874Q170.05937 645.51874 168.65312 645.51874Q166.77812 645.51874 165.71562 644.1906Q164.45 642.58124 164.45 638.9406ZM166.075 638.9406Q166.075 642.1125 166.80937 643.175Q167.55937 644.22186 168.65312 644.22186Q169.73125 644.22186 170.48125 643.175Q171.23125 642.1125 171.23125 638.9406Q171.23125 635.76874 170.48125 634.72186Q169.73125 633.675 168.6375 633.675Q167.54375 633.675 166.8875 634.59686Q166.075 635.76874 166.075 638.9406Z" fill-rule="nonzero"/><path fill="#000000" d="M324.39328 643.78436L324.39328 645.3L315.87766 645.3Q315.86203 644.72186 316.06516 644.20624Q316.39328 643.33124 317.0964 642.4875Q317.81516 641.64374 319.17453 640.53436Q321.26828 638.8156 322.00266 637.8156Q322.75266 636.8 322.75266 635.90936Q322.75266 634.95624 322.08078 634.3156Q321.4089 633.675 320.33078 633.675Q319.17453 633.675 318.48703 634.3625Q317.81516 635.05 317.79953 636.2531L316.17453 636.08124Q316.3464 634.26874 317.42453 633.3156Q318.51828 632.3625 320.36203 632.3625Q322.20578 632.3625 323.2839 633.39374Q324.37766 634.425 324.37766 635.9406Q324.37766 636.70624 324.04953 637.45624Q323.73703 638.20624 323.00266 639.03436Q322.26828 639.8625 320.56516 641.3Q319.14328 642.5031 318.73703 642.925Q318.33078 643.34686 318.08078 643.78436L324.39328 643.78436Z" fill-rule="nonzero"/><path fill="#000000" d="M472.77405 645.3L472.77405 642.22186L467.19592 642.22186L467.19592 640.76874L473.07092 632.40936L474.3678 632.40936L474.3678 640.76874L476.10217 640.76874L476.10217 642.22186L474.3678 642.22186L474.3678 645.3L472.77405 645.3ZM472.77405 640.76874L472.77405 634.95624L468.7428 640.76874L472.77405 640.76874Z" fill-rule="nonzero"/><path fill="#000000" d="M627.5454 635.5656L625.9829 635.6906Q625.76416 634.76874 625.37354 634.34686Q624.7329 633.65936 623.7954 633.65936Q623.0454 633.65936 622.4673 634.08124Q621.7173 634.6281 621.2798 635.675Q620.8579 636.72186 620.8423 638.65936Q621.4204 637.78436 622.2329 637.3625Q623.06104 636.9406 623.9673 636.9406Q625.56104 636.9406 626.6704 638.1125Q627.7798 639.26874 627.7798 641.1125Q627.7798 642.33124 627.24854 643.3781Q626.7329 644.40936 625.81104 644.97186Q624.9048 645.51874 623.74854 645.51874Q621.76416 645.51874 620.51416 644.0656Q619.26416 642.6125 619.26416 639.26874Q619.26416 635.53436 620.6548 633.83124Q621.8579 632.3625 623.88916 632.3625Q625.4204 632.3625 626.38916 633.22186Q627.3579 634.0656 627.5454 635.5656ZM621.0923 641.1281Q621.0923 641.9406 621.43604 642.6906Q621.7798 643.4406 622.4048 643.83124Q623.0298 644.22186 623.7173 644.22186Q624.7173 644.22186 625.43604 643.40936Q626.1548 642.59686 626.1548 641.20624Q626.1548 639.8781 625.43604 639.1125Q624.7329 638.33124 623.6548 638.33124Q622.57666 638.33124 621.82666 639.1125Q621.0923 639.8781 621.0923 641.1281Z" fill-rule="nonzero"/><path fill="#000000" d="M773.4106 638.3156Q772.4262 637.95624 771.94183 637.28436Q771.4731 636.6125 771.4731 635.6906Q771.4731 634.28436 772.4731 633.33124Q773.4887 632.3625 775.1762 632.3625Q776.8637 632.3625 777.87933 633.34686Q778.9106 634.3156 778.9106 635.72186Q778.9106 636.6281 778.44183 637.3Q777.9731 637.95624 777.01996 638.3156Q778.20746 638.70624 778.81683 639.5656Q779.44183 640.425 779.44183 641.6125Q779.44183 643.26874 778.26996 644.39374Q777.0981 645.51874 775.19183 645.51874Q773.2856 645.51874 772.1137 644.39374Q770.95746 643.2531 770.95746 641.5656Q770.95746 640.3156 771.58246 639.47186Q772.2231 638.6125 773.4106 638.3156ZM773.08246 635.6281Q773.08246 636.55 773.6762 637.1281Q774.26996 637.70624 775.20746 637.70624Q776.1137 637.70624 776.69183 637.1281Q777.2856 636.55 777.2856 635.72186Q777.2856 634.84686 776.6762 634.2531Q776.08246 633.65936 775.19183 633.65936Q774.2856 633.65936 773.6762 634.2375Q773.08246 634.8156 773.08246 635.6281ZM772.58246 641.58124Q772.58246 642.2531 772.89496 642.89374Q773.2231 643.51874 773.8481 643.8781Q774.4887 644.22186 775.2231 644.22186Q776.3481 644.22186 777.08246 643.4875Q777.83246 642.7531 777.83246 641.6281Q777.83246 640.4875 777.06683 639.7531Q776.3012 639.0031 775.1606 639.0031Q774.0512 639.0031 773.31683 639.7375Q772.58246 640.47186 772.58246 641.58124Z" fill-rule="nonzero"/><path fill="#000000" d="M923.55695 645.3L921.9788 645.3L921.9788 635.22186Q921.4007 635.76874 920.4788 636.3156Q919.55695 636.84686 918.80695 637.1281L918.80695 635.59686Q920.1351 634.97186 921.1351 634.08124Q922.1351 633.1906 922.5413 632.3625L923.55695 632.3625L923.55695 645.3ZM927.6038 638.9406Q927.6038 636.65936 928.0726 635.26874Q928.5413 633.8781 929.4632 633.1281Q930.4007 632.3625 931.80695 632.3625Q932.8382 632.3625 933.61945 632.78436Q934.4007 633.1906 934.9007 633.9875Q935.4163 634.76874 935.7132 635.90936Q936.0101 637.03436 936.0101 638.9406Q936.0101 641.20624 935.5413 642.6125Q935.0726 644.0031 934.1351 644.76874Q933.2132 645.51874 931.80695 645.51874Q929.93195 645.51874 928.86945 644.1906Q927.6038 642.58124 927.6038 638.9406ZM929.2288 638.9406Q929.2288 642.1125 929.9632 643.175Q930.7132 644.22186 931.80695 644.22186Q932.8851 644.22186 933.6351 643.175Q934.3851 642.1125 934.3851 638.9406Q934.3851 635.76874 933.6351 634.72186Q932.8851 633.675 931.7913 633.675Q930.6976 633.675 930.0413 634.59686Q929.2288 635.76874 929.2288 638.9406Z" fill-rule="nonzero"/><path fill="#000000" d="M1075.1877 645.3L1073.6096 645.3L1073.6096 635.22186Q1073.0315 635.76874 1072.1096 636.3156Q1071.1877 636.84686 1070.4377 637.1281L1070.4377 635.59686Q1071.7659 634.97186 1072.7659 634.08124Q1073.7659 633.1906 1074.1721 632.3625L1075.1877 632.3625L1075.1877 645.3ZM1087.5471 643.78436L1087.5471 645.3L1079.0315 645.3Q1079.0159 644.72186 1079.219 644.20624Q1079.5471 643.33124 1080.2502 642.4875Q1080.969 641.64374 1082.3284 640.53436Q1084.4221 638.8156 1085.1565 637.8156Q1085.9065 636.8 1085.9065 635.90936Q1085.9065 634.95624 1085.2346 634.3156Q1084.5627 633.675 1083.4846 633.675Q1082.3284 633.675 1081.6409 634.3625Q1080.969 635.05 1080.9534 636.2531L1079.3284 636.08124Q1079.5002 634.26874 1080.5784 633.3156Q1081.6721 632.3625 1083.5159 632.3625Q1085.3596 632.3625 1086.4377 633.39374Q1087.5315 634.425 1087.5315 635.9406Q1087.5315 636.70624 1087.2034 637.45624Q1086.8909 638.20624 1086.1565 639.03436Q1085.4221 639.8625 1083.719 641.3Q1082.2971 642.5031 1081.8909 642.925Q1081.4846 643.34686 1081.2346 643.78436L1087.5471 643.78436Z" fill-rule="nonzero"/><path stroke="#4285f4" stroke-width="4.0" stroke-linecap="butt" d="M295.5 47.2L307.5 47.2" fill-rule="nonzero"/><path fill="#1a1a1a" d="M318.0625 40.809376L325.89062 40.809376L325.89062 52.184376L327.0625 52.184376L327.0625 56.7L325.53125 56.7L325.53125 53.7L317.01562 53.7L317.01562 56.7L315.5 56.7L315.5 52.184376L316.5 52.184376Q318.0625 49.825 318.0625 42.7L318.0625 40.809376ZM324.1875 42.340626L319.70312 42.340626L319.70312 42.996876Q319.70312 44.6375 319.40625 47.496876Q319.10938 50.340626 318.25 52.184376L324.1875 52.184376L324.1875 42.340626ZM334.78125 52.54375Q333.90625 53.29375 333.07812 53.60625Q332.26562 53.91875 331.34375 53.91875Q329.79688 53.91875 328.96875 53.16875Q328.15625 52.403126 328.15625 51.23125Q328.15625 50.559376 328.46875 49.996876Q328.78125 49.41875 329.28125 49.075Q329.78125 48.73125 330.42188 48.559376Q330.89062 48.434376 331.82812 48.325Q333.73438 48.090626 334.64062 47.778126Q334.65625 47.45 334.65625 47.35625Q334.65625 46.403126 334.20312 45.996876Q333.59375 45.465626 332.40625 45.465626Q331.28125 45.465626 330.75 45.85625Q330.21875 46.246876 329.96875 47.246876L328.42188 47.028126Q328.64062 46.028126 329.10938 45.41875Q329.59375 44.809376 330.5 44.48125Q331.42188 44.153126 332.64062 44.153126Q333.82812 44.153126 334.57812 44.434376Q335.32812 44.715626 335.67188 45.153126Q336.03125 45.575 336.17188 46.215626Q336.25 46.621876 336.25 47.684376L336.25 49.79375Q336.25 51.996876 336.34375 52.590626Q336.45312 53.16875 336.75 53.7L335.09375 53.7Q334.84375 53.2 334.78125 52.54375ZM334.64062 49.0125Q333.78125 49.371876 332.0625 49.60625Q331.09375 49.746876 330.6875 49.934376Q330.28125 50.10625 330.0625 50.45Q329.84375 50.778126 329.84375 51.2Q329.84375 51.825 330.3125 52.246876Q330.79688 52.66875 331.71875 52.66875Q332.64062 52.66875 333.34375 52.278126Q334.0625 51.871876 334.39062 51.184376Q334.64062 50.6375 334.64062 49.590626L334.64062 49.0125ZM338.73438 44.371876L341.1875 44.371876L343.64062 51.840626L346.375 44.371876L348.64062 44.371876L348.64062 53.7L347.0625 53.7L347.0625 46.184376L344.29688 53.7L342.89062 53.7L340.28125 45.825L340.28125 53.7L338.73438 53.7L338.73438 44.371876ZM357.07812 50.7L358.71875 50.903126Q358.32812 52.325 357.28125 53.121876Q356.23438 53.91875 354.60938 53.91875Q352.5625 53.91875 351.35938 52.653126Q350.15625 51.3875 350.15625 49.10625Q350.15625 46.7625 351.35938 45.465626Q352.57812 44.153126 354.51562 44.153126Q356.39062 44.153126 357.57812 45.434376Q358.76562 46.7 358.76562 49.0125Q358.76562 49.153126 358.75 49.434376L351.79688 49.434376Q351.875 50.98125 352.65625 51.79375Q353.45312 52.60625 354.60938 52.60625Q355.48438 52.60625 356.09375 52.153126Q356.71875 51.7 357.07812 50.7ZM351.875 48.1375L357.09375 48.1375Q356.98438 46.965626 356.5 46.371876Q355.73438 45.45 354.53125 45.45Q353.45312 45.45 352.70312 46.184376Q351.96875 46.91875 351.875 48.1375ZM360.6875 57.278126L360.6875 44.371876L362.125 44.371876L362.125 45.575Q362.64062 44.871876 363.28125 44.5125Q363.92188 44.153126 364.82812 44.153126Q366.03125 44.153126 366.9375 44.778126Q367.85938 45.3875 368.32812 46.5125Q368.79688 47.621876 368.79688 48.965626Q368.79688 50.3875 368.28125 51.54375Q367.76562 52.684376 366.78125 53.309376Q365.79688 53.91875 364.71875 53.91875Q363.9375 53.91875 363.29688 53.590626Q362.67188 53.246876 362.26562 52.73125L362.26562 57.278126L360.6875 57.278126ZM362.125 49.090626Q362.125 50.8875 362.84375 51.746876Q363.57812 52.60625 364.60938 52.60625Q365.67188 52.60625 366.42188 51.715626Q367.17188 50.825 367.17188 48.95Q367.17188 47.16875 366.4375 46.278126Q365.70312 45.3875 364.6875 45.3875Q363.67188 45.3875 362.89062 46.340626Q362.125 47.278126 362.125 49.090626ZM376.78125 52.54375Q375.90625 53.29375 375.07812 53.60625Q374.26562 53.91875 373.34375 53.91875Q371.79688 53.91875 370.96875 53.16875Q370.15625 52.403126 370.15625 51.23125Q370.15625 50.559376 370.46875 49.996876Q370.78125 49.41875 371.28125 49.075Q371.78125 48.73125 372.42188 48.559376Q372.89062 48.434376 373.82812 48.325Q375.73438 48.090626 376.64062 47.778126Q376.65625 47.45 376.65625 47.35625Q376.65625 46.403126 376.20312 45.996876Q375.59375 45.465626 374.40625 45.465626Q373.28125 45.465626 372.75 45.85625Q372.21875 46.246876 371.96875 47.246876L370.42188 47.028126Q370.64062 46.028126 371.10938 45.41875Q371.59375 44.809376 372.5 44.48125Q373.42188 44.153126 374.64062 44.153126Q375.82812 44.153126 376.57812 44.434376Q377.32812 44.715626 377.67188 45.153126Q378.03125 45.575 378.17188 46.215626Q378.25 46.621876 378.25 47.684376L378.25 49.79375Q378.25 51.996876 378.34375 52.590626Q378.45312 53.16875 378.75 53.7L377.09375 53.7Q376.84375 53.2 376.78125 52.54375ZM376.64062 49.0125Q375.78125 49.371876 374.0625 49.60625Q373.09375 49.746876 372.6875 49.934376Q372.28125 50.10625 372.0625 50.45Q371.84375 50.778126 371.84375 51.2Q371.84375 51.825 372.3125 52.246876Q372.79688 52.66875 373.71875 52.66875Q374.64062 52.66875 375.34375 52.278126Q376.0625 51.871876 376.39062 51.184376Q376.64062 50.6375 376.64062 49.590626L376.64062 49.0125ZM380.60938 57.29375L380.4375 55.809376Q380.95312 55.95 381.34375 55.95Q381.875 55.95 382.1875 55.778126Q382.5 55.60625 382.70312 55.278126Q382.85938 55.04375 383.1875 54.10625Q383.23438 53.965626 383.32812 53.715626L379.79688 44.371876L381.5 44.371876L383.4375 49.778126Q383.8125 50.79375 384.10938 51.934376Q384.39062 50.840626 384.76562 49.809376L386.76562 44.371876L388.34375 44.371876L384.79688 53.85625Q384.21875 55.403126 383.90625 55.98125Q383.48438 56.7625 382.9375 57.121876Q382.39062 57.48125 381.64062 57.48125Q381.17188 57.48125 380.60938 57.29375ZM389.07812 49.825L389.07812 48.246876L393.9375 48.246876L393.9375 49.825L389.07812 49.825ZM396.82812 40.809376L404.89062 40.809376L404.89062 53.7L403.1875 53.7L403.1875 42.340626L398.53125 42.340626L398.53125 48.965626Q398.53125 50.996876 398.34375 51.934376Q398.15625 52.871876 397.54688 53.403126Q396.9375 53.91875 396.01562 53.91875Q395.45312 53.91875 394.65625 53.715626L394.95312 52.2Q395.375 52.371876 395.67188 52.371876Q396.25 52.371876 396.53125 51.934376Q396.82812 51.496876 396.82812 49.8875L396.82812 40.809376ZM414.07812 50.7L415.71875 50.903126Q415.32812 52.325 414.28125 53.121876Q413.23438 53.91875 411.60938 53.91875Q409.5625 53.91875 408.35938 52.653126Q407.15625 51.3875 407.15625 49.10625Q407.15625 46.7625 408.35938 45.465626Q409.57812 44.153126 411.51562 44.153126Q413.39062 44.153126 414.57812 45.434376Q415.76562 46.7 415.76562 49.0125Q415.76562 49.153126 415.75 49.434376L408.79688 49.434376Q408.875 50.98125 409.65625 51.79375Q410.45312 52.60625 411.60938 52.60625Q412.48438 52.60625 413.09375 52.153126Q413.71875 51.7 414.07812 50.7ZM408.875 48.1375L414.09375 48.1375Q413.98438 46.965626 413.5 46.371876Q412.73438 45.45 411.53125 45.45Q410.45312 45.45 409.70312 46.184376Q408.96875 46.91875 408.875 48.1375ZM417.70312 44.371876L421.34375 44.371876Q422.6875 44.371876 423.34375 44.590626Q424.0 44.809376 424.46875 45.41875Q424.9375 46.0125 424.9375 46.840626Q424.9375 47.5125 424.65625 48.0125Q424.39062 48.5125 423.82812 48.840626Q424.48438 49.059376 424.92188 49.66875Q425.35938 50.2625 425.35938 51.090626Q425.26562 52.41875 424.40625 53.059376Q423.54688 53.7 421.90625 53.7L417.70312 53.7L417.70312 44.371876ZM419.28125 48.29375L420.96875 48.29375Q421.96875 48.29375 422.34375 48.2Q422.73438 48.090626 423.03125 47.7625Q423.32812 47.434376 423.32812 46.996876Q423.32812 46.2625 422.79688 45.965626Q422.28125 45.66875 421.01562 45.66875L419.28125 45.66875L419.28125 48.29375ZM419.28125 52.403126L421.35938 52.403126Q422.70312 52.403126 423.20312 52.090626Q423.70312 51.778126 423.73438 51.0125Q423.73438 50.559376 423.4375 50.184376Q423.15625 49.79375 422.6875 49.7Q422.21875 49.590626 421.1875 49.590626L419.28125 49.590626L419.28125 52.403126ZM434.07812 50.7L435.71875 50.903126Q435.32812 52.325 434.28125 53.121876Q433.23438 53.91875 431.60938 53.91875Q429.5625 53.91875 428.35938 52.653126Q427.15625 51.3875 427.15625 49.10625Q427.15625 46.7625 428.35938 45.465626Q429.57812 44.153126 431.51562 44.153126Q433.39062 44.153126 434.57812 45.434376Q435.76562 46.7 435.76562 49.0125Q435.76562 49.153126 435.75 49.434376L428.79688 49.434376Q428.875 50.98125 429.65625 51.79375Q430.45312 52.60625 431.60938 52.60625Q432.48438 52.60625 433.09375 52.153126Q433.71875 51.7 434.07812 50.7ZM428.875 48.1375L434.09375 48.1375Q433.98438 46.965626 433.5 46.371876Q432.73438 45.45 431.53125 45.45Q430.45312 45.45 429.70312 46.184376Q428.96875 46.91875 428.875 48.1375ZM437.70312 44.371876L439.28125 44.371876L439.28125 48.246876L443.65625 48.246876L443.65625 44.371876L445.25 44.371876L445.25 53.7L443.65625 53.7L443.65625 49.559376L439.28125 49.559376L439.28125 53.7L437.70312 53.7L437.70312 44.371876ZM447.73438 44.371876L449.32812 44.371876L449.32812 52.3875L452.92188 52.3875L452.92188 44.371876L454.5 44.371876L454.5 52.3875L458.125 52.3875L458.125 44.371876L459.6875 44.371876L459.6875 53.7L447.73438 53.7L447.73438 44.371876ZM460.82812 44.371876L468.42188 44.371876L468.42188 45.66875L465.40625 45.66875L465.40625 53.7L463.84375 53.7L463.84375 45.66875L460.82812 45.66875L460.82812 44.371876ZM476.07812 50.7L477.71875 50.903126Q477.32812 52.325 476.28125 53.121876Q475.23438 53.91875 473.60938 53.91875Q471.5625 53.91875 470.35938 52.653126Q469.15625 51.3875 469.15625 49.10625Q469.15625 46.7625 470.35938 45.465626Q471.57812 44.153126 473.51562 44.153126Q475.39062 44.153126 476.57812 45.434376Q477.76562 46.7 477.76562 49.0125Q477.76562 49.153126 477.75 49.434376L470.79688 49.434376Q470.875 50.98125 471.65625 51.79375Q472.45312 52.60625 473.60938 52.60625Q474.48438 52.60625 475.09375 52.153126Q475.71875 51.7 476.07812 50.7ZM470.875 48.1375L476.09375 48.1375Q475.98438 46.965626 475.5 46.371876Q474.73438 45.45 473.53125 45.45Q472.45312 45.45 471.70312 46.184376Q470.96875 46.91875 470.875 48.1375ZM479.6875 44.371876L481.26562 44.371876L481.26562 51.48125L485.65625 44.371876L487.35938 44.371876L487.35938 53.7L485.78125 53.7L485.78125 46.621876L481.39062 53.7L479.6875 53.7L479.6875 44.371876ZM485.17188 40.825L486.25 40.825Q486.125 41.934376 485.45312 42.528126Q484.78125 43.10625 483.65625 43.10625Q482.53125 43.10625 481.85938 42.528126Q481.1875 41.934376 481.0625 40.825L482.14062 40.825Q482.26562 41.434376 482.625 41.73125Q483.0 42.0125 483.60938 42.0125Q484.32812 42.0125 484.6875 41.73125Q485.04688 41.45 485.17188 40.825ZM489.70312 44.371876L491.28125 44.371876L491.28125 48.246876L495.65625 48.246876L495.65625 44.371876L497.25 44.371876L497.25 53.7L495.65625 53.7L495.65625 49.559376L491.28125 49.559376L491.28125 53.7L489.70312 53.7L489.70312 44.371876Z" fill-rule="nonzero"/><path stroke="#ea4335" stroke-width="4.0" stroke-linecap="butt" d="M514.5 47.2L526.5 47.2" fill-rule="nonzero"/><path fill="#1a1a1a" d="M537.0625 40.809376L544.8906 40.809376L544.8906 52.184376L546.0625 52.184376L546.0625 56.7L544.53125 56.7L544.53125 53.7L536.0156 53.7L536.0156 56.7L534.5 56.7L534.5 52.184376L535.5 52.184376Q537.0625 49.825 537.0625 42.7L537.0625 40.809376ZM543.1875 42.340626L538.7031 42.340626L538.7031 42.996876Q538.7031 44.6375 538.40625 47.496876Q538.1094 50.340626 537.25 52.184376L543.1875 52.184376L543.1875 42.340626ZM553.78125 52.54375Q552.90625 53.29375 552.0781 53.60625Q551.2656 53.91875 550.34375 53.91875Q548.7969 53.91875 547.96875 53.16875Q547.15625 52.403126 547.15625 51.23125Q547.15625 50.559376 547.46875 49.996876Q547.78125 49.41875 548.28125 49.075Q548.78125 48.73125 549.4219 48.559376Q549.8906 48.434376 550.8281 48.325Q552.7344 48.090626 553.6406 47.778126Q553.65625 47.45 553.65625 47.35625Q553.65625 46.403126 553.2031 45.996876Q552.59375 45.465626 551.40625 45.465626Q550.28125 45.465626 549.75 45.85625Q549.21875 46.246876 548.96875 47.246876L547.4219 47.028126Q547.6406 46.028126 548.1094 45.41875Q548.59375 44.809376 549.5 44.48125Q550.4219 44.153126 551.6406 44.153126Q552.8281 44.153126 553.5781 44.434376Q554.3281 44.715626 554.6719 45.153126Q555.03125 45.575 555.1719 46.215626Q555.25 46.621876 555.25 47.684376L555.25 49.79375Q555.25 51.996876 555.34375 52.590626Q555.4531 53.16875 555.75 53.7L554.09375 53.7Q553.84375 53.2 553.78125 52.54375ZM553.6406 49.0125Q552.78125 49.371876 551.0625 49.60625Q550.09375 49.746876 549.6875 49.934376Q549.28125 50.10625 549.0625 50.45Q548.84375 50.778126 548.84375 51.2Q548.84375 51.825 549.3125 52.246876Q549.7969 52.66875 550.71875 52.66875Q551.6406 52.66875 552.34375 52.278126Q553.0625 51.871876 553.3906 51.184376Q553.6406 50.6375 553.6406 49.590626L553.6406 49.0125ZM557.7344 44.371876L560.1875 44.371876L562.6406 51.840626L565.375 44.371876L567.6406 44.371876L567.6406 53.7L566.0625 53.7L566.0625 46.184376L563.2969 53.7L561.8906 53.7L559.28125 45.825L559.28125 53.7L557.7344 53.7L557.7344 44.371876ZM576.0781 50.7L577.71875 50.903126Q577.3281 52.325 576.28125 53.121876Q575.2344 53.91875 573.6094 53.91875Q571.5625 53.91875 570.3594 52.653126Q569.15625 51.3875 569.15625 49.10625Q569.15625 46.7625 570.3594 45.465626Q571.5781 44.153126 573.5156 44.153126Q575.3906 44.153126 576.5781 45.434376Q577.7656 46.7 577.7656 49.0125Q577.7656 49.153126 577.75 49.434376L570.7969 49.434376Q570.875 50.98125 571.65625 51.79375Q572.4531 52.60625 573.6094 52.60625Q574.4844 52.60625 575.09375 52.153126Q575.71875 51.7 576.0781 50.7ZM570.875 48.1375L576.09375 48.1375Q575.9844 46.965626 575.5 46.371876Q574.7344 45.45 573.53125 45.45Q572.4531 45.45 571.7031 46.184376Q570.96875 46.91875 570.875 48.1375ZM579.6875 57.278126L579.6875 44.371876L581.125 44.371876L581.125 45.575Q581.6406 44.871876 582.28125 44.5125Q582.9219 44.153126 583.8281 44.153126Q585.03125 44.153126 585.9375 44.778126Q586.8594 45.3875 587.3281 46.5125Q587.7969 47.621876 587.7969 48.965626Q587.7969 50.3875 587.28125 51.54375Q586.7656 52.684376 585.78125 53.309376Q584.7969 53.91875 583.71875 53.91875Q582.9375 53.91875 582.2969 53.590626Q581.6719 53.246876 581.2656 52.73125L581.2656 57.278126L579.6875 57.278126ZM581.125 49.090626Q581.125 50.8875 581.84375 51.746876Q582.5781 52.60625 583.6094 52.60625Q584.6719 52.60625 585.4219 51.715626Q586.1719 50.825 586.1719 48.95Q586.1719 47.16875 585.4375 46.278126Q584.7031 45.3875 583.6875 45.3875Q582.6719 45.3875 581.8906 46.340626Q581.125 47.278126 581.125 49.090626ZM595.78125 52.54375Q594.90625 53.29375 594.0781 53.60625Q593.2656 53.91875 592.34375 53.91875Q590.7969 53.91875 589.96875 53.16875Q589.15625 52.403126 589.15625 51.23125Q589.15625 50.559376 589.46875 49.996876Q589.78125 49.41875 590.28125 49.075Q590.78125 48.73125 591.4219 48.559376Q591.8906 48.434376 592.8281 48.325Q594.7344 48.090626 595.6406 47.778126Q595.65625 47.45 595.65625 47.35625Q595.65625 46.403126 595.2031 45.996876Q594.59375 45.465626 593.40625 45.465626Q592.28125 45.465626 591.75 45.85625Q591.21875 46.246876 590.96875 47.246876L589.4219 47.028126Q589.6406 46.028126 590.1094 45.41875Q590.59375 44.809376 591.5 44.48125Q592.4219 44.153126 593.6406 44.153126Q594.8281 44.153126 595.5781 44.434376Q596.3281 44.715626 596.6719 45.153126Q597.03125 45.575 597.1719 46.215626Q597.25 46.621876 597.25 47.684376L597.25 49.79375Q597.25 51.996876 597.34375 52.590626Q597.4531 53.16875 597.75 53.7L596.09375 53.7Q595.84375 53.2 595.78125 52.54375ZM595.6406 49.0125Q594.78125 49.371876 593.0625 49.60625Q592.09375 49.746876 591.6875 49.934376Q591.28125 50.10625 591.0625 50.45Q590.84375 50.778126 590.84375 51.2Q590.84375 51.825 591.3125 52.246876Q591.7969 52.66875 592.71875 52.66875Q593.6406 52.66875 594.34375 52.278126Q595.0625 51.871876 595.3906 51.184376Q595.6406 50.6375 595.6406 49.590626L595.6406 49.0125ZM599.6094 57.29375L599.4375 55.809376Q599.9531 55.95 600.34375 55.95Q600.875 55.95 601.1875 55.778126Q601.5 55.60625 601.7031 55.278126Q601.8594 55.04375 602.1875 54.10625Q602.2344 53.965626 602.3281 53.715626L598.7969 44.371876L600.5 44.371876L602.4375 49.778126Q602.8125 50.79375 603.1094 51.934376Q603.3906 50.840626 603.7656 49.809376L605.7656 44.371876L607.34375 44.371876L603.7969 53.85625Q603.21875 55.403126 602.90625 55.98125Q602.4844 56.7625 601.9375 57.121876Q601.3906 57.48125 600.6406 57.48125Q600.1719 57.48125 599.6094 57.29375ZM608.0781 49.825L608.0781 48.246876L612.9375 48.246876L612.9375 49.825L608.0781 49.825ZM615.8281 40.809376L623.8906 40.809376L623.8906 53.7L622.1875 53.7L622.1875 42.340626L617.53125 42.340626L617.53125 48.965626Q617.53125 50.996876 617.34375 51.934376Q617.15625 52.871876 616.5469 53.403126Q615.9375 53.91875 615.0156 53.91875Q614.4531 53.91875 613.65625 53.715626L613.9531 52.2Q614.375 52.371876 614.6719 52.371876Q615.25 52.371876 615.53125 51.934376Q615.8281 51.496876 615.8281 49.8875L615.8281 40.809376ZM633.0781 50.7L634.71875 50.903126Q634.3281 52.325 633.28125 53.121876Q632.2344 53.91875 630.6094 53.91875Q628.5625 53.91875 627.3594 52.653126Q626.15625 51.3875 626.15625 49.10625Q626.15625 46.7625 627.3594 45.465626Q628.5781 44.153126 630.5156 44.153126Q632.3906 44.153126 633.5781 45.434376Q634.7656 46.7 634.7656 49.0125Q634.7656 49.153126 634.75 49.434376L627.7969 49.434376Q627.875 50.98125 628.65625 51.79375Q629.4531 52.60625 630.6094 52.60625Q631.4844 52.60625 632.09375 52.153126Q632.71875 51.7 633.0781 50.7ZM627.875 48.1375L633.09375 48.1375Q632.9844 46.965626 632.5 46.371876Q631.7344 45.45 630.53125 45.45Q629.4531 45.45 628.7031 46.184376Q627.96875 46.91875 627.875 48.1375ZM636.7031 44.371876L640.34375 44.371876Q641.6875 44.371876 642.34375 44.590626Q643.0 44.809376 643.46875 45.41875Q643.9375 46.0125 643.9375 46.840626Q643.9375 47.5125 643.65625 48.0125Q643.3906 48.5125 642.8281 48.840626Q643.4844 49.059376 643.9219 49.66875Q644.3594 50.2625 644.3594 51.090626Q644.2656 52.41875 643.40625 53.059376Q642.5469 53.7 640.90625 53.7L636.7031 53.7L636.7031 44.371876ZM638.28125 48.29375L639.96875 48.29375Q640.96875 48.29375 641.34375 48.2Q641.7344 48.090626 642.03125 47.7625Q642.3281 47.434376 642.3281 46.996876Q642.3281 46.2625 641.7969 45.965626Q641.28125 45.66875 640.0156 45.66875L638.28125 45.66875L638.28125 48.29375ZM638.28125 52.403126L640.3594 52.403126Q641.7031 52.403126 642.2031 52.090626Q642.7031 51.778126 642.7344 51.0125Q642.7344 50.559376 642.4375 50.184376Q642.15625 49.79375 641.6875 49.7Q641.21875 49.590626 640.1875 49.590626L638.28125 49.590626L638.28125 52.403126ZM653.0781 50.7L654.71875 50.903126Q654.3281 52.325 653.28125 53.121876Q652.2344 53.91875 650.6094 53.91875Q648.5625 53.91875 647.3594 52.653126Q646.15625 51.3875 646.15625 49.10625Q646.15625 46.7625 647.3594 45.465626Q648.5781 44.153126 650.5156 44.153126Q652.3906 44.153126 653.5781 45.434376Q654.7656 46.7 654.7656 49.0125Q654.7656 49.153126 654.75 49.434376L647.7969 49.434376Q647.875 50.98125 648.65625 51.79375Q649.4531 52.60625 650.6094 52.60625Q651.4844 52.60625 652.09375 52.153126Q652.71875 51.7 653.0781 50.7ZM647.875 48.1375L653.09375 48.1375Q652.9844 46.965626 652.5 46.371876Q651.7344 45.45 650.53125 45.45Q649.4531 45.45 648.7031 46.184376Q647.96875 46.91875 647.875 48.1375ZM656.7031 44.371876L658.28125 44.371876L658.28125 48.246876L662.65625 48.246876L662.65625 44.371876L664.25 44.371876L664.25 53.7L662.65625 53.7L662.65625 49.559376L658.28125 49.559376L658.28125 53.7L656.7031 53.7L656.7031 44.371876ZM666.7344 44.371876L668.3281 44.371876L668.3281 52.3875L671.9219 52.3875L671.9219 44.371876L673.5 44.371876L673.5 52.3875L677.125 52.3875L677.125 44.371876L678.6875 44.371876L678.6875 53.7L666.7344 53.7L666.7344 44.371876ZM679.8281 44.371876L687.4219 44.371876L687.4219 45.66875L684.40625 45.66875L684.40625 53.7L682.84375 53.7L682.84375 45.66875L679.8281 45.66875L679.8281 44.371876ZM695.0781 50.7L696.71875 50.903126Q696.3281 52.325 695.28125 53.121876Q694.2344 53.91875 692.6094 53.91875Q690.5625 53.91875 689.3594 52.653126Q688.15625 51.3875 688.15625 49.10625Q688.15625 46.7625 689.3594 45.465626Q690.5781 44.153126 692.5156 44.153126Q694.3906 44.153126 695.5781 45.434376Q696.7656 46.7 696.7656 49.0125Q696.7656 49.153126 696.75 49.434376L689.7969 49.434376Q689.875 50.98125 690.65625 51.79375Q691.4531 52.60625 692.6094 52.60625Q693.4844 52.60625 694.09375 52.153126Q694.71875 51.7 695.0781 50.7ZM689.875 48.1375L695.09375 48.1375Q694.9844 46.965626 694.5 46.371876Q693.7344 45.45 692.53125 45.45Q691.4531 45.45 690.7031 46.184376Q689.96875 46.91875 689.875 48.1375ZM698.6875 44.371876L700.2656 44.371876L700.2656 51.48125L704.65625 44.371876L706.3594 44.371876L706.3594 53.7L704.78125 53.7L704.78125 46.621876L700.3906 53.7L698.6875 53.7L698.6875 44.371876ZM704.1719 40.825L705.25 40.825Q705.125 41.934376 704.4531 42.528126Q703.78125 43.10625 702.65625 43.10625Q701.53125 43.10625 700.8594 42.528126Q700.1875 41.934376 700.0625 40.825L701.1406 40.825Q701.2656 41.434376 701.625 41.73125Q702.0 42.0125 702.6094 42.0125Q703.3281 42.0125 703.6875 41.73125Q704.0469 41.45 704.1719 40.825ZM708.7031 44.371876L710.28125 44.371876L710.28125 48.246876L714.65625 48.246876L714.65625 44.371876L716.25 44.371876L716.25 53.7L714.65625 53.7L714.65625 49.559376L710.28125 49.559376L710.28125 53.7L708.7031 53.7L708.7031 44.371876ZM729.78125 50.278126L731.3281 50.48125Q731.0781 52.090626 730.03125 53.0125Q728.9844 53.91875 727.4531 53.91875Q725.53125 53.91875 724.3594 52.66875Q723.2031 51.403126 723.2031 49.075Q723.2031 47.559376 723.7031 46.434376Q724.2031 45.29375 725.21875 44.73125Q726.25 44.153126 727.4531 44.153126Q728.9844 44.153126 729.9375 44.934376Q730.90625 45.7 731.1875 47.10625L729.6406 47.340626Q729.4219 46.403126 728.8594 45.934376Q728.3125 45.45 727.5156 45.45Q726.3281 45.45 725.5781 46.309376Q724.8281 47.16875 724.8281 49.028126Q724.8281 50.903126 725.5469 51.7625Q726.2656 52.60625 727.4375 52.60625Q728.3594 52.60625 728.9844 52.04375Q729.6094 51.465626 729.78125 50.278126ZM737.6875 57.278126L737.6875 44.371876L739.125 44.371876L739.125 45.575Q739.6406 44.871876 740.28125 44.5125Q740.9219 44.153126 741.8281 44.153126Q743.03125 44.153126 743.9375 44.778126Q744.8594 45.3875 745.3281 46.5125Q745.7969 47.621876 745.7969 48.965626Q745.7969 50.3875 745.28125 51.54375Q744.7656 52.684376 743.78125 53.309376Q742.7969 53.91875 741.71875 53.91875Q740.9375 53.91875 740.2969 53.590626Q739.6719 53.246876 739.2656 52.73125L739.2656 57.278126L737.6875 57.278126ZM739.125 49.090626Q739.125 50.8875 739.84375 51.746876Q740.5781 52.60625 741.6094 52.60625Q742.6719 52.60625 743.4219 51.715626Q744.1719 50.825 744.1719 48.95Q744.1719 47.16875 743.4375 46.278126Q742.7031 45.3875 741.6875 45.3875Q740.6719 45.3875 739.8906 46.340626Q739.125 47.278126 739.125 49.090626ZM754.0781 50.7L755.71875 50.903126Q755.3281 52.325 754.28125 53.121876Q753.2344 53.91875 751.6094 53.91875Q749.5625 53.91875 748.3594 52.653126Q747.15625 51.3875 747.15625 49.10625Q747.15625 46.7625 748.3594 45.465626Q749.5781 44.153126 751.5156 44.153126Q753.3906 44.153126 754.5781 45.434376Q755.7656 46.7 755.7656 49.0125Q755.7656 49.153126 755.75 49.434376L748.7969 49.434376Q748.875 50.98125 749.65625 51.79375Q750.4531 52.60625 751.6094 52.60625Q752.4844 52.60625 753.09375 52.153126Q753.71875 51.7 754.0781 50.7ZM748.875 48.1375L754.09375 48.1375Q753.9844 46.965626 753.5 46.371876Q752.7344 45.45 751.53125 45.45Q750.4531 45.45 749.7031 46.184376Q748.96875 46.91875 748.875 48.1375ZM757.6719 44.371876L759.2656 44.371876L759.2656 48.403126Q760.0156 48.403126 760.3125 48.121876Q760.625 47.825 761.21875 46.41875Q761.6719 45.309376 761.9531 44.965626Q762.25 44.60625 762.625 44.496876Q763.0156 44.371876 763.84375 44.371876L764.1719 44.371876L764.1719 45.66875L763.71875 45.66875Q763.09375 45.66875 762.9219 45.85625Q762.7344 46.04375 762.3594 46.996876Q762.0 47.91875 761.7031 48.278126Q761.40625 48.621876 760.78125 48.903126Q761.7969 49.184376 762.78125 50.809376L764.5156 53.7L762.78125 53.7L761.09375 50.809376Q760.5625 49.934376 760.1719 49.66875Q759.7969 49.3875 759.2656 49.3875L759.2656 53.7L757.6719 53.7L757.6719 44.371876ZM765.6094 57.29375L765.4375 55.809376Q765.9531 55.95 766.34375 55.95Q766.875 55.95 767.1875 55.778126Q767.5 55.60625 767.7031 55.278126Q767.8594 55.04375 768.1875 54.10625Q768.2344 53.965626 768.3281 53.715626L764.7969 44.371876L766.5 44.371876L768.4375 49.778126Q768.8125 50.79375 769.1094 51.934376Q769.3906 50.840626 769.7656 49.809376L771.7656 44.371876L773.34375 44.371876L769.7969 53.85625Q769.21875 55.403126 768.90625 55.98125Q768.4844 56.7625 767.9375 57.121876Q767.3906 57.48125 766.6406 57.48125Q766.1719 57.48125 765.6094 57.29375ZM774.6875 57.278126L774.6875 44.371876L776.125 44.371876L776.125 45.575Q776.6406 44.871876 777.28125 44.5125Q777.9219 44.153126 778.8281 44.153126Q780.03125 44.153126 780.9375 44.778126Q781.8594 45.3875 782.3281 46.5125Q782.7969 47.621876 782.7969 48.965626Q782.7969 50.3875 782.28125 51.54375Q781.7656 52.684376 780.78125 53.309376Q779.7969 53.91875 778.71875 53.91875Q777.9375 53.91875 777.2969 53.590626Q776.6719 53.246876 776.2656 52.73125L776.2656 57.278126L774.6875 57.278126ZM776.125 49.090626Q776.125 50.8875 776.84375 51.746876Q777.5781 52.60625 778.6094 52.60625Q779.6719 52.60625 780.4219 51.715626Q781.1719 50.825 781.1719 48.95Q781.1719 47.16875 780.4375 46.278126Q779.7031 45.3875 778.6875 45.3875Q777.6719 45.3875 776.8906 46.340626Q776.125 47.278126 776.125 49.090626ZM790.78125 50.278126L792.3281 50.48125Q792.0781 52.090626 791.03125 53.0125Q789.9844 53.91875 788.4531 53.91875Q786.53125 53.91875 785.3594 52.66875Q784.2031 51.403126 784.2031 49.075Q784.2031 47.559376 784.7031 46.434376Q785.2031 45.29375 786.21875 44.73125Q787.25 44.153126 788.4531 44.153126Q789.9844 44.153126 790.9375 44.934376Q791.90625 45.7 792.1875 47.10625L790.6406 47.340626Q790.4219 46.403126 789.8594 45.934376Q789.3125 45.45 788.5156 45.45Q787.3281 45.45 786.5781 46.309376Q785.8281 47.16875 785.8281 49.028126Q785.8281 50.903126 786.5469 51.7625Q787.2656 52.60625 788.4375 52.60625Q789.3594 52.60625 789.9844 52.04375Q790.6094 51.465626 790.78125 50.278126ZM793.6875 44.371876L795.2656 44.371876L795.2656 51.48125L799.65625 44.371876L801.3594 44.371876L801.3594 53.7L799.78125 53.7L799.78125 46.621876L795.3906 53.7L793.6875 53.7L793.6875 44.371876ZM810.0781 50.7L811.71875 50.903126Q811.3281 52.325 810.28125 53.121876Q809.2344 53.91875 807.6094 53.91875Q805.5625 53.91875 804.3594 52.653126Q803.15625 51.3875 803.15625 49.10625Q803.15625 46.7625 804.3594 45.465626Q805.5781 44.153126 807.5156 44.153126Q809.3906 44.153126 810.5781 45.434376Q811.7656 46.7 811.7656 49.0125Q811.7656 49.153126 811.75 49.434376L804.7969 49.434376Q804.875 50.98125 805.65625 51.79375Q806.4531 52.60625 807.6094 52.60625Q808.4844 52.60625 809.09375 52.153126Q809.71875 51.7 810.0781 50.7ZM804.875 48.1375L810.09375 48.1375Q809.9844 46.965626 809.5 46.371876Q808.7344 45.45 807.53125 45.45Q806.4531 45.45 805.7031 46.184376Q804.96875 46.91875 804.875 48.1375ZM813.6875 44.371876L815.2656 44.371876L815.2656 51.48125L819.65625 44.371876L821.3594 44.371876L821.3594 53.7L819.78125 53.7L819.78125 46.621876L815.3906 53.7L813.6875 53.7L813.6875 44.371876ZM819.1719 40.825L820.25 40.825Q820.125 41.934376 819.4531 42.528126Q818.78125 43.10625 817.65625 43.10625Q816.53125 43.10625 815.8594 42.528126Q815.1875 41.934376 815.0625 40.825L816.1406 40.825Q816.2656 41.434376 816.625 41.73125Q817.0 42.0125 817.6094 42.0125Q818.3281 42.0125 818.6875 41.73125Q819.0469 41.45 819.1719 40.825ZM828.6875 44.371876L830.2656 44.371876L830.2656 51.48125L834.65625 44.371876L836.3594 44.371876L836.3594 53.7L834.78125 53.7L834.78125 46.621876L830.3906 53.7L828.6875 53.7L828.6875 44.371876ZM843.6719 44.371876L845.2656 44.371876L845.2656 48.403126Q846.0156 48.403126 846.3125 48.121876Q846.625 47.825 847.21875 46.41875Q847.6719 45.309376 847.9531 44.965626Q848.25 44.60625 848.625 44.496876Q849.0156 44.371876 849.84375 44.371876L850.1719 44.371876L850.1719 45.66875L849.71875 45.66875Q849.09375 45.66875 848.9219 45.85625Q848.7344 46.04375 848.3594 46.996876Q848.0 47.91875 847.7031 48.278126Q847.40625 48.621876 846.78125 48.903126Q847.7969 49.184376 848.78125 50.809376L850.5156 53.7L848.78125 53.7L847.09375 50.809376Q846.5625 49.934376 846.1719 49.66875Q845.7969 49.3875 845.2656 49.3875L845.2656 53.7L843.6719 53.7L843.6719 44.371876ZM854.09375 48.2625L854.09375 49.575L857.3906 49.575Q857.25 51.090626 856.6094 51.85625Q855.96875 52.60625 854.84375 52.60625Q852.8281 52.60625 852.46875 50.29375L850.9219 50.496876Q851.1719 52.028126 852.2031 52.98125Q853.2344 53.91875 854.90625 53.91875Q856.8906 54.028126 857.9844 52.653126Q859.0781 51.278126 859.0156 49.028126Q859.0156 46.7625 857.875 45.465626Q856.75 44.153126 854.7969 44.153126Q853.2344 44.153126 852.2656 44.98125Q851.2969 45.809376 851.0781 47.121876L852.625 47.371876Q853.0156 45.465626 854.84375 45.465626Q855.90625 45.465626 856.5781 46.246876Q857.25 47.0125 857.3906 48.2625L854.09375 48.2625ZM860.7344 44.371876L862.3281 44.371876L862.3281 52.3875L865.9219 52.3875L865.9219 44.371876L867.5 44.371876L867.5 52.3875L871.125 52.3875L871.125 44.371876L872.6875 44.371876L872.6875 53.7L860.7344 53.7L860.7344 44.371876ZM881.0781 50.7L882.71875 50.903126Q882.3281 52.325 881.28125 53.121876Q880.2344 53.91875 878.6094 53.91875Q876.5625 53.91875 875.3594 52.653126Q874.15625 51.3875 874.15625 49.10625Q874.15625 46.7625 875.3594 45.465626Q876.5781 44.153126 878.5156 44.153126Q880.3906 44.153126 881.5781 45.434376Q882.7656 46.7 882.7656 49.0125Q882.7656 49.153126 882.75 49.434376L875.7969 49.434376Q875.875 50.98125 876.65625 51.79375Q877.4531 52.60625 878.6094 52.60625Q879.4844 52.60625 880.09375 52.153126Q880.71875 51.7 881.0781 50.7ZM875.875 48.1375L881.09375 48.1375Q880.9844 46.965626 880.5 46.371876Q879.7344 45.45 878.53125 45.45Q877.4531 45.45 876.7031 46.184376Q875.96875 46.91875 875.875 48.1375ZM884.7344 44.371876L887.1875 44.371876L889.6406 51.840626L892.375 44.371876L894.6406 44.371876L894.6406 53.7L893.0625 53.7L893.0625 46.184376L890.2969 53.7L888.8906 53.7L886.28125 45.825L886.28125 53.7L884.7344 53.7L884.7344 44.371876Z" fill-rule="nonzero"/></svg>