<?xml version="1.0" encoding="utf-8" standalone="no"?>
<!DOCTYPE svg PUBLIC "-//W3C//DTD SVG 1.1//EN"
  "http://www.w3.org/Graphics/SVG/1.1/DTD/svg11.dtd">
<svg xmlns:xlink="http://www.w3.org/1999/xlink" width="1382.4pt" height="703.44pt" viewBox="0 0 1382.4 703.44" xmlns="http://www.w3.org/2000/svg" version="1.1">
 <metadata>
  <rdf:RDF xmlns:dc="http://purl.org/dc/elements/1.1/" xmlns:cc="http://creativecommons.org/ns#" xmlns:rdf="http://www.w3.org/1999/02/22-rdf-syntax-ns#">
   <cc:Work>
    <dc:type rdf:resource="http://purl.org/dc/dcmitype/StillImage"/>
    <dc:date>2022-11-15T16:10:51.830078</dc:date>
    <dc:format>image/svg+xml</dc:format>
    <dc:creator>
     <cc:Agent>
      <dc:title>Matplotlib v3.6.1, https://matplotlib.org/</dc:title>
     </cc:Agent>
    </dc:creator>
   </cc:Work>
  </rdf:RDF>
 </metadata>
 <defs>
  <style type="text/css">*{stroke-linejoin: round; stroke-linecap: butt}</style>
 </defs>
 <g id="figure_1">
  <g id="patch_1">
   <path d="M 0 703.44 
L 1382.4 703.44 
L 1382.4 0 
L 0 0 
z
" style="fill: #ffffff"/>
  </g>
  <g id="axes_1">
   <g id="patch_2">
    <path d="M 172.8 626.0616 
L 1244.16 626.0616 
L 1244.16 84.4128 
L 172.8 84.4128 
z
" style="fill: #ffffff"/>
   </g>
   <g id="matplotlib.axis_1">
    <g id="xtick_1">
     <g id="line2d_1">
      <defs>
       <path id="m99b0769120" d="M 0 0 
L 0 3.5 
" style="stroke: #000000; stroke-width: 0.8"/>
      </defs>
      <g>
       <use xlink:href="#m99b0769120" x="172.8" y="626.0616" style="stroke: #000000; stroke-width: 0.8"/>
      </g>
     </g>
     <g id="text_1">
      <!-- −2 -->
      <g transform="translate(165.428906 640.660037) scale(0.1 -0.1)">
       <defs>
        <path id="DejaVuSans-2212" d="M 678 2272 
L 4684 2272 
L 4684 1741 
L 678 1741 
L 678 2272 
z
" transform="scale(0.015625)"/>
        <path id="DejaVuSans-32" d="M 1228 531 
L 3431 531 
L 3431 0 
L 469 0 
L 469 531 
Q 828 903 1448 1529 
Q 2069 2156 2228 2338 
Q 2531 2678 2651 2914 
Q 2772 3150 2772 3378 
Q 2772 3750 2511 3984 
Q 2250 4219 1831 4219 
Q 1534 4219 1204 4116 
Q 875 4013 500 3803 
L 500 4441 
Q 881 4594 1212 4672 
Q 1544 4750 1819 4750 
Q 2544 4750 2975 4387 
Q 3406 4025 3406 3419 
Q 3406 3131 3298 2873 
Q 3191 2616 2906 2266 
Q 2828 2175 2409 1742 
Q 1991 1309 1228 531 
z
" transform="scale(0.015625)"/>
       </defs>
       <use xlink:href="#DejaVuSans-2212"/>
       <use xlink:href="#DejaVuSans-32" x="83.789062"/>
      </g>
     </g>
    </g>
    <g id="xtick_2">
     <g id="line2d_2">
      <g>
       <use xlink:href="#m99b0769120" x="262.08" y="626.0616" style="stroke: #000000; stroke-width: 0.8"/>
      </g>
     </g>
     <g id="text_2">
      <!-- 0 -->
      <g transform="translate(258.89875 640.660037) scale(0.1 -0.1)">
       <defs>
        <path id="DejaVuSans-30" d="M 2034 4250 
Q 1547 4250 1301 3770 
Q 1056 3291 1056 2328 
Q 1056 1369 1301 889 
Q 1547 409 2034 409 
Q 2525 409 2770 889 
Q 3016 1369 3016 2328 
Q 3016 3291 2770 3770 
Q 2525 4250 2034 4250 
z
M 2034 4750 
Q 2819 4750 3233 4129 
Q 3647 3509 3647 2328 
Q 3647 1150 3233 529 
Q 2819 -91 2034 -91 
Q 1250 -91 836 529 
Q 422 1150 422 2328 
Q 422 3509 836 4129 
Q 1250 4750 2034 4750 
z
" transform="scale(0.015625)"/>
       </defs>
       <use xlink:href="#DejaVuSans-30"/>
      </g>
     </g>
    </g>
    <g id="xtick_3">
     <g id="line2d_3">
      <g>
       <use xlink:href="#m99b0769120" x="351.36" y="626.0616" style="stroke: #000000; stroke-width: 0.8"/>
      </g>
     </g>
     <g id="text_3">
      <!-- 2 -->
      <g transform="translate(348.17875 640.660037) scale(0.1 -0.1)">
       <use xlink:href="#DejaVuSans-32"/>
      </g>
     </g>
    </g>
    <g id="xtick_4">
     <g id="line2d_4">
      <g>
       <use xlink:href="#m99b0769120" x="485.28" y="626.0616" style="stroke: #000000; stroke-width: 0.8"/>
      </g>
     </g>
     <g id="text_4">
      <!-- 5 -->
      <g transform="translate(482.09875 640.660037) scale(0.1 -0.1)">
       <defs>
        <path id="DejaVuSans-35" d="M 691 4666 
L 3169 4666 
L 3169 4134 
L 1269 4134 
L 1269 2991 
Q 1406 3038 1543 3061 
Q 1681 3084 1819 3084 
Q 2600 3084 3056 2656 
Q 3513 2228 3513 1497 
Q 3513 744 3044 326 
Q 2575 -91 1722 -91 
Q 1428 -91 1123 -41 
Q 819 9 494 109 
L 494 744 
Q 775 591 1075 516 
Q 1375 441 1709 441 
Q 2250 441 2565 725 
Q 2881 1009 2881 1497 
Q 2881 1984 2565 2268 
Q 2250 2553 1709 2553 
Q 1456 2553 1204 2497 
Q 953 2441 691 2322 
L 691 4666 
z
" transform="scale(0.015625)"/>
       </defs>
       <use xlink:href="#DejaVuSans-35"/>
      </g>
     </g>
    </g>
    <g id="xtick_5">
     <g id="line2d_5">
      <g>
       <use xlink:href="#m99b0769120" x="574.56" y="626.0616" style="stroke: #000000; stroke-width: 0.8"/>
      </g>
     </g>
     <g id="text_5">
      <!-- 7 -->
      <g transform="translate(571.37875 640.660037) scale(0.1 -0.1)">
       <defs>
        <path id="DejaVuSans-37" d="M 525 4666 
L 3525 4666 
L 3525 4397 
L 1831 0 
L 1172 0 
L 2766 4134 
L 525 4134 
L 525 4666 
z
" transform="scale(0.015625)"/>
       </defs>
       <use xlink:href="#DejaVuSans-37"/>
      </g>
     </g>
    </g>
    <g id="xtick_6">
     <g id="line2d_6">
      <g>
       <use xlink:href="#m99b0769120" x="708.48" y="626.0616" style="stroke: #000000; stroke-width: 0.8"/>
      </g>
     </g>
     <g id="text_6">
      <!-- 10 -->
      <g transform="translate(702.1175 640.660037) scale(0.1 -0.1)">
       <defs>
        <path id="DejaVuSans-31" d="M 794 531 
L 1825 531 
L 1825 4091 
L 703 3866 
L 703 4441 
L 1819 4666 
L 2450 4666 
L 2450 531 
L 3481 531 
L 3481 0 
L 794 0 
L 794 531 
z
" transform="scale(0.015625)"/>
       </defs>
       <use xlink:href="#DejaVuSans-31"/>
       <use xlink:href="#DejaVuSans-30" x="63.623047"/>
      </g>
     </g>
    </g>
    <g id="xtick_7">
     <g id="line2d_7">
      <g>
       <use xlink:href="#m99b0769120" x="797.76" y="626.0616" style="stroke: #000000; stroke-width: 0.8"/>
      </g>
     </g>
     <g id="text_7">
      <!-- 12 -->
      <g transform="translate(791.3975 640.660037) scale(0.1 -0.1)">
       <use xlink:href="#DejaVuSans-31"/>
       <use xlink:href="#DejaVuSans-32" x="63.623047"/>
      </g>
     </g>
    </g>
    <g id="xtick_8">
     <g id="line2d_8">
      <g>
       <use xlink:href="#m99b0769120" x="931.68" y="626.0616" style="stroke: #000000; stroke-width: 0.8"/>
      </g>
     </g>
     <g id="text_8">
      <!-- 15 -->
      <g transform="translate(925.3175 640.660037) scale(0.1 -0.1)">
       <use xlink:href="#DejaVuSans-31"/>
       <use xlink:href="#DejaVuSans-35" x="63.623047"/>
      </g>
     </g>
    </g>
    <g id="xtick_9">
     <g id="line2d_9">
      <g>
       <use xlink:href="#m99b0769120" x="1020.96" y="626.0616" style="stroke: #000000; stroke-width: 0.8"/>
      </g>
     </g>
     <g id="text_9">
      <!-- 17 -->
      <g transform="translate(1014.5975 640.660037) scale(0.1 -0.1)">
       <use xlink:href="#DejaVuSans-31"/>
       <use xlink:href="#DejaVuSans-37" x="63.623047"/>
      </g>
     </g>
    </g>
    <g id="xtick_10">
     <g id="line2d_10">
      <g>
       <use xlink:href="#m99b0769120" x="1154.88" y="626.0616" style="stroke: #000000; stroke-width: 0.8"/>
      </g>
     </g>
     <g id="text_10">
      <!-- 20 -->
      <g transform="translate(1148.5175 640.660037) scale(0.1 -0.1)">
       <use xlink:href="#DejaVuSans-32"/>
       <use xlink:href="#DejaVuSans-30" x="63.623047"/>
      </g>
     </g>
    </g>
    <g id="xtick_11">
     <g id="line2d_11">
      <g>
       <use xlink:href="#m99b0769120" x="1244.16" y="626.0616" style="stroke: #000000; stroke-width: 0.8"/>
      </g>
     </g>
     <g id="text_11">
      <!-- 22 -->
      <g transform="translate(1237.7975 640.660037) scale(0.1 -0.1)">
       <use xlink:href="#DejaVuSans-32"/>
       <use xlink:href="#DejaVuSans-32" x="63.623047"/>
      </g>
     </g>
    </g>
    <g id="text_12">
     <!-- длина слова (символы) -->
     <g transform="translate(647.229219 654.338162) scale(0.1 -0.1)">
      <defs>
       <path id="DejaVuSans-434" d="M 1384 459 
L 3053 459 
L 3053 3041 
L 1844 3041 
L 1844 2603 
Q 1844 1316 1475 628 
L 1384 459 
z
M 550 459 
Q 834 584 959 850 
Q 1266 1509 1266 2838 
L 1266 3500 
L 3631 3500 
L 3631 459 
L 4091 459 
L 4091 -884 
L 3631 -884 
L 3631 0 
L 794 0 
L 794 -884 
L 334 -884 
L 334 459 
L 550 459 
z
" transform="scale(0.015625)"/>
       <path id="DejaVuSans-43b" d="M 238 0 
L 238 478 
Q 806 566 981 959 
Q 1194 1513 1194 2928 
L 1194 3500 
L 3559 3500 
L 3559 0 
L 2984 0 
L 2984 3041 
L 1769 3041 
L 1769 2694 
Q 1769 1344 1494 738 
Q 1200 91 238 0 
z
" transform="scale(0.015625)"/>
       <path id="DejaVuSans-438" d="M 3578 3500 
L 3578 0 
L 3006 0 
L 3006 2809 
L 1319 0 
L 581 0 
L 581 3500 
L 1153 3500 
L 1153 697 
L 2838 3500 
L 3578 3500 
z
" transform="scale(0.015625)"/>
       <path id="DejaVuSans-43d" d="M 581 3500 
L 1159 3500 
L 1159 2072 
L 3025 2072 
L 3025 3500 
L 3603 3500 
L 3603 0 
L 3025 0 
L 3025 1613 
L 1159 1613 
L 1159 0 
L 581 0 
L 581 3500 
z
" transform="scale(0.015625)"/>
       <path id="DejaVuSans-430" d="M 2194 1759 
Q 1497 1759 1228 1600 
Q 959 1441 959 1056 
Q 959 750 1161 570 
Q 1363 391 1709 391 
Q 2188 391 2477 730 
Q 2766 1069 2766 1631 
L 2766 1759 
L 2194 1759 
z
M 3341 1997 
L 3341 0 
L 2766 0 
L 2766 531 
Q 2569 213 2275 61 
Q 1981 -91 1556 -91 
Q 1019 -91 701 211 
Q 384 513 384 1019 
Q 384 1609 779 1909 
Q 1175 2209 1959 2209 
L 2766 2209 
L 2766 2266 
Q 2766 2663 2505 2880 
Q 2244 3097 1772 3097 
Q 1472 3097 1187 3025 
Q 903 2953 641 2809 
L 641 3341 
Q 956 3463 1253 3523 
Q 1550 3584 1831 3584 
Q 2591 3584 2966 3190 
Q 3341 2797 3341 1997 
z
" transform="scale(0.015625)"/>
       <path id="DejaVuSans-20" transform="scale(0.015625)"/>
       <path id="DejaVuSans-441" d="M 3122 3366 
L 3122 2828 
Q 2878 2963 2633 3030 
Q 2388 3097 2138 3097 
Q 1578 3097 1268 2742 
Q 959 2388 959 1747 
Q 959 1106 1268 751 
Q 1578 397 2138 397 
Q 2388 397 2633 464 
Q 2878 531 3122 666 
L 3122 134 
Q 2881 22 2623 -34 
Q 2366 -91 2075 -91 
Q 1284 -91 818 406 
Q 353 903 353 1747 
Q 353 2603 823 3093 
Q 1294 3584 2113 3584 
Q 2378 3584 2631 3529 
Q 2884 3475 3122 3366 
z
" transform="scale(0.015625)"/>
       <path id="DejaVuSans-43e" d="M 1959 3097 
Q 1497 3097 1228 2736 
Q 959 2375 959 1747 
Q 959 1119 1226 758 
Q 1494 397 1959 397 
Q 2419 397 2687 759 
Q 2956 1122 2956 1747 
Q 2956 2369 2687 2733 
Q 2419 3097 1959 3097 
z
M 1959 3584 
Q 2709 3584 3137 3096 
Q 3566 2609 3566 1747 
Q 3566 888 3137 398 
Q 2709 -91 1959 -91 
Q 1206 -91 779 398 
Q 353 888 353 1747 
Q 353 2609 779 3096 
Q 1206 3584 1959 3584 
z
" transform="scale(0.015625)"/>
       <path id="DejaVuSans-432" d="M 1156 1613 
L 1156 459 
L 1975 459 
Q 2369 459 2575 607 
Q 2781 756 2781 1038 
Q 2781 1319 2575 1466 
Q 2369 1613 1975 1613 
L 1156 1613 
z
M 1156 3041 
L 1156 2072 
L 1913 2072 
Q 2238 2072 2444 2201 
Q 2650 2331 2650 2563 
Q 2650 2794 2444 2917 
Q 2238 3041 1913 3041 
L 1156 3041 
z
M 581 3500 
L 1950 3500 
Q 2566 3500 2897 3275 
Q 3228 3050 3228 2634 
Q 3228 2313 3059 2123 
Q 2891 1934 2559 1888 
Q 2956 1813 3175 1575 
Q 3394 1338 3394 981 
Q 3394 513 3033 256 
Q 2672 0 2003 0 
L 581 0 
L 581 3500 
z
" transform="scale(0.015625)"/>
       <path id="DejaVuSans-28" d="M 1984 4856 
Q 1566 4138 1362 3434 
Q 1159 2731 1159 2009 
Q 1159 1288 1364 580 
Q 1569 -128 1984 -844 
L 1484 -844 
Q 1016 -109 783 600 
Q 550 1309 550 2009 
Q 550 2706 781 3412 
Q 1013 4119 1484 4856 
L 1984 4856 
z
" transform="scale(0.015625)"/>
       <path id="DejaVuSans-43c" d="M 581 3500 
L 1422 3500 
L 2416 1156 
L 3413 3500 
L 4247 3500 
L 4247 0 
L 3669 0 
L 3669 2950 
L 2703 672 
L 2128 672 
L 1159 2950 
L 1159 0 
L 581 0 
L 581 3500 
z
" transform="scale(0.015625)"/>
       <path id="DejaVuSans-44b" d="M 3907 3500 
L 4482 3500 
L 4482 0 
L 3907 0 
L 3907 3500 
z
M 4195 3584 
L 4195 3584 
z
M 2781 1038 
Q 2781 1319 2576 1466 
Q 2372 1613 1978 1613 
L 1159 1613 
L 1159 459 
L 1978 459 
Q 2372 459 2576 607 
Q 2781 756 2781 1038 
z
M 581 3500 
L 1159 3500 
L 1159 2072 
L 2003 2072 
Q 2672 2072 3033 1817 
Q 3394 1563 3394 1038 
Q 3394 513 3033 256 
Q 2672 0 2003 0 
L 581 0 
L 581 3500 
z
" transform="scale(0.015625)"/>
       <path id="DejaVuSans-29" d="M 513 4856 
L 1013 4856 
Q 1481 4119 1714 3412 
Q 1947 2706 1947 2009 
Q 1947 1309 1714 600 
Q 1481 -109 1013 -844 
L 513 -844 
Q 928 -128 1133 580 
Q 1338 1288 1338 2009 
Q 1338 2731 1133 3434 
Q 928 4138 513 4856 
z
" transform="scale(0.015625)"/>
      </defs>
      <use xlink:href="#DejaVuSans-434"/>
      <use xlink:href="#DejaVuSans-43b" x="69.140625"/>
      <use xlink:href="#DejaVuSans-438" x="133.056641"/>
      <use xlink:href="#DejaVuSans-43d" x="198.046875"/>
      <use xlink:href="#DejaVuSans-430" x="263.427734"/>
      <use xlink:href="#DejaVuSans-20" x="324.707031"/>
      <use xlink:href="#DejaVuSans-441" x="356.494141"/>
      <use xlink:href="#DejaVuSans-43b" x="411.474609"/>
      <use xlink:href="#DejaVuSans-43e" x="475.390625"/>
      <use xlink:href="#DejaVuSans-432" x="536.572266"/>
      <use xlink:href="#DejaVuSans-430" x="595.507812"/>
      <use xlink:href="#DejaVuSans-20" x="656.787109"/>
      <use xlink:href="#DejaVuSans-28" x="688.574219"/>
      <use xlink:href="#DejaVuSans-441" x="727.587891"/>
      <use xlink:href="#DejaVuSans-438" x="782.568359"/>
      <use xlink:href="#DejaVuSans-43c" x="847.558594"/>
      <use xlink:href="#DejaVuSans-432" x="922.998047"/>
      <use xlink:href="#DejaVuSans-43e" x="981.933594"/>
      <use xlink:href="#DejaVuSans-43b" x="1043.115234"/>
      <use xlink:href="#DejaVuSans-44b" x="1107.03125"/>
      <use xlink:href="#DejaVuSans-29" x="1185.986328"/>
     </g>
    </g>
   </g>
   <g id="matplotlib.axis_2">
    <g id="ytick_1">
     <g id="line2d_12">
      <defs>
       <path id="m3a135fec54" d="M 0 0 
L -3.5 0 
" style="stroke: #000000; stroke-width: 0.8"/>
      </defs>
      <g>
       <use xlink:href="#m3a135fec54" x="172.8" y="601.665209" style="stroke: #000000; stroke-width: 0.8"/>
      </g>
     </g>
     <g id="text_13">
      <!-- 0.00000 -->
      <g transform="translate(124.446875 605.464428) scale(0.1 -0.1)">
       <defs>
        <path id="DejaVuSans-2e" d="M 684 794 
L 1344 794 
L 1344 0 
L 684 0 
L 684 794 
z
" transform="scale(0.015625)"/>
       </defs>
       <use xlink:href="#DejaVuSans-30"/>
       <use xlink:href="#DejaVuSans-2e" x="63.623047"/>
       <use xlink:href="#DejaVuSans-30" x="95.410156"/>
       <use xlink:href="#DejaVuSans-30" x="159.033203"/>
       <use xlink:href="#DejaVuSans-30" x="222.65625"/>
       <use xlink:href="#DejaVuSans-30" x="286.279297"/>
       <use xlink:href="#DejaVuSans-30" x="349.902344"/>
      </g>
     </g>
    </g>
    <g id="ytick_2">
     <g id="line2d_13">
      <g>
       <use xlink:href="#m3a135fec54" x="172.8" y="535.958068" style="stroke: #000000; stroke-width: 0.8"/>
      </g>
     </g>
     <g id="text_14">
      <!-- 0.00005 -->
      <g transform="translate(124.446875 539.757287) scale(0.1 -0.1)">
       <use xlink:href="#DejaVuSans-30"/>
       <use xlink:href="#DejaVuSans-2e" x="63.623047"/>
       <use xlink:href="#DejaVuSans-30" x="95.410156"/>
       <use xlink:href="#DejaVuSans-30" x="159.033203"/>
       <use xlink:href="#DejaVuSans-30" x="222.65625"/>
       <use xlink:href="#DejaVuSans-30" x="286.279297"/>
       <use xlink:href="#DejaVuSans-35" x="349.902344"/>
      </g>
     </g>
    </g>
    <g id="ytick_3">
     <g id="line2d_14">
      <g>
       <use xlink:href="#m3a135fec54" x="172.8" y="470.250927" style="stroke: #000000; stroke-width: 0.8"/>
      </g>
     </g>
     <g id="text_15">
      <!-- 0.00010 -->
      <g transform="translate(124.446875 474.050146) scale(0.1 -0.1)">
       <use xlink:href="#DejaVuSans-30"/>
       <use xlink:href="#DejaVuSans-2e" x="63.623047"/>
       <use xlink:href="#DejaVuSans-30" x="95.410156"/>
       <use xlink:href="#DejaVuSans-30" x="159.033203"/>
       <use xlink:href="#DejaVuSans-30" x="222.65625"/>
       <use xlink:href="#DejaVuSans-31" x="286.279297"/>
       <use xlink:href="#DejaVuSans-30" x="349.902344"/>
      </g>
     </g>
    </g>
    <g id="ytick_4">
     <g id="line2d_15">
      <g>
       <use xlink:href="#m3a135fec54" x="172.8" y="404.543786" style="stroke: #000000; stroke-width: 0.8"/>
      </g>
     </g>
     <g id="text_16">
      <!-- 0.00015 -->
      <g transform="translate(124.446875 408.343005) scale(0.1 -0.1)">
       <use xlink:href="#DejaVuSans-30"/>
       <use xlink:href="#DejaVuSans-2e" x="63.623047"/>
       <use xlink:href="#DejaVuSans-30" x="95.410156"/>
       <use xlink:href="#DejaVuSans-30" x="159.033203"/>
       <use xlink:href="#DejaVuSans-30" x="222.65625"/>
       <use xlink:href="#DejaVuSans-31" x="286.279297"/>
       <use xlink:href="#DejaVuSans-35" x="349.902344"/>
      </g>
     </g>
    </g>
    <g id="ytick_5">
     <g id="line2d_16">
      <g>
       <use xlink:href="#m3a135fec54" x="172.8" y="338.836645" style="stroke: #000000; stroke-width: 0.8"/>
      </g>
     </g>
     <g id="text_17">
      <!-- 0.00020 -->
      <g transform="translate(124.446875 342.635864) scale(0.1 -0.1)">
       <use xlink:href="#DejaVuSans-30"/>
       <use xlink:href="#DejaVuSans-2e" x="63.623047"/>
       <use xlink:href="#DejaVuSans-30" x="95.410156"/>
       <use xlink:href="#DejaVuSans-30" x="159.033203"/>
       <use xlink:href="#DejaVuSans-30" x="222.65625"/>
       <use xlink:href="#DejaVuSans-32" x="286.279297"/>
       <use xlink:href="#DejaVuSans-30" x="349.902344"/>
      </g>
     </g>
    </g>
    <g id="ytick_6">
     <g id="line2d_17">
      <g>
       <use xlink:href="#m3a135fec54" x="172.8" y="273.129504" style="stroke: #000000; stroke-width: 0.8"/>
      </g>
     </g>
     <g id="text_18">
      <!-- 0.00025 -->
      <g transform="translate(124.446875 276.928723) scale(0.1 -0.1)">
       <use xlink:href="#DejaVuSans-30"/>
       <use xlink:href="#DejaVuSans-2e" x="63.623047"/>
       <use xlink:href="#DejaVuSans-30" x="95.410156"/>
       <use xlink:href="#DejaVuSans-30" x="159.033203"/>
       <use xlink:href="#DejaVuSans-30" x="222.65625"/>
       <use xlink:href="#DejaVuSans-32" x="286.279297"/>
       <use xlink:href="#DejaVuSans-35" x="349.902344"/>
      </g>
     </g>
    </g>
    <g id="ytick_7">
     <g id="line2d_18">
      <g>
       <use xlink:href="#m3a135fec54" x="172.8" y="207.422363" style="stroke: #000000; stroke-width: 0.8"/>
      </g>
     </g>
     <g id="text_19">
      <!-- 0.00030 -->
      <g transform="translate(124.446875 211.221582) scale(0.1 -0.1)">
       <defs>
        <path id="DejaVuSans-33" d="M 2597 2516 
Q 3050 2419 3304 2112 
Q 3559 1806 3559 1356 
Q 3559 666 3084 287 
Q 2609 -91 1734 -91 
Q 1441 -91 1130 -33 
Q 819 25 488 141 
L 488 750 
Q 750 597 1062 519 
Q 1375 441 1716 441 
Q 2309 441 2620 675 
Q 2931 909 2931 1356 
Q 2931 1769 2642 2001 
Q 2353 2234 1838 2234 
L 1294 2234 
L 1294 2753 
L 1863 2753 
Q 2328 2753 2575 2939 
Q 2822 3125 2822 3475 
Q 2822 3834 2567 4026 
Q 2313 4219 1838 4219 
Q 1578 4219 1281 4162 
Q 984 4106 628 3988 
L 628 4550 
Q 988 4650 1302 4700 
Q 1616 4750 1894 4750 
Q 2613 4750 3031 4423 
Q 3450 4097 3450 3541 
Q 3450 3153 3228 2886 
Q 3006 2619 2597 2516 
z
" transform="scale(0.015625)"/>
       </defs>
       <use xlink:href="#DejaVuSans-30"/>
       <use xlink:href="#DejaVuSans-2e" x="63.623047"/>
       <use xlink:href="#DejaVuSans-30" x="95.410156"/>
       <use xlink:href="#DejaVuSans-30" x="159.033203"/>
       <use xlink:href="#DejaVuSans-30" x="222.65625"/>
       <use xlink:href="#DejaVuSans-33" x="286.279297"/>
       <use xlink:href="#DejaVuSans-30" x="349.902344"/>
      </g>
     </g>
    </g>
    <g id="ytick_8">
     <g id="line2d_19">
      <g>
       <use xlink:href="#m3a135fec54" x="172.8" y="141.715222" style="stroke: #000000; stroke-width: 0.8"/>
      </g>
     </g>
     <g id="text_20">
      <!-- 0.00035 -->
      <g transform="translate(124.446875 145.514441) scale(0.1 -0.1)">
       <use xlink:href="#DejaVuSans-30"/>
       <use xlink:href="#DejaVuSans-2e" x="63.623047"/>
       <use xlink:href="#DejaVuSans-30" x="95.410156"/>
       <use xlink:href="#DejaVuSans-30" x="159.033203"/>
       <use xlink:href="#DejaVuSans-30" x="222.65625"/>
       <use xlink:href="#DejaVuSans-33" x="286.279297"/>
       <use xlink:href="#DejaVuSans-35" x="349.902344"/>
      </g>
     </g>
    </g>
    <g id="text_21">
     <!-- время (с) -->
     <g transform="translate(118.367187 379.454387) rotate(-90) scale(0.1 -0.1)">
      <defs>
       <path id="DejaVuSans-440" d="M 1159 525 
L 1159 -1331 
L 581 -1331 
L 581 3500 
L 1159 3500 
L 1159 2969 
Q 1341 3281 1617 3432 
Q 1894 3584 2278 3584 
Q 2916 3584 3314 3078 
Q 3713 2572 3713 1747 
Q 3713 922 3314 415 
Q 2916 -91 2278 -91 
Q 1894 -91 1617 61 
Q 1341 213 1159 525 
z
M 3116 1747 
Q 3116 2381 2855 2742 
Q 2594 3103 2138 3103 
Q 1681 3103 1420 2742 
Q 1159 2381 1159 1747 
Q 1159 1113 1420 752 
Q 1681 391 2138 391 
Q 2594 391 2855 752 
Q 3116 1113 3116 1747 
z
" transform="scale(0.015625)"/>
       <path id="DejaVuSans-435" d="M 3597 1894 
L 3597 1613 
L 953 1613 
Q 991 1019 1311 708 
Q 1631 397 2203 397 
Q 2534 397 2845 478 
Q 3156 559 3463 722 
L 3463 178 
Q 3153 47 2828 -22 
Q 2503 -91 2169 -91 
Q 1331 -91 842 396 
Q 353 884 353 1716 
Q 353 2575 817 3079 
Q 1281 3584 2069 3584 
Q 2775 3584 3186 3129 
Q 3597 2675 3597 1894 
z
M 3022 2063 
Q 3016 2534 2758 2815 
Q 2500 3097 2075 3097 
Q 1594 3097 1305 2825 
Q 1016 2553 972 2059 
L 3022 2063 
z
" transform="scale(0.015625)"/>
       <path id="DejaVuSans-44f" d="M 1181 2491 
Q 1181 2231 1381 2084 
Q 1581 1938 1953 1938 
L 2728 1938 
L 2728 3041 
L 1953 3041 
Q 1581 3041 1381 2897 
Q 1181 2753 1181 2491 
z
M 363 0 
L 1431 1534 
Q 1069 1616 828 1830 
Q 588 2044 588 2491 
Q 588 2997 923 3248 
Q 1259 3500 1938 3500 
L 3306 3500 
L 3306 0 
L 2728 0 
L 2728 1478 
L 2013 1478 
L 981 0 
L 363 0 
z
" transform="scale(0.015625)"/>
      </defs>
      <use xlink:href="#DejaVuSans-432"/>
      <use xlink:href="#DejaVuSans-440" x="58.935547"/>
      <use xlink:href="#DejaVuSans-435" x="122.412109"/>
      <use xlink:href="#DejaVuSans-43c" x="183.935547"/>
      <use xlink:href="#DejaVuSans-44f" x="259.375"/>
      <use xlink:href="#DejaVuSans-20" x="319.53125"/>
      <use xlink:href="#DejaVuSans-28" x="351.318359"/>
      <use xlink:href="#DejaVuSans-441" x="390.332031"/>
      <use xlink:href="#DejaVuSans-29" x="445.3125"/>
     </g>
    </g>
   </g>
   <g id="line2d_20">
    <path d="M 262.08 600.617574 
L 306.72 599.823122 
L 351.36 598.054575 
L 396 595.447132 
L 440.64 591.796259 
L 485.28 587.607481 
L 529.92 582.281734 
L 574.56 576.420893 
L 619.2 569.42968 
L 663.84 561.841688 
L 708.48 553.858244 
L 753.12 543.625487 
L 797.76 531.826219 
L 842.4 521.887541 
L 887.04 510.07839 
L 931.68 495.91314 
L 976.32 483.825023 
L 1020.96 465.358478 
L 1065.6 453.04107 
L 1110.24 437.749731 
L 1154.88 420.151624 
" clip-path="url(#p8b611cc496)" style="fill: none; stroke: #ff0000; stroke-width: 1.5; stroke-linecap: square"/>
   </g>
   <g id="line2d_21">
    <path d="M 262.08 600.653266 
L 306.72 599.76254 
L 351.36 597.75729 
L 396 594.728664 
L 440.64 590.429235 
L 485.28 585.109953 
L 529.92 579.302677 
L 574.56 571.333689 
L 619.2 564.561438 
L 663.84 553.753927 
L 708.48 536.0458 
L 753.12 526.334127 
L 797.76 517.011887 
L 842.4 504.767913 
L 887.04 493.992941 
L 931.68 474.878287 
L 976.32 459.390141 
L 1020.96 442.130452 
L 1065.6 419.545042 
L 1110.24 400.771119 
L 1154.88 380.992113 
" clip-path="url(#p8b611cc496)" style="fill: none; stroke: #008000; stroke-width: 1.5; stroke-linecap: square"/>
   </g>
   <g id="line2d_22">
    <path d="M 262.08 601.4412 
L 306.72 600.885738 
L 351.36 597.945133 
L 396 584.346935 
L 440.64 512.92669 
L 485.28 109.0332 
" clip-path="url(#p8b611cc496)" style="fill: none; stroke: #ffff00; stroke-width: 1.5; stroke-linecap: square"/>
   </g>
   <g id="line2d_23">
    <path d="M 262.08 600.652609 
L 306.72 599.763749 
L 351.36 596.970539 
L 396 592.737054 
L 440.64 586.956297 
L 485.28 579.410253 
L 529.92 569.235844 
L 574.56 559.443666 
L 619.2 547.705742 
L 663.84 533.977655 
L 708.48 518.767713 
L 753.12 501.723176 
L 797.76 482.826853 
L 842.4 463.108534 
L 887.04 439.825761 
L 931.68 416.382662 
L 976.32 388.650674 
L 1020.96 363.910911 
L 1065.6 333.802821 
L 1110.24 304.438457 
L 1154.88 273.536442 
" clip-path="url(#p8b611cc496)" style="fill: none; stroke: #0000ff; stroke-width: 1.5; stroke-linecap: square"/>
   </g>
   <g id="patch_3">
    <path d="M 172.8 626.0616 
L 172.8 84.4128 
" style="fill: none; stroke: #000000; stroke-width: 0.8; stroke-linejoin: miter; stroke-linecap: square"/>
   </g>
   <g id="patch_4">
    <path d="M 1244.16 626.0616 
L 1244.16 84.4128 
" style="fill: none; stroke: #000000; stroke-width: 0.8; stroke-linejoin: miter; stroke-linecap: square"/>
   </g>
   <g id="patch_5">
    <path d="M 172.8 626.0616 
L 1244.16 626.0616 
" style="fill: none; stroke: #000000; stroke-width: 0.8; stroke-linejoin: miter; stroke-linecap: square"/>
   </g>
   <g id="patch_6">
    <path d="M 172.8 84.4128 
L 1244.16 84.4128 
" style="fill: none; stroke: #000000; stroke-width: 0.8; stroke-linejoin: miter; stroke-linecap: square"/>
   </g>
   <g id="text_22">
    <!-- Зависимость времени работы от длины слов -->
    <g transform="translate(566.04375 78.4128) scale(0.12 -0.12)">
     <defs>
      <path id="DejaVuSans-417" d="M 1828 4750 
Q 2597 4750 3084 4423 
Q 3572 4097 3572 3541 
Q 3572 3153 3350 2886 
Q 3128 2619 2719 2516 
Q 3172 2419 3426 2112 
Q 3681 1806 3681 1356 
Q 3681 638 3126 273 
Q 2572 -91 1828 -91 
Q 1447 -91 1003 12 
Q 559 116 422 203 
L 422 853 
Q 900 575 1164 508 
Q 1428 441 1816 441 
Q 2403 441 2728 666 
Q 3053 891 3053 1356 
Q 3053 1769 2764 2001 
Q 2475 2234 1866 2234 
L 1228 2234 
L 1228 2753 
L 1891 2753 
Q 2450 2753 2697 2939 
Q 2944 3125 2944 3475 
Q 2944 3834 2689 4026 
Q 2434 4219 1816 4219 
Q 1397 4219 1253 4181 
Q 1109 4144 469 3903 
L 469 4519 
Q 822 4644 1190 4697 
Q 1559 4750 1828 4750 
z
" transform="scale(0.015625)"/>
      <path id="DejaVuSans-442" d="M 188 3500 
L 3541 3500 
L 3541 3041 
L 2147 3041 
L 2147 0 
L 1581 0 
L 1581 3041 
L 188 3041 
L 188 3500 
z
" transform="scale(0.015625)"/>
      <path id="DejaVuSans-44c" d="M 2781 1038 
Q 2781 1319 2576 1466 
Q 2372 1613 1978 1613 
L 1159 1613 
L 1159 459 
L 1978 459 
Q 2372 459 2576 607 
Q 2781 756 2781 1038 
z
M 581 3500 
L 1159 3500 
L 1159 2072 
L 2003 2072 
Q 2672 2072 3033 1817 
Q 3394 1563 3394 1038 
Q 3394 513 3033 256 
Q 2672 0 2003 0 
L 581 0 
L 581 3500 
z
" transform="scale(0.015625)"/>
      <path id="DejaVuSans-431" d="M 1991 3584 
Q 2741 3584 3169 3096 
Q 3597 2609 3597 1747 
Q 3597 888 3169 398 
Q 2741 -91 1991 -91 
Q 1238 -91 822 384 
Q 406 859 384 1747 
L 366 2463 
Q 350 2834 350 2963 
Q 350 3463 531 3831 
Q 816 4409 1308 4659 
Q 1800 4909 2625 4916 
Q 3006 4919 3175 4972 
L 3334 4516 
Q 3181 4453 3041 4450 
L 2259 4397 
Q 1866 4369 1628 4231 
Q 1006 3866 947 3388 
L 925 3213 
Q 1331 3584 1991 3584 
z
M 1991 3097 
Q 1528 3097 1259 2736 
Q 991 2375 991 1747 
Q 991 1119 1258 758 
Q 1525 397 1991 397 
Q 2450 397 2719 759 
Q 2988 1122 2988 1747 
Q 2988 2369 2719 2733 
Q 2450 3097 1991 3097 
z
" transform="scale(0.015625)"/>
     </defs>
     <use xlink:href="#DejaVuSans-417"/>
     <use xlink:href="#DejaVuSans-430" x="64.111328"/>
     <use xlink:href="#DejaVuSans-432" x="125.390625"/>
     <use xlink:href="#DejaVuSans-438" x="184.326172"/>
     <use xlink:href="#DejaVuSans-441" x="249.316406"/>
     <use xlink:href="#DejaVuSans-438" x="304.296875"/>
     <use xlink:href="#DejaVuSans-43c" x="369.287109"/>
     <use xlink:href="#DejaVuSans-43e" x="444.726562"/>
     <use xlink:href="#DejaVuSans-441" x="505.908203"/>
     <use xlink:href="#DejaVuSans-442" x="560.888672"/>
     <use xlink:href="#DejaVuSans-44c" x="619.140625"/>
     <use xlink:href="#DejaVuSans-20" x="678.076172"/>
     <use xlink:href="#DejaVuSans-432" x="709.863281"/>
     <use xlink:href="#DejaVuSans-440" x="768.798828"/>
     <use xlink:href="#DejaVuSans-435" x="832.275391"/>
     <use xlink:href="#DejaVuSans-43c" x="893.798828"/>
     <use xlink:href="#DejaVuSans-435" x="969.238281"/>
     <use xlink:href="#DejaVuSans-43d" x="1030.761719"/>
     <use xlink:href="#DejaVuSans-438" x="1096.142578"/>
     <use xlink:href="#DejaVuSans-20" x="1161.132812"/>
     <use xlink:href="#DejaVuSans-440" x="1192.919922"/>
     <use xlink:href="#DejaVuSans-430" x="1256.396484"/>
     <use xlink:href="#DejaVuSans-431" x="1317.675781"/>
     <use xlink:href="#DejaVuSans-43e" x="1379.345703"/>
     <use xlink:href="#DejaVuSans-442" x="1440.527344"/>
     <use xlink:href="#DejaVuSans-44b" x="1498.779297"/>
     <use xlink:href="#DejaVuSans-20" x="1577.734375"/>
     <use xlink:href="#DejaVuSans-43e" x="1609.521484"/>
     <use xlink:href="#DejaVuSans-442" x="1670.703125"/>
     <use xlink:href="#DejaVuSans-20" x="1728.955078"/>
     <use xlink:href="#DejaVuSans-434" x="1760.742188"/>
     <use xlink:href="#DejaVuSans-43b" x="1829.882812"/>
     <use xlink:href="#DejaVuSans-438" x="1893.798828"/>
     <use xlink:href="#DejaVuSans-43d" x="1958.789062"/>
     <use xlink:href="#DejaVuSans-44b" x="2024.169922"/>
     <use xlink:href="#DejaVuSans-20" x="2103.125"/>
     <use xlink:href="#DejaVuSans-441" x="2134.912109"/>
     <use xlink:href="#DejaVuSans-43b" x="2189.892578"/>
     <use xlink:href="#DejaVuSans-43e" x="2253.808594"/>
     <use xlink:href="#DejaVuSans-432" x="2314.990234"/>
    </g>
   </g>
   <g id="legend_1">
    <g id="patch_7">
     <path d="M 926.352187 151.1253 
L 1237.16 151.1253 
Q 1239.16 151.1253 1239.16 149.1253 
L 1239.16 91.4128 
Q 1239.16 89.4128 1237.16 89.4128 
L 926.352187 89.4128 
Q 924.352187 89.4128 924.352187 91.4128 
L 924.352187 149.1253 
Q 924.352187 151.1253 926.352187 151.1253 
z
" style="fill: #ffffff; opacity: 0.8; stroke: #cccccc; stroke-linejoin: miter"/>
    </g>
    <g id="line2d_24">
     <path d="M 928.352187 97.511237 
L 938.352187 97.511237 
L 948.352187 97.511237 
" style="fill: none; stroke: #ff0000; stroke-width: 1.5; stroke-linecap: square"/>
    </g>
    <g id="text_23">
     <!-- Левенштейн -->
     <g transform="translate(956.352187 101.011237) scale(0.1 -0.1)">
      <defs>
       <path id="DejaVuSans-41b" d="M 263 0 
L 263 531 
Q 941 678 1134 1191 
Q 1406 1997 1406 3872 
L 1406 4666 
L 4181 4666 
L 4181 0 
L 3550 0 
L 3550 4134 
L 2034 4134 
L 2034 3559 
Q 2034 1791 1716 966 
Q 1409 175 263 0 
z
" transform="scale(0.015625)"/>
       <path id="DejaVuSans-448" d="M 3216 459 
L 4697 459 
L 4697 3500 
L 5275 3500 
L 5275 0 
L 581 0 
L 581 3500 
L 1159 3500 
L 1159 459 
L 2638 459 
L 2638 3500 
L 3216 3500 
L 3216 459 
z
" transform="scale(0.015625)"/>
       <path id="DejaVuSans-439" d="M 3578 3500 
L 3578 0 
L 3006 0 
L 3006 2809 
L 1319 0 
L 581 0 
L 581 3500 
L 1153 3500 
L 1153 697 
L 2838 3500 
L 3578 3500 
z
M 1102 4833 
L 1471 4833 
Q 1505 4599 1656 4481 
Q 1808 4364 2080 4364 
Q 2349 4364 2499 4480 
Q 2649 4596 2689 4833 
L 3058 4833 
Q 3027 4386 2780 4161 
Q 2533 3936 2080 3936 
Q 1627 3936 1380 4161 
Q 1133 4386 1102 4833 
z
" transform="scale(0.015625)"/>
      </defs>
      <use xlink:href="#DejaVuSans-41b"/>
      <use xlink:href="#DejaVuSans-435" x="75.195312"/>
      <use xlink:href="#DejaVuSans-432" x="136.71875"/>
      <use xlink:href="#DejaVuSans-435" x="195.654297"/>
      <use xlink:href="#DejaVuSans-43d" x="257.177734"/>
      <use xlink:href="#DejaVuSans-448" x="322.558594"/>
      <use xlink:href="#DejaVuSans-442" x="414.0625"/>
      <use xlink:href="#DejaVuSans-435" x="472.314453"/>
      <use xlink:href="#DejaVuSans-439" x="533.837891"/>
      <use xlink:href="#DejaVuSans-43d" x="598.828125"/>
     </g>
    </g>
    <g id="line2d_25">
     <path d="M 928.352187 112.189362 
L 938.352187 112.189362 
L 948.352187 112.189362 
" style="fill: none; stroke: #008000; stroke-width: 1.5; stroke-linecap: square"/>
    </g>
    <g id="text_24">
     <!-- Дамерау-Левенштейн -->
     <g transform="translate(956.352187 115.689362) scale(0.1 -0.1)">
      <defs>
       <path id="DejaVuSans-414" d="M 1459 531 
L 3522 531 
L 3522 4134 
L 2006 4134 
L 2006 3472 
Q 2006 1913 1656 878 
Q 1584 666 1459 531 
z
M 538 531 
Q 956 728 1075 1103 
Q 1378 2066 1378 3784 
L 1378 4666 
L 4153 4666 
L 4153 531 
L 4684 531 
L 4684 -1003 
L 4153 -1003 
L 4153 0 
L 847 0 
L 847 -1003 
L 316 -1003 
L 316 531 
L 538 531 
z
" transform="scale(0.015625)"/>
       <path id="DejaVuSans-443" d="M 2059 -325 
Q 1816 -950 1584 -1140 
Q 1353 -1331 966 -1331 
L 506 -1331 
L 506 -850 
L 844 -850 
Q 1081 -850 1212 -737 
Q 1344 -625 1503 -206 
L 1606 56 
L 191 3500 
L 800 3500 
L 1894 763 
L 2988 3500 
L 3597 3500 
L 2059 -325 
z
" transform="scale(0.015625)"/>
       <path id="DejaVuSans-2d" d="M 313 2009 
L 1997 2009 
L 1997 1497 
L 313 1497 
L 313 2009 
z
" transform="scale(0.015625)"/>
      </defs>
      <use xlink:href="#DejaVuSans-414"/>
      <use xlink:href="#DejaVuSans-430" x="78.125"/>
      <use xlink:href="#DejaVuSans-43c" x="139.404297"/>
      <use xlink:href="#DejaVuSans-435" x="214.84375"/>
      <use xlink:href="#DejaVuSans-440" x="276.367188"/>
      <use xlink:href="#DejaVuSans-430" x="339.84375"/>
      <use xlink:href="#DejaVuSans-443" x="401.123047"/>
      <use xlink:href="#DejaVuSans-2d" x="460.302734"/>
      <use xlink:href="#DejaVuSans-41b" x="496.386719"/>
      <use xlink:href="#DejaVuSans-435" x="571.582031"/>
      <use xlink:href="#DejaVuSans-432" x="633.105469"/>
      <use xlink:href="#DejaVuSans-435" x="692.041016"/>
      <use xlink:href="#DejaVuSans-43d" x="753.564453"/>
      <use xlink:href="#DejaVuSans-448" x="818.945312"/>
      <use xlink:href="#DejaVuSans-442" x="910.449219"/>
      <use xlink:href="#DejaVuSans-435" x="968.701172"/>
      <use xlink:href="#DejaVuSans-439" x="1030.224609"/>
      <use xlink:href="#DejaVuSans-43d" x="1095.214844"/>
     </g>
    </g>
    <g id="line2d_26">
     <path d="M 928.352187 126.867487 
L 938.352187 126.867487 
L 948.352187 126.867487 
" style="fill: none; stroke: #ffff00; stroke-width: 1.5; stroke-linecap: square"/>
    </g>
    <g id="text_25">
     <!-- Рекурсивный Дамерау-Левенштейн -->
     <g transform="translate(956.352187 130.367487) scale(0.1 -0.1)">
      <defs>
       <path id="DejaVuSans-420" d="M 1259 4147 
L 1259 2394 
L 2053 2394 
Q 2494 2394 2734 2622 
Q 2975 2850 2975 3272 
Q 2975 3691 2734 3919 
Q 2494 4147 2053 4147 
L 1259 4147 
z
M 628 4666 
L 2053 4666 
Q 2838 4666 3239 4311 
Q 3641 3956 3641 3272 
Q 3641 2581 3239 2228 
Q 2838 1875 2053 1875 
L 1259 1875 
L 1259 0 
L 628 0 
L 628 4666 
z
" transform="scale(0.015625)"/>
       <path id="DejaVuSans-43a" d="M 581 3500 
L 1153 3500 
L 1153 1856 
L 2775 3500 
L 3481 3500 
L 2144 2147 
L 3653 0 
L 3009 0 
L 1769 1766 
L 1153 1141 
L 1153 0 
L 581 0 
L 581 3500 
z
" transform="scale(0.015625)"/>
      </defs>
      <use xlink:href="#DejaVuSans-420"/>
      <use xlink:href="#DejaVuSans-435" x="60.302734"/>
      <use xlink:href="#DejaVuSans-43a" x="121.826172"/>
      <use xlink:href="#DejaVuSans-443" x="182.226562"/>
      <use xlink:href="#DejaVuSans-440" x="241.40625"/>
      <use xlink:href="#DejaVuSans-441" x="304.882812"/>
      <use xlink:href="#DejaVuSans-438" x="359.863281"/>
      <use xlink:href="#DejaVuSans-432" x="424.853516"/>
      <use xlink:href="#DejaVuSans-43d" x="483.789062"/>
      <use xlink:href="#DejaVuSans-44b" x="549.169922"/>
      <use xlink:href="#DejaVuSans-439" x="628.125"/>
      <use xlink:href="#DejaVuSans-20" x="693.115234"/>
      <use xlink:href="#DejaVuSans-414" x="724.902344"/>
      <use xlink:href="#DejaVuSans-430" x="803.027344"/>
      <use xlink:href="#DejaVuSans-43c" x="864.306641"/>
      <use xlink:href="#DejaVuSans-435" x="939.746094"/>
      <use xlink:href="#DejaVuSans-440" x="1001.269531"/>
      <use xlink:href="#DejaVuSans-430" x="1064.746094"/>
      <use xlink:href="#DejaVuSans-443" x="1126.025391"/>
      <use xlink:href="#DejaVuSans-2d" x="1185.205078"/>
      <use xlink:href="#DejaVuSans-41b" x="1221.289062"/>
      <use xlink:href="#DejaVuSans-435" x="1296.484375"/>
      <use xlink:href="#DejaVuSans-432" x="1358.007812"/>
      <use xlink:href="#DejaVuSans-435" x="1416.943359"/>
      <use xlink:href="#DejaVuSans-43d" x="1478.466797"/>
      <use xlink:href="#DejaVuSans-448" x="1543.847656"/>
      <use xlink:href="#DejaVuSans-442" x="1635.351562"/>
      <use xlink:href="#DejaVuSans-435" x="1693.603516"/>
      <use xlink:href="#DejaVuSans-439" x="1755.126953"/>
      <use xlink:href="#DejaVuSans-43d" x="1820.117188"/>
     </g>
    </g>
    <g id="line2d_27">
     <path d="M 928.352187 141.545612 
L 938.352187 141.545612 
L 948.352187 141.545612 
" style="fill: none; stroke: #0000ff; stroke-width: 1.5; stroke-linecap: square"/>
    </g>
    <g id="text_26">
     <!-- Рекурсивный Дамерау-Левенштейн с кэшированием -->
     <g transform="translate(956.352187 145.045612) scale(0.1 -0.1)">
      <defs>
       <path id="DejaVuSans-44d" d="M 353 666 
Q 847 397 1338 397 
Q 1797 397 2125 664 
Q 2453 931 2513 1613 
L 738 1613 
L 738 2072 
L 2494 2072 
Q 2456 2400 2207 2748 
Q 1959 3097 1338 3097 
Q 856 3097 353 2828 
L 353 3366 
Q 844 3584 1363 3584 
Q 2181 3584 2651 3089 
Q 3122 2594 3122 1747 
Q 3122 903 2664 406 
Q 2206 -91 1403 -91 
Q 813 -91 353 134 
L 353 666 
z
" transform="scale(0.015625)"/>
      </defs>
      <use xlink:href="#DejaVuSans-420"/>
      <use xlink:href="#DejaVuSans-435" x="60.302734"/>
      <use xlink:href="#DejaVuSans-43a" x="121.826172"/>
      <use xlink:href="#DejaVuSans-443" x="182.226562"/>
      <use xlink:href="#DejaVuSans-440" x="241.40625"/>
      <use xlink:href="#DejaVuSans-441" x="304.882812"/>
      <use xlink:href="#DejaVuSans-438" x="359.863281"/>
      <use xlink:href="#DejaVuSans-432" x="424.853516"/>
      <use xlink:href="#DejaVuSans-43d" x="483.789062"/>
      <use xlink:href="#DejaVuSans-44b" x="549.169922"/>
      <use xlink:href="#DejaVuSans-439" x="628.125"/>
      <use xlink:href="#DejaVuSans-20" x="693.115234"/>
      <use xlink:href="#DejaVuSans-414" x="724.902344"/>
      <use xlink:href="#DejaVuSans-430" x="803.027344"/>
      <use xlink:href="#DejaVuSans-43c" x="864.306641"/>
      <use xlink:href="#DejaVuSans-435" x="939.746094"/>
      <use xlink:href="#DejaVuSans-440" x="1001.269531"/>
      <use xlink:href="#DejaVuSans-430" x="1064.746094"/>
      <use xlink:href="#DejaVuSans-443" x="1126.025391"/>
      <use xlink:href="#DejaVuSans-2d" x="1185.205078"/>
      <use xlink:href="#DejaVuSans-41b" x="1221.289062"/>
      <use xlink:href="#DejaVuSans-435" x="1296.484375"/>
      <use xlink:href="#DejaVuSans-432" x="1358.007812"/>
      <use xlink:href="#DejaVuSans-435" x="1416.943359"/>
      <use xlink:href="#DejaVuSans-43d" x="1478.466797"/>
      <use xlink:href="#DejaVuSans-448" x="1543.847656"/>
      <use xlink:href="#DejaVuSans-442" x="1635.351562"/>
      <use xlink:href="#DejaVuSans-435" x="1693.603516"/>
      <use xlink:href="#DejaVuSans-439" x="1755.126953"/>
      <use xlink:href="#DejaVuSans-43d" x="1820.117188"/>
      <use xlink:href="#DejaVuSans-20" x="1885.498047"/>
      <use xlink:href="#DejaVuSans-441" x="1917.285156"/>
      <use xlink:href="#DejaVuSans-20" x="1972.265625"/>
      <use xlink:href="#DejaVuSans-43a" x="2004.052734"/>
      <use xlink:href="#DejaVuSans-44d" x="2064.453125"/>
      <use xlink:href="#DejaVuSans-448" x="2119.335938"/>
      <use xlink:href="#DejaVuSans-438" x="2210.839844"/>
      <use xlink:href="#DejaVuSans-440" x="2275.830078"/>
      <use xlink:href="#DejaVuSans-43e" x="2339.306641"/>
      <use xlink:href="#DejaVuSans-432" x="2400.488281"/>
      <use xlink:href="#DejaVuSans-430" x="2459.423828"/>
      <use xlink:href="#DejaVuSans-43d" x="2520.703125"/>
      <use xlink:href="#DejaVuSans-438" x="2586.083984"/>
      <use xlink:href="#DejaVuSans-435" x="2651.074219"/>
      <use xlink:href="#DejaVuSans-43c" x="2712.597656"/>
     </g>
    </g>
   </g>
  </g>
 </g>
 <defs>
  <clipPath id="p8b611cc496">
   <rect x="172.8" y="84.4128" width="1071.36" height="541.6488"/>
  </clipPath>
 </defs>
</svg>
